<?xml version="1.0" encoding="utf-8"?>
<!-- Generator: Adobe Illustrator 18.0.0, SVG Export Plug-In . SVG Version: 6.00 Build 0)  -->
<!DOCTYPE svg PUBLIC "-//W3C//DTD SVG 1.1//EN" "http://www.w3.org/Graphics/SVG/1.1/DTD/svg11.dtd">
<svg version="1.1" id="Layer_1" xmlns="http://www.w3.org/2000/svg" xmlns:xlink="http://www.w3.org/1999/xlink" x="0px" y="0px"
	 viewBox="0 0 344.4 31.1" enable-background="new 0 0 344.4 31.1" xml:space="preserve">
<g id="bac_x5F_credomatic.svg">
	<path fill="#FFFFFF" d="M21.3,0.4C16.4,1.8,11.2,6.1,8,11.8c-3,4.9-6.5,10.1-7,10.8c-0.6,0.8-0.9,1.5-1,2c-0.1,0.7,0.2,1.1,0.7,1.4
		c1.6,1,3.9,1.6,6.7,1.5c1.4-0.1,2.3-0.4,3.1-1.1c0,0.1-0.3,0.6-0.3,0.8c0,0.1,0,0.2,0,0.3c0.1,0.6,0.7,0.9,1.2,1.2
		c1.2,0.6,4.4,1.2,7.1,0.9c0.7-0.1,1.4-0.7,1.9-1.5c0,1,0.3,1.6,1.2,2.1c2.5,1.2,8.3,0.8,9.6-0.1c0.4-0.3,0.7-0.8,0.7-1.3
		c0.1,0.1,0.3,0.2,0.4,0.3l0.1,0c0,0,0,0,0,0c2.4,1.2,6.2,0.4,7.6-0.6c0.8-0.6,0.9-1.3,0.8-1.7c-0.1-0.4-0.4-0.8-0.8-1l-0.1,0
		c0,0-0.9-0.6-0.9-0.6c-0.4-0.3-1.4-0.9-1.6-1.5c0,0,0-0.1,0-0.1c0.1-0.2,0.7-0.4,1.9,0.3c0.2,0.2,0.4,0.3,0.5,0.4
		c-0.2-0.2,0.5,0.5,1.1,0.4c0.4-0.1,0.6-0.2,0.8-0.3c1.1-0.6,2.7-2.4,2.7-4.7l0-0.3c0,0,0-0.1,0-0.1c0.9-1,1.2-2.2,1.4-3.1
		c0,0,0-0.3,0-0.3c0-0.3,0.1-1.1,0.5-1.9l0-0.1c0.2-0.3,0.2-0.6,0.2-0.9c0-0.5-0.2-0.8-0.6-1.2l0,0c-0.1-0.1-0.2-0.2-0.8-0.6v0v0
		c-0.8-0.6-1.6-1-2.4-1.3l0,0c0,0-3.2-1.3-3.2-1.4c-0.4-0.2-0.4-0.4-0.4-0.4C39.2,7.6,39,7.3,38.7,7c-0.1-0.1-0.5-0.4-0.7-0.6
		c-1.4-1.1-4.3-2.8-4.6-3.1c-0.1-0.1-0.6-0.6-0.7-1l0-0.1c0,0,0-0.1,0-0.1C32.2,1.1,31,0.7,30,0.7h0c-0.9,0.1-1.8,0-3-0.3
		C25.3-0.1,23.2-0.2,21.3,0.4L21.3,0.4z"/>
	<path fill="#414042" d="M30.8,28.7c-0.1-0.1-0.5-1-0.7-1.2c-1.1-2.2-1-3.7-1-3.7c0.1-1.8,0.7-3.5,1.3-5.2c0.2-0.7-0.3-1.3-0.6-1.8
		c-0.4-0.6-0.5-1.3-0.5-2c0-0.4,0.2-0.8,0.1-1.2c0-0.2-0.2-0.2-0.2-0.2c-0.8-0.3-2.2,0.1-3.7,1.6c-2.1,2.2-2.7,5.2-3.9,12.4
		c-0.3,1.6-0.1,1.7,0.7,2.1c2.2,1.1,7.6,0.6,8.4,0C30.9,29.2,31,28.9,30.8,28.7L30.8,28.7z"/>
	<path fill="#414042" d="M45.5,12.5c-0.1-0.1-0.7-0.5-0.7-0.5c-0.7-0.5-1.4-0.9-2.2-1.2c-3.6-1.5-3.5-1.4-3.7-1.5
		c-0.2-0.1-0.5-0.3-0.6-0.6c-0.2-0.5-0.4-1-0.6-1.2c0-0.1-0.2-0.2-0.6-0.5c-1.4-1.2-4.3-2.8-4.3-2.8c-0.3-0.2-0.9-0.7-1.2-1.7
		c-0.2-0.6-1-0.8-1.6-0.8c-1.2,0.1-2.2-0.1-3.3-0.3c-1.6-0.6-3.6-0.5-5.2-0.1c-5,1.4-9.8,6.1-12.6,11.2c0,0-6.5,10.2-7.4,11.4
		c-0.7,0.9,0.1,1.2,0.4,1.4c1.2,0.7,2.9,1.1,5.6,1c2.8,0.1,3.3-1.3,4.4-3.8c0.3-0.7,1.2-2.8,1.2-2.8c0.5-1.2,1.2-2.9,2.1-4.9
		c1.9-4.3,4.5-6.7,6.7-7.9c0,0,3-1.7,5.8-0.8c0.5,0.2,0.8-0.4,1-0.7c0.3-0.4,0.7-0.6,1-0.7c0.7-0.2,1.8,0.4,1.8,0.4
		c1.7,0.9,2.8,1.5,4.4,2.8c0,0,0.1,0.1,0.2,0.2c0.1,0.2,0.7,1.5,0.7,1.5s0.1,0.2,0.4,0.3c0.2,0.1,4.1,1.7,4.1,1.7
		c0.6,0.3,2.1,0.9,2.9,1.5c0.1,0.1,0.2,0.1,0.1,0.3L44,14.2c-0.2,0.7,0,2.1-0.8,3.2c-0.1,0.2-0.4,0.3-0.6,0.3
		c-0.5-0.1-1-0.1-1.6-0.1c-0.4,0-0.9,0.1-1.3,0.4c-0.2,0.2-0.3,0.4-0.2,0.6c0.1,0.2,0.3,0.1,0.3,0.1c0.2-0.1,0.6-0.2,0.9-0.2
		c0.5,0,1.2,0.2,1.4,0.6c0.2,0.3,0.2,0.6,0.1,1c-0.1,1.1-0.9,1.8-1.1,2c-0.1,0-0.2,0.1-0.3,0c-0.4-0.2-1.4-0.6-2-0.7
		c-0.1,0-0.1,0-0.2,0c-2.2,0.2-4.4,0.1-6.2-1.1c-0.4-0.2-0.9-1.1-1.3-0.4c-0.5,1.5-0.9,3-0.6,4.6c0.1,0.7,0.7,3,2.3,3.9
		c2.5,1.3,7.1-0.2,6.9-1.2c0,0,0-0.1-0.2-0.2c-0.1-0.1-0.4-0.2-1-0.6l0,0c-0.6-0.4-1.6-1.1-2-2.1c-0.4-1,0.6-2.4,3.4-1.1
		c0,0,0.5,0.2,0.7,0.5c0.1,0.1,0.1,0.1,0.3,0.1c0.2,0,0.4-0.1,0.4-0.1c0.8-0.5,2.6-2.2,2.1-4.5c0.9-0.8,1.2-1.7,1.4-2.9
		c0-0.2,0.1-1.3,0.6-2.5C45.7,13.3,46,12.9,45.5,12.5L45.5,12.5z"/>
	<path fill="#414042" d="M33.8,10.8c0.5,0,0.8,0,1.1,0.1c0.3,0.1,0.6,0.4,0.9,0.8c0.1,0.1,0.3,0.4,0.5,0.2c0.1-0.1,0.2-0.4,0.3-0.6
		c0-0.3,0.1-0.7-0.2-1c0,0,0,0-0.1,0c-0.1,0-0.8-0.3-0.8-0.3c-0.1-0.1-0.2-0.1-0.3-0.1c-0.7,0-1.5,0.2-1.8,0.3
		c-0.4,0.1-0.2,0.4-0.2,0.4C33.4,10.7,33.4,10.8,33.8,10.8L33.8,10.8z"/>
	<path fill="#414042" d="M29.1,9.6c-0.1-0.2-1-1.7-1.1-1.9c0,0,0,0,0,0c-0.5-0.7-2.3-0.5-2.8-0.5c-1.8,0.1-6.1,2-8.8,8.2
		c-2.7,6-3.4,8.2-3.4,8.2c-0.3,0.6-0.4,1.1-1.5,2.9c-0.6,0.8,0.3,1.2,0.4,1.3c1,0.5,3.9,1.1,6.5,0.8h0c0.6-0.1,1.7-0.6,2.4-4.5
		c0-0.2,0.1-0.3,0.1-0.4c0.4-2,0.7-3.5,1.1-4.9c0.6-2.2,1.5-3.7,2.6-4.8c1.2-1.1,2.9-2.1,4.8-1.9c0.2,0,0.5-0.1,0.4-0.5
		C29.7,10.8,29.5,10.2,29.1,9.6L29.1,9.6z"/>
	<rect x="130.5" y="1" fill="#F1F2F2" width="1.1" height="30"/>
	<path fill="#F1F2F2" d="M117.6,24.9c-0.2,0.3-0.3,0.6-0.6,0.7c-0.7,0.4-2.9,0.8-5.6,0.8c-6.5,0-11-4.3-11-10.5
		c0-5.6,4.7-10.2,10.9-10.2c3.4,0,5.8,1.2,6.7,1.7c0.2,0.1,0.2,0.3,0.2,0.5v1.8c0,0.1-0.1,0.2-0.2,0.3l-0.8,0.5
		c-0.4,0.3-1.4-3.1-6-3.1c-4.3,0-6.6,3.4-6.6,8.1c0,5.7,3.3,8.9,7.2,8.9c1.9,0,4.1-0.5,5.7-2c0.4-0.4,1.1,0,0.8,0.4L117.6,24.9z"/>
	<path fill="#F1F2F2" d="M84.9,18.4l3-7.7l2.9,7.7H84.9z M98.9,24.6c-1.4-0.4-1.6-0.5-2.1-1.9c-1.9-4.4-4.3-10.2-6.2-15.9
		C90.4,6.4,90.2,6,89.8,6h-4.9c-0.3,0-0.6,0-0.7,0.3L84,6.8C83.6,7.6,85,7.4,85.6,8c0.3,0.3,1,0.8,0.5,2.2l-4.9,12.6
		c-0.6,1.4-0.8,1.6-2,1.9c-0.4,0.1-0.7,0.2-0.7,0.4l-0.1,0.4c-0.3,0.7,0.3,0.5,0.9,0.5h4.4c0.4,0,0.5-0.3,0.6-0.5l0.2-0.3
		c0.4-0.7-1.9-0.4-1.3-1.9l1.3-3.3h7.2l2.1,5.6c0.1,0.2,0.3,0.4,0.6,0.4h4c0.3,0,0.5,0,0.7-0.3l0.3-0.6
		C99.3,24.9,99.2,24.7,98.9,24.6L98.9,24.6"/>
	<path fill="#F1F2F2" d="M160.5,24.9c-0.2,0.3-0.3,0.6-0.6,0.7c-0.7,0.4-2.9,0.8-5.6,0.8c-6.5,0-11-4.3-11-10.5
		c0-5.6,4.7-10.2,10.9-10.2c3.4,0,5.8,1.2,6.7,1.7c0.2,0.1,0.2,0.3,0.2,0.5v1.8c0,0.1-0.1,0.2-0.2,0.3l-0.8,0.5
		c-0.4,0.3-1.4-3.1-6-3.1c-4.3,0-6.6,3.4-6.6,8.1c0,5.7,3.3,8.9,7.2,8.9c1.9,0,4.1-0.5,5.7-2c0.4-0.4,1.1,0,0.8,0.4L160.5,24.9z"/>
	<path fill="#F1F2F2" d="M182.2,25.1c-1.1-0.7-3.5-3.9-6-8.3c2.7-1.2,3.9-3.6,3.9-5.8c0-3.4-2.7-4.9-5.3-4.9h-9.9
		c-0.2,0-0.4,0.1-0.5,0.3l-0.2,0.5c-0.1,0.3,0.1,0.4,0.5,0.5c1.2,0.2,1.8,0.7,1.8,1.9V23c0,1.1-0.7,1.5-1.5,1.7
		c-0.2,0.1-0.4,0.1-0.5,0.4l-0.2,0.5c-0.1,0.4,0.1,0.5,0.4,0.5h7.3c0.3,0,0.4-0.1,0.5-0.2l0.2-0.6c0.1-0.2,0.1-0.5-0.3-0.5
		c-1.4-0.3-1.8-0.5-1.8-1.7v-5.6h2.1l4.5,8c0.1,0.2,0.3,0.7,0.8,0.7h4.3V25.1z M170.5,7.6h2.3c1.8,0,3.1,0.8,3.1,3.7
		c0.1,3.1-1.7,4.6-3.7,4.6h-1.8V7.6"/>
	<path fill="#F1F2F2" d="M189.1,14.4h6.6c0.4,0,0.6,0.2,0.4,0.4l-0.5,0.9c-0.2,0.3-0.5,0.4-0.9,0.4h-5.5v5.5c0,2.2,0.5,2.7,2.1,2.7
		h2.3c2.8,0,3.2-2.4,3.6-2.3l0.7,0.2c0.1,0,0.2,0.1,0.2,0.3v2.8c0,0.5-0.5,0.7-1.3,0.7h-8.8c-2.2,0-2.8,0-2.8-2V9.3
		c0-1.2-0.6-1.7-1.8-1.9c-0.4-0.1-0.7-0.2-0.5-0.5l0.2-0.5c0.1-0.2,0.3-0.3,0.5-0.3h12.5c0.5,0,0.9,0.3,0.8,0.7V9
		c0,0.1-0.1,0.2-0.1,0.3l-0.5,0.4c-0.4,0.3-0.9-2-2.8-2h-4.2V14.4z"/>
	<path fill="#F1F2F2" d="M202.2,24.2c0,0.9,0.3,1.3,0.8,1.5c1.5,0.5,3.3,0.7,6.9,0.7c6.3,0,10.8-4.9,10.8-10.8
		c0-5.8-2.6-9.5-10.7-9.5h-9.4c-0.2,0-0.4,0.1-0.5,0.3l-0.2,0.5c-0.1,0.3,0.1,0.4,0.5,0.5c1.2,0.2,1.8,0.7,1.8,1.9V24.2z M206.2,7.8
		h3.3c4.5,0,6.9,2.2,6.9,7.9c0,5.1-2.1,9-6.5,9c-2.2,0-3.6-0.5-3.6-2.7V7.8"/>
	<path fill="#F1F2F2" d="M234.6,5.7c-5.9,0-11,4.2-11,10.6c0,6.3,4.9,10.1,10,10.1c6.7,0,10.9-5.1,10.9-10.7
		C244.4,10.3,240.3,5.7,234.6,5.7L234.6,5.7z M234,7.6c3.1,0,6.1,2.5,6.1,8.5c0,3.7-1.7,8.5-6,8.5c-3.5,0-6.2-2.9-6.2-9.2
		C227.9,12.5,229.2,7.6,234,7.6L234,7.6"/>
	<path fill="#F1F2F2" d="M271.8,23c0,1.2,0.4,1.4,1.8,1.7c0.4,0.1,0.4,0.3,0.3,0.5l-0.2,0.6c-0.1,0.1-0.2,0.2-0.5,0.2H266
		c-0.2,0-0.5-0.1-0.4-0.5l0.2-0.5c0.1-0.3,0.3-0.3,0.5-0.4c0.7-0.1,1.5-0.6,1.5-1.7l-1-11.5h-0.1L260,25.4c-0.2,0.4-0.3,0.6-0.5,0.6
		h-0.8c-0.2,0-0.4-0.4-0.6-0.9l-6.3-13.6h-0.1L250.2,23c0,1.2,0.4,1.4,1.8,1.7c0.4,0.1,0.4,0.3,0.3,0.5l-0.2,0.6
		c-0.1,0.1-0.2,0.2-0.5,0.2h-5.2c-0.2,0-0.5-0.1-0.4-0.5l0.2-0.5c0.1-0.3,0.3-0.3,0.5-0.4c0.7-0.1,1.5-0.6,1.5-1.7l1.3-13.2
		c0.1-0.6-0.4-1-0.6-1.2c-0.6-0.7-1.3-1-1.7-1.1c-0.6-0.1-0.6-0.3-0.5-0.6l0.2-0.6c0.1-0.1,0.2-0.2,0.5-0.2h4.5c1,0,1.1,0.1,1.6,1.2
		l6.4,13.6L267,7c0.4-0.8,0.8-0.9,1.2-0.9h4.5c0.3,0,0.5,0.1,0.4,0.5L273,7.1c-0.1,0.3-0.4,0.4-0.7,0.5c-0.9,0.2-1.4,0.5-1.4,1.8
		L271.8,23z"/>
	<path fill="#F1F2F2" d="M306.2,23c0,1.2,0.4,1.4,1.8,1.7c0.4,0.1,0.4,0.3,0.3,0.5l-0.2,0.6c-0.1,0.1-0.2,0.2-0.5,0.2h-7.3
		c-0.2,0-0.5-0.1-0.4-0.5l0.2-0.5c0.1-0.3,0.3-0.3,0.5-0.4c0.7-0.1,1.5-0.6,1.5-1.7V8h-6.6c-0.4,0-0.8-0.1-0.4-0.6l0.6-1
		c0.3-0.3,0.5-0.4,1-0.4h16.1c0.4,0,0.8,0.1,0.4,0.6l-0.6,1c-0.3,0.3-0.5,0.4-1,0.4h-5.5V23z"/>
	<path fill="#F1F2F2" d="M317.8,9.1c0-1.2-0.4-1.4-1.8-1.7c-0.4-0.1-0.4-0.3-0.3-0.5l0.2-0.6c0.1-0.1,0.2-0.2,0.5-0.2h7.3
		c0.2,0,0.5,0.1,0.4,0.5L323.9,7c-0.1,0.3-0.3,0.4-0.5,0.4c-0.7,0.1-1.5,0.6-1.5,1.7V23c0,1.2,0.4,1.4,1.8,1.7
		c0.4,0.1,0.4,0.3,0.3,0.5l-0.2,0.6c-0.1,0.1-0.2,0.2-0.5,0.2H316c-0.2,0-0.5-0.1-0.4-0.5l0.2-0.5c0.1-0.3,0.4-0.3,0.5-0.4
		c0.7-0.1,1.5-0.6,1.5-1.7V9.1z"/>
	<path fill="#F1F2F2" d="M343.5,24.9c-0.2,0.3-0.3,0.6-0.6,0.7c-0.7,0.4-2.9,0.8-5.6,0.8c-6.5,0-11-4.3-11-10.5
		c0-5.6,4.7-10.2,10.9-10.2c3.4,0,5.8,1.2,6.7,1.7c0.2,0.1,0.2,0.3,0.2,0.5v1.8c0,0.1-0.1,0.2-0.2,0.3l-0.8,0.5
		c-0.4,0.3-1.4-3.1-6-3.1c-4.3,0-6.6,3.4-6.6,8.1c0,5.7,3.3,8.9,7.2,8.9c1.9,0,4.1-0.5,5.7-2c0.4-0.4,1.1,0,0.8,0.4L343.5,24.9z"/>
	<path fill="#F1F2F2" d="M282.8,18.4l3-7.7l2.9,7.7H282.8z M296.7,24.6c-1.4-0.4-1.6-0.5-2.1-1.9c-1.9-4.4-4.3-10.2-6.2-15.9
		C288.2,6.4,288,6,287.6,6h-4.9c-0.3,0-0.6,0-0.7,0.3l-0.1,0.5c-0.4,0.7,0.9,0.5,1.6,1.1c0.3,0.3,1,0.8,0.5,2.2L279,22.8
		c-0.6,1.4-0.8,1.6-2,1.9c-0.4,0.1-0.7,0.2-0.7,0.4l-0.1,0.4c-0.2,0.7,0.3,0.5,0.9,0.5h4.4c0.4,0,0.5-0.3,0.6-0.5l0.2-0.3
		c0.4-0.7-1.9-0.4-1.3-1.9l1.3-3.3l7.2,0l2.1,5.6c0.1,0.2,0.3,0.4,0.6,0.4h4c0.3,0,0.5,0,0.7-0.3l0.3-0.6
		C297.2,24.9,297,24.7,296.7,24.6L296.7,24.6"/>
	<path fill="#F1F2F2" d="M66.2,7.6h1.7c2.4,0,3.7,0.6,3.7,3.3c0,1.9-1.3,3.7-3.6,3.7h-1.8V7.6z M60.6,6c-0.2,0-0.4,0.1-0.5,0.3
		l-0.2,0.5c-0.1,0.3,0.1,0.4,0.5,0.5c1.2,0.2,1.8,0.7,1.8,1.9v14.9c0,0.9,0.3,1.3,0.8,1.5c1.5,0.5,3.4,0.7,6.1,0.7c4,0,8-1.7,8-6.1
		c0-1.9-1.4-4.9-5.5-5.3V15c2.5-0.9,4.1-2.5,4-4.6C75.5,7.1,72.8,6,69.9,6H60.6 M66.2,16.1H68c2.9,0,4.6,1.7,4.6,4.3
		c0.1,2.7-1.3,4.4-3.6,4.4c-1.8,0-2.7-0.6-2.7-2.6V16.1"/>
</g>
<g>
</g>
<g>
</g>
<g>
</g>
<g>
</g>
<g>
</g>
<g>
</g>
<g>
</g>
<g>
</g>
<g>
</g>
<g>
</g>
<g>
</g>
<g>
</g>
<g>
</g>
<g>
</g>
<g>
</g>
</svg>
