<?xml version="1.0" encoding="utf-8"?>
<!-- Generator: Adobe Illustrator 18.0.0, SVG Export Plug-In . SVG Version: 6.00 Build 0)  -->
<!DOCTYPE svg PUBLIC "-//W3C//DTD SVG 1.1//EN" "http://www.w3.org/Graphics/SVG/1.1/DTD/svg11.dtd">
<svg version="1.1" id="Layer_1" xmlns="http://www.w3.org/2000/svg" xmlns:xlink="http://www.w3.org/1999/xlink" x="0px" y="0px"
	 viewBox="0 0 16 16" enable-background="new 0 0 16 16" xml:space="preserve">
<path fill="#FFFFFF" d="M14.7,5.9l-1.2,0l-0.3-0.5L14,4.6c0.2-0.2,0.3-0.5,0.3-0.8c0-0.3-0.1-0.6-0.3-0.8l-1.2-1.2
	c-0.2-0.2-0.5-0.3-0.8-0.3c-0.3,0-0.6,0.1-0.8,0.3l-0.7,0.8L10,2.4V1.3C10,0.7,9.3,0,8.7,0H7C6.4,0,5.9,0.6,5.9,1.2l0,1.1L5.4,2.6
	L4.6,1.8C4.2,1.4,3.4,1.4,3,1.8L1.8,3C1.6,3.2,1.5,3.5,1.5,3.8c0,0.3,0.1,0.6,0.3,0.8l0.8,0.8L2.3,6H1.2C0.6,6,0,6.4,0,7.1v1.7
	c0,0.6,0.6,1.1,1.2,1.1l1.1,0l0.2,0.5l-0.8,0.8c-0.2,0.2-0.3,0.5-0.3,0.8c0,0.3,0.1,0.6,0.3,0.8L3,14c0.4,0.4,1.2,0.4,1.6,0l0.8-0.8
	L6,13.4v1.1C6,15.1,6.4,16,7,16h1.7c0.6,0,1.1-0.7,1.1-1.3l0-1.2l0.5-0.3l0.8,0.8c0.4,0.4,1.2,0.4,1.6,0l1.2-1.2
	c0.2-0.2,0.3-0.5,0.3-0.8c0-0.3-0.1-0.6-0.3-0.8l-0.8-0.7l0.2-0.5h1.1c0.6,0,1.5-0.6,1.5-1.2V7.1C16,6.4,15.3,5.9,14.7,5.9z
	 M7.9,11.5c-2,0-3.6-1.6-3.6-3.6c0-2,1.6-3.6,3.6-3.6c2,0,3.6,1.6,3.6,3.6C11.4,9.9,9.8,11.5,7.9,11.5z"/>
<g>
</g>
<g>
</g>
<g>
</g>
<g>
</g>
<g>
</g>
<g>
</g>
<g>
</g>
<g>
</g>
<g>
</g>
<g>
</g>
<g>
</g>
<g>
</g>
<g>
</g>
<g>
</g>
<g>
</g>
</svg>
