<?xml version="1.0" encoding="utf-8"?>
<!-- Generator: Adobe Illustrator 18.0.0, SVG Export Plug-In . SVG Version: 6.00 Build 0)  -->
<!DOCTYPE svg PUBLIC "-//W3C//DTD SVG 1.1//EN" "http://www.w3.org/Graphics/SVG/1.1/DTD/svg11.dtd">
<svg version="1.1" id="Layer_1" xmlns="http://www.w3.org/2000/svg" xmlns:xlink="http://www.w3.org/1999/xlink" x="0px" y="0px"
	 viewBox="0 0 22.8 21.9" enable-background="new 0 0 22.8 21.9" xml:space="preserve">
<g>
	<g>
		<g>
			<path fill="#00A69C" d="M1,21.9c-0.3,0-0.5-0.1-0.7-0.3C0.1,21.4,0,21.1,0,20.8l0.3-5c0-0.2,0.1-0.5,0.3-0.6L15.5,0.3
				C15.7,0.1,15.9,0,16.2,0l0,0c0.3,0,0.5,0.1,0.7,0.3L21.6,5c0.2,0.2,0.3,0.4,0.3,0.7c0,0.3-0.1,0.5-0.3,0.7L6.7,21.3
				c-0.2,0.2-0.4,0.3-0.6,0.3L1,21.9C1,21.9,1,21.9,1,21.9L1,21.9z M2.2,16.3L2,19.8l3.5-0.2L19.5,5.7l-3.3-3.3L2.2,16.3L2.2,16.3z"
				/>
		</g>
		<g>
			<path fill="#00A69C" d="M18.2,8.9c-0.3,0-0.5-0.1-0.7-0.3l-4.2-4.2c-0.4-0.4-0.4-1,0-1.4c0.4-0.4,1-0.4,1.4,0l4.2,4.2
				c0.4,0.4,0.4,1,0,1.4C18.7,8.8,18.5,8.9,18.2,8.9L18.2,8.9z"/>
		</g>
		<g>
			<path fill="#00A69C" d="M4.4,18.4c-0.3,0-0.5-0.1-0.7-0.3c-0.4-0.4-0.4-1,0-1.4L15.3,5.1c0.4-0.4,1-0.4,1.4,0
				c0.4,0.4,0.4,1,0,1.4L5.1,18.2C4.9,18.3,4.7,18.4,4.4,18.4L4.4,18.4z"/>
		</g>
		<path fill="#00A69C" d="M1.5,18.4c-0.1,0-0.1,0-0.2,0c-0.1,0-0.1,0-0.2,0L1,20.9l2.3-0.1c0-0.1,0-0.2,0.1-0.3
			C3.5,19.3,2.7,18.4,1.5,18.4L1.5,18.4z"/>
	</g>
	<g>
		<path fill="#00A69C" d="M21.9,21.7h-11c-0.5,0-1-0.4-1-1c0-0.5,0.4-1,1-1h11c0.5,0,1,0.4,1,1C22.8,21.3,22.4,21.7,21.9,21.7
			L21.9,21.7z"/>
	</g>
</g>
<g>
</g>
<g>
</g>
<g>
</g>
<g>
</g>
<g>
</g>
<g>
</g>
<g>
</g>
<g>
</g>
<g>
</g>
<g>
</g>
<g>
</g>
<g>
</g>
<g>
</g>
<g>
</g>
<g>
</g>
</svg>
