<?xml version="1.0" encoding="utf-8"?>
<!-- Generator: Adobe Illustrator 18.0.0, SVG Export Plug-In . SVG Version: 6.00 Build 0)  -->
<!DOCTYPE svg PUBLIC "-//W3C//DTD SVG 1.1//EN" "http://www.w3.org/Graphics/SVG/1.1/DTD/svg11.dtd">
<svg version="1.1" id="Layer_1" xmlns="http://www.w3.org/2000/svg" xmlns:xlink="http://www.w3.org/1999/xlink" x="0px" y="0px"
	 viewBox="0 0 12.9 12.9" enable-background="new 0 0 12.9 12.9" xml:space="preserve">
<g id="expand-arrow.svg">
	<g>
		<g>
			<path fill="#282827" d="M12.9,6.4c0,1.7-0.7,3.3-1.9,4.6c-2.5,2.5-6.6,2.5-9.1,0C0.7,9.8,0,8.2,0,6.4c0-1.7,0.7-3.3,1.9-4.6
				c2.5-2.5,6.6-2.5,9.1,0C12.2,3.1,12.9,4.7,12.9,6.4L12.9,6.4z M1.1,6.4c0,1.4,0.6,2.8,1.6,3.8c2.1,2.1,5.5,2.1,7.6,0
				c1-1,1.6-2.4,1.6-3.8c0-1.4-0.6-2.8-1.6-3.8c-2.1-2.1-5.5-2.1-7.6,0C1.7,3.7,1.1,5,1.1,6.4L1.1,6.4z"/>
		</g>
		<g>
			<path fill="#282827" d="M8.3,6.4c0,0.1-0.1,0.3-0.2,0.4L5.5,9.5c-0.2,0.2-0.6,0.2-0.8,0c-0.2-0.2-0.2-0.6,0-0.8L7,6.4L4.7,4.2
				C4.5,4,4.5,3.6,4.7,3.4c0.2-0.2,0.6-0.2,0.8,0l2.6,2.6C8.3,6.2,8.3,6.3,8.3,6.4L8.3,6.4z"/>
		</g>
	</g>
</g>
<g>
</g>
<g>
</g>
<g>
</g>
<g>
</g>
<g>
</g>
<g>
</g>
<g>
</g>
<g>
</g>
<g>
</g>
<g>
</g>
<g>
</g>
<g>
</g>
<g>
</g>
<g>
</g>
<g>
</g>
</svg>
