<?xml version="1.0" encoding="utf-8"?>
<!-- Generator: Adobe Illustrator 18.0.0, SVG Export Plug-In . SVG Version: 6.00 Build 0)  -->
<!DOCTYPE svg PUBLIC "-//W3C//DTD SVG 1.1//EN" "http://www.w3.org/Graphics/SVG/1.1/DTD/svg11.dtd">
<svg version="1.1" id="Layer_1" xmlns="http://www.w3.org/2000/svg" xmlns:xlink="http://www.w3.org/1999/xlink" x="0px" y="0px"
	 viewBox="0 0 612 792" enable-background="new 0 0 612 792" xml:space="preserve">
<g>
	<g>
		<path fill="#26A9E0" d="M587.8,702H27.3C12.1,702,0,689.9,0,674.7V117.3C0,102.1,12.1,90,27.3,90H306c15.1,0,24.2,12.1,24.2,27.3
			s-12.1,24.2-24.2,24.2H51.5v509h509V396c0-15.1,12.1-27.3,24.2-27.3c15.1,0,27.3,12.1,27.3,27.3v278.7
			C612,692.9,602.9,702,587.8,702L587.8,702z"/>
	</g>
	<g>
		<g>
			<path fill="#26A9E0" d="M587.8,293c-15.1,0-24.2-12.1-24.2-27.3V138.5H436.3c-15.1,0-24.2-12.1-24.2-24.2
				c0-15.1,12.1-24.2,24.2-24.2l0,0h151.5c15.1,0,27.3,12.1,27.3,24.2v151.5C612,283.9,602.9,293,587.8,293L587.8,293L587.8,293z"/>
		</g>
		<g>
			<path fill="#26A9E0" d="M345.4,383.9c-6.1,0-12.1-3-18.2-6.1c-9.1-9.1-9.1-27.3,0-36.4l221.2-221.2c9.1-9.1,27.3-9.1,36.4,0
				c9.1,9.1,9.1,27.3,0,36.4L363.6,374.8C360.5,380.9,351.4,383.9,345.4,383.9L345.4,383.9z"/>
		</g>
	</g>
</g>
</svg>
