<?xml version="1.0" encoding="utf-8"?>
<!-- Generator: Adobe Illustrator 18.0.0, SVG Export Plug-In . SVG Version: 6.00 Build 0)  -->
<!DOCTYPE svg PUBLIC "-//W3C//DTD SVG 1.1//EN" "http://www.w3.org/Graphics/SVG/1.1/DTD/svg11.dtd">
<svg version="1.1" id="Layer_1" xmlns="http://www.w3.org/2000/svg" xmlns:xlink="http://www.w3.org/1999/xlink" x="0px" y="0px"
	 viewBox="0 0 165 57" enable-background="new 0 0 165 57" xml:space="preserve">
<g>
	<rect x="0" y="0" fill="#1B75BB" width="165" height="57"/>
	<rect x="0" y="14" fill="#FFFFFF" width="165" height="29.1"/>
</g>
<g>
	<polygon fill="#1B75BB" points="100.5,17.8 101.8,20.4 104.7,20.8 102.6,22.9 103.1,25.8 100.5,24.4 97.9,25.8 98.4,22.9 
		96.3,20.8 99.2,20.4 	"/>
	<polygon fill="#1B75BB" points="121.8,23.6 123.1,26.2 126,26.6 123.9,28.6 124.4,31.5 121.8,30.2 119.2,31.5 119.7,28.6 
		117.6,26.6 120.5,26.2 	"/>
	<polygon fill="#1B75BB" points="100.5,30.1 101.8,32.7 104.7,33.1 102.6,35.1 103.1,38 100.5,36.7 97.9,38 98.4,35.1 96.3,33.1 
		99.2,32.7 	"/>
	<polygon fill="#1B75BB" points="142.6,17.8 143.9,20.4 146.7,20.8 144.7,22.9 145.2,25.8 142.6,24.4 140,25.8 140.5,22.9 
		138.4,20.8 141.3,20.4 	"/>
	<polygon fill="#1B75BB" points="142.6,30.1 143.9,32.7 146.7,33.1 144.7,35.1 145.2,38 142.6,36.7 140,38 140.5,35.1 138.4,33.1 
		141.3,32.7 	"/>
</g>
<g>
</g>
<g>
</g>
<g>
</g>
<g>
</g>
<g>
</g>
<g>
</g>
<g>
</g>
<g>
</g>
<g>
</g>
<g>
</g>
<g>
</g>
<g>
</g>
<g>
</g>
<g>
</g>
<g>
</g>
</svg>
