<?xml version="1.0" encoding="utf-8"?>
<!-- Generator: Adobe Illustrator 18.0.0, SVG Export Plug-In . SVG Version: 6.00 Build 0)  -->
<!DOCTYPE svg PUBLIC "-//W3C//DTD SVG 1.1//EN" "http://www.w3.org/Graphics/SVG/1.1/DTD/svg11.dtd">
<svg version="1.1" id="Layer_1" xmlns="http://www.w3.org/2000/svg" xmlns:xlink="http://www.w3.org/1999/xlink" x="0px" y="0px"
	 viewBox="0 0 55.5 55.5" enable-background="new 0 0 55.5 55.5" xml:space="preserve">
<g>
	<circle fill="none" stroke="#26A9E0" stroke-width="3.2031" stroke-miterlimit="10" cx="27.7" cy="27.7" r="26.1"/>
	<g>
		<g>
			<path fill="#26A9E0" d="M36.2,38.7H20.7c-0.5,0-0.9-0.4-0.9-0.9v-20c0-0.5,0.4-0.9,0.9-0.9h15.5c0.5,0,0.9,0.4,0.9,0.9v6
				c0,0.5-0.4,0.9-0.9,0.9c-0.5,0-0.9-0.4-0.9-0.9v-5H21.6v18.1h13.6v-7.6c0-0.5,0.4-0.9,0.9-0.9c0.5,0,0.9,0.4,0.9,0.9v8.5
				C37.1,38.3,36.7,38.7,36.2,38.7L36.2,38.7z"/>
		</g>
		<g>
			<path fill="#26A9E0" d="M31.6,19.9h-6.3c-1.1,0-2-0.9-2-2c0-1.1,0.9-2,2-2h6.3c1.1,0,2,0.9,2,2C33.6,19,32.7,19.9,31.6,19.9
				L31.6,19.9z M25.3,17.8c-0.1,0-0.1,0.1-0.1,0.1c0,0.1,0.1,0.1,0.1,0.1h6.3c0.1,0,0.1-0.1,0.1-0.1c0-0.1-0.1-0.1-0.1-0.1H25.3
				L25.3,17.8z"/>
		</g>
		<g>
			<g>
				<path fill="#26A9E0" d="M29.9,34c0,0-0.1,0-0.1,0l-3-0.4c-0.3,0-0.5-0.2-0.7-0.4c-0.2-0.2-0.2-0.5-0.1-0.8l0.7-3
					c0.1-0.2,0.2-0.4,0.4-0.5l10.6-7.3c0.2-0.1,0.5-0.2,0.7-0.1c0.2,0,0.5,0.2,0.6,0.4l2.3,3.4c0.1,0.2,0.2,0.5,0.1,0.7
					c0,0.2-0.2,0.5-0.4,0.6l-10.6,7.3C30.3,33.9,30.1,34,29.9,34L29.9,34z M28,31.9l1.6,0.2l9.6-6.5L38,23.7l-9.6,6.5L28,31.9
					L28,31.9z"/>
			</g>
			<g>
				<path fill="#26A9E0" d="M38.7,27.3c-0.1,0-0.3-0.1-0.4-0.2l-2.1-3c-0.1-0.2-0.1-0.5,0.1-0.7c0.2-0.1,0.5-0.1,0.7,0.1l2.1,3
					c0.1,0.2,0.1,0.5-0.1,0.7C38.9,27.2,38.8,27.3,38.7,27.3L38.7,27.3z"/>
			</g>
			<g>
				<path fill="#26A9E0" d="M29.3,31.5c-0.1,0-0.3-0.1-0.4-0.2c-0.1-0.2-0.1-0.5,0.1-0.7l8.3-5.7c0.2-0.1,0.5-0.1,0.7,0.1
					c0.1,0.2,0.1,0.5-0.1,0.7l-8.3,5.7C29.5,31.4,29.4,31.5,29.3,31.5L29.3,31.5z"/>
			</g>
			<g>
				<path fill="#26A9E0" d="M27.3,31.2C27.3,31.2,27.3,31.2,27.3,31.2L27.3,31.2l-0.4,1.4l1.4,0.2c0-0.1,0-0.1,0.1-0.2
					C28.6,32,28.1,31.3,27.3,31.2C27.3,31.2,27.3,31.2,27.3,31.2L27.3,31.2z"/>
				<g>
					<path fill="#26A9E0" d="M28.3,33.3C28.3,33.3,28.3,33.3,28.3,33.3l-1.5-0.2c-0.1,0-0.3-0.1-0.3-0.2c-0.1-0.1-0.1-0.2-0.1-0.4
						l0.4-1.4c0.1-0.2,0.3-0.4,0.5-0.4c0,0,0.1,0,0.1,0c0.5,0.1,0.9,0.3,1.2,0.7c0.3,0.4,0.3,0.9,0.2,1.4c0,0.1-0.1,0.2-0.1,0.2
						C28.6,33.2,28.5,33.3,28.3,33.3L28.3,33.3z M27.5,32.3l0.5,0.1c0-0.1,0-0.3-0.1-0.4c-0.1-0.1-0.1-0.2-0.2-0.2L27.5,32.3
						L27.5,32.3z"/>
				</g>
			</g>
		</g>
	</g>
</g>
<g>
</g>
<g>
</g>
<g>
</g>
<g>
</g>
<g>
</g>
<g>
</g>
<g>
</g>
<g>
</g>
<g>
</g>
<g>
</g>
<g>
</g>
<g>
</g>
<g>
</g>
<g>
</g>
<g>
</g>
</svg>
