<?xml version="1.0" encoding="utf-8"?>
<!-- Generator: Adobe Illustrator 18.0.0, SVG Export Plug-In . SVG Version: 6.00 Build 0)  -->
<!DOCTYPE svg PUBLIC "-//W3C//DTD SVG 1.1//EN" "http://www.w3.org/Graphics/SVG/1.1/DTD/svg11.dtd">
<svg version="1.1" id="Layer_1" xmlns="http://www.w3.org/2000/svg" xmlns:xlink="http://www.w3.org/1999/xlink" x="0px" y="0px"
	 viewBox="0 0 55.5 55.5" enable-background="new 0 0 55.5 55.5" xml:space="preserve">
<g>
	<circle fill="none" stroke="#26A9E0" stroke-width="3.2031" stroke-miterlimit="10" cx="27.7" cy="27.7" r="26.1"/>
	<g>
		<g>
			<g>
				<path fill="#26A9E0" d="M27.2,36.2c-0.2,0-0.5-0.1-0.7-0.3c-0.2-0.2-0.3-0.4-0.3-0.7l0.2-3.4c0-0.2,0.1-0.4,0.3-0.6l10.1-10.1
					c0.3-0.4,1-0.4,1.3,0l3.2,3.2c0.4,0.4,0.4,1,0,1.3L31.3,35.7c-0.2,0.2-0.4,0.3-0.6,0.3L27.2,36.2C27.3,36.2,27.3,36.2,27.2,36.2
					L27.2,36.2z M28.3,32.2l-0.1,2l2-0.1l9.2-9.2L37.6,23L28.3,32.2L28.3,32.2z"/>
			</g>
			<g>
				<path fill="#26A9E0" d="M38.9,26.9c-0.1,0-0.2,0-0.3-0.1l-2.9-2.9c-0.2-0.2-0.2-0.5,0-0.7c0.2-0.2,0.5-0.2,0.7,0l2.9,2.9
					c0.2,0.2,0.2,0.5,0,0.7C39.2,26.8,39.1,26.9,38.9,26.9L38.9,26.9z"/>
			</g>
			<path fill="#26A9E0" d="M27.8,32.8c-0.1,0-0.1,0-0.2,0c-0.1,0-0.1,0-0.2,0l-0.1,2.3l2.3-0.1c0-0.1,0-0.2,0.1-0.3
				C29.7,33.7,28.9,32.8,27.8,32.8L27.8,32.8z"/>
		</g>
		<g>
			<g>
				<path fill="#26A9E0" d="M32.6,39.7h-13c-1.2,0-2.1-1-2.1-2.1V20.2c0-0.5,0.4-0.9,0.9-0.9c0.5,0,0.9,0.4,0.9,0.9v17.4
					c0,0.1,0.1,0.3,0.3,0.3h13c0.1,0,0.3-0.1,0.3-0.3v-5.5c0-0.5,0.4-0.9,0.9-0.9c0.5,0,0.9,0.4,0.9,0.9v5.5
					C34.8,38.8,33.8,39.7,32.6,39.7L32.6,39.7z"/>
			</g>
			<g>
				<path fill="#26A9E0" d="M33.8,26.3c-0.5,0-0.9-0.4-0.9-0.9v-2.5c0-0.1-0.1-0.3-0.3-0.3c-0.5,0-0.9-0.4-0.9-0.9
					c0-0.5,0.4-0.9,0.9-0.9c1.2,0,2.1,1,2.1,2.1v2.5C34.8,25.9,34.4,26.3,33.8,26.3L33.8,26.3z"/>
			</g>
			<g>
				<path fill="#26A9E0" d="M32.5,22.6h-12c-1.6,0-2.9-1.3-2.9-2.9c0-1.6,1.3-2.9,2.9-2.9h13.4c0.5,0,0.9,0.4,0.9,0.9
					c0,0.5-0.4,0.9-0.9,0.9H20.4c-0.6,0-1,0.5-1,1c0,0.6,0.5,1,1,1h12c0.5,0,0.9,0.4,0.9,0.9C33.4,22.2,33,22.6,32.5,22.6L32.5,22.6
					z"/>
			</g>
		</g>
		<g>
			<path fill="#26A9E0" d="M27.6,26.1h-5.7c-0.3,0-0.5-0.2-0.5-0.5c0-0.3,0.2-0.5,0.5-0.5h5.7c0.3,0,0.5,0.2,0.5,0.5
				C28,25.9,27.8,26.1,27.6,26.1L27.6,26.1z"/>
		</g>
		<g>
			<path fill="#26A9E0" d="M27.6,28.6h-5.7c-0.3,0-0.5-0.2-0.5-0.5s0.2-0.5,0.5-0.5h5.7c0.3,0,0.5,0.2,0.5,0.5S27.8,28.6,27.6,28.6
				L27.6,28.6z"/>
		</g>
	</g>
</g>
<g>
</g>
<g>
</g>
<g>
</g>
<g>
</g>
<g>
</g>
<g>
</g>
<g>
</g>
<g>
</g>
<g>
</g>
<g>
</g>
<g>
</g>
<g>
</g>
<g>
</g>
<g>
</g>
<g>
</g>
</svg>
