<?xml version="1.0" encoding="utf-8"?>
<!-- Generator: Adobe Illustrator 18.0.0, SVG Export Plug-In . SVG Version: 6.00 Build 0)  -->
<!DOCTYPE svg PUBLIC "-//W3C//DTD SVG 1.1//EN" "http://www.w3.org/Graphics/SVG/1.1/DTD/svg11.dtd">
<svg version="1.1" id="Layer_1" xmlns="http://www.w3.org/2000/svg" xmlns:xlink="http://www.w3.org/1999/xlink" x="0px" y="0px"
	 viewBox="0 0 646.6 186.6" enable-background="new 0 0 646.6 186.6" xml:space="preserve">
<g>
	<g>
		<rect x="0" y="89.4" fill="none" width="95" height="27"/>
		<path fill="#282828" d="M10.3,97.9l-0.7-2.1H6.2l-0.7,2.1h-1l2.8-8.1h1.3l2.8,8.1H10.3z M6.5,94.9h2.9l-1.4-4.4
			C7.8,91,7.3,92.4,6.5,94.9z"/>
		<path fill="#282828" d="M13.6,91.8v0.9c0.4-0.7,1-1,1.9-1c0.8,0,1.5,0.3,1.9,0.9c0.5,0.6,0.7,1.3,0.7,2.2s-0.2,1.7-0.7,2.3
			c-0.5,0.6-1.1,0.9-1.9,0.9c-0.8,0-1.4-0.3-1.8-1v3.3h-0.9v-8.4H13.6z M13.6,94.8c0,0.8,0.2,1.4,0.5,1.7c0.4,0.4,0.8,0.6,1.3,0.6
			s0.9-0.2,1.2-0.6s0.5-1,0.5-1.7s-0.2-1.3-0.5-1.7c-0.3-0.4-0.7-0.6-1.2-0.6c-0.5,0-0.9,0.2-1.3,0.5C13.8,93.4,13.6,94,13.6,94.8z"
			/>
		<path fill="#282828" d="M21.4,91.7c1.5,0,2.3,0.8,2.3,2.3v3.9h-0.9v-0.7c-0.3,0.5-0.9,0.8-1.7,0.8c-0.6,0-1-0.2-1.4-0.5
			s-0.5-0.8-0.5-1.3c0-0.5,0.2-1,0.7-1.3s1-0.5,1.8-0.5h1.1V94c0-0.5-0.1-0.8-0.3-1.1c-0.2-0.2-0.6-0.4-1.2-0.4s-1.1,0.2-1.6,0.5
			v-0.9C20.1,91.8,20.7,91.7,21.4,91.7z M22.7,95.1h-1.1c-0.5,0-0.9,0.1-1.2,0.3s-0.4,0.5-0.4,0.8s0.1,0.5,0.3,0.7
			c0.2,0.2,0.5,0.3,0.9,0.3s0.7-0.1,1-0.4c0.3-0.2,0.4-0.6,0.4-0.9V95.1z"/>
		<path fill="#282828" d="M26.3,91.8v1.1c0.3-0.8,0.9-1.1,1.7-1.1c0.1,0,0.3,0,0.3,0v0.9c-0.2-0.1-0.3-0.1-0.5-0.1
			c-0.4,0-0.8,0.2-1.1,0.6c-0.3,0.4-0.4,0.8-0.4,1.4v3.3h-0.9l0-6.1H26.3z"/>
		<path fill="#282828" d="M32,97.9c-0.9,0-1.7-0.3-2.2-0.8c-0.6-0.6-0.8-1.3-0.8-2.3c0-0.9,0.3-1.7,0.8-2.3c0.5-0.6,1.1-0.8,1.9-0.8
			c0.8,0,1.4,0.2,1.8,0.7c0.4,0.5,0.7,1.2,0.7,2.1c0,0.3,0,0.5-0.1,0.7h-4.2c0.1,0.6,0.3,1.1,0.7,1.4c0.4,0.3,0.9,0.5,1.6,0.5
			c0.7,0,1.2-0.1,1.6-0.4v0.9C33.2,97.8,32.7,97.9,32,97.9z M33.2,94.4v-0.2c0-0.5-0.1-0.9-0.4-1.2c-0.3-0.3-0.6-0.5-1.1-0.5
			c-0.5,0-0.9,0.2-1.2,0.5c-0.3,0.3-0.5,0.8-0.6,1.4H33.2z"/>
		<path fill="#282828" d="M38.4,97.1c0.5,0,0.9-0.1,1.3-0.4v0.9c-0.4,0.2-0.9,0.3-1.4,0.3c-1,0-1.7-0.3-2.3-0.9s-0.8-1.4-0.8-2.2
			s0.3-1.6,0.8-2.2s1.3-0.9,2.3-0.9c0.5,0,1,0.1,1.4,0.3v0.9c-0.4-0.2-0.8-0.4-1.3-0.4c-0.7,0-1.2,0.2-1.6,0.7
			c-0.4,0.4-0.6,1-0.6,1.7s0.2,1.2,0.6,1.6C37.2,96.9,37.7,97.1,38.4,97.1z"/>
		<path fill="#282828" d="M43.9,97.9c-0.9,0-1.7-0.3-2.2-0.8c-0.6-0.6-0.8-1.3-0.8-2.3c0-0.9,0.3-1.7,0.8-2.3
			c0.5-0.6,1.1-0.8,1.9-0.8s1.4,0.2,1.8,0.7c0.4,0.5,0.7,1.2,0.7,2.1c0,0.3,0,0.5-0.1,0.7h-4.2c0.1,0.6,0.3,1.1,0.7,1.4
			c0.4,0.3,0.9,0.5,1.6,0.5c0.7,0,1.2-0.1,1.6-0.4v0.9C45.2,97.8,44.6,97.9,43.9,97.9z M45.1,94.4v-0.2c0-0.5-0.1-0.9-0.4-1.2
			c-0.3-0.3-0.6-0.5-1.1-0.5c-0.5,0-0.9,0.2-1.2,0.5c-0.3,0.3-0.5,0.8-0.6,1.4H45.1z"/>
		<path fill="#282828" d="M48.4,91.8v1.1c0.3-0.8,0.9-1.1,1.7-1.1c0.1,0,0.3,0,0.3,0v0.9c-0.2-0.1-0.3-0.1-0.5-0.1
			c-0.4,0-0.8,0.2-1.1,0.6c-0.3,0.4-0.4,0.8-0.4,1.4v3.3h-0.9l0-6.1H48.4z"/>
		<path fill="#282828" d="M57,97.9c-0.9,0-1.7-0.3-2.2-0.8c-0.6-0.6-0.8-1.3-0.8-2.3c0-0.9,0.3-1.7,0.8-2.3c0.5-0.6,1.1-0.8,1.9-0.8
			s1.4,0.2,1.8,0.7c0.4,0.5,0.7,1.2,0.7,2.1c0,0.3,0,0.5-0.1,0.7h-4.2c0.1,0.6,0.3,1.1,0.7,1.4c0.4,0.3,0.9,0.5,1.6,0.5
			c0.7,0,1.2-0.1,1.6-0.4v0.9C58.3,97.8,57.7,97.9,57,97.9z M58.2,94.4v-0.2c0-0.5-0.1-0.9-0.4-1.2c-0.3-0.3-0.6-0.5-1.1-0.5
			c-0.5,0-0.9,0.2-1.2,0.5c-0.3,0.3-0.5,0.8-0.6,1.4H58.2z"/>
		<path fill="#282828" d="M61.5,91.8v1.1c0.4-0.8,1-1.1,1.9-1.1c0.6,0,1.1,0.2,1.4,0.5s0.5,0.8,0.5,1.4v4.2h-0.9v-3.9
			c0-0.4-0.1-0.8-0.3-1c-0.2-0.2-0.5-0.4-1-0.4s-0.8,0.2-1.1,0.5c-0.3,0.4-0.5,0.8-0.5,1.5v3.3h-0.9v-6.1H61.5z"/>
		<path fill="#282828" d="M72.7,97.9c-0.9,0-1.7-0.3-2.2-0.8c-0.6-0.6-0.8-1.3-0.8-2.3c0-0.9,0.3-1.7,0.8-2.3
			c0.5-0.6,1.1-0.8,1.9-0.8s1.4,0.2,1.8,0.7c0.4,0.5,0.7,1.2,0.7,2.1c0,0.3,0,0.5-0.1,0.7h-4.2c0.1,0.6,0.3,1.1,0.7,1.4
			c0.4,0.3,0.9,0.5,1.6,0.5c0.7,0,1.2-0.1,1.6-0.4v0.9C73.9,97.8,73.4,97.9,72.7,97.9z M73.8,94.4v-0.2c0-0.5-0.1-0.9-0.4-1.2
			c-0.3-0.3-0.6-0.5-1.1-0.5c-0.5,0-0.9,0.2-1.2,0.5c-0.3,0.3-0.5,0.8-0.6,1.4H73.8z"/>
		<path fill="#282828" d="M78,92.5c-0.3,0-0.6,0.1-0.8,0.2c-0.2,0.1-0.3,0.3-0.3,0.5c0,0.2,0,0.3,0.1,0.4c0.1,0.1,0.2,0.2,0.3,0.3
			c0.2,0.1,0.5,0.3,1,0.5c0.4,0.2,0.8,0.4,1.1,0.7c0.3,0.3,0.4,0.6,0.4,1.1c0,0.5-0.2,0.9-0.5,1.2c-0.4,0.3-0.9,0.5-1.6,0.5
			s-1.3-0.1-1.7-0.4v-0.9c0.5,0.3,1.1,0.5,1.7,0.5c0.4,0,0.6-0.1,0.8-0.2s0.3-0.3,0.3-0.6c0-0.3-0.1-0.5-0.3-0.6s-0.6-0.3-1-0.5
			c-0.5-0.2-0.9-0.4-1.1-0.7S76,93.8,76,93.3c0-0.5,0.2-0.9,0.6-1.2c0.4-0.3,0.9-0.4,1.5-0.4s1.1,0.1,1.5,0.3v0.9
			C79.2,92.7,78.7,92.5,78,92.5z"/>
		<path fill="#282828" d="M82.5,92.5v3.6c0,0.6,0.3,1,0.9,1c0.3,0,0.6-0.1,0.8-0.3v0.9c-0.3,0.1-0.6,0.2-0.9,0.2
			c-1.2,0-1.8-0.6-1.8-1.8v-3.5h-1v-0.8h1v-1.5h0.9v1.5h1.7v0.8H82.5z"/>
		<path fill="#282828" d="M88.3,97.9c-0.9,0-1.7-0.3-2.2-0.8c-0.6-0.6-0.8-1.3-0.8-2.3c0-0.9,0.3-1.7,0.8-2.3
			c0.5-0.6,1.1-0.8,1.9-0.8s1.4,0.2,1.8,0.7c0.4,0.5,0.7,1.2,0.7,2.1c0,0.3,0,0.5-0.1,0.7h-4.2c0.1,0.6,0.3,1.1,0.7,1.4
			c0.4,0.3,0.9,0.5,1.6,0.5c0.7,0,1.2-0.1,1.6-0.4v0.9C89.6,97.8,89,97.9,88.3,97.9z M89.5,94.4v-0.2c0-0.5-0.1-0.9-0.4-1.2
			c-0.3-0.3-0.6-0.5-1.1-0.5c-0.5,0-0.9,0.2-1.2,0.5c-0.3,0.3-0.5,0.8-0.6,1.4H89.5z"/>
		<path fill="#282828" d="M26.6,106.9c-0.3,0-0.6,0.1-0.8,0.2c-0.2,0.1-0.3,0.3-0.3,0.5c0,0.2,0,0.3,0.1,0.4
			c0.1,0.1,0.2,0.2,0.3,0.3c0.2,0.1,0.5,0.3,1,0.5c0.4,0.2,0.8,0.4,1.1,0.7c0.3,0.3,0.4,0.6,0.4,1.1c0,0.5-0.2,0.9-0.5,1.2
			c-0.4,0.3-0.9,0.5-1.6,0.5s-1.3-0.1-1.7-0.4V111c0.5,0.3,1.1,0.5,1.7,0.5c0.4,0,0.6-0.1,0.8-0.2s0.3-0.3,0.3-0.6
			c0-0.3-0.1-0.5-0.3-0.6s-0.6-0.3-1-0.5c-0.5-0.2-0.9-0.4-1.1-0.7s-0.4-0.6-0.4-1.1c0-0.5,0.2-0.9,0.6-1.2c0.4-0.3,0.9-0.4,1.5-0.4
			s1.1,0.1,1.5,0.3v0.9C27.7,107.1,27.2,106.9,26.6,106.9z"/>
		<path fill="#282828" d="M29.8,104.7c-0.1-0.1-0.2-0.3-0.2-0.4s0.1-0.3,0.2-0.4c0.1-0.1,0.3-0.2,0.4-0.2c0.2,0,0.3,0.1,0.4,0.2
			c0.1,0.1,0.2,0.3,0.2,0.4s-0.1,0.3-0.2,0.4s-0.3,0.2-0.4,0.2C30,104.9,29.9,104.8,29.8,104.7z M29.7,112.3v-6.1h0.9v6.1H29.7z"/>
		<path fill="#282828" d="M33.8,106.9v3.6c0,0.6,0.3,1,0.9,1c0.3,0,0.6-0.1,0.8-0.3v0.9c-0.3,0.1-0.6,0.2-0.9,0.2
			c-1.2,0-1.8-0.6-1.8-1.8v-3.5h-1v-0.8h1v-1.5h0.9v1.5h1.7v0.8H33.8z"/>
		<path fill="#282828" d="M37,104.7c-0.1-0.1-0.2-0.3-0.2-0.4s0.1-0.3,0.2-0.4c0.1-0.1,0.3-0.2,0.4-0.2c0.2,0,0.3,0.1,0.4,0.2
			c0.1,0.1,0.2,0.3,0.2,0.4s-0.1,0.3-0.2,0.4s-0.3,0.2-0.4,0.2C37.3,104.9,37.1,104.8,37,104.7z M37,112.3v-6.1h0.9v6.1H37z"/>
		<path fill="#282828" d="M45.1,109.2c0,0.9-0.3,1.7-0.8,2.2c-0.5,0.6-1.2,0.9-2.1,0.9c-0.9,0-1.6-0.3-2.1-0.9
			c-0.5-0.6-0.8-1.3-0.8-2.2c0-0.9,0.3-1.7,0.8-2.3c0.5-0.6,1.2-0.9,2.1-0.9c0.9,0,1.6,0.3,2.1,0.9
			C44.8,107.6,45.1,108.3,45.1,109.2z M44.1,109.2c0-0.7-0.2-1.2-0.5-1.6c-0.3-0.4-0.8-0.7-1.4-0.7s-1.1,0.2-1.4,0.7
			c-0.3,0.4-0.5,1-0.5,1.6c0,0.6,0.2,1.2,0.5,1.6c0.3,0.4,0.8,0.7,1.4,0.7s1-0.2,1.4-0.7C43.9,110.4,44.1,109.9,44.1,109.2z"/>
		<path fill="#282828" d="M50.7,112.3l-1.9-6.1h1c0.8,2.7,1.3,4.4,1.4,5.2c0.1-0.4,0.6-2.1,1.5-5.2h1l1.5,5.2
			c0.1-0.4,0.6-2.1,1.5-5.2h1l-1.9,6.1h-1.2l-0.6-2l-0.8-3c-0.1,0.4-0.6,2.1-1.4,5H50.7z"/>
		<path fill="#282828" d="M61.6,112.3c-0.9,0-1.7-0.3-2.2-0.8c-0.6-0.6-0.8-1.3-0.8-2.3c0-0.9,0.3-1.7,0.8-2.3
			c0.5-0.6,1.1-0.8,1.9-0.8s1.4,0.2,1.8,0.7c0.4,0.5,0.7,1.2,0.7,2.1c0,0.3,0,0.5-0.1,0.7h-4.2c0.1,0.6,0.3,1.1,0.7,1.4
			c0.4,0.3,0.9,0.5,1.6,0.5c0.7,0,1.2-0.1,1.6-0.4v0.9C62.9,112.2,62.3,112.3,61.6,112.3z M62.8,108.8v-0.2c0-0.5-0.1-0.9-0.4-1.2
			c-0.3-0.3-0.6-0.5-1.1-0.5c-0.5,0-0.9,0.2-1.2,0.5c-0.3,0.3-0.5,0.8-0.6,1.4H62.8z"/>
		<path fill="#282828" d="M66.1,103.8v3.3c0.4-0.7,1.1-1,1.8-1c0.8,0,1.4,0.3,1.9,0.9c0.5,0.6,0.7,1.3,0.7,2.2
			c0,0.9-0.2,1.7-0.7,2.3c-0.5,0.6-1.1,0.9-1.9,0.9s-1.4-0.3-1.9-1v0.9h-0.9v-8.5H66.1z M66.1,109.2c0,0.8,0.2,1.4,0.5,1.7
			c0.3,0.4,0.8,0.6,1.3,0.6c0.5,0,0.9-0.2,1.2-0.6s0.5-1,0.5-1.7s-0.2-1.3-0.5-1.7s-0.7-0.6-1.2-0.6c-0.5,0-0.9,0.2-1.2,0.5
			C66.3,107.8,66.1,108.4,66.1,109.2z"/>
	</g>
	<g>
		<rect x="157" y="114.4" fill="none" width="95" height="27"/>
		<path fill="#282828" d="M168.9,116.1c-0.5-0.3-1-0.5-1.6-0.5s-1,0.1-1.3,0.3c-0.3,0.2-0.4,0.5-0.4,0.9c0,0.4,0.2,0.7,0.5,0.9
			c0.3,0.2,0.6,0.3,1,0.5c0.4,0.2,0.6,0.3,0.8,0.4c0.1,0.1,0.3,0.2,0.6,0.3c0.2,0.1,0.4,0.3,0.5,0.4c0.3,0.4,0.4,0.8,0.4,1.3
			c0,0.7-0.2,1.3-0.7,1.7c-0.5,0.4-1.1,0.6-1.9,0.6c-0.8,0-1.5-0.2-2.1-0.5v-1c0.6,0.4,1.3,0.7,2.1,0.7c0.5,0,0.9-0.1,1.2-0.3
			c0.3-0.2,0.4-0.5,0.4-1c0-0.4-0.1-0.6-0.4-0.9c-0.3-0.2-0.7-0.5-1.1-0.6c-0.4-0.2-0.7-0.3-0.9-0.4c-0.2-0.1-0.4-0.2-0.6-0.4
			c-0.5-0.4-0.7-0.9-0.7-1.6s0.2-1.2,0.7-1.6c0.5-0.4,1.1-0.6,1.8-0.6c0.7,0,1.3,0.1,1.8,0.4V116.1z"/>
		<path fill="#282828" d="M176.2,119.8c0,0.9-0.3,1.7-0.8,2.2c-0.5,0.6-1.2,0.9-2.1,0.9c-0.9,0-1.6-0.3-2.1-0.9
			c-0.5-0.6-0.8-1.3-0.8-2.2c0-0.9,0.3-1.7,0.8-2.3c0.5-0.6,1.2-0.9,2.1-0.9c0.9,0,1.6,0.3,2.1,0.9
			C176,118.2,176.2,118.9,176.2,119.8z M175.3,119.8c0-0.7-0.2-1.2-0.5-1.6c-0.3-0.4-0.8-0.7-1.4-0.7s-1.1,0.2-1.4,0.7
			c-0.3,0.4-0.5,1-0.5,1.6c0,0.6,0.2,1.2,0.5,1.6c0.3,0.4,0.8,0.7,1.4,0.7s1-0.2,1.4-0.7C175.1,121,175.3,120.5,175.3,119.8z"/>
		<path fill="#282828" d="M177.7,122.9v-8.5h0.9v8.5H177.7z"/>
		<path fill="#282828" d="M180.5,115.3c-0.1-0.1-0.2-0.3-0.2-0.4s0.1-0.3,0.2-0.4c0.1-0.1,0.3-0.2,0.4-0.2c0.2,0,0.3,0.1,0.4,0.2
			c0.1,0.1,0.2,0.3,0.2,0.4s-0.1,0.3-0.2,0.4s-0.3,0.2-0.4,0.2C180.8,115.5,180.6,115.4,180.5,115.3z M180.5,122.9v-6.1h0.9v6.1
			H180.5z"/>
		<path fill="#282828" d="M186.1,122.1c0.5,0,0.9-0.1,1.3-0.4v0.9c-0.4,0.2-0.9,0.3-1.4,0.3c-1,0-1.7-0.3-2.3-0.9s-0.8-1.4-0.8-2.2
			s0.3-1.6,0.8-2.2s1.3-0.9,2.3-0.9c0.5,0,1,0.1,1.4,0.3v0.9c-0.4-0.2-0.8-0.4-1.3-0.4c-0.7,0-1.2,0.2-1.6,0.7
			c-0.4,0.4-0.6,1-0.6,1.7s0.2,1.2,0.6,1.6C184.8,121.9,185.4,122.1,186.1,122.1z"/>
		<path fill="#282828" d="M189,115.3c-0.1-0.1-0.2-0.3-0.2-0.4s0.1-0.3,0.2-0.4c0.1-0.1,0.3-0.2,0.4-0.2c0.2,0,0.3,0.1,0.4,0.2
			c0.1,0.1,0.2,0.3,0.2,0.4s-0.1,0.3-0.2,0.4s-0.3,0.2-0.4,0.2C189.2,115.5,189.1,115.4,189,115.3z M188.9,122.9v-6.1h0.9v6.1H188.9
			z"/>
		<path fill="#282828" d="M193,117.5v3.6c0,0.6,0.3,1,0.9,1c0.3,0,0.6-0.1,0.8-0.3v0.9c-0.3,0.1-0.6,0.2-0.9,0.2
			c-1.2,0-1.8-0.6-1.8-1.8v-3.5h-1v-0.8h1v-1.5h0.9v1.5h1.7v0.8H193z"/>
		<path fill="#282828" d="M198,116.7c1.5,0,2.3,0.8,2.3,2.3v3.9h-0.9v-0.7c-0.3,0.5-0.9,0.8-1.7,0.8c-0.6,0-1-0.2-1.4-0.5
			s-0.5-0.8-0.5-1.3c0-0.5,0.2-1,0.7-1.3s1-0.5,1.8-0.5h1.1V119c0-0.5-0.1-0.8-0.3-1.1c-0.2-0.2-0.6-0.4-1.2-0.4s-1.1,0.2-1.6,0.5
			v-0.9C196.7,116.8,197.3,116.7,198,116.7z M199.4,120.1h-1.1c-0.5,0-0.9,0.1-1.2,0.3s-0.4,0.5-0.4,0.8s0.1,0.5,0.3,0.7
			c0.2,0.2,0.5,0.3,0.9,0.3s0.7-0.1,1-0.4c0.3-0.2,0.4-0.6,0.4-0.9V120.1z"/>
		<path fill="#282828" d="M202.9,116.8v1.1c0.3-0.8,0.9-1.1,1.7-1.1c0.1,0,0.3,0,0.3,0v0.9c-0.2-0.1-0.3-0.1-0.5-0.1
			c-0.4,0-0.8,0.2-1.1,0.6c-0.3,0.4-0.4,0.8-0.4,1.4v3.3H202l0-6.1H202.9z"/>
		<path fill="#282828" d="M210.2,117.5v3.6c0,0.6,0.3,1,0.9,1c0.3,0,0.6-0.1,0.8-0.3v0.9c-0.3,0.1-0.6,0.2-0.9,0.2
			c-1.2,0-1.8-0.6-1.8-1.8v-3.5h-1v-0.8h1v-1.5h0.9v1.5h1.7v0.8H210.2z"/>
		<path fill="#282828" d="M215.2,116.7c1.5,0,2.3,0.8,2.3,2.3v3.9h-0.9v-0.7c-0.3,0.5-0.9,0.8-1.7,0.8c-0.6,0-1-0.2-1.4-0.5
			s-0.5-0.8-0.5-1.3c0-0.5,0.2-1,0.7-1.3s1-0.5,1.8-0.5h1.1V119c0-0.5-0.1-0.8-0.3-1.1c-0.2-0.2-0.6-0.4-1.2-0.4s-1.1,0.2-1.6,0.5
			v-0.9C213.9,116.8,214.5,116.7,215.2,116.7z M216.5,120.1h-1.1c-0.5,0-0.9,0.1-1.2,0.3s-0.4,0.5-0.4,0.8s0.1,0.5,0.3,0.7
			c0.2,0.2,0.5,0.3,0.9,0.3s0.7-0.1,1-0.4c0.3-0.2,0.4-0.6,0.4-0.9V120.1z"/>
		<path fill="#282828" d="M219.2,122.9v-8.5h0.9v8.5H219.2z"/>
		<path fill="#282828" d="M222,122.9v-8.5h0.9v8.5H222z"/>
		<path fill="#282828" d="M227.5,122.9c-0.9,0-1.7-0.3-2.2-0.8c-0.6-0.6-0.8-1.3-0.8-2.3c0-0.9,0.3-1.7,0.8-2.3
			c0.5-0.6,1.1-0.8,1.9-0.8s1.4,0.2,1.8,0.7c0.4,0.5,0.7,1.2,0.7,2.1c0,0.3,0,0.5-0.1,0.7h-4.2c0.1,0.6,0.3,1.1,0.7,1.4
			c0.4,0.3,0.9,0.5,1.6,0.5c0.7,0,1.2-0.1,1.6-0.4v0.9C228.7,122.8,228.2,122.9,227.5,122.9z M228.6,119.4v-0.2
			c0-0.5-0.1-0.9-0.4-1.2c-0.3-0.3-0.6-0.5-1.1-0.5c-0.5,0-0.9,0.2-1.2,0.5c-0.3,0.3-0.5,0.8-0.6,1.4H228.6z"/>
		<path fill="#282828" d="M232,116.8v1.1c0.3-0.8,0.9-1.1,1.7-1.1c0.1,0,0.3,0,0.3,0v0.9c-0.2-0.1-0.3-0.1-0.5-0.1
			c-0.4,0-0.8,0.2-1.1,0.6c-0.3,0.4-0.4,0.8-0.4,1.4v3.3H231l0-6.1H232z"/>
		<path fill="#282828" d="M237.7,122.9c-0.9,0-1.7-0.3-2.2-0.8c-0.6-0.6-0.8-1.3-0.8-2.3c0-0.9,0.3-1.7,0.8-2.3
			c0.5-0.6,1.1-0.8,1.9-0.8s1.4,0.2,1.8,0.7c0.4,0.5,0.7,1.2,0.7,2.1c0,0.3,0,0.5-0.1,0.7h-4.2c0.1,0.6,0.3,1.1,0.7,1.4
			c0.4,0.3,0.9,0.5,1.6,0.5c0.7,0,1.2-0.1,1.6-0.4v0.9C238.9,122.8,238.3,122.9,237.7,122.9z M238.8,119.4v-0.2
			c0-0.5-0.1-0.9-0.4-1.2c-0.3-0.3-0.6-0.5-1.1-0.5c-0.5,0-0.9,0.2-1.2,0.5c-0.3,0.3-0.5,0.8-0.6,1.4H238.8z"/>
		<path fill="#282828" d="M243,117.5c-0.3,0-0.6,0.1-0.8,0.2c-0.2,0.1-0.3,0.3-0.3,0.5c0,0.2,0,0.3,0.1,0.4c0.1,0.1,0.2,0.2,0.3,0.3
			c0.2,0.1,0.5,0.3,1,0.5c0.4,0.2,0.8,0.4,1.1,0.7c0.3,0.3,0.4,0.6,0.4,1.1c0,0.5-0.2,0.9-0.5,1.2c-0.4,0.3-0.9,0.5-1.6,0.5
			s-1.3-0.1-1.7-0.4v-0.9c0.5,0.3,1.1,0.5,1.7,0.5c0.4,0,0.6-0.1,0.8-0.2s0.3-0.3,0.3-0.6c0-0.3-0.1-0.5-0.3-0.6s-0.6-0.3-1-0.5
			c-0.5-0.2-0.9-0.4-1.1-0.7s-0.4-0.6-0.4-1.1c0-0.5,0.2-0.9,0.6-1.2c0.4-0.3,0.9-0.4,1.5-0.4s1.1,0.1,1.5,0.3v0.9
			C244.1,117.7,243.6,117.5,243,117.5z"/>
		<path fill="#282828" d="M169.1,128.8h0.9v8.5h-0.9v-0.9c-0.4,0.7-1.1,1-1.9,1s-1.4-0.3-1.9-0.9c-0.5-0.6-0.7-1.4-0.7-2.3
			c0-0.9,0.2-1.7,0.7-2.2c0.5-0.6,1.1-0.9,1.9-0.9c0.8,0,1.4,0.3,1.8,1V128.8z M165.6,134.2c0,0.7,0.2,1.3,0.5,1.7s0.7,0.6,1.2,0.6
			c0.5,0,0.9-0.2,1.3-0.6c0.3-0.4,0.5-0.9,0.5-1.7s-0.2-1.4-0.5-1.7c-0.4-0.4-0.8-0.5-1.2-0.5c-0.5,0-0.9,0.2-1.2,0.6
			S165.6,133.5,165.6,134.2z"/>
		<path fill="#282828" d="M174.5,137.3c-0.9,0-1.7-0.3-2.2-0.8c-0.6-0.6-0.8-1.3-0.8-2.3c0-0.9,0.3-1.7,0.8-2.3
			c0.5-0.6,1.1-0.8,1.9-0.8s1.4,0.2,1.8,0.7c0.4,0.5,0.7,1.2,0.7,2.1c0,0.3,0,0.5-0.1,0.7h-4.2c0.1,0.6,0.3,1.1,0.7,1.4
			c0.4,0.3,0.9,0.5,1.6,0.5c0.7,0,1.2-0.1,1.6-0.4v0.9C175.8,137.2,175.2,137.3,174.5,137.3z M175.7,133.8v-0.2
			c0-0.5-0.1-0.9-0.4-1.2c-0.3-0.3-0.6-0.5-1.1-0.5c-0.5,0-0.9,0.2-1.2,0.5c-0.3,0.3-0.5,0.8-0.6,1.4H175.7z"/>
		<path fill="#282828" d="M183.9,136.5c0.5,0,0.9-0.1,1.3-0.4v0.9c-0.4,0.2-0.9,0.3-1.4,0.3c-1,0-1.7-0.3-2.3-0.9s-0.8-1.4-0.8-2.2
			s0.3-1.6,0.8-2.2s1.3-0.9,2.3-0.9c0.5,0,1,0.1,1.4,0.3v0.9c-0.4-0.2-0.8-0.4-1.3-0.4c-0.7,0-1.2,0.2-1.6,0.7
			c-0.4,0.4-0.6,1-0.6,1.7s0.2,1.2,0.6,1.6C182.6,136.3,183.2,136.5,183.9,136.5z"/>
		<path fill="#282828" d="M188.6,131.1c1.5,0,2.3,0.8,2.3,2.3v3.9H190v-0.7c-0.3,0.5-0.9,0.8-1.7,0.8c-0.6,0-1-0.2-1.4-0.5
			s-0.5-0.8-0.5-1.3c0-0.5,0.2-1,0.7-1.3s1-0.5,1.8-0.5h1.1v-0.3c0-0.5-0.1-0.8-0.3-1.1c-0.2-0.2-0.6-0.4-1.2-0.4s-1.1,0.2-1.6,0.5
			v-0.9C187.3,131.2,187.9,131.1,188.6,131.1z M189.9,134.5h-1.1c-0.5,0-0.9,0.1-1.2,0.3s-0.4,0.5-0.4,0.8s0.1,0.5,0.3,0.7
			c0.2,0.2,0.5,0.3,0.9,0.3s0.7-0.1,1-0.4c0.3-0.2,0.4-0.6,0.4-0.9V134.5z"/>
		<path fill="#282828" d="M193.5,131.2v0.9c0.4-0.7,1-1,1.9-1c0.8,0,1.5,0.3,1.9,0.9c0.5,0.6,0.7,1.3,0.7,2.2s-0.2,1.7-0.7,2.3
			c-0.5,0.6-1.1,0.9-1.9,0.9s-1.4-0.3-1.8-1v3.3h-0.9v-8.4H193.5z M193.5,134.2c0,0.8,0.2,1.4,0.5,1.7c0.4,0.4,0.8,0.6,1.3,0.6
			s0.9-0.2,1.2-0.6s0.5-1,0.5-1.7s-0.2-1.3-0.5-1.7c-0.3-0.4-0.7-0.6-1.2-0.6c-0.5,0-0.9,0.2-1.3,0.5
			C193.7,132.8,193.5,133.4,193.5,134.2z"/>
		<path fill="#282828" d="M201.3,131.1c1.5,0,2.3,0.8,2.3,2.3v3.9h-0.9v-0.7c-0.3,0.5-0.9,0.8-1.7,0.8c-0.6,0-1-0.2-1.4-0.5
			s-0.5-0.8-0.5-1.3c0-0.5,0.2-1,0.7-1.3s1-0.5,1.8-0.5h1.1v-0.3c0-0.5-0.1-0.8-0.3-1.1c-0.2-0.2-0.6-0.4-1.2-0.4s-1.1,0.2-1.6,0.5
			v-0.9C200,131.2,200.6,131.1,201.3,131.1z M202.7,134.5h-1.1c-0.5,0-0.9,0.1-1.2,0.3s-0.4,0.5-0.4,0.8s0.1,0.5,0.3,0.7
			c0.2,0.2,0.5,0.3,0.9,0.3s0.7-0.1,1-0.4c0.3-0.2,0.4-0.6,0.4-0.9V134.5z"/>
		<path fill="#282828" d="M208.2,136.5c0.5,0,0.9-0.1,1.3-0.4v0.9c-0.4,0.2-0.9,0.3-1.4,0.3c-1,0-1.7-0.3-2.3-0.9s-0.8-1.4-0.8-2.2
			s0.3-1.6,0.8-2.2s1.3-0.9,2.3-0.9c0.5,0,1,0.1,1.4,0.3v0.9c-0.4-0.2-0.8-0.4-1.3-0.4c-0.7,0-1.2,0.2-1.6,0.7
			c-0.4,0.4-0.6,1-0.6,1.7s0.2,1.2,0.6,1.6C206.9,136.3,207.5,136.5,208.2,136.5z"/>
		<path fill="#282828" d="M211,129.7c-0.1-0.1-0.2-0.3-0.2-0.4s0.1-0.3,0.2-0.4c0.1-0.1,0.3-0.2,0.4-0.2c0.2,0,0.3,0.1,0.4,0.2
			c0.1,0.1,0.2,0.3,0.2,0.4s-0.1,0.3-0.2,0.4s-0.3,0.2-0.4,0.2C211.3,129.9,211.1,129.8,211,129.7z M211,137.3v-6.1h0.9v6.1H211z"/>
		<path fill="#282828" d="M215,131.9v3.6c0,0.6,0.3,1,0.9,1c0.3,0,0.6-0.1,0.8-0.3v0.9c-0.3,0.1-0.6,0.2-0.9,0.2
			c-1.2,0-1.8-0.6-1.8-1.8v-3.5h-1v-0.8h1v-1.5h0.9v1.5h1.7v0.8H215z"/>
		<path fill="#282828" d="M220.1,131.1c1.5,0,2.3,0.8,2.3,2.3v3.9h-0.9v-0.7c-0.3,0.5-0.9,0.8-1.7,0.8c-0.6,0-1-0.2-1.4-0.5
			s-0.5-0.8-0.5-1.3c0-0.5,0.2-1,0.7-1.3s1-0.5,1.8-0.5h1.1v-0.3c0-0.5-0.1-0.8-0.3-1.1c-0.2-0.2-0.6-0.4-1.2-0.4s-1.1,0.2-1.6,0.5
			v-0.9C218.7,131.2,219.3,131.1,220.1,131.1z M221.4,134.5h-1.1c-0.5,0-0.9,0.1-1.2,0.3s-0.4,0.5-0.4,0.8s0.1,0.5,0.3,0.7
			c0.2,0.2,0.5,0.3,0.9,0.3s0.7-0.1,1-0.4c0.3-0.2,0.4-0.6,0.4-0.9V134.5z"/>
		<path fill="#282828" d="M227,136.5c0.5,0,0.9-0.1,1.3-0.4v0.9c-0.4,0.2-0.9,0.3-1.4,0.3c-1,0-1.7-0.3-2.3-0.9s-0.8-1.4-0.8-2.2
			s0.3-1.6,0.8-2.2s1.3-0.9,2.3-0.9c0.5,0,1,0.1,1.4,0.3v0.9c-0.4-0.2-0.8-0.4-1.3-0.4c-0.7,0-1.2,0.2-1.6,0.7
			c-0.4,0.4-0.6,1-0.6,1.7s0.2,1.2,0.6,1.6C225.7,136.3,226.2,136.5,227,136.5z"/>
		<path fill="#282828" d="M229.8,129.7c-0.1-0.1-0.2-0.3-0.2-0.4s0.1-0.3,0.2-0.4c0.1-0.1,0.3-0.2,0.4-0.2c0.2,0,0.3,0.1,0.4,0.2
			c0.1,0.1,0.2,0.3,0.2,0.4s-0.1,0.3-0.2,0.4s-0.3,0.2-0.4,0.2C230.1,129.9,229.9,129.8,229.8,129.7z M229.8,137.3v-6.1h0.9v6.1
			H229.8z"/>
		<path fill="#282828" d="M237.9,134.2c0,0.9-0.3,1.7-0.8,2.2c-0.5,0.6-1.2,0.9-2.1,0.9c-0.9,0-1.6-0.3-2.1-0.9
			c-0.5-0.6-0.8-1.3-0.8-2.2c0-0.9,0.3-1.7,0.8-2.3c0.5-0.6,1.2-0.9,2.1-0.9c0.9,0,1.6,0.3,2.1,0.9
			C237.6,132.6,237.9,133.3,237.9,134.2z M236.9,134.2c0-0.7-0.2-1.2-0.5-1.6c-0.3-0.4-0.8-0.7-1.4-0.7s-1.1,0.2-1.4,0.7
			c-0.3,0.4-0.5,1-0.5,1.6c0,0.6,0.2,1.2,0.5,1.6c0.3,0.4,0.8,0.7,1.4,0.7s1-0.2,1.4-0.7C236.7,135.4,236.9,134.9,236.9,134.2z
			 M234.7,130.5l1.2-1.9h1.1l-1.5,1.9H234.7z"/>
		<path fill="#282828" d="M240.2,131.2v1.1c0.4-0.8,1-1.1,1.9-1.1c0.6,0,1.1,0.2,1.4,0.5s0.5,0.8,0.5,1.4v4.2h-0.9v-3.9
			c0-0.4-0.1-0.8-0.3-1c-0.2-0.2-0.5-0.4-1-0.4s-0.8,0.2-1.1,0.5c-0.3,0.4-0.5,0.8-0.5,1.5v3.3h-0.9v-6.1H240.2z"/>
	</g>
	<g>
		<rect x="297.4" y="118.7" fill="none" width="95" height="56"/>
		<path fill="#282828" d="M323.2,119.9c-0.9,0-1.6,0.3-2.2,0.9c-0.6,0.6-0.9,1.4-0.9,2.3c0,1,0.3,1.8,0.9,2.3s1.3,0.9,2.3,0.9
			c0.8,0,1.4-0.2,2-0.6v1c-0.5,0.3-1.2,0.5-2,0.5c-1.2,0-2.2-0.4-3-1.1c-0.8-0.7-1.1-1.7-1.1-3c0-1.3,0.4-2.3,1.2-3s1.7-1.1,2.9-1.1
			c0.8,0,1.5,0.1,2.1,0.4v1c-0.4-0.2-0.7-0.3-0.9-0.4C324,119.9,323.6,119.9,323.2,119.9z"/>
		<path fill="#282828" d="M332,124.2c0,0.9-0.3,1.7-0.8,2.2c-0.5,0.6-1.2,0.9-2.1,0.9c-0.9,0-1.6-0.3-2.1-0.9
			c-0.5-0.6-0.8-1.3-0.8-2.2c0-0.9,0.3-1.7,0.8-2.3c0.5-0.6,1.2-0.9,2.1-0.9c0.9,0,1.6,0.3,2.1,0.9C331.7,122.5,332,123.3,332,124.2
			z M331,124.2c0-0.7-0.2-1.2-0.5-1.6c-0.3-0.4-0.8-0.7-1.4-0.7s-1.1,0.2-1.4,0.7c-0.3,0.4-0.5,1-0.5,1.6c0,0.6,0.2,1.2,0.5,1.6
			c0.3,0.4,0.8,0.7,1.4,0.7s1-0.2,1.4-0.7C330.8,125.4,331,124.8,331,124.2z"/>
		<path fill="#282828" d="M334.3,121.1v1.1c0.4-0.8,1-1.1,1.9-1.1c0.6,0,1.1,0.2,1.4,0.5s0.5,0.8,0.5,1.4v4.2h-0.9v-3.9
			c0-0.4-0.1-0.8-0.3-1c-0.2-0.2-0.5-0.4-1-0.4s-0.8,0.2-1.1,0.5c-0.3,0.4-0.5,0.8-0.5,1.5v3.3h-0.9v-6.1H334.3z"/>
		<path fill="#282828" d="M341.2,121.9v3.6c0,0.6,0.3,1,0.9,1c0.3,0,0.6-0.1,0.8-0.3v0.9c-0.3,0.1-0.6,0.2-0.9,0.2
			c-1.2,0-1.8-0.6-1.8-1.8v-3.5h-1v-0.8h1v-1.5h0.9v1.5h1.7v0.8H341.2z"/>
		<path fill="#282828" d="M346.2,121c1.5,0,2.3,0.8,2.3,2.3v3.9h-0.9v-0.7c-0.3,0.5-0.9,0.8-1.7,0.8c-0.6,0-1-0.2-1.4-0.5
			s-0.5-0.8-0.5-1.3c0-0.5,0.2-1,0.7-1.3s1-0.5,1.8-0.5h1.1v-0.3c0-0.5-0.1-0.8-0.3-1.1c-0.2-0.2-0.6-0.4-1.2-0.4s-1.1,0.2-1.6,0.5
			v-0.9C344.9,121.1,345.5,121,346.2,121z M347.5,124.4h-1.1c-0.5,0-0.9,0.1-1.2,0.3s-0.4,0.5-0.4,0.8s0.1,0.5,0.3,0.7
			c0.2,0.2,0.5,0.3,0.9,0.3s0.7-0.1,1-0.4c0.3-0.2,0.4-0.6,0.4-0.9V124.4z"/>
		<path fill="#282828" d="M351.1,121.1v1.1c0.3-0.8,0.9-1.1,1.7-1.1c0.1,0,0.3,0,0.3,0v0.9c-0.2-0.1-0.3-0.1-0.5-0.1
			c-0.4,0-0.8,0.2-1.1,0.6c-0.3,0.4-0.4,0.8-0.4,1.4v3.3h-0.9l0-6.1H351.1z"/>
		<path fill="#282828" d="M355,121.1v1.1c0.4-0.8,1-1.1,1.9-1.1c0.6,0,1.1,0.2,1.4,0.5s0.5,0.8,0.5,1.4v4.2h-0.9v-3.9
			c0-0.4-0.1-0.8-0.3-1c-0.2-0.2-0.5-0.4-1-0.4s-0.8,0.2-1.1,0.5c-0.3,0.4-0.5,0.8-0.5,1.5v3.3h-0.9v-6.1H355z"/>
		<path fill="#282828" d="M365.9,124.2c0,0.9-0.3,1.7-0.8,2.2c-0.5,0.6-1.2,0.9-2.1,0.9c-0.9,0-1.6-0.3-2.1-0.9
			c-0.5-0.6-0.8-1.3-0.8-2.2c0-0.9,0.3-1.7,0.8-2.3c0.5-0.6,1.2-0.9,2.1-0.9c0.9,0,1.6,0.3,2.1,0.9
			C365.7,122.5,365.9,123.3,365.9,124.2z M364.9,124.2c0-0.7-0.2-1.2-0.5-1.6c-0.3-0.4-0.8-0.7-1.4-0.7s-1.1,0.2-1.4,0.7
			c-0.3,0.4-0.5,1-0.5,1.6c0,0.6,0.2,1.2,0.5,1.6c0.3,0.4,0.8,0.7,1.4,0.7s1-0.2,1.4-0.7C364.8,125.4,364.9,124.8,364.9,124.2z"/>
		<path fill="#282828" d="M369.1,121.9c-0.3,0-0.6,0.1-0.8,0.2c-0.2,0.1-0.3,0.3-0.3,0.5c0,0.2,0,0.3,0.1,0.4
			c0.1,0.1,0.2,0.2,0.3,0.3c0.2,0.1,0.5,0.3,1,0.5c0.4,0.2,0.8,0.4,1.1,0.7c0.3,0.3,0.4,0.6,0.4,1.1c0,0.5-0.2,0.9-0.5,1.2
			c-0.4,0.3-0.9,0.5-1.6,0.5s-1.3-0.1-1.7-0.4V126c0.5,0.3,1.1,0.5,1.7,0.5c0.4,0,0.6-0.1,0.8-0.2s0.3-0.3,0.3-0.6
			c0-0.3-0.1-0.5-0.3-0.6s-0.6-0.3-1-0.5c-0.5-0.2-0.9-0.4-1.1-0.7s-0.4-0.6-0.4-1.1c0-0.5,0.2-0.9,0.6-1.2c0.4-0.3,0.9-0.4,1.5-0.4
			s1.1,0.1,1.5,0.3v0.9C370.3,122,369.8,121.9,369.1,121.9z"/>
		<path fill="#282828" d="M306.1,140.9c0.5,0,0.9-0.1,1.3-0.4v0.9c-0.4,0.2-0.9,0.3-1.4,0.3c-1,0-1.7-0.3-2.3-0.9s-0.8-1.4-0.8-2.2
			s0.3-1.6,0.8-2.2s1.3-0.9,2.3-0.9c0.5,0,1,0.1,1.4,0.3v0.9c-0.4-0.2-0.8-0.4-1.3-0.4c-0.7,0-1.2,0.2-1.6,0.7
			c-0.4,0.4-0.6,1-0.6,1.7s0.2,1.2,0.6,1.6C304.9,140.7,305.4,140.9,306.1,140.9z"/>
		<path fill="#282828" d="M312.7,135.5h0.9v6.1h-0.9v-1.1c-0.3,0.8-1,1.1-1.9,1.1c-0.6,0-1.1-0.2-1.4-0.5c-0.3-0.4-0.5-0.8-0.5-1.4
			v-4.2h0.9v3.9c0,0.4,0.1,0.8,0.3,1s0.6,0.3,1,0.3c0.4,0,0.8-0.2,1.1-0.5c0.3-0.4,0.4-0.8,0.4-1.4V135.5z"/>
		<path fill="#282828" d="M317.3,135.4c1.5,0,2.3,0.8,2.3,2.3v3.9h-0.9v-0.7c-0.3,0.5-0.9,0.8-1.7,0.8c-0.6,0-1-0.2-1.4-0.5
			s-0.5-0.8-0.5-1.3c0-0.5,0.2-1,0.7-1.3s1-0.5,1.8-0.5h1.1v-0.3c0-0.5-0.1-0.8-0.3-1.1c-0.2-0.2-0.6-0.4-1.2-0.4s-1.1,0.2-1.6,0.5
			v-0.9C316,135.5,316.6,135.4,317.3,135.4z M318.7,138.8h-1.1c-0.5,0-0.9,0.1-1.2,0.3s-0.4,0.5-0.4,0.8s0.1,0.5,0.3,0.7
			c0.2,0.2,0.5,0.3,0.9,0.3s0.7-0.1,1-0.4c0.3-0.2,0.4-0.6,0.4-0.9V138.8z M319.5,133l-1.5,1.9h-0.8l1.2-1.9H319.5z"/>
		<path fill="#282828" d="M322.2,135.5v1.1c0.4-0.8,1-1.1,1.9-1.1c0.6,0,1.1,0.2,1.4,0.5s0.5,0.8,0.5,1.4v4.2h-0.9v-3.9
			c0-0.4-0.1-0.8-0.3-1c-0.2-0.2-0.5-0.4-1-0.4s-0.8,0.2-1.1,0.5c-0.3,0.4-0.5,0.8-0.5,1.5v3.3h-0.9v-6.1H322.2z"/>
		<path fill="#282828" d="M329.1,136.3v3.6c0,0.6,0.3,1,0.9,1c0.3,0,0.6-0.1,0.8-0.3v0.9c-0.3,0.1-0.6,0.2-0.9,0.2
			c-1.2,0-1.8-0.6-1.8-1.8v-3.5h-1v-0.8h1V134h0.9v1.5h1.7v0.8H329.1z"/>
		<path fill="#282828" d="M337.6,138.6c0,0.9-0.3,1.7-0.8,2.2c-0.5,0.6-1.2,0.9-2.1,0.9c-0.9,0-1.6-0.3-2.1-0.9
			c-0.5-0.6-0.8-1.3-0.8-2.2c0-0.9,0.3-1.7,0.8-2.3c0.5-0.6,1.2-0.9,2.1-0.9c0.9,0,1.6,0.3,2.1,0.9
			C337.3,136.9,337.6,137.7,337.6,138.6z M336.6,138.6c0-0.7-0.2-1.2-0.5-1.6c-0.3-0.4-0.8-0.7-1.4-0.7s-1.1,0.2-1.4,0.7
			c-0.3,0.4-0.5,1-0.5,1.6c0,0.6,0.2,1.2,0.5,1.6c0.3,0.4,0.8,0.7,1.4,0.7s1-0.2,1.4-0.7C336.4,139.8,336.6,139.2,336.6,138.6z"/>
		<path fill="#282828" d="M340.7,136.3c-0.3,0-0.6,0.1-0.8,0.2c-0.2,0.1-0.3,0.3-0.3,0.5c0,0.2,0,0.3,0.1,0.4
			c0.1,0.1,0.2,0.2,0.3,0.3c0.2,0.1,0.5,0.3,1,0.5c0.4,0.2,0.8,0.4,1.1,0.7c0.3,0.3,0.4,0.6,0.4,1.1c0,0.5-0.2,0.9-0.5,1.2
			c-0.4,0.3-0.9,0.5-1.6,0.5s-1.3-0.1-1.7-0.4v-0.9c0.5,0.3,1.1,0.5,1.7,0.5c0.4,0,0.6-0.1,0.8-0.2s0.3-0.3,0.3-0.6
			c0-0.3-0.1-0.5-0.3-0.6s-0.6-0.3-1-0.5c-0.5-0.2-0.9-0.4-1.1-0.7s-0.4-0.6-0.4-1.1c0-0.5,0.2-0.9,0.6-1.2c0.4-0.3,0.9-0.4,1.5-0.4
			s1.1,0.1,1.5,0.3v0.9C341.9,136.4,341.4,136.3,340.7,136.3z"/>
		<path fill="#282828" d="M347.8,135.5v1.1c0.4-0.8,1-1.1,1.9-1.1c0.6,0,1.1,0.2,1.4,0.5s0.5,0.8,0.5,1.4v4.2h-0.9v-3.9
			c0-0.4-0.1-0.8-0.3-1c-0.2-0.2-0.5-0.4-1-0.4s-0.8,0.2-1.1,0.5c-0.3,0.4-0.5,0.8-0.5,1.5v3.3h-0.9v-6.1H347.8z"/>
		<path fill="#282828" d="M353.4,134c-0.1-0.1-0.2-0.3-0.2-0.4s0.1-0.3,0.2-0.4c0.1-0.1,0.3-0.2,0.4-0.2c0.2,0,0.3,0.1,0.4,0.2
			c0.1,0.1,0.2,0.3,0.2,0.4s-0.1,0.3-0.2,0.4s-0.3,0.2-0.4,0.2C353.6,134.2,353.5,134.2,353.4,134z M353.3,141.6v-6.1h0.9v6.1H353.3
			z"/>
		<path fill="#282828" d="M357,135.5v1.1c0.4-0.8,1-1.1,1.9-1.1c0.6,0,1.1,0.2,1.4,0.5s0.5,0.8,0.5,1.4v4.2h-0.9v-3.9
			c0-0.4-0.1-0.8-0.3-1c-0.2-0.2-0.5-0.4-1-0.4s-0.8,0.2-1.1,0.5c-0.3,0.4-0.5,0.8-0.5,1.5v3.3h-0.9v-6.1H357z M359.4,134.5
			c-0.2,0-0.5-0.1-0.8-0.3c-0.3-0.2-0.6-0.3-0.7-0.3c-0.3,0-0.6,0.2-0.8,0.6l-0.5-0.4c0.1-0.2,0.3-0.4,0.5-0.6
			c0.2-0.2,0.5-0.2,0.7-0.2c0.2,0,0.5,0.1,0.9,0.3c0.3,0.2,0.6,0.3,0.7,0.3c0.3,0,0.5-0.2,0.6-0.5l0.6,0.4
			C360.3,134.2,360,134.5,359.4,134.5z"/>
		<path fill="#282828" d="M367.9,138.6c0,0.9-0.3,1.7-0.8,2.2c-0.5,0.6-1.2,0.9-2.1,0.9c-0.9,0-1.6-0.3-2.1-0.9
			c-0.5-0.6-0.8-1.3-0.8-2.2c0-0.9,0.3-1.7,0.8-2.3c0.5-0.6,1.2-0.9,2.1-0.9c0.9,0,1.6,0.3,2.1,0.9
			C367.7,136.9,367.9,137.7,367.9,138.6z M366.9,138.6c0-0.7-0.2-1.2-0.5-1.6c-0.3-0.4-0.8-0.7-1.4-0.7s-1.1,0.2-1.4,0.7
			c-0.3,0.4-0.5,1-0.5,1.6c0,0.6,0.2,1.2,0.5,1.6c0.3,0.4,0.8,0.7,1.4,0.7s1-0.2,1.4-0.7C366.8,139.8,366.9,139.2,366.9,138.6z"/>
		<path fill="#282828" d="M371.1,136.3c-0.3,0-0.6,0.1-0.8,0.2c-0.2,0.1-0.3,0.3-0.3,0.5c0,0.2,0,0.3,0.1,0.4
			c0.1,0.1,0.2,0.2,0.3,0.3c0.2,0.1,0.5,0.3,1,0.5c0.4,0.2,0.8,0.4,1.1,0.7c0.3,0.3,0.4,0.6,0.4,1.1c0,0.5-0.2,0.9-0.5,1.2
			c-0.4,0.3-0.9,0.5-1.6,0.5s-1.3-0.1-1.7-0.4v-0.9c0.5,0.3,1.1,0.5,1.7,0.5c0.4,0,0.6-0.1,0.8-0.2s0.3-0.3,0.3-0.6
			c0-0.3-0.1-0.5-0.3-0.6s-0.6-0.3-1-0.5c-0.5-0.2-0.9-0.4-1.1-0.7s-0.4-0.6-0.4-1.1c0-0.5,0.2-0.9,0.6-1.2c0.4-0.3,0.9-0.4,1.5-0.4
			s1.1,0.1,1.5,0.3v0.9C372.3,136.4,371.8,136.3,371.1,136.3z"/>
		<path fill="#282828" d="M379,136.3c-0.3,0-0.6,0.1-0.8,0.2c-0.2,0.1-0.3,0.3-0.3,0.5c0,0.2,0,0.3,0.1,0.4c0.1,0.1,0.2,0.2,0.3,0.3
			c0.2,0.1,0.5,0.3,1,0.5c0.4,0.2,0.8,0.4,1.1,0.7c0.3,0.3,0.4,0.6,0.4,1.1c0,0.5-0.2,0.9-0.5,1.2c-0.4,0.3-0.9,0.5-1.6,0.5
			s-1.3-0.1-1.7-0.4v-0.9c0.5,0.3,1.1,0.5,1.7,0.5c0.4,0,0.6-0.1,0.8-0.2s0.3-0.3,0.3-0.6c0-0.3-0.1-0.5-0.3-0.6s-0.6-0.3-1-0.5
			c-0.5-0.2-0.9-0.4-1.1-0.7s-0.4-0.6-0.4-1.1c0-0.5,0.2-0.9,0.6-1.2c0.4-0.3,0.9-0.4,1.5-0.4s1.1,0.1,1.5,0.3v0.9
			C380.1,136.4,379.6,136.3,379,136.3z"/>
		<path fill="#282828" d="M384.8,141.6c-0.9,0-1.7-0.3-2.2-0.8c-0.6-0.6-0.8-1.3-0.8-2.3c0-0.9,0.3-1.7,0.8-2.3
			c0.5-0.6,1.1-0.8,1.9-0.8c0.8,0,1.4,0.2,1.8,0.7s0.7,1.2,0.7,2.1c0,0.3,0,0.5-0.1,0.7h-4.2c0.1,0.6,0.3,1.1,0.7,1.4
			c0.4,0.3,0.9,0.5,1.6,0.5c0.7,0,1.2-0.1,1.6-0.4v0.9C386.1,141.5,385.5,141.6,384.8,141.6z M386,138.2v-0.2c0-0.5-0.1-0.9-0.4-1.2
			c-0.3-0.3-0.6-0.5-1.1-0.5s-0.9,0.2-1.2,0.5c-0.3,0.3-0.5,0.8-0.6,1.4H386z"/>
		<path fill="#282828" d="M303.4,147.5v3.3c0.4-0.7,1.1-1,1.8-1c0.8,0,1.4,0.3,1.9,0.9c0.5,0.6,0.7,1.3,0.7,2.2
			c0,0.9-0.2,1.7-0.7,2.3c-0.5,0.6-1.1,0.9-1.9,0.9s-1.4-0.3-1.9-1v0.9h-0.9v-8.5H303.4z M303.4,152.9c0,0.8,0.2,1.4,0.5,1.7
			c0.3,0.4,0.8,0.6,1.3,0.6c0.5,0,0.9-0.2,1.2-0.6s0.5-1,0.5-1.7s-0.2-1.3-0.5-1.7s-0.7-0.6-1.2-0.6c-0.5,0-0.9,0.2-1.2,0.5
			C303.6,151.6,303.4,152.1,303.4,152.9z"/>
		<path fill="#282828" d="M312,156c-0.9,0-1.7-0.3-2.2-0.8c-0.6-0.6-0.8-1.3-0.8-2.3c0-0.9,0.3-1.7,0.8-2.3c0.5-0.6,1.1-0.8,1.9-0.8
			s1.4,0.2,1.8,0.7c0.4,0.5,0.7,1.2,0.7,2.1c0,0.3,0,0.5-0.1,0.7h-4.2c0.1,0.6,0.3,1.1,0.7,1.4c0.4,0.3,0.9,0.5,1.6,0.5
			c0.7,0,1.2-0.1,1.6-0.4v0.9C313.2,155.9,312.6,156,312,156z M313.1,152.6v-0.2c0-0.5-0.1-0.9-0.4-1.2c-0.3-0.3-0.6-0.5-1.1-0.5
			c-0.5,0-0.9,0.2-1.2,0.5c-0.3,0.3-0.5,0.8-0.6,1.4H313.1z"/>
		<path fill="#282828" d="M316.5,149.9v1.1c0.4-0.8,1-1.1,1.9-1.1c0.6,0,1.1,0.2,1.4,0.5s0.5,0.8,0.5,1.4v4.2h-0.9v-3.9
			c0-0.4-0.1-0.8-0.3-1c-0.2-0.2-0.5-0.4-1-0.4s-0.8,0.2-1.1,0.5c-0.3,0.4-0.5,0.8-0.5,1.5v3.3h-0.9v-6.1H316.5z"/>
		<path fill="#282828" d="M324.7,156c-0.9,0-1.7-0.3-2.2-0.8c-0.6-0.6-0.8-1.3-0.8-2.3c0-0.9,0.3-1.7,0.8-2.3
			c0.5-0.6,1.1-0.8,1.9-0.8s1.4,0.2,1.8,0.7c0.4,0.5,0.7,1.2,0.7,2.1c0,0.3,0,0.5-0.1,0.7h-4.2c0.1,0.6,0.3,1.1,0.7,1.4
			c0.4,0.3,0.9,0.5,1.6,0.5c0.7,0,1.2-0.1,1.6-0.4v0.9C326,155.9,325.4,156,324.7,156z M325.9,152.6v-0.2c0-0.5-0.1-0.9-0.4-1.2
			c-0.3-0.3-0.6-0.5-1.1-0.5c-0.5,0-0.9,0.2-1.2,0.5c-0.3,0.3-0.5,0.8-0.6,1.4H325.9z"/>
		<path fill="#282828" d="M331.2,148.4c-0.2-0.1-0.4-0.1-0.6-0.1s-0.4,0.1-0.6,0.3c-0.2,0.2-0.2,0.4-0.2,0.8v0.6h1.3v0.8h-1.3v5.3
			h-0.9v-5.3h-1v-0.8h1v-0.6c0-0.6,0.2-1.1,0.5-1.4s0.8-0.5,1.3-0.5c0.2,0,0.4,0,0.6,0.1V148.4z"/>
		<path fill="#282828" d="M332.3,148.4c-0.1-0.1-0.2-0.3-0.2-0.4s0.1-0.3,0.2-0.4c0.1-0.1,0.3-0.2,0.4-0.2c0.2,0,0.3,0.1,0.4,0.2
			c0.1,0.1,0.2,0.3,0.2,0.4s-0.1,0.3-0.2,0.4s-0.3,0.2-0.4,0.2C332.5,148.6,332.4,148.6,332.3,148.4z M332.3,156v-6.1h0.9v6.1H332.3
			z"/>
		<path fill="#282828" d="M337.9,155.3c0.5,0,0.9-0.1,1.3-0.4v0.9c-0.4,0.2-0.9,0.3-1.4,0.3c-1,0-1.7-0.3-2.3-0.9s-0.8-1.4-0.8-2.2
			s0.3-1.6,0.8-2.2s1.3-0.9,2.3-0.9c0.5,0,1,0.1,1.4,0.3v0.9c-0.4-0.2-0.8-0.4-1.3-0.4c-0.7,0-1.2,0.2-1.6,0.7
			c-0.4,0.4-0.6,1-0.6,1.7s0.2,1.2,0.6,1.6C336.6,155.1,337.2,155.3,337.9,155.3z"/>
		<path fill="#282828" d="M340.7,148.4c-0.1-0.1-0.2-0.3-0.2-0.4s0.1-0.3,0.2-0.4c0.1-0.1,0.3-0.2,0.4-0.2c0.2,0,0.3,0.1,0.4,0.2
			c0.1,0.1,0.2,0.3,0.2,0.4s-0.1,0.3-0.2,0.4s-0.3,0.2-0.4,0.2C341,148.6,340.8,148.6,340.7,148.4z M340.7,156v-6.1h0.9v6.1H340.7z"
			/>
		<path fill="#282828" d="M345.4,149.8c1.5,0,2.3,0.8,2.3,2.3v3.9h-0.9v-0.7c-0.3,0.5-0.9,0.8-1.7,0.8c-0.6,0-1-0.2-1.4-0.5
			s-0.5-0.8-0.5-1.3c0-0.5,0.2-1,0.7-1.3s1-0.5,1.8-0.5h1.1v-0.3c0-0.5-0.1-0.8-0.3-1.1c-0.2-0.2-0.6-0.4-1.2-0.4s-1.1,0.2-1.6,0.5
			v-0.9C344,149.9,344.6,149.8,345.4,149.8z M346.7,153.2h-1.1c-0.5,0-0.9,0.1-1.2,0.3s-0.4,0.5-0.4,0.8s0.1,0.5,0.3,0.7
			c0.2,0.2,0.5,0.3,0.9,0.3s0.7-0.1,1-0.4c0.3-0.2,0.4-0.6,0.4-0.9V153.2z"/>
		<path fill="#282828" d="M350.3,149.9v1.1c0.4-0.8,1-1.1,1.9-1.1c0.6,0,1.1,0.2,1.4,0.5s0.5,0.8,0.5,1.4v4.2h-0.9v-3.9
			c0-0.4-0.1-0.8-0.3-1c-0.2-0.2-0.5-0.4-1-0.4s-0.8,0.2-1.1,0.5c-0.3,0.4-0.5,0.8-0.5,1.5v3.3h-0.9v-6.1H350.3z"/>
		<path fill="#282828" d="M362.9,147.5h0.9v8.5h-0.9v-0.9c-0.4,0.7-1.1,1-1.9,1s-1.4-0.3-1.9-0.9c-0.5-0.6-0.7-1.4-0.7-2.3
			c0-0.9,0.2-1.7,0.7-2.2c0.5-0.6,1.1-0.9,1.9-0.9c0.8,0,1.4,0.3,1.8,1V147.5z M359.4,152.9c0,0.7,0.2,1.3,0.5,1.7s0.7,0.6,1.2,0.6
			c0.5,0,0.9-0.2,1.3-0.6c0.3-0.4,0.5-0.9,0.5-1.7s-0.2-1.4-0.5-1.7c-0.4-0.4-0.8-0.5-1.2-0.5c-0.5,0-0.9,0.2-1.2,0.6
			S359.4,152.2,359.4,152.9z"/>
		<path fill="#282828" d="M368.3,156c-0.9,0-1.7-0.3-2.2-0.8c-0.6-0.6-0.8-1.3-0.8-2.3c0-0.9,0.3-1.7,0.8-2.3
			c0.5-0.6,1.1-0.8,1.9-0.8s1.4,0.2,1.8,0.7c0.4,0.5,0.7,1.2,0.7,2.1c0,0.3,0,0.5-0.1,0.7h-4.2c0.1,0.6,0.3,1.1,0.7,1.4
			c0.4,0.3,0.9,0.5,1.6,0.5c0.7,0,1.2-0.1,1.6-0.4v0.9C369.5,155.9,369,156,368.3,156z M369.4,152.6v-0.2c0-0.5-0.1-0.9-0.4-1.2
			c-0.3-0.3-0.6-0.5-1.1-0.5c-0.5,0-0.9,0.2-1.2,0.5c-0.3,0.3-0.5,0.8-0.6,1.4H369.4z"/>
		<path fill="#282828" d="M374.8,156v-8.5h0.9v8.5H374.8z"/>
		<path fill="#282828" d="M382.9,153c0,0.9-0.3,1.7-0.8,2.2c-0.5,0.6-1.2,0.9-2.1,0.9c-0.9,0-1.6-0.3-2.1-0.9
			c-0.5-0.6-0.8-1.3-0.8-2.2c0-0.9,0.3-1.7,0.8-2.3c0.5-0.6,1.2-0.9,2.1-0.9c0.9,0,1.6,0.3,2.1,0.9
			C382.7,151.3,382.9,152.1,382.9,153z M381.9,153c0-0.7-0.2-1.2-0.5-1.6c-0.3-0.4-0.8-0.7-1.4-0.7s-1.1,0.2-1.4,0.7
			c-0.3,0.4-0.5,1-0.5,1.6c0,0.6,0.2,1.2,0.5,1.6c0.3,0.4,0.8,0.7,1.4,0.7s1-0.2,1.4-0.7C381.8,154.2,381.9,153.6,381.9,153z"/>
		<path fill="#282828" d="M386.1,150.7c-0.3,0-0.6,0.1-0.8,0.2c-0.2,0.1-0.3,0.3-0.3,0.5c0,0.2,0,0.3,0.1,0.4
			c0.1,0.1,0.2,0.2,0.3,0.3c0.2,0.1,0.5,0.3,1,0.5c0.4,0.2,0.8,0.4,1.1,0.7c0.3,0.3,0.4,0.6,0.4,1.1c0,0.5-0.2,0.9-0.5,1.2
			s-0.9,0.5-1.6,0.5c-0.7,0-1.3-0.1-1.7-0.4v-0.9c0.5,0.3,1.1,0.5,1.7,0.5c0.4,0,0.6-0.1,0.8-0.2c0.2-0.1,0.3-0.3,0.3-0.6
			c0-0.3-0.1-0.5-0.3-0.6s-0.6-0.3-1-0.5c-0.5-0.2-0.9-0.4-1.1-0.7c-0.3-0.3-0.4-0.6-0.4-1.1c0-0.5,0.2-0.9,0.6-1.2
			c0.4-0.3,0.9-0.4,1.5-0.4c0.6,0,1.1,0.1,1.5,0.3v0.9C387.2,150.8,386.7,150.7,386.1,150.7z"/>
		<path fill="#282828" d="M320.2,164.3v1c0.3-0.7,0.9-1.1,1.7-1.1c0.9,0,1.5,0.4,1.8,1.2c0.2-0.4,0.4-0.7,0.7-0.9s0.7-0.3,1.1-0.3
			c0.6,0,1.1,0.2,1.4,0.5c0.3,0.4,0.5,0.8,0.5,1.5v4.2h-0.9v-3.9c0-0.9-0.4-1.4-1.2-1.4c-0.4,0-0.7,0.2-1,0.5
			c-0.3,0.3-0.5,0.8-0.5,1.5v3.3h-0.9v-3.9c0-0.9-0.4-1.4-1.2-1.4c-0.4,0-0.7,0.2-1,0.5c-0.3,0.3-0.5,0.8-0.5,1.5v3.3h-0.9v-6.1
			H320.2z"/>
		<path fill="#282828" d="M331.1,164.2c1.5,0,2.3,0.8,2.3,2.3v3.9h-0.9v-0.7c-0.3,0.5-0.9,0.8-1.7,0.8c-0.6,0-1-0.2-1.4-0.5
			s-0.5-0.8-0.5-1.3c0-0.5,0.2-1,0.7-1.3s1-0.5,1.8-0.5h1.1v-0.3c0-0.5-0.1-0.8-0.3-1.1c-0.2-0.2-0.6-0.4-1.2-0.4s-1.1,0.2-1.6,0.5
			v-0.9C329.7,164.3,330.3,164.2,331.1,164.2z M332.4,167.6h-1.1c-0.5,0-0.9,0.1-1.2,0.3s-0.4,0.5-0.4,0.8s0.1,0.5,0.3,0.7
			c0.2,0.2,0.5,0.3,0.9,0.3s0.7-0.1,1-0.4c0.3-0.2,0.4-0.6,0.4-0.9V167.6z"/>
		<path fill="#282828" d="M336.3,165.1v3.6c0,0.6,0.3,1,0.9,1c0.3,0,0.6-0.1,0.8-0.3v0.9c-0.3,0.1-0.6,0.2-0.9,0.2
			c-1.2,0-1.8-0.6-1.8-1.8v-3.5h-1v-0.8h1v-1.5h0.9v1.5h1.7v0.8H336.3z"/>
		<path fill="#282828" d="M342.2,170.4c-0.9,0-1.7-0.3-2.2-0.8c-0.6-0.6-0.8-1.3-0.8-2.3c0-0.9,0.3-1.7,0.8-2.3
			c0.5-0.6,1.1-0.8,1.9-0.8s1.4,0.2,1.8,0.7c0.4,0.5,0.7,1.2,0.7,2.1c0,0.3,0,0.5-0.1,0.7h-4.2c0.1,0.6,0.3,1.1,0.7,1.4
			c0.4,0.3,0.9,0.5,1.6,0.5c0.7,0,1.2-0.1,1.6-0.4v0.9C343.4,170.3,342.9,170.4,342.2,170.4z M343.3,167v-0.2c0-0.5-0.1-0.9-0.4-1.2
			c-0.3-0.3-0.6-0.5-1.1-0.5c-0.5,0-0.9,0.2-1.2,0.5c-0.3,0.3-0.5,0.8-0.6,1.4H343.3z"/>
		<path fill="#282828" d="M346.7,164.3v1.1c0.3-0.8,0.9-1.1,1.7-1.1c0.1,0,0.3,0,0.3,0v0.9c-0.2-0.1-0.3-0.1-0.5-0.1
			c-0.4,0-0.8,0.2-1.1,0.6c-0.3,0.4-0.4,0.8-0.4,1.4v3.3h-0.9l0-6.1H346.7z"/>
		<path fill="#282828" d="M349.7,162.8c-0.1-0.1-0.2-0.3-0.2-0.4s0.1-0.3,0.2-0.4c0.1-0.1,0.3-0.2,0.4-0.2c0.2,0,0.3,0.1,0.4,0.2
			c0.1,0.1,0.2,0.3,0.2,0.4s-0.1,0.3-0.2,0.4s-0.3,0.2-0.4,0.2C350,163,349.8,163,349.7,162.8z M349.7,170.4v-6.1h0.9v6.1H349.7z"/>
		<path fill="#282828" d="M354.4,164.2c1.5,0,2.3,0.8,2.3,2.3v3.9h-0.9v-0.7c-0.3,0.5-0.9,0.8-1.7,0.8c-0.6,0-1-0.2-1.4-0.5
			s-0.5-0.8-0.5-1.3c0-0.5,0.2-1,0.7-1.3s1-0.5,1.8-0.5h1.1v-0.3c0-0.5-0.1-0.8-0.3-1.1c-0.2-0.2-0.6-0.4-1.2-0.4s-1.1,0.2-1.6,0.5
			v-0.9C353,164.3,353.6,164.2,354.4,164.2z M355.7,167.6h-1.1c-0.5,0-0.9,0.1-1.2,0.3s-0.4,0.5-0.4,0.8s0.1,0.5,0.3,0.7
			c0.2,0.2,0.5,0.3,0.9,0.3s0.7-0.1,1-0.4c0.3-0.2,0.4-0.6,0.4-0.9V167.6z"/>
		<path fill="#282828" d="M358.4,170.4v-8.5h0.9v8.5H358.4z"/>
		<path fill="#282828" d="M363.8,170.4c-0.9,0-1.7-0.3-2.2-0.8c-0.6-0.6-0.8-1.3-0.8-2.3c0-0.9,0.3-1.7,0.8-2.3
			c0.5-0.6,1.1-0.8,1.9-0.8s1.4,0.2,1.8,0.7c0.4,0.5,0.7,1.2,0.7,2.1c0,0.3,0,0.5-0.1,0.7h-4.2c0.1,0.6,0.3,1.1,0.7,1.4
			c0.4,0.3,0.9,0.5,1.6,0.5c0.7,0,1.2-0.1,1.6-0.4v0.9C365.1,170.3,364.5,170.4,363.8,170.4z M365,167v-0.2c0-0.5-0.1-0.9-0.4-1.2
			c-0.3-0.3-0.6-0.5-1.1-0.5c-0.5,0-0.9,0.2-1.2,0.5c-0.3,0.3-0.5,0.8-0.6,1.4H365z"/>
		<path fill="#282828" d="M369.2,165.1c-0.3,0-0.6,0.1-0.8,0.2c-0.2,0.1-0.3,0.3-0.3,0.5c0,0.2,0,0.3,0.1,0.4
			c0.1,0.1,0.2,0.2,0.3,0.3c0.2,0.1,0.5,0.3,1,0.5c0.4,0.2,0.8,0.4,1.1,0.7c0.3,0.3,0.4,0.6,0.4,1.1c0,0.5-0.2,0.9-0.5,1.2
			c-0.4,0.3-0.9,0.5-1.6,0.5s-1.3-0.1-1.7-0.4v-0.9c0.5,0.3,1.1,0.5,1.7,0.5c0.4,0,0.6-0.1,0.8-0.2s0.3-0.3,0.3-0.6
			c0-0.3-0.1-0.5-0.3-0.6s-0.6-0.3-1-0.5c-0.5-0.2-0.9-0.4-1.1-0.7s-0.4-0.6-0.4-1.1c0-0.5,0.2-0.9,0.6-1.2c0.4-0.3,0.9-0.4,1.5-0.4
			s1.1,0.1,1.5,0.3v0.9C370.3,165.2,369.8,165.1,369.2,165.1z"/>
	</g>
	<g>
		<path fill="#2682A9" d="M82.4,71.6c0-0.1-0.1-0.2-0.2-0.2c-1.4-7.6-2.9-15.1-4.1-22.8c0.8-0.2,1.5-0.6,2-1.6
			c1.7-3.7,2.3-8.6,3-12.5c1.7-9.2,2.3-18.6,2.1-28c0-0.4-0.4-0.8-0.8-0.8C64.1,3.7,43.8,1.9,23.5,0c-0.5,0-0.8,0.3-0.9,0.7
			c-2.6,12-5.1,24.1-6.2,36.3c0,0.5,0.7,0.6,0.8,0.1c2.3-11.8,4.2-23.7,6.8-35.4c19.8,1.9,39.5,3.9,59.3,5.8
			c0.2,8.3-0.4,16.6-1.7,24.9c-0.3,2.1-0.7,4.3-1.2,6.4C80,40.6,79.8,43.2,79,45c-1.3,2.8-3.6,1.9-6.2,1.7c-2.2-0.2-4.3-0.4-6.5-0.6
			c-16.6-1.5-33.2-4.1-49.5-7.7c-0.2,0-0.3,0-0.4,0.1c-0.1-0.1-0.3-0.1-0.4,0c-2.8,3-5,6.6-7.2,10.1c-2,3.2-4.2,6.3-5.9,9.6
			c-0.2,0.5,0.2,0.9,0.7,0.8c-0.1,0.2-0.1,0.5,0.1,0.6C3.4,60.6,3,61.6,3,62.5c0,0.4,0.4,0.6,0.7,0.5c-0.3,0.2-0.3,0.7,0.2,0.8
			c12.9,2.1,25.9,3.4,38.8,5.4c12.9,2,25.7,4.7,38.6,6.8c0.3,0.1,0.6-0.2,0.8-0.4C82.8,74.2,82.8,73.1,82.4,71.6z M10.9,48.6
			c1.9-2.9,3.8-5.9,5.2-9.1c0.1,0.2,0.2,0.3,0.5,0.4c18.9,4.2,38,7,57.3,8.5c0.9,0.1,1.9,0.3,2.9,0.3c0.7,7.3,2,14.9,4.2,21.9
			C68.5,67.2,55.6,65,42.8,63c-12.4-1.9-25.3-4-37.8-4c0-0.1,0-0.2,0.1-0.3c0.1-0.3-0.2-0.4-0.4-0.5C6.9,55.2,8.9,51.8,10.9,48.6z
			 M76.3,73.6c-1.7-0.3-3.4-0.7-5.1-1c-3-0.6-6-1.1-9-1.6c-6.4-1.1-12.9-2.2-19.3-3.2C30,65.9,17,63.8,4,62.9c-0.1,0-0.1,0-0.2,0
			c0.1-0.1,0.1-0.1,0.2-0.2c0.4-0.8,0.6-1.8,0.8-2.8c12.5,2,25.3,2.8,37.8,4.7c12.9,2,25.5,4.9,38.2,7.5c0.2,0,0.3,0,0.5-0.1
			C81.9,75.6,77.7,73.9,76.3,73.6z"/>
		<path fill="#2682A9" d="M80.2,19.3c0.1-0.5,0.1-1,0.2-1.4c0.3-2.3,0.7-4.7,0.1-7c-0.1-0.4-0.5-0.6-0.8-0.5c0-0.1-0.1-0.2-0.2-0.3
			c-1.7-1-3.4-1.6-5.3-1.8c0,0-0.1-0.1-0.1-0.1c-0.3-0.2-0.7-0.2-1-0.1c-1.3-0.1-2.5-0.2-3.8-0.2C64.6,7.7,60,7.5,55.5,7.2
			c-4-0.3-7.9-0.7-11.9-1.2c-0.1,0-0.2-0.1-0.4,0C37.9,5.3,32.7,4.6,27.4,4c-0.5-0.1-0.6,0.7-0.1,0.8c0.1,0,0.2,0,0.3,0
			c0,0,0,0.1-0.1,0.1c-0.3-0.3-0.9-0.3-1,0.3c-1.9,10.3-4.2,20.5-6.8,30.7c-0.3,0.1-0.3,0.5-0.1,0.6c0.1,0.2,0.4,0.3,0.5,0.1
			c9.3,1.6,18.5,3.1,27.8,4.5C56,42.4,64,44,72.1,45c0,0,0,0,0,0c0.3,0.4,0.8,0.3,1.1,0.1c0.7,0.1,1.4,0.2,2.1,0.2
			c0.1,0,0.1,0,0.2,0c0.2,0,0.4,0.1,0.6,0.1c0.9,0.1,1.1-1.2,0.2-1.4c1.3-5.6,2.1-11.4,2.9-17.1c0.3-2.3,0.6-4.7,0.9-7
			C80.2,19.7,80.2,19.5,80.2,19.3z M62.2,41.8C62.2,41.8,62.2,41.8,62.2,41.8L62.2,41.8C62.2,41.8,62.2,41.7,62.2,41.8
			c-3.3-5.7-7.5-10.7-11.7-15.7c-3-4-6-8.1-9-12.1c7.3,9.3,14.7,18.6,22,28C63.1,41.9,62.6,41.8,62.2,41.8z M31.1,37.4
			c-0.9-1.8-1.8-3.7-2.7-5.5c1.2,1.9,2.5,3.8,3.8,5.6C31.8,37.5,31.4,37.5,31.1,37.4z M27.6,5.6c0.7,1.8,1.4,3.4,2.3,5
			c-0.7-0.9-1.4-1.7-2.2-2.5c-0.2-0.2-0.4-0.3-0.6-0.2C27.3,7.1,27.4,6.3,27.6,5.6z M26.5,11c0.1-0.6,0.2-1.2,0.4-1.8
			c1.6,2.6,3.3,5.1,4.9,7.7c-1.5-1.9-3-3.8-4.5-5.7C27.1,10.8,26.8,10.8,26.5,11z M26.3,11.9c4,5.5,7.7,11.1,11.3,16.8
			c-3.7-5-7.4-10-11.1-15c-0.1-0.2-0.3-0.3-0.5-0.2C26.1,13,26.2,12.5,26.3,11.9z M25.7,14.9c2.4,3.8,4.9,7.6,7.3,11.4
			c-2.4-3.1-4.8-6.2-7.2-9.3c-0.2-0.2-0.3-0.3-0.5-0.2C25.4,16.1,25.5,15.5,25.7,14.9z M25.3,19.3c-0.2-0.2-0.4-0.3-0.6-0.2
			c0.1-0.4,0.2-0.7,0.2-1.1c1.4,2.3,2.9,4.6,4.3,7C27.9,23.1,26.6,21.2,25.3,19.3z M24.4,20.2c1,1.8,2,3.6,3,5.5
			c-0.9-1.4-1.9-2.8-2.8-4.2c-0.1-0.2-0.3-0.2-0.5-0.2C24.3,21,24.4,20.6,24.4,20.2z M24.3,23.8c-0.2-0.2-0.4-0.3-0.6-0.2
			c0.1-0.3,0.2-0.7,0.3-1c0.7,1.2,1.3,2.4,2,3.6C25.3,25.4,24.8,24.6,24.3,23.8z M23.4,24.5c1.2,2.4,2.5,4.9,3.7,7.3
			c-1.2-1.6-2.3-3.2-3.5-4.8c-0.3-0.4-1,0-0.8,0.5c0.7,1.8,1.5,3.4,2.3,5.1c0,0-0.1-0.1-0.1-0.1c-0.1-0.3-0.3-0.5-0.6-0.7
			c-0.6-0.7-1.2-1.4-1.8-2.1c-0.2-0.2-0.5-0.2-0.7,0.1C22.5,28,23,26.3,23.4,24.5z M22,30.1c0.2,0.4,0.4,0.9,0.6,1.3
			c-0.5,0.2-0.9,0.5-1.2,1c0,0,0,0,0,0c0.2-0.8,0.4-1.6,0.6-2.4C22,30,22,30.1,22,30.1z M24.6,36.6c-0.5-0.1-0.9-0.1-1.4-0.2
			c0.3-0.1,0.5-0.2,0.8-0.4C24.2,36.2,24.4,36.4,24.6,36.6z M25.8,36.5c-0.2-0.5-0.5-1.1-0.7-1.6c0.1-0.3,0.2-0.5,0.3-0.8
			c0.7,0.9,1.4,1.7,2.2,2.6c0.3,0.4,0.9-0.1,0.6-0.5c-1-1.6-1.9-3.2-2.7-4.8c1.4,2,2.8,4,4.2,6c-1.3-0.2-2.5-0.3-3.8-0.5
			C25.8,36.6,25.8,36.6,25.8,36.5z M33.2,37.2c-0.7-1.3-1.4-2.6-2.1-3.8c1,1.5,2,3,3,4.5c-0.3,0-0.6-0.1-0.9-0.1
			C33.3,37.6,33.3,37.4,33.2,37.2z M35.5,37.7c-1.4-2.6-2.9-5.2-4.3-7.8c2,2.8,4.1,5.6,6.2,8.4c-0.6-0.1-1.2-0.2-1.8-0.3
			C35.6,37.9,35.5,37.8,35.5,37.7z M38.6,38c-2.3-3.7-4.5-7.4-6.8-11.1c2.9,3.8,5.8,7.6,8.8,11.3c0.5,0.7,1.4-0.1,1-0.8l-4.8-7.5
			c2.3,3.1,4.5,6.2,6.8,9.2c-1.6-0.2-3.3-0.5-4.9-0.7C38.8,38.3,38.7,38.1,38.6,38z M45.3,39.2C43,35.1,40.5,31,38,27
			c3.3,4.3,6.7,8.6,10,12.8c-0.9-0.1-1.8-0.3-2.6-0.4C45.3,39.4,45.3,39.3,45.3,39.2z M49,39c-5.3-7-10.4-14.2-15.2-21.6
			c5.9,7.4,11.6,15,16.9,22.8c-0.6-0.1-1.3-0.2-1.9-0.3C49.1,39.8,49.3,39.4,49,39z M52.3,40.2c-5.3-10.6-14.6-18.7-20.4-28.9
			c7.3,9.8,14.6,19.5,21.9,29.3c-0.5-0.1-1-0.1-1.4-0.2C52.4,40.4,52.4,40.3,52.3,40.2z M42.4,7.1c0.3,0.8,0.7,1.5,1.1,2.2
			c-0.7-0.8-1.3-1.6-2-2.5C41.9,7,42.1,7,42.4,7C42.4,7.1,42.4,7.1,42.4,7.1z M39.7,7c4,5.8,7.9,11.6,11.9,17.4
			c-4.7-6-9.4-12-14.1-18c0.7,0.1,1.4,0.2,2.1,0.3C39.6,6.8,39.6,6.9,39.7,7z M34.3,7c3.4,5.1,6.7,10.2,10.1,15.3
			C40.2,16.7,36,11.1,31.8,5.5c0.9,0.1,1.8,0.3,2.7,0.4C34.2,6.2,34.1,6.6,34.3,7z M30.4,6.2c1.7,2.5,3.4,5.1,5.2,7.6L29,5.1
			c0.5,0.1,0.9,0.1,1.4,0.2C30.2,5.6,30.2,5.9,30.4,6.2z M55.2,40c-2.1-3.1-4.2-6.1-6.2-9.2c2.6,3.4,5.1,6.8,7.7,10.2
			c-0.5-0.1-1-0.1-1.5-0.2C55.3,40.6,55.4,40.3,55.2,40z M58.8,41.3c-2.9-4.4-5.8-8.8-8.7-13.1c3.3,4.4,6.6,8.9,9.9,13.3
			C59.6,41.4,59.2,41.4,58.8,41.3z M65.4,42c-4.4-6.4-8.8-12.9-13.2-19.3c5.3,6.7,10.6,13.3,15.9,20c-0.9-0.1-1.8-0.3-2.7-0.4
			C65.4,42.1,65.4,42.1,65.4,42z M72.9,43.4c-1.9-2.6-3.8-5.3-5.8-7.9c2.2,2.7,4.3,5.3,6.5,8C73.4,43.5,73.2,43.5,72.9,43.4z
			 M76.7,23.4c0.6,0.8,2.1,0,1.6-0.9c-1.1-2.1-2.2-4.2-3.3-6.3c1.2,1.3,2.4,2.6,3.5,3.9c0.1,0.1,0.2,0.2,0.3,0.2
			c-0.3,2.4-0.7,4.7-1.1,7c-1.7-3-3.4-6-5.1-8.9C73.9,20,75.3,21.7,76.7,23.4z M76.2,28.3c0.3,0.4,0.9,0.4,1.3,0.1
			c-0.1,0.7-0.2,1.5-0.3,2.2l-1.8-2.2c-2.5-3.1-4.8-6.2-7-9.5C71,22.1,73.6,25.2,76.2,28.3z M60.6,9.7c0.6,1.1,1.3,2.2,1.9,3.3
			c-1.2-1.4-2.4-2.8-3.6-4.3c0.6,0,1.1,0.1,1.7,0.1C60.5,9.1,60.4,9.4,60.6,9.7z M73.9,29.4c0.8,0.9,1.5,1.8,2.3,2.7
			c0.2,0.3,0.5,0.3,0.8,0.3c-0.1,0.6-0.2,1.3-0.3,1.9C72.1,28.7,67.5,23,63.5,17C66.9,21.1,70.4,25.3,73.9,29.4z M75.9,36.2
			c0.1,0.1,0.3,0.2,0.4,0.3c-0.1,1-0.3,1.9-0.4,2.9c0-0.1-0.1-0.2-0.1-0.3c-3.8-5.5-7.6-11.1-11.3-16.6
			C68.3,27.1,72.1,31.7,75.9,36.2z M53.3,9.2c1.9,2.8,3.8,5.5,5.6,8.3c-2.4-3.1-4.9-6.3-7.3-9.4c0.5,0.1,1.1,0.1,1.6,0.2
			C53.1,8.5,53,8.9,53.3,9.2z M74.4,40.2c0.4,0.6,1.1,0.4,1.4-0.1c-0.1,0.9-0.2,1.8-0.4,2.8c-2.6-3.7-5.1-7.5-7.7-11.2
			C70,34.6,72.2,37.4,74.4,40.2z M78.3,14.7c0.2,0.3,0.6,0.4,0.9,0.3c0,0.7-0.1,1.4-0.1,2.2c-0.7-1.4-1.5-2.8-2.2-4.1
			C77.4,13.6,77.9,14.2,78.3,14.7z M79.2,11.3c0,0.2,0,0.5,0.1,0.8c-0.2-0.3-0.5-0.7-0.9-1c0.1,0.1,0.3,0.1,0.4,0.2
			C78.9,11.3,79,11.3,79.2,11.3z M72.8,9.6c0.6,1.1,1.2,2.2,1.8,3.4c-1-1-1.9-2-2.9-3c-0.7-0.7-2.2-0.1-1.6,1
			c0.8,1.4,1.5,2.8,2.3,4.2c-1.6-2-3.3-3.9-4.9-5.9C69.2,9.4,71,9.4,72.8,9.6z M65.8,9.3c-0.2,0.2-0.2,0.5,0,0.8
			c1.9,3.2,3.7,6.5,5.6,9.7c-3-3.6-6.1-7.2-9.1-10.8C63.5,9.1,64.6,9.2,65.8,9.3C65.8,9.3,65.8,9.3,65.8,9.3z M56.5,8.6
			c1,1.9,2,3.7,3.1,5.5c-1.6-1.9-3.2-3.8-4.8-5.7C55.4,8.5,56,8.5,56.5,8.6z M49.9,7.9c-0.2,0.3-0.2,0.6,0,1c4.1,6,8.2,12,12.4,17.9
			c-5-6.2-10-12.4-15-18.5c-0.6-0.7-1.6-0.1-1.5,0.7c-0.4-0.6-0.8-1.1-1.2-1.7C46.4,7.5,48.2,7.7,49.9,7.9z M20.9,34
			c0,0.7,0.2,1.4,0.7,1.9c0.3,0.3,0.9-0.1,0.6-0.5c0,0,0,0,0,0c0.2,0.3,0.4,0.6,0.5,0.9c0,0,0,0,0.1,0.1c-0.8-0.1-1.6-0.2-2.4-0.3
			C20.5,35.3,20.7,34.7,20.9,34z M69.5,42.9c0.2-0.2,0.2-0.5,0.1-0.7c0.2,0.3,0.5,0.6,0.7,0.9C70.1,43,69.8,42.9,69.5,42.9z"/>
		<path fill="#2682A9" d="M77.2,67.3c-0.3-5.5-1.2-11.6-3.3-16.7c-0.1-0.3-0.3-0.3-0.6-0.3c-0.1-0.2-0.2-0.5-0.5-0.5
			c-1.1,0-2.3,0-3.4,0c-0.2-0.1-0.4-0.1-0.5,0c-1.3,0-2.5-0.1-3.8-0.1c0,0,0,0,0,0c-0.1-0.5-0.9-0.5-1,0C57.7,49.4,51.4,49,45,48.1
			c-9.2-1.3-18.3-3.4-27.3-5.7c0-0.4-0.7-0.6-0.9-0.1c-2,5-4,9.5-7.3,13.8c-0.3,0.4,0.3,0.8,0.6,0.4c0.9-1,1.9-2.1,2.7-3.2
			c0,0.2,0.1,0.4,0.3,0.5c1.4,0.2,2.8,0.5,4.2,0.7c-0.3,0.7-0.7,1.3-1,2c-1.9,0.1-3.7,0.2-5.6,0.3c-0.4,0-0.4,0.8,0,0.8
			c11,0.1,21.8,0.9,32.7,2.8c3.8,0.7,7.6,1.5,11.4,2.3c0,0.1,0,0.1,0,0.2c0,0.5,0.8,0.5,0.9,0c6.7,1.5,13.3,3.2,19.9,4.9
			c0.9,0.2,1.1-1.2,0.2-1.4c-1.6-0.4-3.2-0.8-4.7-1.2c-0.1-1.2-0.1-2.4-0.2-3.6c1.2,0.1,2.4,0.3,3.6,0.4c0.3,0,0.5-0.1,0.6-0.3
			c0.5,1.9,0.9,3.9,1.4,5.8C76.6,67.8,77.2,67.7,77.2,67.3z M72.9,51.1c0,0,0.1,0,0.1,0c0.1,0.5,0.2,1,0.2,1.5
			c-1.1-0.1-2.1-0.1-3.2-0.2c0-0.4-0.1-0.8-0.1-1.2C70.9,51.1,71.9,51.1,72.9,51.1z M68.8,53.9c0.1,0.9,0.2,1.7,0.3,2.6
			c-1.2-0.2-2.4-0.4-3.6-0.6c0-0.6,0-1.3-0.1-1.9C66.6,54,67.7,53.9,68.8,53.9z M68.5,51.1c0,0.4,0.1,0.8,0.1,1.2
			c-1.1,0-2.2,0-3.3,0c0-0.4-0.1-0.8-0.1-1.2C66.4,51.1,67.5,51.1,68.5,51.1z M63.9,53.9c0,0.6,0,1.1,0,1.7
			c-0.9-0.1-1.8-0.3-2.6-0.4c0-0.5,0-1,0-1.4C62.2,53.9,63,53.9,63.9,53.9z M64,51c0,0.4-0.1,0.8-0.1,1.2c-0.9,0-1.8,0-2.8-0.1
			c0-0.4,0-0.8-0.1-1.2c0,0,0,0,0,0C62.1,51,63,51,64,51z M60.1,50.9C60.1,50.9,60.1,50.9,60.1,50.9c-0.1,0.4-0.1,0.8-0.2,1.2
			c-0.2,0-0.4,0-0.5,0c-1.2-0.1-2.4-0.2-3.6-0.3c0-0.3-0.1-0.7-0.2-1c0,0,0-0.1,0-0.1C57.1,50.7,58.6,50.8,60.1,50.9z M41.9,49
			c-0.1,0.3-0.3,0.6-0.4,0.9c-1-0.2-2-0.3-3.1-0.5c0-0.3,0-0.6,0-0.9c0,0,0-0.1,0-0.1C39.6,48.6,40.7,48.8,41.9,49z M38.2,50.7
			c0.9,0.1,1.8,0.3,2.7,0.4c-0.2,0.4-0.3,0.8-0.5,1.2c-0.9-0.1-1.7-0.2-2.6-0.4C38,51.6,38.1,51.1,38.2,50.7z M33.8,47.5
			c1.3,0.3,2.7,0.6,4,0.8c-0.1,0-0.1,0.1-0.1,0.1c-0.1,0.2-0.3,0.5-0.4,0.8c-1.3-0.2-2.6-0.4-3.9-0.7C33.6,48.2,33.7,47.8,33.8,47.5
			z M36.9,50.5c-0.1,0.4-0.2,0.9-0.4,1.3c-1.4-0.2-2.8-0.4-4.3-0.6c0.2-0.5,0.5-0.9,0.7-1.4C34.2,50.1,35.6,50.3,36.9,50.5z
			 M29.2,46.4c1.3,0.3,2.5,0.6,3.8,0.9c-0.2,0.3-0.4,0.7-0.6,1c-1.2-0.2-2.5-0.4-3.7-0.6C28.8,47.3,29,46.9,29.2,46.4z M31.6,49.6
			c-0.2,0.5-0.5,1-0.7,1.4c-1.2-0.2-2.5-0.3-3.7-0.5c0.3-0.5,0.6-1.1,0.8-1.6C29.3,49.2,30.4,49.4,31.6,49.6z M27.5,47.5
			c-1.6-0.3-3.3-0.5-4.9-0.8c0.3-0.5,0.6-1.1,0.9-1.6c0,0,0-0.1,0-0.1c1.5,0.4,3.1,0.9,4.7,1.3C28,46.6,27.7,47.1,27.5,47.5z
			 M20.8,49.9c0.4-0.7,0.8-1.5,1.2-2.2c1.6,0.3,3.2,0.7,4.9,1c-0.3,0.6-0.6,1.2-0.9,1.7C24.3,50.2,22.6,50.1,20.8,49.9z M25.4,51.7
			c-0.4,0.8-0.8,1.6-1.2,2.4c-1.8-0.2-3.6-0.4-5.4-0.6c0.5-0.8,1-1.7,1.5-2.6C22,51.2,23.7,51.5,25.4,51.7z M17.6,43.1
			c1.6,0.5,3.3,1.1,5,1.5c0,0,0,0,0,0c-0.3,0.6-0.7,1.3-1,1.9c-1.4-0.2-2.8-0.4-4.2-0.6c-0.4-0.1-0.5,0.6-0.1,0.7
			c1.3,0.3,2.5,0.6,3.8,0.8c-0.4,0.8-0.8,1.6-1.2,2.3c-1.5-0.1-3-0.2-4.6-0.3C16.3,47.5,17.1,45.3,17.6,43.1z M13.2,52.9
			c-0.1,0-0.2,0-0.2,0c0.7-1,1.3-2,1.9-3c0,0,0,0,0,0c1.4,0.3,2.9,0.5,4.3,0.8c-0.5,0.9-0.9,1.8-1.4,2.6
			C16.3,53.2,14.8,53.1,13.2,52.9z M23.1,56.5c-2-0.1-4-0.1-6,0c0.4-0.6,0.7-1.2,1.1-1.9c1.8,0.3,3.6,0.5,5.4,0.8
			C23.4,55.7,23.3,56.1,23.1,56.5z M28.5,56.8c-1.6-0.1-3.1-0.2-4.7-0.3c0.2-0.3,0.4-0.7,0.6-1c1.5,0.2,2.9,0.4,4.4,0.6
			C28.7,56.3,28.6,56.5,28.5,56.8z M25.2,54.2c0.5-0.8,0.9-1.6,1.3-2.4c1.3,0.2,2.5,0.3,3.8,0.5c-0.3,0.8-0.7,1.6-1,2.4
			C28,54.6,26.6,54.4,25.2,54.2z M34.3,57.4c-1.7-0.2-3.5-0.4-5.2-0.5c0.1-0.2,0.3-0.5,0.4-0.7c1.7,0.2,3.4,0.4,5.1,0.6
			C34.5,56.9,34.4,57.2,34.3,57.4z M30.2,54.9c0.5-0.8,0.9-1.6,1.3-2.4c1.5,0.2,3,0.4,4.5,0.6c-0.3,0.8-0.6,1.6-1,2.4
			C33.5,55.3,31.9,55.1,30.2,54.9z M38.4,57.9c-1.1-0.2-2.2-0.3-3.2-0.4c0.1-0.2,0.2-0.4,0.4-0.6c1,0.1,2.1,0.3,3.1,0.4
			C38.5,57.5,38.4,57.7,38.4,57.9z M36.2,55.7c0.4-0.8,0.8-1.6,1.2-2.4c0.9,0.1,1.7,0.2,2.6,0.3c-0.3,0.8-0.6,1.7-0.9,2.5
			C38.1,55.9,37.1,55.8,36.2,55.7z M44,58.8c-1.6-0.3-3.2-0.6-4.8-0.8c0.1-0.2,0.2-0.4,0.3-0.7c1.4,0.2,2.9,0.4,4.3,0.5
			c0.1,0,0.3,0,0.4,0.1C44.2,58.3,44.1,58.6,44,58.8z M45,54.7c-0.1,0.7-0.3,1.4-0.4,2.1c-0.2,0-0.4,0-0.6-0.1
			c-1.3-0.2-2.6-0.3-3.9-0.5c0.3-0.8,0.7-1.7,1-2.5c0.9,0.1,1.8,0.2,2.6,0.3c0.5,0.1,0.9,0.1,1.4,0.2C45,54.4,45,54.5,45,54.7z
			 M45.2,53c-0.5-0.1-0.9-0.1-1.4-0.2c-0.8-0.1-1.6-0.2-2.3-0.3c0.1-0.4,0.3-0.8,0.4-1.2c1.2,0.2,2.3,0.4,3.5,0.5
			C45.3,52.2,45.3,52.6,45.2,53z M45.8,49.9c-0.1,0.2-0.1,0.4-0.2,0.6c-0.1,0-0.2,0-0.3,0c-1-0.1-2.1-0.3-3.1-0.5
			c0.1-0.3,0.2-0.5,0.2-0.8c0-0.1,0-0.1,0-0.1c4.1,0.6,8.2,1.1,12.4,1.5c0,0.1-0.1,0.1-0.1,0.2c-0.1,0.3-0.1,0.6-0.1,0.9
			c-1.3-0.1-2.5-0.3-3.8-0.4c0-0.2-0.1-0.4-0.1-0.6c-0.1-0.4-0.7-0.4-0.8,0c0,0.2-0.1,0.3-0.1,0.5c-1.1-0.1-2.2-0.3-3.3-0.4
			c0-0.2,0-0.4-0.1-0.6C46.4,49.7,45.9,49.6,45.8,49.9z M49.8,54.9c0,0.3,0,0.6,0,0.9c0,0.5,0,1.1,0,1.6c-1.4-0.2-2.8-0.3-4.2-0.5
			c0.2-0.8,0.5-1.7,0.6-2.5C47.4,54.6,48.6,54.7,49.8,54.9z M46.5,52c1,0.2,2.1,0.3,3.2,0.5c0,0.4,0,0.8,0,1.1
			c-1.1-0.1-2.2-0.3-3.3-0.4C46.5,52.8,46.5,52.4,46.5,52z M44.9,59c0.1-0.3,0.2-0.6,0.3-0.9c1.5,0.2,3.1,0.4,4.6,0.6
			c0,0.4,0,0.8,0,1.3C48.2,59.7,46.6,59.3,44.9,59z M50.9,52.7c1.2,0.2,2.4,0.3,3.6,0.5c0,0.4,0,0.7,0,1.1c-1.2-0.2-2.4-0.3-3.6-0.5
			C50.9,53.4,50.9,53,50.9,52.7z M50.8,55.2c0-0.1,0-0.1,0-0.2c1.2,0.2,2.4,0.3,3.6,0.5c0,0.8,0,1.6,0.1,2.4
			c-1.3-0.2-2.5-0.3-3.8-0.5C50.8,56.7,50.8,56,50.8,55.2z M50.6,60.2c0-0.4,0.1-0.9,0.1-1.3c1.3,0.2,2.6,0.4,4,0.6
			c0,0.6,0.1,1.1,0.1,1.7C53.4,60.8,52,60.5,50.6,60.2z M56,53.3c1.3,0.2,2.6,0.3,3.9,0.4c0,0.4,0,0.9,0,1.3
			c-1.3-0.2-2.5-0.4-3.8-0.5C56,54.1,56,53.7,56,53.3z M56,55.8c1.3,0.2,2.5,0.4,3.8,0.5c0,0.8,0.1,1.5,0.2,2.3
			c-1.4-0.2-2.7-0.3-4.1-0.5C56,57.3,56,56.6,56,55.8z M55.8,61.3c0-0.6,0.1-1.2,0.1-1.7c1.4,0.2,2.9,0.4,4.3,0.6
			c0.1,0.8,0.3,1.6,0.4,2.3C59,62.1,57.4,61.7,55.8,61.3z M61.3,56.5c0.9,0.1,1.8,0.2,2.7,0.4c0.1,0.8,0.1,1.5,0.2,2.2
			c-0.9-0.1-1.9-0.2-2.8-0.4C61.4,58,61.4,57.3,61.3,56.5z M61.7,62.7c-0.1-0.8-0.2-1.6-0.2-2.4c1,0.1,2,0.3,2.9,0.4
			c0.1,0.9,0.3,1.9,0.4,2.8C63.8,63.3,62.7,63,61.7,62.7z M65.6,57.1c1.2,0.2,2.5,0.3,3.7,0.5c0.1,0.8,0.2,1.5,0.3,2.3
			c-1.3-0.2-2.7-0.4-4-0.5C65.6,58.6,65.6,57.8,65.6,57.1z M65.8,63.8c-0.1-1-0.1-1.9-0.1-2.9c1.4,0.2,2.8,0.3,4.2,0.5
			c0.2,1.2,0.4,2.4,0.6,3.6C68.9,64.6,67.3,64.2,65.8,63.8z M74.7,60.6c-1.3-0.2-2.6-0.4-3.9-0.6c-0.1-0.8-0.1-1.5-0.2-2.2
			c0.6,0.1,1.2,0.2,1.8,0.2c0.7,0.1,0.8-1,0.1-1.1c-0.7-0.1-1.3-0.2-2-0.3c-0.1-1-0.2-1.9-0.3-2.9c1.1-0.1,2.1-0.2,3.2-0.4
			c0.4,2.4,1,4.9,1.5,7.4C74.8,60.7,74.8,60.6,74.7,60.6z"/>
	</g>
	<g>
		<path fill="#2682A9" d="M391,59.5c-1.4,0.6-2.8,1.4-4.1,2.3c-0.3,0.2-0.5,0.5-0.5,0.8c-0.1,0-0.2,0-0.3,0
			c-3.8,0.3-7.5,0.6-11.2,0.1c-0.1,0-0.3,0-0.4,0.1c0-0.3,0-0.6,0-0.9c0-0.4-0.3-1-0.8-1.1c-2.4-0.3-4.7-0.4-7.1-0.4
			c0-0.3,0.1-0.6,0.1-0.8c0,0,0-0.1,0-0.1c0.1-0.4,0.2-0.7,0.2-1.1c4.2-1.2,7.2-4.8,6.6-9.6c-0.6-4.4-5.8-9.5-10.4-7.5
			c-3.4,0.1-6.5,3.2-7.6,6.6c-1.8,5.4,1.7,10.2,7.1,10.8c0.8,0.1,1.6,0.1,2.4,0c-0.1,0.5-0.3,1-0.2,1.5c0,0.1,0,0.1,0.1,0.1
			c-2.1,0-4.1,0-6.2-0.2c-0.8-0.1-1,1.3-0.2,1.5c2.8,0.6,5.5,0.7,8.4,0.8c3.1,0,5.4,0.3,5.6,3.7c0.1,2.2,0.1,4.4,0.1,6.6
			c0,4.4-0.1,8.8,0,13.2c0.1,4.8,1,5.7-3.7,6.2c0-1,0-1.9,0-2.9c0-1.7,0.3-3.6-0.3-5.2c0,0,0,0,0,0c0.8,0,1.6,0,2.4,0
			c1.5,0,1.5-2.3,0-2.3c-3.6,0-7.2,0.3-10.7,0.9c0-6,0.3-12.1-1.1-17.9c0.3-0.6,0.2-1.4-0.5-1.6c0-0.2-0.1-0.3-0.1-0.5
			c-0.3-1-1.9-0.6-1.6,0.5c0,0.1,0,0.1,0,0.2c-1.7,0.4-3.3,1.3-4.8,2c-2,0.9-3.9,1.8-5.8,2.7c-0.2-0.2-0.5-0.4-0.9-0.4
			c-0.2,0-0.4,0-0.6,0c0-0.7,0-1.3,0-2c0-1.5-2.2-1.5-2.4,0c0,0.5-0.3,1-0.6,1.4c-0.1,0-0.2-0.1-0.3-0.1c-0.6-0.1-0.9,0.8-0.3,1
			c-0.1,0.2-0.1,0.5-0.1,0.7c-0.6,0.1-0.9,0.6-0.9,1.1c-1.6,0-3.2,0.3-4.9,0.5c-2.1,0.2-4.3,0.3-6.4,0.4c-0.4-0.6-0.8-1.3-1.2-2
			c0,0,0,0-0.1-0.1c3.1-4.1,4-10.6,1.9-14.6c0,0,0.1,0,0.1-0.1c0.1,0.1,0.2,0.1,0.4,0.1c1.3,0.2,2.7,0.5,4,0.8
			c1.2,0.3,2.2,0.9,3.3,1.4c1.2,0.5,2-1.2,1.2-2.1c-0.7-0.8-1.7-1.3-2.7-1.6c0.4-0.1,0.9-0.2,1.3-0.3c1.4-0.3,1.1-2.6-0.3-2.6
			c-0.7,0-1.4,0.1-2.1,0.2c0.8-0.5,1.5-1,2.3-1.5c1.1-0.8,0.4-2.4-0.9-2.2c-3.3,0.6-6.9,2.2-8.6,5.3c0,0,0,0,0,0
			c-1.2-0.9-2.8-1.3-4.7-1.2c-0.4,0-0.6,0.2-0.8,0.4c-5.4-1.8-10.2,3-11.4,8.2c-3.2-3.6-8.5-4.6-12.6-1.8c-1.1,0.7-0.8,2.6,0.7,2.6
			c0.3,0,0.5,0,0.8,0c-1,0.5-0.5,2,0.6,2c1.2,0,2.3-0.1,3.5-0.2c-0.8,0.8-1.6,1.6-2.3,2.6c-0.8,1.2,0.9,2.4,1.9,1.5
			c1.5-1.4,3.4-2.3,4.5-4.1c0-0.1,0-0.1,0.1-0.2c0.4-0.2,0.8-0.4,1.2-0.6c0.1,0.1,0.2,0.1,0.3,0.2c0.3,0.4,0.7,0.4,1.1,0.3
			c-0.1,5.1,3.2,10,8.2,11.1c-0.2,0.1-0.3,0.2-0.3,0.4c-0.1,0.4-0.2,0.9-0.3,1.3c-0.1,0-0.1-0.1-0.2-0.1c-3.4-0.6-7-1.6-10.2-0.9
			c-0.1-1.6-0.6-2.9-1.5-4.2c-0.7-0.9-2.1-0.1-1.6,0.9c0.5,0.9,0.9,1.8,1,2.8c-0.8,0.1-1.7,0.3-2.6,0.3c-1.3,0.1-1.3,2,0,2
			c0.3,0,0.7,0,1,0c-0.5,0.4-0.9,0.9-1.4,1.4c-0.9,1.2,0.5,2.7,1.7,1.7c4.1-3.4,8.4-2.3,13.3-2.3c0,0,0.1,0,0.1,0
			c-1.2,5.6-1.4,11.4-2.2,17.1c-0.1,0.8,0.3,1.6,1.2,1.6c2.6-0.1,5.2-0.5,7.9-1.1c-0.6,3.1-1.1,6.1-2.1,9c-1.6-0.2-3.9-0.4-3.3,1.8
			c0.1,0.6,0.6,1,1.2,1.2c1,0.3,2.2,0.4,3.3,0.4c1,0,1.5-0.8,1.6-1.6c0.4-3.7,0.7-7.5,0.9-11.2c1-0.3,2-0.6,2.9-0.9c0,0,0,0,0,0
			c2,4.8,4.3,9.5,6.5,14.2c0.4,1,1.7,0.9,2.4,0.3c1.3-1.1,2.8-2,4.2-3.1c1.6-1.3-0.8-3.9-2.3-2.3c-0.7,0.7-1.6,1.4-2.4,2
			c-1.9-4-3.5-8.5-6.4-11.7c3.1-1.1,6.1-2.5,8.9-3.9c0.6-0.3,0.9-1.3,0.5-1.9c-2.9-4.5-6.5-8.5-9.6-12.9c3.9,0.3,8.7,0.7,12-1.2
			c0.2-0.1,0.3-0.3,0.4-0.4c0.8,0,1.5,0,2.2-0.2c0.9,0,1.9-0.2,2.5-0.6c0.3-0.2,0.5-0.6,0.5-0.9c1.5-0.4,3-0.8,4.5-1.3
			c1.7-0.6,3.6-1.1,5.2-1.9c1.4,9.3-0.3,18.8,1.5,28.1c0.2,0.9,1.1,1,1.7,0.5c0.8,0.3,1.6,0.5,2.5,0.6c0,0.1,0,0.1,0.1,0.2
			c0.5,1,0.7,2.1,0.6,3.2c-0.5,0-1.1-0.1-1.6-0.1c-1-0.1-1.8-0.2-2.6,0.5c-0.6,0.5-0.6,1.7,0,2.2c0.8,0.6,1.6,0.6,2.6,0.5
			c0.9-0.1,1.9-0.1,2.8-0.2c1.2-0.2,1.4-2,0.4-2.6c-0.2-1.2-0.3-2.5-0.9-3.6c1.1,0.1,2.2,0,3.3-0.1c0.5-0.1,0.9-0.4,1-0.9
			c0.5-0.1,1-0.2,1.5-0.3c-0.5,1.7-0.2,3.5-0.3,5.2c-0.1,0.1-0.2,0.3-0.2,0.5c-0.3,0.9,0.6,1.9,1.6,1.6c1.2-0.4,2.9-0.2,3.7-1.3
			c0.7-0.9,0.3-2-0.9-2.1c-0.7-0.1-1.6,0.1-2.4,0.4c0-0.4-0.1-0.7-0.1-1.1c-0.1-1-0.2-2,0-3c0-0.2,0-0.4-0.1-0.5
			c0.9-0.2,1.7-0.3,2.6-0.4c0.5-0.1,1.2-0.5,1.1-1.1c-1.1-9.5-0.4-19.1-0.8-28.6c0,0,0,0,0,0c2.3,0.7,4.6,0.8,7,0.9
			c3.3,0.1,4.9,0.4,7.4,2.6c0.9,0.8,2.5-0.2,1.8-1.4c-0.2-0.4-0.5-0.7-0.8-1.1c0.8-0.2,1.4-1.2,0.6-1.9c-0.1-0.1-0.2-0.1-0.2-0.2
			l0,0l0,0c-0.1,0-0.1-0.1-0.2-0.1c0.7-0.4,1.4-0.7,2-1.1C393.4,60.8,392.3,59,391,59.5z M363.2,56c-4.1-0.1-5.8-3.6-4.8-7.3
			c0.8-2.8,2.7-4.3,5-5c1.5,0,2.9-0.1,4.4,0.7c1.6,0.9,2.5,2.6,2.9,4.3C372,53.6,367.5,56.1,363.2,56z M312.7,61.7
			c-0.1-5.4,4-9,8.9-9.8c0.1,0.3,0.3,0.5,0.8,0.6c4.3,0.8,6.2,3.3,6,7.8c-0.2,3.7-2.3,8.1-5.9,9.6C317.3,72,312.8,66.3,312.7,61.7z
			 M336.7,85.5c-5.8,2.8-12.4,5.4-18.9,6c0.7-6.2,0.8-12.5,1.5-18.7c0-0.2,0-0.3-0.1-0.4c0.7,0.1,1.4,0.1,2.1,0.1
			c1.8-0.2,3.4-0.9,4.8-2.1C327.8,76.2,333.1,80.7,336.7,85.5z M367,84c-0.5,1.4-0.3,3-0.3,4.5c0,1.6,0,3.2,0,4.9
			c-1.9,0.3-3.7,0.4-5.7-0.2c-0.6-3.1-0.7-6.2-0.8-9.3C362.6,83.8,364.8,83.8,367,84C367.1,84,367,84,367,84z"/>
	</g>
	<g>
		<rect x="430.2" y="91.6" fill="none" width="95" height="56"/>
		<path fill="#282828" d="M447.2,92h2.4c1.2,0,2.2,0.4,2.9,1.1c0.8,0.7,1.1,1.7,1.1,2.9c0,1.2-0.4,2.2-1.1,2.9s-1.7,1.2-3,1.2h-2.4
			V92z M448.1,99.2h1.5c1,0,1.8-0.3,2.3-0.9c0.5-0.6,0.8-1.4,0.8-2.3c0-0.9-0.3-1.7-0.9-2.3c-0.6-0.6-1.3-0.9-2.2-0.9h-1.4V99.2z"/>
		<path fill="#282828" d="M457.8,100.2c-0.9,0-1.7-0.3-2.2-0.8c-0.6-0.6-0.8-1.3-0.8-2.3c0-0.9,0.3-1.7,0.8-2.3
			c0.5-0.6,1.1-0.8,1.9-0.8c0.8,0,1.4,0.2,1.8,0.7s0.7,1.2,0.7,2.1c0,0.3,0,0.5-0.1,0.7h-4.2c0.1,0.6,0.3,1.1,0.7,1.4
			c0.4,0.3,0.9,0.5,1.6,0.5c0.7,0,1.2-0.1,1.6-0.4v0.9C459,100,458.4,100.2,457.8,100.2z M458.9,96.7v-0.2c0-0.5-0.1-0.9-0.4-1.2
			c-0.3-0.3-0.6-0.5-1.1-0.5s-0.9,0.2-1.2,0.5c-0.3,0.3-0.5,0.8-0.6,1.4H458.9z"/>
		<path fill="#282828" d="M463.1,94.8c-0.3,0-0.6,0.1-0.8,0.2c-0.2,0.1-0.3,0.3-0.3,0.5c0,0.2,0,0.3,0.1,0.4
			c0.1,0.1,0.2,0.2,0.3,0.3c0.2,0.1,0.5,0.3,1,0.5c0.4,0.2,0.8,0.4,1.1,0.7c0.3,0.3,0.4,0.6,0.4,1.1c0,0.5-0.2,0.9-0.5,1.2
			s-0.9,0.5-1.6,0.5c-0.7,0-1.3-0.1-1.7-0.4v-0.9c0.5,0.3,1.1,0.5,1.7,0.5c0.4,0,0.6-0.1,0.8-0.2c0.2-0.1,0.3-0.3,0.3-0.6
			c0-0.3-0.1-0.5-0.3-0.6s-0.6-0.3-1-0.5c-0.5-0.2-0.9-0.4-1.1-0.7c-0.3-0.3-0.4-0.6-0.4-1.1c0-0.5,0.2-0.9,0.6-1.2
			c0.4-0.3,0.9-0.4,1.5-0.4c0.6,0,1.1,0.1,1.5,0.3v0.9C464.3,94.9,463.7,94.8,463.1,94.8z"/>
		<path fill="#282828" d="M469.1,99.4c0.5,0,0.9-0.1,1.3-0.4v0.9c-0.4,0.2-0.9,0.3-1.4,0.3c-1,0-1.7-0.3-2.3-0.9
			c-0.6-0.6-0.8-1.4-0.8-2.2s0.3-1.6,0.8-2.2c0.6-0.6,1.3-0.9,2.3-0.9c0.5,0,1,0.1,1.4,0.3v0.9c-0.4-0.2-0.8-0.4-1.3-0.4
			c-0.7,0-1.2,0.2-1.6,0.7c-0.4,0.4-0.6,1-0.6,1.7s0.2,1.2,0.6,1.6C467.9,99.2,468.4,99.4,469.1,99.4z"/>
		<path fill="#282828" d="M473.8,93.9c1.5,0,2.3,0.8,2.3,2.3v3.9h-0.9v-0.7c-0.3,0.5-0.9,0.8-1.7,0.8c-0.6,0-1-0.2-1.4-0.5
			c-0.3-0.3-0.5-0.8-0.5-1.3c0-0.5,0.2-1,0.7-1.3c0.4-0.3,1-0.5,1.8-0.5h1.1v-0.3c0-0.5-0.1-0.8-0.3-1.1s-0.6-0.4-1.2-0.4
			s-1.1,0.2-1.6,0.5v-0.9C472.5,94.1,473.1,93.9,473.8,93.9z M475.2,97.3h-1.1c-0.5,0-0.9,0.1-1.2,0.3s-0.4,0.5-0.4,0.8
			s0.1,0.5,0.3,0.7c0.2,0.2,0.5,0.3,0.9,0.3s0.7-0.1,1-0.4c0.3-0.2,0.4-0.6,0.4-0.9V97.3z"/>
		<path fill="#282828" d="M478.7,94v1.1c0.3-0.8,0.9-1.1,1.7-1.1c0.1,0,0.3,0,0.3,0v0.9c-0.2-0.1-0.3-0.1-0.5-0.1
			c-0.4,0-0.8,0.2-1.1,0.6c-0.3,0.4-0.4,0.8-0.4,1.4v3.3h-0.9l0-6.1H478.7z"/>
		<path fill="#282828" d="M485.7,94h0.9v5.6c0,0.9-0.3,1.6-0.8,2.1c-0.5,0.5-1.2,0.7-1.9,0.7c-0.8,0-1.4-0.1-1.9-0.4v-0.9
			c0.5,0.3,1.1,0.4,1.7,0.4c1.3,0,2-0.6,2-1.9v-0.7c-0.4,0.7-1,1-1.7,1c-0.7,0-1.4-0.3-1.9-0.8s-0.7-1.2-0.7-2.1s0.2-1.7,0.7-2.2
			s1.1-0.9,1.9-0.9c0.8,0,1.4,0.4,1.8,1.1V94z M482.4,97c0,0.7,0.2,1.2,0.5,1.5c0.3,0.4,0.7,0.5,1.2,0.5c0.4,0,0.8-0.2,1.2-0.5
			c0.3-0.3,0.5-0.9,0.5-1.6c0-0.7-0.2-1.3-0.5-1.7s-0.7-0.6-1.2-0.6s-0.9,0.2-1.2,0.6S482.4,96.3,482.4,97z"/>
		<path fill="#282828" d="M490.2,93.9c1.5,0,2.3,0.8,2.3,2.3v3.9h-0.9v-0.7c-0.3,0.5-0.9,0.8-1.7,0.8c-0.6,0-1-0.2-1.4-0.5
			c-0.3-0.3-0.5-0.8-0.5-1.3c0-0.5,0.2-1,0.7-1.3c0.4-0.3,1-0.5,1.8-0.5h1.1v-0.3c0-0.5-0.1-0.8-0.3-1.1c-0.2-0.2-0.6-0.4-1.2-0.4
			s-1.1,0.2-1.6,0.5v-0.9C488.9,94.1,489.5,93.9,490.2,93.9z M491.6,97.3h-1.1c-0.5,0-0.9,0.1-1.2,0.3S489,98,489,98.3
			s0.1,0.5,0.3,0.7c0.2,0.2,0.5,0.3,0.9,0.3s0.7-0.1,1-0.4s0.4-0.6,0.4-0.9V97.3z"/>
		<path fill="#282828" d="M495.1,94v1.1c0.3-0.8,0.9-1.1,1.7-1.1c0.1,0,0.3,0,0.3,0v0.9c-0.2-0.1-0.3-0.1-0.5-0.1
			c-0.4,0-0.8,0.2-1.1,0.6c-0.3,0.4-0.4,0.8-0.4,1.4v3.3h-0.9l0-6.1H495.1z"/>
		<path fill="#282828" d="M503.8,100.2c-0.9,0-1.7-0.3-2.2-0.8c-0.6-0.6-0.8-1.3-0.8-2.3c0-0.9,0.3-1.7,0.8-2.3
			c0.5-0.6,1.1-0.8,1.9-0.8c0.8,0,1.4,0.2,1.8,0.7c0.4,0.5,0.7,1.2,0.7,2.1c0,0.3,0,0.5-0.1,0.7h-4.2c0.1,0.6,0.3,1.1,0.7,1.4
			s0.9,0.5,1.6,0.5s1.2-0.1,1.6-0.4v0.9C505,100,504.4,100.2,503.8,100.2z M504.9,96.7v-0.2c0-0.5-0.1-0.9-0.4-1.2
			c-0.3-0.3-0.6-0.5-1.1-0.5c-0.5,0-0.9,0.2-1.2,0.5s-0.5,0.8-0.6,1.4H504.9z"/>
		<path fill="#282828" d="M507.4,100.1v-8.5h0.9v8.5H507.4z"/>
		<path fill="#282828" d="M446.1,113.8c0.5,0,0.9-0.1,1.3-0.4v0.9c-0.4,0.2-0.9,0.3-1.4,0.3c-1,0-1.7-0.3-2.3-0.9
			c-0.6-0.6-0.8-1.4-0.8-2.2s0.3-1.6,0.8-2.2c0.6-0.6,1.3-0.9,2.3-0.9c0.5,0,1,0.1,1.4,0.3v0.9c-0.4-0.2-0.8-0.4-1.3-0.4
			c-0.7,0-1.2,0.2-1.6,0.7c-0.4,0.4-0.6,1-0.6,1.7s0.2,1.2,0.6,1.6C444.8,113.6,445.3,113.8,446.1,113.8z"/>
		<path fill="#282828" d="M451.5,114.6c-0.9,0-1.7-0.3-2.2-0.8c-0.6-0.6-0.8-1.3-0.8-2.3c0-0.9,0.3-1.7,0.8-2.3
			c0.5-0.6,1.1-0.8,1.9-0.8c0.8,0,1.4,0.2,1.8,0.7s0.7,1.2,0.7,2.1c0,0.3,0,0.5-0.1,0.7h-4.2c0.1,0.6,0.3,1.1,0.7,1.4
			c0.4,0.3,0.9,0.5,1.6,0.5c0.7,0,1.2-0.1,1.6-0.4v0.9C452.8,114.4,452.2,114.6,451.5,114.6z M452.7,111.1v-0.2
			c0-0.5-0.1-0.9-0.4-1.2c-0.3-0.3-0.6-0.5-1.1-0.5s-0.9,0.2-1.2,0.5c-0.3,0.3-0.5,0.8-0.6,1.4H452.7z"/>
		<path fill="#282828" d="M456,108.4v1.1c0.3-0.8,0.9-1.1,1.7-1.1c0.1,0,0.3,0,0.3,0v0.9c-0.2-0.1-0.3-0.1-0.5-0.1
			c-0.4,0-0.8,0.2-1.1,0.6c-0.3,0.4-0.4,0.8-0.4,1.4v3.3h-0.9l0-6.1H456z"/>
		<path fill="#282828" d="M460.3,109.2v3.6c0,0.6,0.3,1,0.9,1c0.3,0,0.6-0.1,0.8-0.3v0.9c-0.3,0.1-0.6,0.2-0.9,0.2
			c-1.2,0-1.8-0.6-1.8-1.8v-3.5h-1v-0.8h1v-1.5h0.9v1.5h1.7v0.8H460.3z"/>
		<path fill="#282828" d="M463.5,106.9c-0.1-0.1-0.2-0.3-0.2-0.4s0.1-0.3,0.2-0.4c0.1-0.1,0.3-0.2,0.4-0.2s0.3,0.1,0.4,0.2
			c0.1,0.1,0.2,0.3,0.2,0.4s-0.1,0.3-0.2,0.4s-0.3,0.2-0.4,0.2S463.6,107.1,463.5,106.9z M463.5,114.5v-6.1h0.9v6.1H463.5z"/>
		<path fill="#282828" d="M469.1,106.9c-0.2-0.1-0.4-0.1-0.6-0.1s-0.4,0.1-0.6,0.3s-0.2,0.4-0.2,0.8v0.6h1.3v0.8h-1.3v5.3h-0.9v-5.3
			h-1v-0.8h1v-0.6c0-0.6,0.2-1.1,0.5-1.4c0.3-0.3,0.8-0.5,1.3-0.5c0.2,0,0.4,0,0.6,0.1V106.9z"/>
		<path fill="#282828" d="M470.2,106.9c-0.1-0.1-0.2-0.3-0.2-0.4s0.1-0.3,0.2-0.4c0.1-0.1,0.3-0.2,0.4-0.2c0.2,0,0.3,0.1,0.4,0.2
			c0.1,0.1,0.2,0.3,0.2,0.4s-0.1,0.3-0.2,0.4s-0.3,0.2-0.4,0.2C470.5,107.1,470.4,107.1,470.2,106.9z M470.2,114.5v-6.1h0.9v6.1
			H470.2z"/>
		<path fill="#282828" d="M475.9,113.8c0.5,0,0.9-0.1,1.3-0.4v0.9c-0.4,0.2-0.9,0.3-1.4,0.3c-1,0-1.7-0.3-2.3-0.9
			c-0.6-0.6-0.8-1.4-0.8-2.2s0.3-1.6,0.8-2.2c0.6-0.6,1.3-0.9,2.3-0.9c0.5,0,1,0.1,1.4,0.3v0.9c-0.4-0.2-0.8-0.4-1.3-0.4
			c-0.7,0-1.2,0.2-1.7,0.7s-0.6,1-0.6,1.7s0.2,1.2,0.6,1.6C474.6,113.6,475.1,113.8,475.9,113.8z"/>
		<path fill="#282828" d="M480.5,108.3c1.5,0,2.3,0.8,2.3,2.3v3.9h-0.9v-0.7c-0.3,0.5-0.9,0.8-1.7,0.8c-0.6,0-1-0.2-1.4-0.5
			c-0.3-0.3-0.5-0.8-0.5-1.3c0-0.5,0.2-1,0.7-1.3c0.4-0.3,1-0.5,1.8-0.5h1.1v-0.3c0-0.5-0.1-0.8-0.3-1.1c-0.2-0.2-0.6-0.4-1.2-0.4
			s-1.1,0.2-1.6,0.5v-0.9C479.2,108.5,479.8,108.3,480.5,108.3z M481.9,111.7h-1.1c-0.5,0-0.9,0.1-1.2,0.3s-0.4,0.5-0.4,0.8
			s0.1,0.5,0.3,0.7c0.2,0.2,0.5,0.3,0.9,0.3s0.7-0.1,1-0.4s0.4-0.6,0.4-0.9V111.7z"/>
		<path fill="#282828" d="M488.6,106h0.9v8.5h-0.9v-0.9c-0.4,0.7-1.1,1-1.9,1c-0.8,0-1.4-0.3-1.9-0.9c-0.5-0.6-0.7-1.4-0.7-2.3
			c0-0.9,0.2-1.7,0.7-2.2s1.1-0.9,1.9-0.9s1.4,0.3,1.8,1V106z M485.1,111.4c0,0.7,0.2,1.3,0.5,1.7c0.3,0.4,0.7,0.6,1.2,0.6
			s0.9-0.2,1.3-0.6c0.3-0.4,0.5-0.9,0.5-1.7s-0.2-1.4-0.5-1.7c-0.4-0.4-0.8-0.5-1.2-0.5s-0.9,0.2-1.2,0.6S485.1,110.7,485.1,111.4z"
			/>
		<path fill="#282828" d="M496.7,111.5c0,0.9-0.3,1.7-0.8,2.2c-0.5,0.6-1.2,0.9-2.1,0.9s-1.6-0.3-2.1-0.9c-0.5-0.6-0.8-1.3-0.8-2.2
			c0-0.9,0.3-1.7,0.8-2.3c0.5-0.6,1.2-0.9,2.1-0.9s1.6,0.3,2.1,0.9C496.4,109.8,496.7,110.6,496.7,111.5z M495.7,111.5
			c0-0.7-0.2-1.2-0.5-1.6c-0.3-0.4-0.8-0.7-1.4-0.7c-0.6,0-1.1,0.2-1.4,0.7c-0.3,0.4-0.5,1-0.5,1.6c0,0.6,0.2,1.2,0.5,1.6
			c0.3,0.4,0.8,0.7,1.4,0.7s1-0.2,1.4-0.7C495.5,112.7,495.7,112.1,495.7,111.5z"/>
		<path fill="#282828" d="M505.1,106h0.9v8.5h-0.9v-0.9c-0.4,0.7-1.1,1-1.9,1c-0.8,0-1.4-0.3-1.9-0.9c-0.5-0.6-0.7-1.4-0.7-2.3
			c0-0.9,0.2-1.7,0.7-2.2s1.1-0.9,1.9-0.9s1.4,0.3,1.8,1V106z M501.6,111.4c0,0.7,0.2,1.3,0.5,1.7c0.3,0.4,0.7,0.6,1.2,0.6
			s0.9-0.2,1.3-0.6c0.3-0.4,0.5-0.9,0.5-1.7s-0.2-1.4-0.5-1.7c-0.4-0.4-0.8-0.5-1.2-0.5s-0.9,0.2-1.2,0.6S501.6,110.7,501.6,111.4z"
			/>
		<path fill="#282828" d="M510.5,114.6c-0.9,0-1.7-0.3-2.2-0.8c-0.6-0.6-0.8-1.3-0.8-2.3c0-0.9,0.3-1.7,0.8-2.3
			c0.5-0.6,1.1-0.8,1.9-0.8c0.8,0,1.4,0.2,1.8,0.7s0.7,1.2,0.7,2.1c0,0.3,0,0.5-0.1,0.7h-4.2c0.1,0.6,0.3,1.1,0.7,1.4
			c0.4,0.3,0.9,0.5,1.6,0.5c0.7,0,1.2-0.1,1.6-0.4v0.9C511.8,114.4,511.2,114.6,510.5,114.6z M511.7,111.1v-0.2
			c0-0.5-0.1-0.9-0.4-1.2c-0.3-0.3-0.6-0.5-1.1-0.5s-0.9,0.2-1.2,0.5c-0.3,0.3-0.5,0.8-0.6,1.4H511.7z"/>
		<path fill="#282828" d="M446.2,122.8v0.9c0.4-0.7,1-1,1.9-1s1.5,0.3,1.9,0.9s0.7,1.3,0.7,2.2s-0.2,1.7-0.7,2.3
			c-0.5,0.6-1.1,0.9-1.9,0.9s-1.4-0.3-1.8-1v3.3h-0.9v-8.4H446.2z M446.2,125.8c0,0.8,0.2,1.4,0.5,1.7c0.4,0.4,0.8,0.6,1.3,0.6
			c0.5,0,0.9-0.2,1.2-0.6s0.5-1,0.5-1.7s-0.2-1.3-0.5-1.7c-0.3-0.4-0.7-0.6-1.2-0.6c-0.5,0-0.9,0.2-1.3,0.5
			C446.4,124.5,446.2,125,446.2,125.8z"/>
		<path fill="#282828" d="M454,122.7c1.5,0,2.3,0.8,2.3,2.3v3.9h-0.9v-0.7c-0.3,0.5-0.9,0.8-1.7,0.8c-0.6,0-1-0.2-1.4-0.5
			c-0.3-0.3-0.5-0.8-0.5-1.3c0-0.5,0.2-1,0.7-1.3c0.4-0.3,1-0.5,1.8-0.5h1.1V125c0-0.5-0.1-0.8-0.3-1.1c-0.2-0.2-0.6-0.4-1.2-0.4
			s-1.1,0.2-1.6,0.5v-0.9C452.7,122.9,453.3,122.7,454,122.7z M455.4,126.1h-1.1c-0.5,0-0.9,0.1-1.2,0.3s-0.4,0.5-0.4,0.8
			s0.1,0.5,0.3,0.7c0.2,0.2,0.5,0.3,0.9,0.3s0.7-0.1,1-0.4c0.3-0.2,0.4-0.6,0.4-0.9V126.1z"/>
		<path fill="#282828" d="M458.9,122.8v1.1c0.3-0.8,0.9-1.1,1.7-1.1c0.1,0,0.3,0,0.3,0v0.9c-0.2-0.1-0.3-0.1-0.5-0.1
			c-0.4,0-0.8,0.2-1.1,0.6c-0.3,0.4-0.4,0.8-0.4,1.4v3.3H458l0-6.1H458.9z"/>
		<path fill="#282828" d="M463.2,123.6v3.6c0,0.6,0.3,1,0.9,1c0.3,0,0.6-0.1,0.8-0.3v0.9c-0.3,0.1-0.6,0.2-0.9,0.2
			c-1.2,0-1.8-0.6-1.8-1.8v-3.5h-1v-0.8h1v-1.5h0.9v1.5h1.7v0.8H463.2z"/>
		<path fill="#282828" d="M466.4,121.3c-0.1-0.1-0.2-0.3-0.2-0.4s0.1-0.3,0.2-0.4c0.1-0.1,0.3-0.2,0.4-0.2s0.3,0.1,0.4,0.2
			c0.1,0.1,0.2,0.3,0.2,0.4s-0.1,0.3-0.2,0.4s-0.3,0.2-0.4,0.2S466.5,121.5,466.4,121.3z M466.4,128.9v-6.1h0.9v6.1H466.4z"/>
		<path fill="#282828" d="M472,128.2c0.5,0,0.9-0.1,1.3-0.4v0.9c-0.4,0.2-0.9,0.3-1.4,0.3c-1,0-1.7-0.3-2.3-0.9
			c-0.6-0.6-0.8-1.4-0.8-2.2s0.3-1.6,0.8-2.2c0.6-0.6,1.3-0.9,2.3-0.9c0.5,0,1,0.1,1.4,0.3v0.9c-0.4-0.2-0.8-0.4-1.3-0.4
			c-0.7,0-1.2,0.2-1.6,0.7c-0.4,0.4-0.6,1-0.6,1.7s0.2,1.2,0.6,1.6C470.7,128,471.3,128.2,472,128.2z"/>
		<path fill="#282828" d="M474.8,121.3c-0.1-0.1-0.2-0.3-0.2-0.4s0.1-0.3,0.2-0.4c0.1-0.1,0.3-0.2,0.4-0.2c0.2,0,0.3,0.1,0.4,0.2
			c0.1,0.1,0.2,0.3,0.2,0.4s-0.1,0.3-0.2,0.4s-0.3,0.2-0.4,0.2C475.1,121.5,475,121.5,474.8,121.3z M474.8,128.9v-6.1h0.9v6.1H474.8
			z"/>
		<path fill="#282828" d="M478.5,122.8v0.9c0.4-0.7,1-1,1.9-1c0.8,0,1.5,0.3,1.9,0.9c0.5,0.6,0.7,1.3,0.7,2.2s-0.2,1.7-0.7,2.3
			c-0.5,0.6-1.1,0.9-1.9,0.9s-1.4-0.3-1.8-1v3.3h-0.9v-8.4H478.5z M478.5,125.8c0,0.8,0.2,1.4,0.5,1.7c0.4,0.4,0.8,0.6,1.3,0.6
			c0.5,0,0.9-0.2,1.2-0.6s0.5-1,0.5-1.7s-0.2-1.3-0.5-1.7s-0.7-0.6-1.2-0.6s-0.9,0.2-1.3,0.5C478.7,124.5,478.5,125,478.5,125.8z"/>
		<path fill="#282828" d="M486.3,122.7c1.5,0,2.3,0.8,2.3,2.3v3.9h-0.9v-0.7c-0.3,0.5-0.9,0.8-1.7,0.8c-0.6,0-1-0.2-1.4-0.5
			c-0.3-0.3-0.5-0.8-0.5-1.3c0-0.5,0.2-1,0.7-1.3c0.4-0.3,1-0.5,1.8-0.5h1.1V125c0-0.5-0.1-0.8-0.3-1.1s-0.6-0.4-1.2-0.4
			s-1.1,0.2-1.6,0.5v-0.9C485,122.9,485.6,122.7,486.3,122.7z M487.6,126.1h-1.1c-0.5,0-0.9,0.1-1.2,0.3s-0.4,0.5-0.4,0.8
			s0.1,0.5,0.3,0.7c0.2,0.2,0.5,0.3,0.9,0.3s0.7-0.1,1-0.4c0.3-0.2,0.4-0.6,0.4-0.9V126.1z"/>
		<path fill="#282828" d="M493.2,128.2c0.5,0,0.9-0.1,1.3-0.4v0.9c-0.4,0.2-0.9,0.3-1.4,0.3c-1,0-1.7-0.3-2.3-0.9
			c-0.6-0.6-0.8-1.4-0.8-2.2s0.3-1.6,0.8-2.2c0.6-0.6,1.3-0.9,2.3-0.9c0.5,0,1,0.1,1.4,0.3v0.9c-0.4-0.2-0.8-0.4-1.3-0.4
			c-0.7,0-1.2,0.2-1.6,0.7c-0.4,0.4-0.6,1-0.6,1.7s0.2,1.2,0.6,1.6C491.9,128,492.4,128.2,493.2,128.2z"/>
		<path fill="#282828" d="M496,121.3c-0.1-0.1-0.2-0.3-0.2-0.4s0.1-0.3,0.2-0.4c0.1-0.1,0.3-0.2,0.4-0.2c0.2,0,0.3,0.1,0.4,0.2
			c0.1,0.1,0.2,0.3,0.2,0.4s-0.1,0.3-0.2,0.4s-0.3,0.2-0.4,0.2C496.3,121.5,496.1,121.5,496,121.3z M496,128.9v-6.1h0.9v6.1H496z"/>
		<path fill="#282828" d="M504.1,125.9c0,0.9-0.3,1.7-0.8,2.2c-0.5,0.6-1.2,0.9-2.1,0.9s-1.6-0.3-2.1-0.9c-0.5-0.6-0.8-1.3-0.8-2.2
			c0-0.9,0.3-1.7,0.8-2.3c0.5-0.6,1.2-0.9,2.1-0.9s1.6,0.3,2.1,0.9C503.8,124.2,504.1,125,504.1,125.9z M503.1,125.9
			c0-0.7-0.2-1.2-0.5-1.6c-0.3-0.4-0.8-0.7-1.4-0.7c-0.6,0-1.1,0.2-1.4,0.7c-0.3,0.4-0.5,1-0.5,1.6c0,0.6,0.2,1.2,0.5,1.6
			c0.3,0.4,0.8,0.7,1.4,0.7s1-0.2,1.4-0.7C502.9,127.1,503.1,126.5,503.1,125.9z M500.9,122.2l1.2-1.9h1.1l-1.5,1.9H500.9z"/>
		<path fill="#282828" d="M506.4,122.8v1.1c0.4-0.8,1-1.1,1.9-1.1c0.6,0,1.1,0.2,1.4,0.5c0.4,0.4,0.5,0.8,0.5,1.4v4.2h-0.9V125
			c0-0.4-0.1-0.8-0.3-1c-0.2-0.2-0.5-0.4-1-0.4s-0.8,0.2-1.1,0.5c-0.3,0.4-0.5,0.8-0.5,1.5v3.3h-0.9v-6.1H506.4z"/>
	</g>
	<g>
		<rect x="550.2" y="130.6" fill="none" width="95" height="56"/>
		<path fill="#282828" d="M567.7,131h2.4c1.2,0,2.2,0.4,2.9,1.1c0.8,0.7,1.1,1.7,1.1,2.9c0,1.2-0.4,2.2-1.1,2.9s-1.7,1.2-3,1.2h-2.4
			V131z M568.7,138.2h1.5c1,0,1.8-0.3,2.3-0.9c0.5-0.6,0.8-1.4,0.8-2.3c0-0.9-0.3-1.7-0.9-2.3c-0.6-0.6-1.3-0.9-2.2-0.9h-1.4V138.2z
			"/>
		<path fill="#282828" d="M575.7,131.5c-0.1-0.1-0.2-0.3-0.2-0.4s0.1-0.3,0.2-0.4c0.1-0.1,0.3-0.2,0.4-0.2c0.2,0,0.3,0.1,0.4,0.2
			c0.1,0.1,0.2,0.3,0.2,0.4s-0.1,0.3-0.2,0.4s-0.3,0.2-0.4,0.2C575.9,131.7,575.8,131.7,575.7,131.5z M575.7,139.1V133h0.9v6.1
			H575.7z"/>
		<path fill="#282828" d="M580.2,133.8c-0.3,0-0.6,0.1-0.8,0.2c-0.2,0.1-0.3,0.3-0.3,0.5c0,0.2,0,0.3,0.1,0.4
			c0.1,0.1,0.2,0.2,0.3,0.3c0.2,0.1,0.5,0.3,1,0.5c0.4,0.2,0.8,0.4,1.1,0.7c0.3,0.3,0.4,0.6,0.4,1.1c0,0.5-0.2,0.9-0.5,1.2
			s-0.9,0.5-1.6,0.5c-0.7,0-1.3-0.1-1.7-0.4v-0.9c0.5,0.3,1.1,0.5,1.7,0.5c0.4,0,0.6-0.1,0.8-0.2c0.2-0.1,0.3-0.3,0.3-0.6
			c0-0.3-0.1-0.5-0.3-0.6s-0.6-0.3-1-0.5c-0.5-0.2-0.9-0.4-1.1-0.7c-0.3-0.3-0.4-0.6-0.4-1.1c0-0.5,0.2-0.9,0.6-1.2
			c0.4-0.3,0.9-0.4,1.5-0.4c0.6,0,1.1,0.1,1.5,0.3v0.9C581.3,133.9,580.8,133.8,580.2,133.8z"/>
		<path fill="#282828" d="M584.3,133v0.9c0.4-0.7,1-1,1.9-1s1.5,0.3,1.9,0.9s0.7,1.3,0.7,2.2s-0.2,1.7-0.7,2.3s-1.1,0.9-1.9,0.9
			s-1.4-0.3-1.8-1v3.3h-0.9V133H584.3z M584.3,136c0,0.8,0.2,1.4,0.5,1.7c0.4,0.4,0.8,0.6,1.3,0.6c0.5,0,0.9-0.2,1.2-0.6
			s0.5-1,0.5-1.7s-0.2-1.3-0.5-1.7c-0.3-0.4-0.7-0.6-1.2-0.6c-0.5,0-0.9,0.2-1.3,0.5C584.5,134.7,584.3,135.2,584.3,136z"/>
		<path fill="#282828" d="M595.5,136.1c0,0.9-0.3,1.7-0.8,2.2c-0.5,0.6-1.2,0.9-2.1,0.9c-0.9,0-1.6-0.3-2.1-0.9
			c-0.5-0.6-0.8-1.3-0.8-2.2c0-0.9,0.3-1.7,0.8-2.3c0.5-0.6,1.2-0.9,2.1-0.9c0.9,0,1.6,0.3,2.1,0.9
			C595.3,134.4,595.5,135.2,595.5,136.1z M594.5,136.1c0-0.7-0.2-1.2-0.5-1.6c-0.3-0.4-0.8-0.7-1.4-0.7c-0.6,0-1.1,0.2-1.4,0.7
			c-0.3,0.4-0.5,1-0.5,1.6c0,0.6,0.2,1.2,0.5,1.6c0.3,0.4,0.8,0.7,1.4,0.7s1-0.2,1.4-0.7C594.4,137.3,594.5,136.7,594.5,136.1z"/>
		<path fill="#282828" d="M597.8,133v1.1c0.4-0.8,1-1.1,1.9-1.1c0.6,0,1.1,0.2,1.4,0.5c0.4,0.4,0.5,0.8,0.5,1.4v4.2h-0.9v-3.9
			c0-0.4-0.1-0.8-0.3-1s-0.5-0.4-1-0.4s-0.8,0.2-1.1,0.5c-0.3,0.4-0.5,0.8-0.5,1.5v3.3h-0.9V133H597.8z"/>
		<path fill="#282828" d="M606.1,139.2c-0.9,0-1.7-0.3-2.2-0.8c-0.6-0.6-0.8-1.3-0.8-2.3c0-0.9,0.3-1.7,0.8-2.3
			c0.5-0.6,1.1-0.8,1.9-0.8c0.8,0,1.4,0.2,1.8,0.7s0.7,1.2,0.7,2.1c0,0.3,0,0.5-0.1,0.7H604c0.1,0.6,0.3,1.1,0.7,1.4
			c0.4,0.3,0.9,0.5,1.6,0.5c0.7,0,1.2-0.1,1.6-0.4v0.9C607.3,139,606.8,139.2,606.1,139.2z M607.3,135.7v-0.2c0-0.5-0.1-0.9-0.4-1.2
			c-0.3-0.3-0.6-0.5-1.1-0.5s-0.9,0.2-1.2,0.5c-0.3,0.3-0.5,0.8-0.6,1.4H607.3z"/>
		<path fill="#282828" d="M610.6,133v1.1c0.3-0.8,0.9-1.1,1.7-1.1c0.1,0,0.3,0,0.3,0v0.9c-0.2-0.1-0.3-0.1-0.5-0.1
			c-0.4,0-0.8,0.2-1.1,0.6c-0.3,0.4-0.4,0.8-0.4,1.4v3.3h-0.9l0-6.1H610.6z"/>
		<path fill="#282828" d="M620.6,130.6h0.9v8.5h-0.9v-0.9c-0.4,0.7-1.1,1-1.9,1c-0.8,0-1.4-0.3-1.9-0.9c-0.5-0.6-0.7-1.4-0.7-2.3
			c0-0.9,0.2-1.7,0.7-2.2c0.5-0.6,1.1-0.9,1.9-0.9c0.8,0,1.4,0.3,1.8,1V130.6z M617.1,136c0,0.7,0.2,1.3,0.5,1.7
			c0.3,0.4,0.7,0.6,1.2,0.6c0.5,0,0.9-0.2,1.3-0.6c0.3-0.4,0.5-0.9,0.5-1.7s-0.2-1.4-0.5-1.7c-0.4-0.4-0.8-0.5-1.2-0.5
			c-0.5,0-0.9,0.2-1.2,0.6S617.1,135.3,617.1,136z"/>
		<path fill="#282828" d="M626,139.2c-0.9,0-1.7-0.3-2.2-0.8c-0.6-0.6-0.8-1.3-0.8-2.3c0-0.9,0.3-1.7,0.8-2.3
			c0.5-0.6,1.1-0.8,1.9-0.8c0.8,0,1.4,0.2,1.8,0.7c0.4,0.5,0.7,1.2,0.7,2.1c0,0.3,0,0.5-0.1,0.7h-4.2c0.1,0.6,0.3,1.1,0.7,1.4
			s0.9,0.5,1.6,0.5s1.2-0.1,1.6-0.4v0.9C627.3,139,626.7,139.2,626,139.2z M627.2,135.7v-0.2c0-0.5-0.1-0.9-0.4-1.2
			c-0.3-0.3-0.6-0.5-1.1-0.5c-0.5,0-0.9,0.2-1.2,0.5s-0.5,0.8-0.6,1.4H627.2z"/>
		<path fill="#282828" d="M553.6,147.4v1c0.3-0.7,0.9-1.1,1.7-1.1c0.9,0,1.5,0.4,1.8,1.2c0.2-0.4,0.4-0.7,0.7-0.9
			c0.3-0.2,0.7-0.3,1.1-0.3c0.6,0,1.1,0.2,1.4,0.5s0.5,0.8,0.5,1.5v4.2h-0.9v-3.9c0-0.9-0.4-1.4-1.2-1.4c-0.4,0-0.7,0.2-1,0.5
			s-0.5,0.8-0.5,1.5v3.3h-0.9v-3.9c0-0.9-0.4-1.4-1.2-1.4c-0.4,0-0.7,0.2-1,0.5c-0.3,0.3-0.5,0.8-0.5,1.5v3.3h-0.9v-6.1H553.6z"/>
		<path fill="#282828" d="M564.4,147.3c1.5,0,2.3,0.8,2.3,2.3v3.9h-0.9v-0.7c-0.3,0.5-0.9,0.8-1.7,0.8c-0.6,0-1-0.2-1.4-0.5
			c-0.3-0.3-0.5-0.8-0.5-1.3c0-0.5,0.2-1,0.7-1.3c0.4-0.3,1-0.5,1.8-0.5h1.1v-0.3c0-0.5-0.1-0.8-0.3-1.1c-0.2-0.2-0.6-0.4-1.2-0.4
			s-1.1,0.2-1.6,0.5v-0.9C563,147.5,563.6,147.3,564.4,147.3z M565.7,150.7h-1.1c-0.5,0-0.9,0.1-1.2,0.3s-0.4,0.5-0.4,0.8
			s0.1,0.5,0.3,0.7c0.2,0.2,0.5,0.3,0.9,0.3s0.7-0.1,1-0.4s0.4-0.6,0.4-0.9V150.7z"/>
		<path fill="#282828" d="M569.7,148.2v3.6c0,0.6,0.3,1,0.9,1c0.3,0,0.6-0.1,0.8-0.3v0.9c-0.3,0.1-0.6,0.2-0.9,0.2
			c-1.2,0-1.8-0.6-1.8-1.8v-3.5h-1v-0.8h1v-1.5h0.9v1.5h1.7v0.8H569.7z"/>
		<path fill="#282828" d="M575.5,153.6c-0.9,0-1.7-0.3-2.2-0.8c-0.6-0.6-0.8-1.3-0.8-2.3c0-0.9,0.3-1.7,0.8-2.3
			c0.5-0.6,1.1-0.8,1.9-0.8c0.8,0,1.4,0.2,1.8,0.7s0.7,1.2,0.7,2.1c0,0.3,0,0.5-0.1,0.7h-4.2c0.1,0.6,0.3,1.1,0.7,1.4
			c0.4,0.3,0.9,0.5,1.6,0.5c0.7,0,1.2-0.1,1.6-0.4v0.9C576.7,153.4,576.2,153.6,575.5,153.6z M576.7,150.1v-0.2
			c0-0.5-0.1-0.9-0.4-1.2c-0.3-0.3-0.6-0.5-1.1-0.5s-0.9,0.2-1.2,0.5c-0.3,0.3-0.5,0.8-0.6,1.4H576.7z"/>
		<path fill="#282828" d="M580,147.4v1.1c0.3-0.8,0.9-1.1,1.7-1.1c0.1,0,0.3,0,0.3,0v0.9c-0.2-0.1-0.3-0.1-0.5-0.1
			c-0.4,0-0.8,0.2-1.1,0.6c-0.3,0.4-0.4,0.8-0.4,1.4v3.3H579l0-6.1H580z"/>
		<path fill="#282828" d="M583,145.9c-0.1-0.1-0.2-0.3-0.2-0.4s0.1-0.3,0.2-0.4c0.1-0.1,0.3-0.2,0.4-0.2s0.3,0.1,0.4,0.2
			c0.1,0.1,0.2,0.3,0.2,0.4s-0.1,0.3-0.2,0.4s-0.3,0.2-0.4,0.2S583.1,146.1,583,145.9z M583,153.5v-6.1h0.9v6.1H583z"/>
		<path fill="#282828" d="M587.7,147.3c1.5,0,2.3,0.8,2.3,2.3v3.9H589v-0.7c-0.3,0.5-0.9,0.8-1.7,0.8c-0.6,0-1-0.2-1.4-0.5
			c-0.3-0.3-0.5-0.8-0.5-1.3c0-0.5,0.2-1,0.7-1.3c0.4-0.3,1-0.5,1.8-0.5h1.1v-0.3c0-0.5-0.1-0.8-0.3-1.1c-0.2-0.2-0.6-0.4-1.2-0.4
			s-1.1,0.2-1.6,0.5v-0.9C586.3,147.5,586.9,147.3,587.7,147.3z M589,150.7H588c-0.5,0-0.9,0.1-1.2,0.3s-0.4,0.5-0.4,0.8
			s0.1,0.5,0.3,0.7c0.2,0.2,0.5,0.3,0.9,0.3s0.7-0.1,1-0.4s0.4-0.6,0.4-0.9V150.7z"/>
		<path fill="#282828" d="M591.7,153.5V145h0.9v8.5H591.7z"/>
		<path fill="#282828" d="M601.3,147.4h0.9v5.6c0,0.9-0.3,1.6-0.8,2.1c-0.5,0.5-1.2,0.7-1.9,0.7c-0.8,0-1.4-0.1-1.9-0.4v-0.9
			c0.5,0.3,1.1,0.4,1.7,0.4c1.3,0,2-0.6,2-1.9v-0.7c-0.4,0.7-1,1-1.7,1s-1.4-0.3-1.9-0.8c-0.5-0.5-0.7-1.2-0.7-2.1s0.2-1.7,0.7-2.2
			s1.1-0.9,1.9-0.9s1.4,0.4,1.8,1.1V147.4z M598,150.4c0,0.7,0.2,1.2,0.5,1.5c0.3,0.4,0.7,0.5,1.2,0.5c0.4,0,0.8-0.2,1.2-0.5
			s0.5-0.9,0.5-1.6c0-0.7-0.2-1.3-0.5-1.7c-0.3-0.4-0.7-0.6-1.2-0.6c-0.5,0-0.9,0.2-1.2,0.6C598.2,149.2,598,149.7,598,150.4z"/>
		<path fill="#282828" d="M607.7,147.4h0.9v6.1h-0.9v-1.1c-0.3,0.8-1,1.1-1.9,1.1c-0.6,0-1.1-0.2-1.4-0.5s-0.5-0.8-0.5-1.4v-4.2h0.9
			v3.9c0,0.4,0.1,0.8,0.3,1c0.2,0.2,0.6,0.3,1,0.3c0.4,0,0.8-0.2,1.1-0.5c0.3-0.4,0.5-0.8,0.5-1.4V147.4z"/>
		<path fill="#282828" d="M610.5,153.5v-6.1h0.9v6.1H610.5z M610.6,146.8l1.2-1.9h1.1l-1.5,1.9H610.6z"/>
		<path fill="#282828" d="M615.2,147.3c1.5,0,2.3,0.8,2.3,2.3v3.9h-0.9v-0.7c-0.3,0.5-0.9,0.8-1.7,0.8c-0.6,0-1-0.2-1.4-0.5
			c-0.3-0.3-0.5-0.8-0.5-1.3c0-0.5,0.2-1,0.7-1.3c0.4-0.3,1-0.5,1.8-0.5h1.1v-0.3c0-0.5-0.1-0.8-0.3-1.1c-0.2-0.2-0.6-0.4-1.2-0.4
			s-1.1,0.2-1.6,0.5v-0.9C613.8,147.5,614.4,147.3,615.2,147.3z M616.5,150.7h-1.1c-0.5,0-0.9,0.1-1.2,0.3s-0.4,0.5-0.4,0.8
			s0.1,0.5,0.3,0.7c0.2,0.2,0.5,0.3,0.9,0.3s0.7-0.1,1-0.4s0.4-0.6,0.4-0.9V150.7z"/>
		<path fill="#282828" d="M623,147.4v0.9c0.4-0.7,1-1,1.9-1c0.8,0,1.5,0.3,1.9,0.9c0.5,0.6,0.7,1.3,0.7,2.2s-0.2,1.7-0.7,2.3
			c-0.5,0.6-1.1,0.9-1.9,0.9s-1.4-0.3-1.8-1v3.3h-0.9v-8.4H623z M623,150.4c0,0.8,0.2,1.4,0.5,1.7c0.4,0.4,0.8,0.6,1.3,0.6
			c0.5,0,0.9-0.2,1.2-0.6s0.5-1,0.5-1.7s-0.2-1.3-0.5-1.7s-0.7-0.6-1.2-0.6s-0.9,0.2-1.3,0.5C623.2,149.1,623,149.6,623,150.4z"/>
		<path fill="#282828" d="M630.8,147.3c1.5,0,2.3,0.8,2.3,2.3v3.9h-0.9v-0.7c-0.3,0.5-0.9,0.8-1.7,0.8c-0.6,0-1-0.2-1.4-0.5
			c-0.3-0.3-0.5-0.8-0.5-1.3c0-0.5,0.2-1,0.7-1.3c0.4-0.3,1-0.5,1.8-0.5h1.1v-0.3c0-0.5-0.1-0.8-0.3-1.1s-0.6-0.4-1.2-0.4
			s-1.1,0.2-1.6,0.5v-0.9C629.5,147.5,630.1,147.3,630.8,147.3z M632.1,150.7h-1.1c-0.5,0-0.9,0.1-1.2,0.3s-0.4,0.5-0.4,0.8
			s0.1,0.5,0.3,0.7c0.2,0.2,0.5,0.3,0.9,0.3s0.7-0.1,1-0.4c0.3-0.2,0.4-0.6,0.4-0.9V150.7z"/>
		<path fill="#282828" d="M635.7,147.4v1.1c0.3-0.8,0.9-1.1,1.7-1.1c0.1,0,0.3,0,0.3,0v0.9c-0.2-0.1-0.3-0.1-0.5-0.1
			c-0.4,0-0.8,0.2-1.1,0.6c-0.3,0.4-0.4,0.8-0.4,1.4v3.3h-0.9l0-6.1H635.7z"/>
		<path fill="#282828" d="M640.6,147.3c1.5,0,2.3,0.8,2.3,2.3v3.9H642v-0.7c-0.3,0.5-0.9,0.8-1.7,0.8c-0.6,0-1-0.2-1.4-0.5
			c-0.3-0.3-0.5-0.8-0.5-1.3c0-0.5,0.2-1,0.7-1.3c0.4-0.3,1-0.5,1.8-0.5h1.1v-0.3c0-0.5-0.1-0.8-0.3-1.1c-0.2-0.2-0.6-0.4-1.2-0.4
			s-1.1,0.2-1.6,0.5v-0.9C639.3,147.5,639.9,147.3,640.6,147.3z M642,150.7h-1.1c-0.5,0-0.9,0.1-1.2,0.3s-0.4,0.5-0.4,0.8
			s0.1,0.5,0.3,0.7c0.2,0.2,0.5,0.3,0.9,0.3s0.7-0.1,1-0.4s0.4-0.6,0.4-0.9V150.7z"/>
		<path fill="#282828" d="M552.6,161.8v0.9c0.4-0.7,1-1,1.9-1c0.8,0,1.5,0.3,1.9,0.9c0.5,0.6,0.7,1.3,0.7,2.2s-0.2,1.7-0.7,2.3
			c-0.5,0.6-1.1,0.9-1.9,0.9s-1.4-0.3-1.8-1v3.3h-0.9v-8.4H552.6z M552.6,164.8c0,0.8,0.2,1.4,0.5,1.7c0.4,0.4,0.8,0.6,1.3,0.6
			c0.5,0,0.9-0.2,1.2-0.6s0.5-1,0.5-1.7s-0.2-1.3-0.5-1.7s-0.7-0.6-1.2-0.6s-0.9,0.2-1.3,0.5C552.7,163.5,552.6,164,552.6,164.8z"/>
		<path fill="#282828" d="M560.4,161.7c1.5,0,2.3,0.8,2.3,2.3v3.9h-0.9v-0.7c-0.3,0.5-0.9,0.8-1.7,0.8c-0.6,0-1-0.2-1.4-0.5
			c-0.3-0.3-0.5-0.8-0.5-1.3c0-0.5,0.2-1,0.7-1.3c0.4-0.3,1-0.5,1.8-0.5h1.1V164c0-0.5-0.1-0.8-0.3-1.1s-0.6-0.4-1.2-0.4
			s-1.1,0.2-1.6,0.5v-0.9C559,161.9,559.6,161.7,560.4,161.7z M561.7,165.1h-1.1c-0.5,0-0.9,0.1-1.2,0.3s-0.4,0.5-0.4,0.8
			s0.1,0.5,0.3,0.7c0.2,0.2,0.5,0.3,0.9,0.3s0.7-0.1,1-0.4c0.3-0.2,0.4-0.6,0.4-0.9V165.1z"/>
		<path fill="#282828" d="M568.4,159.4h0.9v8.5h-0.9V167c-0.4,0.7-1.1,1-1.9,1c-0.8,0-1.4-0.3-1.9-0.9c-0.5-0.6-0.7-1.4-0.7-2.3
			c0-0.9,0.2-1.7,0.7-2.2c0.5-0.6,1.1-0.9,1.9-0.9c0.8,0,1.4,0.3,1.8,1V159.4z M565,164.8c0,0.7,0.2,1.3,0.5,1.7
			c0.3,0.4,0.7,0.6,1.2,0.6c0.5,0,0.9-0.2,1.3-0.6c0.3-0.4,0.5-0.9,0.5-1.7s-0.2-1.4-0.5-1.7c-0.4-0.4-0.8-0.5-1.2-0.5
			c-0.5,0-0.9,0.2-1.2,0.6S565,164.1,565,164.8z"/>
		<path fill="#282828" d="M572.1,161.8v1.1c0.3-0.8,0.9-1.1,1.7-1.1c0.1,0,0.3,0,0.3,0v0.9c-0.2-0.1-0.3-0.1-0.5-0.1
			c-0.4,0-0.8,0.2-1.1,0.6c-0.3,0.4-0.4,0.8-0.4,1.4v3.3h-0.9l0-6.1H572.1z"/>
		<path fill="#282828" d="M577.8,168c-0.9,0-1.7-0.3-2.2-0.8c-0.6-0.6-0.8-1.3-0.8-2.3c0-0.9,0.3-1.7,0.8-2.3
			c0.5-0.6,1.1-0.8,1.9-0.8c0.8,0,1.4,0.2,1.8,0.7c0.4,0.5,0.7,1.2,0.7,2.1c0,0.3,0,0.5-0.1,0.7h-4.2c0.1,0.6,0.3,1.1,0.7,1.4
			s0.9,0.5,1.6,0.5s1.2-0.1,1.6-0.4v0.9C579,167.8,578.4,168,577.8,168z M578.9,164.5v-0.2c0-0.5-0.1-0.9-0.4-1.2
			c-0.3-0.3-0.6-0.5-1.1-0.5c-0.5,0-0.9,0.2-1.2,0.5s-0.5,0.8-0.6,1.4H578.9z"/>
		<path fill="#282828" d="M583.1,162.6c-0.3,0-0.6,0.1-0.8,0.2c-0.2,0.1-0.3,0.3-0.3,0.5c0,0.2,0,0.3,0.1,0.4
			c0.1,0.1,0.2,0.2,0.3,0.3c0.2,0.1,0.5,0.3,1,0.5c0.4,0.2,0.8,0.4,1.1,0.7c0.3,0.3,0.4,0.6,0.4,1.1c0,0.5-0.2,0.9-0.5,1.2
			c-0.4,0.3-0.9,0.5-1.6,0.5c-0.7,0-1.3-0.1-1.7-0.4v-0.9c0.5,0.3,1.1,0.5,1.7,0.5c0.4,0,0.6-0.1,0.8-0.2c0.2-0.1,0.3-0.3,0.3-0.6
			c0-0.3-0.1-0.5-0.3-0.6s-0.6-0.3-1-0.5c-0.5-0.2-0.9-0.4-1.1-0.7c-0.3-0.3-0.4-0.6-0.4-1.1c0-0.5,0.2-0.9,0.6-1.2
			c0.4-0.3,0.9-0.4,1.5-0.4c0.6,0,1.1,0.1,1.5,0.3v0.9C584.3,162.7,583.7,162.6,583.1,162.6z"/>
		<path fill="#282828" d="M589.2,170c-0.2,0-0.4,0-0.5-0.1v-0.9c0.1,0,0.3,0,0.4,0c0.8,0,1.4-0.5,1.7-1.4l-2.5-5.9h1.1l1.9,4.8
			c0.1-0.2,0.6-1.8,1.7-4.8h1l-2.2,5.9c-0.3,0.8-0.7,1.4-1.1,1.7S589.8,170,589.2,170z"/>
		<path fill="#282828" d="M602.1,159.4h0.9v8.5h-0.9V167c-0.4,0.7-1.1,1-1.9,1c-0.8,0-1.4-0.3-1.9-0.9c-0.5-0.6-0.7-1.4-0.7-2.3
			c0-0.9,0.2-1.7,0.7-2.2s1.1-0.9,1.9-0.9s1.4,0.3,1.8,1V159.4z M598.6,164.8c0,0.7,0.2,1.3,0.5,1.7c0.3,0.4,0.7,0.6,1.2,0.6
			s0.9-0.2,1.3-0.6c0.3-0.4,0.5-0.9,0.5-1.7s-0.2-1.4-0.5-1.7c-0.4-0.4-0.8-0.5-1.2-0.5s-0.9,0.2-1.2,0.6S598.6,164.1,598.6,164.8z"
			/>
		<path fill="#282828" d="M610.2,164.9c0,0.9-0.3,1.7-0.8,2.2c-0.5,0.6-1.2,0.9-2.1,0.9s-1.6-0.3-2.1-0.9c-0.5-0.6-0.8-1.3-0.8-2.2
			c0-0.9,0.3-1.7,0.8-2.3c0.5-0.6,1.2-0.9,2.1-0.9s1.6,0.3,2.1,0.9C609.9,163.2,610.2,164,610.2,164.9z M609.2,164.9
			c0-0.7-0.2-1.2-0.5-1.6c-0.3-0.4-0.8-0.7-1.4-0.7c-0.6,0-1.1,0.2-1.4,0.7c-0.3,0.4-0.5,1-0.5,1.6c0,0.6,0.2,1.2,0.5,1.6
			c0.3,0.4,0.8,0.7,1.4,0.7s1-0.2,1.4-0.7C609,166.1,609.2,165.5,609.2,164.9z"/>
		<path fill="#282828" d="M614.5,167.2c0.5,0,0.9-0.1,1.3-0.4v0.9c-0.4,0.2-0.9,0.3-1.4,0.3c-1,0-1.7-0.3-2.3-0.9
			c-0.6-0.6-0.8-1.4-0.8-2.2s0.3-1.6,0.8-2.2c0.6-0.6,1.3-0.9,2.3-0.9c0.5,0,1,0.1,1.4,0.3v0.9c-0.4-0.2-0.8-0.4-1.3-0.4
			c-0.7,0-1.2,0.2-1.7,0.7s-0.6,1-0.6,1.7s0.2,1.2,0.6,1.6C613.2,167,613.7,167.2,614.5,167.2z"/>
		<path fill="#282828" d="M619.9,168c-0.9,0-1.7-0.3-2.2-0.8c-0.6-0.6-0.8-1.3-0.8-2.3c0-0.9,0.3-1.7,0.8-2.3
			c0.5-0.6,1.1-0.8,1.9-0.8c0.8,0,1.4,0.2,1.8,0.7c0.4,0.5,0.7,1.2,0.7,2.1c0,0.3,0,0.5-0.1,0.7h-4.2c0.1,0.6,0.3,1.1,0.7,1.4
			s0.9,0.5,1.6,0.5s1.2-0.1,1.6-0.4v0.9C621.2,167.8,620.6,168,619.9,168z M621.1,164.5v-0.2c0-0.5-0.1-0.9-0.4-1.2
			c-0.3-0.3-0.6-0.5-1.1-0.5c-0.5,0-0.9,0.2-1.2,0.5s-0.5,0.8-0.6,1.4H621.1z"/>
		<path fill="#282828" d="M624.4,161.8v1.1c0.4-0.8,1-1.1,1.9-1.1c0.6,0,1.1,0.2,1.4,0.5c0.4,0.4,0.5,0.8,0.5,1.4v4.2h-0.9V164
			c0-0.4-0.1-0.8-0.3-1s-0.5-0.4-1-0.4s-0.8,0.2-1.1,0.5c-0.3,0.4-0.5,0.8-0.5,1.5v3.3h-0.9v-6.1H624.4z"/>
		<path fill="#282828" d="M631.3,162.6v3.6c0,0.6,0.3,1,0.9,1c0.3,0,0.6-0.1,0.8-0.3v0.9c-0.3,0.1-0.6,0.2-0.9,0.2
			c-1.2,0-1.8-0.6-1.8-1.8v-3.5h-1v-0.8h1v-1.5h0.9v1.5h1.7v0.8H631.3z"/>
		<path fill="#282828" d="M637.1,168c-0.9,0-1.7-0.3-2.2-0.8c-0.6-0.6-0.8-1.3-0.8-2.3c0-0.9,0.3-1.7,0.8-2.3
			c0.5-0.6,1.1-0.8,1.9-0.8c0.8,0,1.4,0.2,1.8,0.7s0.7,1.2,0.7,2.1c0,0.3,0,0.5-0.1,0.7H635c0.1,0.6,0.3,1.1,0.7,1.4
			c0.4,0.3,0.9,0.5,1.6,0.5c0.7,0,1.2-0.1,1.6-0.4v0.9C638.4,167.8,637.8,168,637.1,168z M638.3,164.5v-0.2c0-0.5-0.1-0.9-0.4-1.2
			c-0.3-0.3-0.6-0.5-1.1-0.5s-0.9,0.2-1.2,0.5c-0.3,0.3-0.5,0.8-0.6,1.4H638.3z"/>
		<path fill="#282828" d="M642.5,162.6c-0.3,0-0.6,0.1-0.8,0.2c-0.2,0.1-0.3,0.3-0.3,0.5c0,0.2,0,0.3,0.1,0.4
			c0.1,0.1,0.2,0.2,0.3,0.3c0.2,0.1,0.5,0.3,1,0.5c0.4,0.2,0.8,0.4,1.1,0.7c0.3,0.3,0.4,0.6,0.4,1.1c0,0.5-0.2,0.9-0.5,1.2
			s-0.9,0.5-1.6,0.5c-0.7,0-1.3-0.1-1.7-0.4v-0.9c0.5,0.3,1.1,0.5,1.7,0.5c0.4,0,0.6-0.1,0.8-0.2c0.2-0.1,0.3-0.3,0.3-0.6
			c0-0.3-0.1-0.5-0.3-0.6s-0.6-0.3-1-0.5c-0.5-0.2-0.9-0.4-1.1-0.7c-0.3-0.3-0.4-0.6-0.4-1.1c0-0.5,0.2-0.9,0.6-1.2
			c0.4-0.3,0.9-0.4,1.5-0.4c0.6,0,1.1,0.1,1.5,0.3v0.9C643.6,162.7,643.1,162.6,642.5,162.6z"/>
	</g>
	<g>
		<path fill="#2682A9" d="M621.3,94.1c-5.9-8.3-10.4-17.5-15.3-26.4c0,0,0,0-0.1-0.1c2.7-1.7,4.9-4,5.2-7.2c0.5-6-7.3-8.2-11.7-7.9
			c-8.4,0.5-17.1,4.3-24.8,7.6c-0.2,0.1-0.3,0.2-0.4,0.4c-5.4,0.6-11,4.4-10.1,10.2c1.6,9.3,13.1,14.5,12.9,24.3
			c0,1.2,1.8,1.2,1.9,0c0.1-8.2-7.7-14.2-11.5-20.7c-3.5-6,0.8-11.4,7.3-11.9c2.8-0.2,5.7,0.6,7.9,2.4c1.6,1.3,1.8,3.2,1.5,5.1
			c-0.6,2.4-2,3.6-4.2,3.6c-2.3-0.1-2.6-1.3-1-3.6c0.8-0.6,0.1-1.8-0.8-1.3c-1.5,0.7-2.3,1.6-2.6,2.5c-0.2-0.2-0.6-0.1-0.7,0.2
			c-0.5,6.2,1.8,13,3.5,18.8c2,6.8,4.4,14.2,8.9,19.8c4.2,5.2,11.6,1.1,16.3-1.1c6.9-3.2,12.6-4.5,15.7-11.7
			c0.7-0.6,1.3-1.1,1.9-1.8C621.5,95,621.6,94.4,621.3,94.1z M585.7,66c-1-3.2-4.7-4.7-7.6-5.4c-0.3-0.1-0.6-0.1-0.8-0.1
			c5-1.7,10-3.5,15.2-4.8c3.3-0.8,6.7-1.4,10-1.4c3.3,0,7.3,3.5,6.6,7c-1.1,4.8-9.6,7.5-13.5,9c-3.8,1.4-7.7,2.6-11.6,3.7
			C586,72.1,586.5,68.6,585.7,66z M583.5,99.9c-0.6-1.4-1.2-2.8-1.8-4.2c0.2-0.1,0.3-0.2,0.3-0.5c0.1-1.1,0.3-2.1,0.4-3.1
			C582.8,94.7,583.1,97.3,583.5,99.9z M586.2,105.1c-0.7-1.1-1.3-2.3-1.9-3.6c0.5,0.1,1.1-0.2,1.1-0.8c0.1-1,0.3-2.1,0.5-3
			c0.7,2.7,1.1,5.5,1.9,8.2c0.2,0.6,1.1,0.8,1.5,0.4c0.3,0.7,0.6,1.4,0.9,2.1c0.4,0.9,1.7,0.8,1.7-0.2c-0.1,0.7,0.1,1.4,0.5,2
			c0.1,0.2,0.3,0.3,0.5,0.4c-0.1,0-0.3,0-0.4,0.1C589.3,110.8,587.5,107.3,586.2,105.1z M612.1,102.7c-2.6,1.5-5.7,2.4-8.5,3.8
			c-3.2,1.6-6.6,3.4-10.2,3.9c0.2-0.1,0.4-0.3,0.4-0.5l-0.5-0.5c0.7,0.8,1.8-0.4,1.1-1.1c-0.1-0.1-0.2-0.2-0.3-0.3
			c-0.2-0.3-0.7-0.3-1-0.1c0,0-0.1,0-0.1,0.1c-0.4-0.8-1-1.5-1.8-1.5c-0.5-1.1-1-2.2-1.5-3.3c-0.2-0.4-0.6-0.5-1-0.4
			c-0.6-2.9-1.1-5.8-2.3-8.6c-0.3-0.7-1.4-0.5-1.6,0.2c-0.1,0.5-0.2,1-0.4,1.6c-0.4-2.8-0.6-5.7-1.3-8.5c-0.2-0.8-1.3-0.7-1.5,0
			c-0.3,1-0.5,2-0.6,3.1c-0.8-4.1-1.2-8.3-2-12.4c-0.2-0.7-1.3-0.6-1.3,0.2c0.1,2.2,0.3,4.4,0.5,6.7c-1-3.9-1.8-7.8-2.4-11.5
			c0.8,1.2,2.6,2.1,4.6,2c1,11.7,8.1,21.4,13.5,31.5c0.2,0.3,0.6,0.5,1,0.4c6.8-1.8,14.1-3.7,20.3-7.4
			C614.4,101,613.5,101.9,612.1,102.7z M618.5,95.2c-0.4-0.1-0.8,0.1-1,0.5c-0.1,0.2-0.2,0.4-0.3,0.6c-0.5,0.3-1.1,0.6-1.4,0.9
			c-3.2,2.3-6.9,3.9-10.6,5.4c-2.7,1.1-5.5,1.9-8.3,2.6c-2.9,0.8-5.1-6-6.3-8.2c-3.9-6.9-7.8-13.7-9.2-21.6c0.1,0,0.1,0,0.2,0
			c0.1,0.2,0.2,0.3,0.4,0.3c6.1-0.8,12.1-2.5,17.8-4.8c1.5-0.6,3.2-1.4,4.8-2.3c0,0,0,0,0,0.1c3.6,6.8,6.9,13.8,10.8,20.5
			c0.9,1.6,2,3.1,3,4.7C619,94.2,618.8,94.7,618.5,95.2z"/>
		<path fill="#2682A9" d="M603.2,73.7c-5.5,1-10.8,3.6-16.3,4.9c-0.6,0.1-0.4,1.1,0.3,1c5.5-1.2,11.3-2.6,16.5-4.9
			C604.2,74.4,603.7,73.6,603.2,73.7z"/>
		<path fill="#2682A9" d="M604.5,77.9c-5.8,0.8-11.1,4.2-16.5,6.2c-0.8,0.3-0.5,1.5,0.3,1.3c5.5-2,10.8-4.1,16.3-6
			C605.5,79.1,605.4,77.8,604.5,77.9z"/>
		<path fill="#2682A9" d="M607.9,83c-3,1.3-6.2,2.5-9.2,3.8c-2,0.8-5.1,1.6-6.4,3.5c-0.3,0.5,0.4,0.9,0.8,0.6
			c1.7-1.4,4.9-2.1,6.9-2.9c2.9-1.1,6-2.1,8.6-3.8C609.3,83.7,608.7,82.6,607.9,83z"/>
		<path fill="#2682A9" d="M609,89.4c-5.2,2.2-9.9,5-15.3,6.6c-0.8,0.2-0.5,1.4,0.3,1.2c5.5-1.1,11-3.7,15.7-6.5
			C610.7,90.2,610,89,609,89.4z"/>
		<path fill="#2682A9" d="M612.1,94.8c-2.3,0.7-4.5,1.9-6.8,2.9c-2.8,1.2-5.5,2.5-8.1,4.1c-0.7,0.4-0.1,1.5,0.6,1.1
			c2.6-1.5,5.3-2.7,8-3.8c2.2-0.9,4.7-1.6,6.7-3.1C613.2,95.6,612.9,94.5,612.1,94.8z"/>
	</g>
	<g>
		<path fill-rule="evenodd" clip-rule="evenodd" fill="#2682A9" d="M479.1,45.2c0.5-2,0.9-3.8,1.5-5.5c0.7-2.1,1.5-4.3,2.5-6.3
			c1.3-2.7,2.9-5.2,4.4-7.8c0.2-0.4,0.6-0.7,1-1c0.2-0.1,0.9,0.2,0.9,0.2c-0.1,1,2.1,0.7,1.1,2.1c-0.7,1-1.5,2-2.3,3.1
			c0.8,0.5,1.5,1,2.2,1.4c0.5,0.3,0.6,0.9,0.3,1.3c-0.7,0.8-1.5,1.7-2,2.6c-1.1,2.3-2.1,4.8-3.1,7.1c-0.6,1.4-1.3,2.9-1.8,4.3
			c-0.2,0.6-0.3,1.3-0.5,2.1c0.5,0.1,0.9,0.1,1.3,0.2c0.5,0.3,0.9,0.6,1.3,1.1c0.4,0.5,0.8,1.6,1,1.6c1.8-0.3,1.5,1.7,2.5,2.3
			c1.1,0.6,2,1.6,3,2.3c3,2,6.1,4,9.6,4.9c1.9,0.5,3.9,1,5.8,1.6c0.7,0.2,1.3,0.4,2,0.6c0.6,0.2,0.8,0.6,0.5,1.1
			c-1.4,2.3-2.7,4.7-4.3,6.8c-1.7,2.2-3.6,4.2-5.5,6.3c-0.7,0.8-1.7,1.4-2.6,2c-0.6,0.4-1,0.4-1.6-0.3c-2.6-3.1-5.2-6.1-7.9-9
			c-1.5-1.7-3.1-3.2-4.7-4.8c-0.4-0.4-0.8-0.7-1.2-0.9c-0.6-0.2-1.1-0.3-1.2-1c0-0.1-0.5-0.2-0.8-0.1c-0.8,0.3-1.4,0.4-2-0.4
			c-0.5-0.6-1.1-1.2-2.1-1.1c-0.4,0.1-0.9-0.2-1.3-0.4c-0.6-0.3-1.1-0.8-2-0.7c-0.3,0.1-0.8-0.4-1.1-0.8c-0.6-0.8-1-1.5-2-2
			c-0.8-0.4-1.4-1.3-2-2.1c-2.5-2.7-5.4-4.9-8.8-6.2c-2.5-1-4.9-2.2-7.4-3.2c-2-0.8-4-1.5-6.1-2.1c-2.2-0.7-3.5-2.9-3.4-5.1
			c0.1-3.4,0.8-6.7,3.3-9.4c0.6-0.6,0.9-1.3,1.4-1.9c0.5-0.6,1.1-0.7,1.6,0.1c0.1,0.2,0.3,0.3,0.4,0.5c0.8,1,1,1.1,1.8,0
			c1.3-1.8,5.4-2.4,7,0.1c1.2,1.9,3,3.5,4.7,5.1c2,2,4.1,3.9,6.3,5.7c1.6,1.3,3.5,2.3,5.2,3.4c0.4,0.3,0.8,0.6,1.2,0.8
			C476.4,44.4,477.7,44.8,479.1,45.2z M456.7,30.3c-0.9,2.7-1.9,5.2-3.6,7.4c-1.6,2.2-3,4.6-5.6,5.9c1,0.6,2,1,3,1.4
			c1.9,0.7,3.8,1.3,5.6,2.1c2.1,0.9,4.1,1.8,6.1,2.9c1.6,0.9,3.1,2.1,4.6,3.3c1.2,1,2.4,2,3.5,3c2.2-1.8,5.2-6.6,5.7-9.1
			c0.1-0.6-0.1-0.9-0.6-1.3c-2-1.2-4-2.4-5.9-3.8c-1.4-1-2.6-2.1-3.9-3.2c-1.6-1.4-3.2-2.9-4.7-4.3
			C459.5,33.2,458.2,31.8,456.7,30.3z M488.4,54.8c-1.4,2.4-2.6,4.8-4,7.1c-1,1.7-1.1,1.7,0.3,3.1c0.1,0.2,0.3,0.3,0.4,0.5
			c1.9,1.9,3.9,3.8,5.7,5.7c1.8,1.9,3.4,4,5.2,5.9c0.8,0.9,1.8,1,2.7,0.2c0.7-0.6,1.3-1.4,2-2c2.9-3,4.3-6.5,4.4-10.7
			c0-0.8-0.5-1.3-1.2-1.5c-1.1-0.4-2.1-0.7-3.2-1.1c-3.4-1.2-6.5-3.2-9.5-5.2C490.2,56.2,489.3,55.4,488.4,54.8z M448.9,30.8
			c-1.3-1.4-1.4-1.3-2.5,0.2c-1.7,2.2-2.5,4.7-2.7,7.4c-0.1,1.4,0.2,2.6,0.9,3.7c0.2,0.3,0.5,0.5,0.8,0.5c1.1,0.1,3.6-1.6,4.2-2.8
			c-0.7-0.2-1.4-0.5-2-0.7c-0.8-0.3-1.6-0.6-1.6-1.7c0-1.7,0.5-3.2,1.6-4.5C448.1,32.2,448.5,31.5,448.9,30.8z M481.7,59.6
			c0.1,0,0.2,0.1,0.3,0.1c0.8-1.9,1.6-3.9,2.4-5.8c0.4-1,0.9-2.1,0.2-3.2c-0.2-0.3-0.6-0.6-1-0.7c-0.2,0-0.6,0.3-0.7,0.6
			c-0.3,0.8-0.4,1.7-0.7,2.5c-0.3,1-0.7,1.9-1.2,2.8c-0.8,1.6-1.7,3.1-2.6,4.7c-0.5,0.9,0.3,1.2,0.7,1.6c0.5,0.5,0.9,0.1,1.2-0.4
			C480.8,61.1,481.2,60.3,481.7,59.6z M447.6,37.4c1.6-0.6,2.7-2.2,2.4-3.9c0.7-0.6,1.4-0.7,2.2-0.1c1.2,0.8,1.7,0.6,2.2-0.6
			c0.4-0.9,0.6-1.9,0.9-2.9c0.2-0.9-0.1-1.3-1.1-1.3c-1,0-1.8,0.2-2.3,1c-1.4,1.8-2.8,3.6-4.1,5.5C447.4,35.6,447.2,36.5,447.6,37.4
			z M480.4,46.1c0.1,0,0.2,0,0.3,0c0.2-0.4,0.6-0.8,0.7-1.2c0.5-1.8,0.8-3.7,1.4-5.4c0.4-1.3,1.2-2.6,1.8-3.9
			c1.1-2.6,2.2-5.3,3.9-7.6c0.3-0.4,0.3-1.1,0.4-1.7c-0.4,0.4-1,0.6-1.3,1.1c-1.6,2.8-3.1,5.7-4.7,8.5c-0.3,0.6-0.7,1.2-0.9,1.9
			c-0.6,2.3-1.1,4.7-1.6,7C480.2,45.2,480.3,45.7,480.4,46.1z M482,47.7c0.1-0.2,0.2-0.4,0.3-0.7c0.3-0.7,0.5-1.5,0.8-2.2
			c0.8-1.8,1.5-3.6,2.4-5.3c0.9-1.9,1.8-3.9,2.9-5.7c0.9-1.5,0.8-1.9-0.8-2.5C485.2,36.6,482.7,41.9,482,47.7z M479.2,48.5
			c-0.1,0-0.2,0-0.3,0c-0.1,0.1-0.2,0.3-0.3,0.4c-0.1,0.2-0.2,0.3-0.2,0.5c-1,3.1-2.5,5.9-4.7,8.3c-0.2,0.2-0.5,0.5-0.5,0.8
			c-0.1,0.4,0,0.8,0,1.2c0.4-0.1,0.9,0,1.2-0.2c0.7-0.8,1.3-1.6,1.9-2.5c1.5-2.1,2.1-4.5,2.9-6.9C479.4,49.6,479.2,49,479.2,48.5z
			 M476.8,61.2c2.1-4,4.5-7.7,5-12.6c-0.5,0.4-0.9,0.5-1,0.8c-0.5,1.3-1.2,2.7-1.4,4.1c-0.3,1.7-1.1,3-2,4.4c-0.6,1-1.3,1.8-2,2.8
			C475.9,60.8,476.4,61,476.8,61.2z M482,62.6c0.1,0,0.2,0,0.3,0c1.7-2.6,3.3-5.2,4.3-8.1c0.2-0.7,0.1-1.2-0.7-1.5
			c-1,3-1.8,6-3.9,8.5C481.9,61.6,482,62.2,482,62.6z M451.9,34.6c-1,1.3-1.8,2.5-2.7,3.7c0.1,0.1,0.1,0.2,0.2,0.4
			c0.6-0.2,1.3-0.2,1.7-0.5c0.8-0.8,1.4-1.9,2.2-2.9C452.7,35,452.3,34.8,451.9,34.6z M508.6,64.9c-1.7-0.6-1.9-0.5-2,1.1
			c0,0.7,0,1.3-0.1,2c0.1,0,0.2,0.1,0.3,0.1C507.4,67,507.9,66,508.6,64.9z M472.1,57.1c2-2,3.4-4.2,4.5-6.7
			C475.1,52.6,473.6,54.9,472.1,57.1z"/>
	</g>
	<path fill="#135570" d="M109.1,57.6c-7.2,4.2-5.6,13.4-1.4,19.1c1.9,2.5,4.3,4.9,7.2,6.2c0,6.4,6.9,11.7,12.4,13.7
		c4.8,1.7,10,1.8,15,1.2c3.5-0.4,8.1-1.1,9.6-4.8c0.2-0.4-0.4-0.5-0.6-0.3c-1.8,2.3-4.6,3-7.4,3.4c-3.3,0.5-6.6,0.7-9.9,0.4
		c-6.1-0.6-12.7-3.3-15.9-8.8c-0.7-1.2-1.3-2.7-1.5-4.1c0.2,0.1,0.4,0.1,0.5,0.2c3.1,0.8,7.3,0.5,8.7-2.9c1.2-2.8-0.5-5.6-3.5-5.9
		c-3.1-0.3-5.9,2.1-6.9,4.9c-0.1,0.4-0.3,0.8-0.4,1.2c-2.2-1.1-4-2.8-5.5-4.7c-3.9-4.9-6.3-13.5,0.3-17.3
		C110.9,58.5,110,57,109.1,57.6z M117.3,79.5c0.6-1.2,1.6-2.2,2.9-2.7c1.7-0.7,4.1-0.3,4.4,1.8c0.6,4.1-5.1,4.1-7.6,3.3
		c-0.1,0-0.3-0.1-0.4-0.1C116.7,81,116.9,80.2,117.3,79.5z"/>
	<path fill="#135570" d="M439.3,20.8c-8.8-12.1-31.2-12.9-39.9-0.4c-8.5-0.6-14.1,7.9-12.6,15.8c0.2,0.9,1.7,0.6,1.6-0.3
		c-0.5-3.9,0.3-8.1,3.2-11c1.8-1.8,4.3-2.8,6.8-2.9c-1.3,2.5-2,5.7-0.6,8.3c1.3,2.4,4.3,4.1,7,3c3-1.2,3.9-5,2.7-7.7
		c-1.1-2.5-3.5-4.2-6.1-4.9c3.9-5.1,10.8-7.5,17-7.6c7.9-0.1,14.6,3.1,20.4,8.1C439.1,21.6,439.6,21.2,439.3,20.8z M401.4,22.5
		c2,0.6,3.9,2.1,4.6,4.2c0.7,2.1-0.2,5.1-2.8,5.3c-4.9,0.5-5-6-3.4-8.9c0.1-0.3,0.3-0.5,0.4-0.8C400.6,22.3,401,22.4,401.4,22.5z"/>
	<path fill="#135570" d="M295.3,144.4c0.7-0.8-0.5-2-1.2-1.2c-4.5,5.5-11.7,7.3-18.4,8c-3.2,0.3-6.4,0.5-9.6-0.2
		c-0.1,0-0.2,0-0.2-0.1c1.1-1.9,1.4-4.2,0.6-6.6c-0.9-2.6-3.5-4.7-6.4-3.8c-2.4,0.8-3.3,3.5-2.8,5.8c0.7,3,3.1,4.7,6,5.7
		c-1.3,1.5-3,2.7-4.9,3.4c-6.3,2.3-13.3,0.1-18.1-4.4c-0.4-0.3-0.8,0.2-0.5,0.5c4.1,4.8,10.7,7,16.9,5.8c3.1-0.6,6.2-2.4,8.2-4.9
		c3.1,0.7,6.5,0.8,9,0.6C281.5,152.5,290.1,150.6,295.3,144.4z M258.8,144.4c0.4-2.5,3.2-3.1,5-1.4c1.4,1.4,1.6,3.5,1.3,5.3
		c-0.2,0.8-0.4,1.5-0.8,2.2C261.4,149.5,258.2,147.6,258.8,144.4z"/>
	<path fill="#135570" d="M568.8,95.4c1-0.4,0.5-2-0.5-1.6c-6.5,2.7-13.7,0.9-20-1.6c-3-1.2-5.9-2.6-8.3-4.7
		c-0.1-0.1-0.1-0.1-0.2-0.2c1.8-1.2,3.2-3.1,3.6-5.6c0.4-2.7-0.9-5.8-3.9-6.3c-2.4-0.4-4.6,1.6-5.2,3.8c-0.8,3,0.6,5.6,2.7,7.8
		c-1.8,0.8-3.9,1-5.9,0.7c-6.6-0.9-11.8-6.1-13.9-12.3c-0.2-0.5-0.8-0.2-0.7,0.2c1.3,6.2,6.2,11.2,12.2,13c3,0.9,6.6,0.8,9.5-0.5
		c2.4,2.1,5.4,3.7,7.6,4.7C552.9,96.1,561.3,98.5,568.8,95.4z M536.6,78.3c1.6-2,4.3-1.2,5.1,1.1c0.6,1.8-0.2,3.9-1.4,5.3
		c-0.5,0.6-1.1,1.1-1.7,1.5C536.5,84.1,534.6,80.9,536.6,78.3z"/>
	<g>
		<path fill="#2682A9" d="M188.5,65.3c-2-1.7-5.5,0.1-6.7,2.1c-1,1.7-1.1,4.4,0.6,5.7c2.1,1.6,5-0.8,6-2.7c0.1,0.9,0.4,1.6,0.8,2.5
			c0.1,0.2,0.5,0.1,0.4-0.1C189.3,70.5,190.5,67,188.5,65.3z M187.7,69.4c-1,0.9-2.9,3.7-4.5,2.4c-1.2-0.9-0.6-3.1,0.2-4
			c1-1.3,3.9-2.5,4.6-0.4c0.2,0.6,0.3,1.3,0.4,2C188.1,69.2,187.9,69.2,187.7,69.4z"/>
		<path fill="#2682A9" d="M192.4,63.6c0.4-0.7,0.7-1.4,0.4-2.3c-0.2-0.6-0.8-1-1.5-1.1c-1.1-0.1-2.1,0.6-2.9,1.2
			c-0.5,0.4,0.1,1,0.5,0.7c0.6-0.4,1.3-0.8,2-0.8c0.4,0,0.5,0.1,0.5,0.4c0.1,0.9-1.4,1.6-2.1,1.7c-0.8,0.2-0.8,1.6,0,1.8
			c0.7,0.2,1.3,0.2,2,0.2c0.7,0,1.5-0.1,1.8-0.8C193.4,64.1,193,63.7,192.4,63.6z"/>
		<path fill="#2682A9" d="M198.5,66.1c-0.4,0-0.8,0-1.2,0.1c0-0.5,0-1-0.3-1.4c-0.3-0.5-1-0.4-1.1,0.1c-0.1,0.5-0.1,1,0,1.5
			c-0.1,0-0.2,0-0.3,0.1c-0.5,0.1-1,0.2-1.5,0.3c-0.2,0-0.4,0.1-0.6,0.3c0,0,0,0,0,0c-0.1,0.1-0.2,0.3-0.1,0.4
			c0,0.1,0.1,0.3,0.3,0.4c0,0,0,0,0,0c0.2,0.1,0.4,0.2,0.6,0.2c0.5,0,1-0.1,1.6-0.1c0.1,0,0.2,0,0.3,0c0,0.7,0.1,1.3,0.2,2
			c0.1,0.8,1.3,0.6,1.2-0.1c-0.1-0.7-0.1-1.3,0-2c0.5,0,1-0.1,1.4-0.3C199.4,67.3,199.2,66.2,198.5,66.1z"/>
		<path fill="#2682A9" d="M204,63.3c0-2-0.1-4.1-0.4-6.1c-0.1-0.6-1-0.5-1,0.1c0.1,4.4-0.6,8.8,0.2,13.1c0.1,0.4,0.5,0.8,0.9,0.7
			c3-0.3,5.6-2.7,5.1-5.9C208.5,62.8,205.9,62.4,204,63.3z M207.3,66.3c-0.1,1.7-1.4,2.7-2.9,3.1c-0.2-1.5-0.3-3-0.3-4.5
			C205.6,64.5,207.4,63.9,207.3,66.3z"/>
		<path fill="#2682A9" d="M213.2,60.5c-0.3,0-0.7,0.1-1,0.2c0.3-1.3,0.2-2.7,0-4.1c-0.1-0.4-0.5-0.8-1-0.7c-1.4,0.3-2.6,1-3.3,2.2
			c-0.3,0.6,0.3,1.4,0.9,0.9c0.6-0.5,1.1-0.9,1.8-1.2c0.1,1.3,0.1,2.5-0.7,3.6c-0.5,0.6,0,1.6,0.8,1.5c1-0.1,2.3-0.2,3.1-1
			C214.4,61.3,214.1,60.4,213.2,60.5z"/>
		<path fill="#2682A9" d="M219.3,65.2c-0.6-0.3-1.3,0.2-1.9,0.4c-0.7,0.3-1.4,0.5-2.1,0.7c-0.7,0.1-0.6,1.2,0.1,1.1
			c0.8-0.1,1.5-0.2,2.3-0.4c0.7-0.2,1.7-0.3,1.9-1.2C219.7,65.6,219.5,65.3,219.3,65.2z"/>
		<path fill="#2682A9" d="M219.6,63.4c-0.7-0.5-1.6-0.2-2.4,0c-0.6,0.1-1.7,0.1-2,0.7c0,0,0,0,0,0c0,0,0,0,0,0c0,0,0,0,0,0
			c-0.1,0.2-0.1,0.4,0.1,0.6l0,0c0,0,0,0,0,0c0,0,0,0,0,0c0.4,0.6,1.5,0.3,2.1,0.3c0.8,0,1.7,0,2.3-0.6
			C220,64.2,220,63.6,219.6,63.4z"/>
		<path fill="#2682A9" d="M228.2,63.1c-1.4,0.7-3.1,1.5-3.7-0.5c-0.7-2.3,1.8-3.6,3.6-4.2c0.8-0.3,0.4-1.3-0.3-1.3
			c-3.3,0-6.2,3-5.2,6.3c0.9,3.1,4.8,3.5,6.7,1C229.7,63.8,229,62.7,228.2,63.1z"/>
		<path fill="#2682A9" d="M234.8,58.3c-0.7-0.4-1.3-0.3-2.1-0.4c-0.1,0-0.3,0-0.4-0.1c0.5-0.6,0.8-1.2,0.9-1.9
			c0.2-1.7-1.5-2.3-2.9-2.3c-0.9,0-1.2,1.3-0.2,1.5c0.7,0.1,1.5,0.2,1.2,1c-0.3,0.7-1.2,1.3-1.8,1.6c-0.8,0.5-0.3,1.7,0.5,1.8
			c1.3,0.2,3.8,1.3,4.9,0.3C235.2,59.5,235.3,58.7,234.8,58.3z"/>
	</g>
	<g>
		<path fill="#2682A9" d="M251.7,87.8c-1.5-1.2-1.1-3.5-1.3-5.2c-0.1-1-1.3-1.1-1.8-0.6c-0.1,0-0.1-0.1-0.2-0.1c0,0,0,0,0,0
			c4.3-0.2-4.2-47.1-4.5-49c-0.1-0.4-0.3-0.7-0.6-0.8c-0.2-0.3-0.5-0.5-0.9-0.5c-6.1,0.2-12.4,1.6-18.4,2.4
			c-6.7,0.8-13.3,1.5-20,2.4c-13.8,1.8-28.6,0.1-41.7,5.3c-0.7,0.3-0.4,1.4,0.3,1.2c13.6-3.2,27.9-2.2,41.7-4.1
			c6.6-0.9,13.3-1.6,20-2.3c5.8-0.6,12.2-0.9,17.9-2.7c1.2,9.9,3.2,19.6,4.2,29.5c0.4,3.6,0.7,7.1,1,10.7c0.1,0.9,1.1,6.6,0.7,7.1
			c-0.2,0.3,0,0.6,0.3,0.7c-0.1,0-0.2,0-0.3,0c-1.4,0.2-2.8,0.5-4.2,0.8c-1.5-14.9-1.6-30-3.7-44.8c-0.1-1-1.3-1-1.7-0.5
			c-0.2-0.2-0.4-0.2-0.7-0.2c-10.8,0.1-22,2.5-32.8,3.7c-12.1,1.3-24.2,2.3-36.2,4.4c-0.4,0.1-0.6,0.3-0.7,0.6
			c-0.3,0-0.6,0.1-0.8,0.4c-2.5,7.4,0.7,17.2,1.6,24.7c0.5,4,1.4,8,2.1,12.1c0.5,3.2,0.2,6.2,0.4,9.3c-0.9,0.3-1.9,0.5-2.8,0.8
			c-1.2-16.8-4.9-33.2-6.5-49.9c-0.1-1-1.5-0.8-1.5,0.2c0.9,16.7,4.2,33.2,7.2,49.6c-0.6-0.3-1.3,0.2-1.3,1c0,0.9,0.5,2,0.7,2.9
			c0.2,0.8,0.4,1.5,0.6,2.3c-0.4,0.2-0.2,0.9,0.2,0.9c0.1,0,0.2,0,0.3,0c0.1,0,0.2,0.1,0.4,0c5.4,0.7,11.4-0.9,16.6-1.8
			c7.3-1.3,14.6-2.9,21.9-4c14.6-2.4,29.9-0.7,44.2-5.3c0.2-0.1,0.3-0.2,0.4-0.3C251.9,88.6,252.1,88.1,251.7,87.8z M171.8,75.5
			c-1.7-9.5-2.3-19-3.1-28.6c0,0,0.1,0,0.1,0c12.1-0.8,24.2-2.3,36.3-3.5c10.8-1.2,22.5-1.4,33-4.2c0,0,0,0,0,0
			c1.2,14.6,0.9,29.5,4.3,43.8c-4.4,0.8-8.7,1.7-13.2,2.1c-4,0.4-8,0.6-12.1,0.8c0.2-1.5-0.1-3.1-0.4-4.5c-0.1-0.6-0.6-1-1.2-0.9
			c-3.2,0.5-17.6,0-14.6,6.7c-4.8,0.6-9.5,1.5-14.3,2.5c-4.4,0.8-9.1,1.4-13.6,2.4C175,88,172.3,78.3,171.8,75.5z M214.8,85.9
			c-2.5,0.1-5,0.3-7.5,0.5c-1.7,0.1-3.3,0.3-5,0.5c-0.2-4.7,8.2-4.3,12.4-4.4C214.7,83.7,214.8,84.8,214.8,85.9z M206.9,92.9
			c-6.7,1-13.4,2.5-20.1,3.5c-5.8,0.9-12,1.1-17.7,2.5c0-1.4,0-3.2-0.5-4.5c5.4,0.3,11.3-1.6,16.5-2.6c7.4-1.4,14.9-2.8,22.4-3.4
			c7.3-0.6,14.7-0.6,22-1.1c6-0.4,13.2-0.7,18.7-3.5c0,1.4,0.5,3,1.5,4C235.7,91.6,221.1,90.8,206.9,92.9z"/>
	</g>
</g>
<g>
</g>
<g>
</g>
<g>
</g>
<g>
</g>
<g>
</g>
<g>
</g>
<g>
</g>
<g>
</g>
<g>
</g>
<g>
</g>
<g>
</g>
<g>
</g>
<g>
</g>
<g>
</g>
<g>
</g>
</svg>
