<?xml version="1.0" encoding="utf-8"?>
<!-- Generator: Adobe Illustrator 18.0.0, SVG Export Plug-In . SVG Version: 6.00 Build 0)  -->
<!DOCTYPE svg PUBLIC "-//W3C//DTD SVG 1.1//EN" "http://www.w3.org/Graphics/SVG/1.1/DTD/svg11.dtd">
<svg version="1.1" id="Layer_1" xmlns="http://www.w3.org/2000/svg" xmlns:xlink="http://www.w3.org/1999/xlink" x="0px" y="0px"
	 viewBox="0 0 29.4 29.9" enable-background="new 0 0 29.4 29.9" xml:space="preserve">
<g>
	<g>
		<g>
			<path fill="#FFFFFF" d="M12.8,25.7C5.8,25.7,0,19.9,0,12.8C0,5.8,5.8,0,12.8,0c7.1,0,12.8,5.8,12.8,12.8
				C25.7,19.9,19.9,25.7,12.8,25.7L12.8,25.7z M12.8,2.6C7.2,2.6,2.6,7.2,2.6,12.8c0,5.7,4.6,10.3,10.3,10.3
				c5.7,0,10.3-4.6,10.3-10.3C23.1,7.2,18.5,2.6,12.8,2.6L12.8,2.6z"/>
		</g>
		<g>
			<path fill="#FFFFFF" d="M5.6,12.8H4.3c0-4.7,3.8-8.5,8.5-8.5v1.3C8.9,5.6,5.6,8.9,5.6,12.8L5.6,12.8z"/>
		</g>
		<g>
			<path fill="#FFFFFF" d="M28.1,29.9c-0.3,0-0.7-0.1-0.9-0.4l-7.2-7.2c-0.5-0.5-0.5-1.3,0-1.8c0.5-0.5,1.3-0.5,1.8,0l7.2,7.2
				c0.5,0.5,0.5,1.3,0,1.8C28.8,29.8,28.5,29.9,28.1,29.9L28.1,29.9z"/>
		</g>
	</g>
</g>
<g>
</g>
<g>
</g>
<g>
</g>
<g>
</g>
<g>
</g>
<g>
</g>
<g>
</g>
<g>
</g>
<g>
</g>
<g>
</g>
<g>
</g>
<g>
</g>
<g>
</g>
<g>
</g>
<g>
</g>
</svg>
