<?xml version="1.0" encoding="utf-8"?>
<!-- Generator: Adobe Illustrator 18.0.0, SVG Export Plug-In . SVG Version: 6.00 Build 0)  -->
<!DOCTYPE svg PUBLIC "-//W3C//DTD SVG 1.1//EN" "http://www.w3.org/Graphics/SVG/1.1/DTD/svg11.dtd">
<svg version="1.1" id="Layer_1" xmlns="http://www.w3.org/2000/svg" xmlns:xlink="http://www.w3.org/1999/xlink" x="0px" y="0px"
	 viewBox="0 0 146 146" enable-background="new 0 0 146 146" xml:space="preserve">
<circle fill="none" stroke="#F6921E" stroke-width="2" stroke-miterlimit="10" cx="73" cy="73" r="72"/>
<g>
	<g>
		<g>
			<path fill="#F6921E" d="M79.8,110.1c-0.4,0-0.7-0.3-0.7-0.7V91.3H67v18.2c0,0.4-0.3,0.7-0.7,0.7H50c-0.4,0-0.7-0.3-0.7-0.7V52.1
				c0-0.2,0.1-0.4,0.3-0.6l23-15.4c0.1-0.1,0.2-0.1,0.4-0.1c0.1,0,0.3,0,0.4,0.1l23,15.4c0.2,0.1,0.3,0.3,0.3,0.6v57.3
				c0,0.4-0.3,0.7-0.7,0.7H79.8z M95.3,108.8V52.5L73,37.6L50.7,52.5v56.3h14.9V90.6c0-0.4,0.3-0.7,0.7-0.7h13.5
				c0.4,0,0.7,0.3,0.7,0.7v18.2H95.3z M81.1,88.6c-0.4,0-0.7-0.3-0.7-0.7v-8.1c0-0.4,0.3-0.7,0.7-0.7h8.1c0.4,0,0.7,0.3,0.7,0.7v8.1
				c0,0.4-0.3,0.7-0.7,0.7H81.1z M88.5,87.2v-6.7h-6.7v6.7H88.5z M69,88.6c-0.4,0-0.7-0.3-0.7-0.7v-8.1c0-0.4,0.3-0.7,0.7-0.7h8.1
				c0.4,0,0.7,0.3,0.7,0.7v8.1c0,0.4-0.3,0.7-0.7,0.7H69z M76.4,87.2v-6.7h-6.7v6.7H76.4z M56.8,88.6c-0.4,0-0.7-0.3-0.7-0.7v-8.1
				c0-0.4,0.3-0.7,0.7-0.7h8.1c0.4,0,0.7,0.3,0.7,0.7v8.1c0,0.4-0.3,0.7-0.7,0.7H56.8z M64.2,87.2v-6.7h-6.7v6.7H64.2z M81.1,76.4
				c-0.4,0-0.7-0.3-0.7-0.7v-8.1c0-0.4,0.3-0.7,0.7-0.7h8.1c0.4,0,0.7,0.3,0.7,0.7v8.1c0,0.4-0.3,0.7-0.7,0.7H81.1z M88.5,75.1v-6.7
				h-6.7v6.7H88.5z M69,76.4c-0.4,0-0.7-0.3-0.7-0.7v-8.1c0-0.4,0.3-0.7,0.7-0.7h8.1c0.4,0,0.7,0.3,0.7,0.7v8.1
				c0,0.4-0.3,0.7-0.7,0.7H69z M76.4,75.1v-6.7h-6.7v6.7H76.4z M56.8,76.4c-0.4,0-0.7-0.3-0.7-0.7v-8.1c0-0.4,0.3-0.7,0.7-0.7h8.1
				c0.4,0,0.7,0.3,0.7,0.7v8.1c0,0.4-0.3,0.7-0.7,0.7H56.8z M64.2,75.1v-6.7h-6.7v6.7H64.2z M81.1,64.3c-0.4,0-0.7-0.3-0.7-0.7v-8.1
				c0-0.4,0.3-0.7,0.7-0.7h8.1c0.4,0,0.7,0.3,0.7,0.7v8.1c0,0.4-0.3,0.7-0.7,0.7H81.1z M88.5,62.9v-6.7h-6.7v6.7H88.5z M69,64.3
				c-0.4,0-0.7-0.3-0.7-0.7v-8.1c0-0.4,0.3-0.7,0.7-0.7h8.1c0.4,0,0.7,0.3,0.7,0.7v8.1c0,0.4-0.3,0.7-0.7,0.7H69z M76.4,62.9v-6.7
				h-6.7v6.7H76.4z M56.8,64.3c-0.4,0-0.7-0.3-0.7-0.7v-8.1c0-0.4,0.3-0.7,0.7-0.7h8.1c0.4,0,0.7,0.3,0.7,0.7v8.1
				c0,0.4-0.3,0.7-0.7,0.7H56.8z M64.2,62.9v-6.7h-6.7v6.7H64.2z"/>
			<path fill="#F6921E" d="M73,36.4c0.1,0,0.1,0,0.2,0.1l23,15.4c0.1,0.1,0.1,0.2,0.1,0.3v57.3c0,0.2-0.1,0.3-0.3,0.3H79.8
				c-0.2,0-0.3-0.1-0.3-0.3V90.9H66.6v18.6c0,0.2-0.1,0.3-0.3,0.3H50c-0.2,0-0.3-0.1-0.3-0.3V52.1c0-0.1,0.1-0.2,0.1-0.3l23-15.4
				C72.9,36.5,73,36.4,73,36.4 M50.3,109.1H66V90.6c0-0.2,0.1-0.3,0.3-0.3h13.5c0.2,0,0.3,0.1,0.3,0.3v18.6h15.6V52.3L73,37.1
				L50.3,52.3V109.1 M89.2,55.2c0.2,0,0.3,0.1,0.3,0.3v8.1c0,0.2-0.1,0.3-0.3,0.3h-8.1c-0.2,0-0.3-0.1-0.3-0.3v-8.1
				c0-0.2,0.1-0.3,0.3-0.3H89.2 M81.4,63.3h7.5v-7.5h-7.5V63.3 M77.1,55.2c0.2,0,0.3,0.1,0.3,0.3v8.1c0,0.2-0.1,0.3-0.3,0.3H69
				c-0.2,0-0.3-0.1-0.3-0.3v-8.1c0-0.2,0.1-0.3,0.3-0.3H77.1 M69.3,63.3h7.5v-7.5h-7.5V63.3 M64.9,55.2c0.2,0,0.3,0.1,0.3,0.3v8.1
				c0,0.2-0.1,0.3-0.3,0.3h-8.1c-0.2,0-0.3-0.1-0.3-0.3v-8.1c0-0.2,0.1-0.3,0.3-0.3H64.9 M57.1,63.3h7.5v-7.5h-7.5V63.3 M89.2,67.3
				c0.2,0,0.3,0.1,0.3,0.3v8.1c0,0.2-0.1,0.3-0.3,0.3h-8.1c-0.2,0-0.3-0.1-0.3-0.3v-8.1c0-0.2,0.1-0.3,0.3-0.3H89.2 M81.4,75.4h7.5
				V68h-7.5V75.4 M77.1,67.3c0.2,0,0.3,0.1,0.3,0.3v8.1c0,0.2-0.1,0.3-0.3,0.3H69c-0.2,0-0.3-0.1-0.3-0.3v-8.1
				c0-0.2,0.1-0.3,0.3-0.3H77.1 M69.3,75.4h7.5V68h-7.5V75.4 M64.9,67.3c0.2,0,0.3,0.1,0.3,0.3v8.1c0,0.2-0.1,0.3-0.3,0.3h-8.1
				c-0.2,0-0.3-0.1-0.3-0.3v-8.1c0-0.2,0.1-0.3,0.3-0.3H64.9 M57.1,75.4h7.5V68h-7.5V75.4 M89.2,79.5c0.2,0,0.3,0.1,0.3,0.3v8.1
				c0,0.2-0.1,0.3-0.3,0.3h-8.1c-0.2,0-0.3-0.1-0.3-0.3v-8.1c0-0.2,0.1-0.3,0.3-0.3H89.2 M81.4,87.6h7.5v-7.5h-7.5V87.6 M77.1,79.5
				c0.2,0,0.3,0.1,0.3,0.3v8.1c0,0.2-0.1,0.3-0.3,0.3H69c-0.2,0-0.3-0.1-0.3-0.3v-8.1c0-0.2,0.1-0.3,0.3-0.3H77.1 M69.3,87.6h7.5
				v-7.5h-7.5V87.6 M64.9,79.5c0.2,0,0.3,0.1,0.3,0.3v8.1c0,0.2-0.1,0.3-0.3,0.3h-8.1c-0.2,0-0.3-0.1-0.3-0.3v-8.1
				c0-0.2,0.1-0.3,0.3-0.3H64.9 M57.1,87.6h7.5v-7.5h-7.5V87.6 M73,35.7c-0.2,0-0.4,0.1-0.6,0.2l-23,15.4c-0.3,0.2-0.5,0.5-0.5,0.9
				v57.3c0,0.6,0.5,1.1,1.1,1.1h16.2c0.6,0,1.1-0.5,1.1-1.1V91.6h11.4v17.8c0,0.6,0.5,1.1,1.1,1.1H96c0.6,0,1.1-0.5,1.1-1.1V52.1
				c0-0.4-0.2-0.7-0.5-0.9l-23-15.4C73.4,35.8,73.2,35.7,73,35.7L73,35.7z M51.1,52.7L73,38l21.9,14.7v55.7H80.8V90.6
				c0-0.6-0.5-1.1-1.1-1.1H66.3c-0.6,0-1.1,0.5-1.1,1.1v17.8H51.1V52.7L51.1,52.7z M89.2,54.5h-8.1c-0.6,0-1.1,0.5-1.1,1.1v8.1
				c0,0.6,0.5,1.1,1.1,1.1h8.1c0.6,0,1.1-0.5,1.1-1.1v-8.1C90.2,54.9,89.8,54.5,89.2,54.5L89.2,54.5z M82.2,56.6h6v6h-6V56.6
				L82.2,56.6z M77.1,54.5H69c-0.6,0-1.1,0.5-1.1,1.1v8.1c0,0.6,0.5,1.1,1.1,1.1h8.1c0.6,0,1.1-0.5,1.1-1.1v-8.1
				C78.1,54.9,77.6,54.5,77.1,54.5L77.1,54.5z M70,56.6h6v6h-6V56.6L70,56.6z M64.9,54.5h-8.1c-0.6,0-1.1,0.5-1.1,1.1v8.1
				c0,0.6,0.5,1.1,1.1,1.1h8.1c0.6,0,1.1-0.5,1.1-1.1v-8.1C66,54.9,65.5,54.5,64.9,54.5L64.9,54.5z M57.9,56.6h6v6h-6V56.6
				L57.9,56.6z M89.2,66.6h-8.1c-0.6,0-1.1,0.5-1.1,1.1v8.1c0,0.6,0.5,1.1,1.1,1.1h8.1c0.6,0,1.1-0.5,1.1-1.1v-8.1
				C90.2,67.1,89.8,66.6,89.2,66.6L89.2,66.6z M82.2,68.7h6v6h-6V68.7L82.2,68.7z M77.1,66.6H69c-0.6,0-1.1,0.5-1.1,1.1v8.1
				c0,0.6,0.5,1.1,1.1,1.1h8.1c0.6,0,1.1-0.5,1.1-1.1v-8.1C78.1,67.1,77.6,66.6,77.1,66.6L77.1,66.6z M70,68.7h6v6h-6V68.7L70,68.7z
				 M64.9,66.6h-8.1c-0.6,0-1.1,0.5-1.1,1.1v8.1c0,0.6,0.5,1.1,1.1,1.1h8.1c0.6,0,1.1-0.5,1.1-1.1v-8.1C66,67.1,65.5,66.6,64.9,66.6
				L64.9,66.6z M57.9,68.7h6v6h-6V68.7L57.9,68.7z M89.2,78.7h-8.1c-0.6,0-1.1,0.5-1.1,1.1v8.1c0,0.6,0.5,1.1,1.1,1.1h8.1
				c0.6,0,1.1-0.5,1.1-1.1v-8.1C90.2,79.2,89.8,78.7,89.2,78.7L89.2,78.7z M82.2,80.8h6v6h-6V80.8L82.2,80.8z M77.1,78.7H69
				c-0.6,0-1.1,0.5-1.1,1.1v8.1c0,0.6,0.5,1.1,1.1,1.1h8.1c0.6,0,1.1-0.5,1.1-1.1v-8.1C78.1,79.2,77.6,78.7,77.1,78.7L77.1,78.7z
				 M70,80.8h6v6h-6V80.8L70,80.8z M64.9,78.7h-8.1c-0.6,0-1.1,0.5-1.1,1.1v8.1c0,0.6,0.5,1.1,1.1,1.1h8.1c0.6,0,1.1-0.5,1.1-1.1
				v-8.1C66,79.2,65.5,78.7,64.9,78.7L64.9,78.7z M57.9,80.8h6v6h-6V80.8L57.9,80.8z"/>
		</g>
	</g>
	<g>
		<g>
			<path fill="#F6921E" d="M97.5,50.6c-0.1,0-0.3,0-0.4-0.1L73.6,34.7h-1.1L48.9,50.5c-0.1,0.1-0.2,0.1-0.4,0.1H41
				c-0.3,0-0.6-0.2-0.7-0.5c-0.1-0.3,0-0.6,0.3-0.8l32-21.3c0.1-0.1,0.2-0.1,0.4-0.1c0.1,0,0.3,0,0.4,0.1l32,21.3
				c0.2,0.1,0.3,0.3,0.3,0.6c0,0.4-0.3,0.7-0.7,0.7H97.5z M102.8,49.2L73,29.4L43.3,49.2h5.1l23.6-15.8c0.1-0.1,0.2-0.1,0.4-0.1h1.5
				c0.1,0,0.3,0,0.4,0.1l23.6,15.8H102.8z"/>
			<path fill="#F6921E" d="M73,28.2c0.1,0,0.1,0,0.2,0.1l32,21.3c0.1,0.1,0.2,0.2,0.2,0.3c0,0.2-0.1,0.3-0.3,0.3h0h-7.5
				c-0.1,0-0.1,0-0.2-0.1L73.7,34.3h-1.3L48.7,50.1c-0.1,0-0.1,0.1-0.2,0.1H41c-0.1,0-0.3-0.1-0.3-0.2c0-0.1,0-0.3,0.1-0.3l32-21.3
				C72.9,28.3,73,28.2,73,28.2 M42,49.6h6.4l23.6-15.8c0.1,0,0.1-0.1,0.2-0.1h1.5c0.1,0,0.1,0,0.2,0.1l23.6,15.8h6.4L73,28.9
				L42,49.6 M73,27.5c-0.2,0-0.4,0.1-0.6,0.2L40.4,49c-0.4,0.3-0.6,0.7-0.4,1.2c0.1,0.4,0.6,0.8,1,0.8h7.5c0.2,0,0.4-0.1,0.6-0.2
				l23.5-15.7h0.9l23.5,15.7c0.2,0.1,0.4,0.2,0.6,0.2h7.5c0.6,0,1.1-0.5,1.1-1.1c0-0.4-0.2-0.7-0.5-0.9l-32-21.3
				C73.4,27.6,73.2,27.5,73,27.5L73,27.5z M44.5,48.8l28.5-19l28.5,19h-3.7L74.4,33.1c-0.2-0.1-0.4-0.2-0.6-0.2h-1.5
				c-0.2,0-0.4,0.1-0.6,0.2L48.2,48.8H44.5L44.5,48.8z"/>
		</g>
	</g>
	<g>
		<g>
			<g>
				<path fill="#F6921E" d="M99.8,110.1c-0.4,0-0.7-0.3-0.7-0.7V75.5c0-0.4,0.3-0.7,0.7-0.7h20.7c0.4,0,0.7,0.3,0.7,0.7v33.9
					c0,0.4-0.3,0.7-0.7,0.7H99.8z M119.8,108.8V76.2h-19.3v32.6H119.8z M106.1,100.6c-0.4,0-0.7-0.3-0.7-0.7v-8.1
					c0-0.4,0.3-0.7,0.7-0.7h8.1c0.4,0,0.7,0.3,0.7,0.7v8.1c0,0.4-0.3,0.7-0.7,0.7H106.1z M113.5,99.2v-6.7h-6.7v6.7H113.5z
					 M106.1,88.6c-0.4,0-0.7-0.3-0.7-0.7v-8.1c0-0.4,0.3-0.7,0.7-0.7h8.1c0.4,0,0.7,0.3,0.7,0.7v8.1c0,0.4-0.3,0.7-0.7,0.7H106.1z
					 M113.5,87.2v-6.7h-6.7v6.7H113.5z"/>
				<path fill="#F6921E" d="M120.5,75.2c0.2,0,0.3,0.1,0.3,0.3v33.9c0,0.2-0.1,0.3-0.3,0.3H99.8c-0.2,0-0.3-0.1-0.3-0.3V75.5
					c0-0.2,0.1-0.3,0.3-0.3H120.5 M100.1,109.1h20.1V75.8h-20.1V109.1 M114.2,79.5c0.2,0,0.3,0.1,0.3,0.3v8.1c0,0.2-0.1,0.3-0.3,0.3
					h-8.1c-0.2,0-0.3-0.1-0.3-0.3v-8.1c0-0.2,0.1-0.3,0.3-0.3H114.2 M106.4,87.6h7.5v-7.5h-7.5V87.6 M114.2,91.5
					c0.2,0,0.3,0.1,0.3,0.3v8.1c0,0.2-0.1,0.3-0.3,0.3h-8.1c-0.2,0-0.3-0.1-0.3-0.3v-8.1c0-0.2,0.1-0.3,0.3-0.3H114.2 M106.4,99.6
					h7.5v-7.5h-7.5V99.6 M120.5,74.5H99.8c-0.6,0-1.1,0.5-1.1,1.1v33.9c0,0.6,0.5,1.1,1.1,1.1h20.7c0.6,0,1.1-0.5,1.1-1.1V75.5
					C121.5,74.9,121,74.5,120.5,74.5L120.5,74.5z M100.9,76.6h18.6v31.8h-18.6V76.6L100.9,76.6z M114.2,78.7h-8.1
					c-0.6,0-1.1,0.5-1.1,1.1v8.1c0,0.6,0.5,1.1,1.1,1.1h8.1c0.6,0,1.1-0.5,1.1-1.1v-8.1C115.2,79.2,114.8,78.7,114.2,78.7
					L114.2,78.7z M107.1,80.8h6v6h-6V80.8L107.1,80.8z M114.2,90.7h-8.1c-0.6,0-1.1,0.5-1.1,1.1v8.1c0,0.6,0.5,1.1,1.1,1.1h8.1
					c0.6,0,1.1-0.5,1.1-1.1v-8.1C115.2,91.2,114.8,90.7,114.2,90.7L114.2,90.7z M107.1,92.8h6v6h-6V92.8L107.1,92.8z"/>
			</g>
		</g>
		<g>
			
				<path fill="#F6921E" stroke="#F6921E" stroke-width="0.75" stroke-linecap="round" stroke-linejoin="round" stroke-miterlimit="10" d="
				M122.5,70.4v2.4H99.8v-2.4H122.5 M122.5,69.8H99.8c-0.3,0-0.6,0.3-0.6,0.6v2.4c0,0.3,0.3,0.6,0.6,0.6h22.7c0.3,0,0.6-0.3,0.6-0.6
				v-2.4C123.1,70.1,122.8,69.8,122.5,69.8L122.5,69.8z"/>
		</g>
		<g>
			<g>
				<path fill="#F6921E" d="M25.5,110.1c-0.4,0-0.7-0.3-0.7-0.7V75.5c0-0.4,0.3-0.7,0.7-0.7h20.7c0.4,0,0.7,0.3,0.7,0.7v33.9
					c0,0.4-0.3,0.7-0.7,0.7H25.5z M45.5,108.8V76.2H26.2v32.6H45.5z M31.8,100.6c-0.4,0-0.7-0.3-0.7-0.7v-8.1c0-0.4,0.3-0.7,0.7-0.7
					h8.1c0.4,0,0.7,0.3,0.7,0.7v8.1c0,0.4-0.3,0.7-0.7,0.7H31.8z M39.2,99.2v-6.7h-6.7v6.7H39.2z M31.8,88.6c-0.4,0-0.7-0.3-0.7-0.7
					v-8.1c0-0.4,0.3-0.7,0.7-0.7h8.1c0.4,0,0.7,0.3,0.7,0.7v8.1c0,0.4-0.3,0.7-0.7,0.7H31.8z M39.2,87.2v-6.7h-6.7v6.7H39.2z"/>
				<path fill="#F6921E" d="M46.2,75.2c0.2,0,0.3,0.1,0.3,0.3v33.9c0,0.2-0.1,0.3-0.3,0.3H25.5c-0.2,0-0.3-0.1-0.3-0.3V75.5
					c0-0.2,0.1-0.3,0.3-0.3H46.2 M25.8,109.1h20.1V75.8H25.8V109.1 M39.9,79.5c0.2,0,0.3,0.1,0.3,0.3v8.1c0,0.2-0.1,0.3-0.3,0.3
					h-8.1c-0.2,0-0.3-0.1-0.3-0.3v-8.1c0-0.2,0.1-0.3,0.3-0.3H39.9 M32.1,87.6h7.5v-7.5h-7.5V87.6 M39.9,91.5c0.2,0,0.3,0.1,0.3,0.3
					v8.1c0,0.2-0.1,0.3-0.3,0.3h-8.1c-0.2,0-0.3-0.1-0.3-0.3v-8.1c0-0.2,0.1-0.3,0.3-0.3H39.9 M32.1,99.6h7.5v-7.5h-7.5V99.6
					 M46.2,74.5H25.5c-0.6,0-1.1,0.5-1.1,1.1v33.9c0,0.6,0.5,1.1,1.1,1.1h20.7c0.6,0,1.1-0.5,1.1-1.1V75.5
					C47.3,74.9,46.8,74.5,46.2,74.5L46.2,74.5z M26.6,76.6h18.6v31.8H26.6V76.6L26.6,76.6z M39.9,78.7h-8.1c-0.6,0-1.1,0.5-1.1,1.1
					v8.1c0,0.6,0.5,1.1,1.1,1.1h8.1c0.6,0,1.1-0.5,1.1-1.1v-8.1C41,79.2,40.5,78.7,39.9,78.7L39.9,78.7z M32.9,80.8h6v6h-6V80.8
					L32.9,80.8z M39.9,90.7h-8.1c-0.6,0-1.1,0.5-1.1,1.1v8.1c0,0.6,0.5,1.1,1.1,1.1h8.1c0.6,0,1.1-0.5,1.1-1.1v-8.1
					C41,91.2,40.5,90.7,39.9,90.7L39.9,90.7z M32.9,92.8h6v6h-6V92.8L32.9,92.8z"/>
			</g>
		</g>
		<g>
			
				<path fill="#F6921E" stroke="#F6921E" stroke-width="0.75" stroke-linecap="round" stroke-linejoin="round" stroke-miterlimit="10" d="
				M46.2,70.4v2.4H23.5v-2.4H46.2 M46.2,69.8H23.5c-0.3,0-0.6,0.3-0.6,0.6v2.4c0,0.3,0.3,0.6,0.6,0.6h22.7c0.3,0,0.6-0.3,0.6-0.6
				v-2.4C46.8,70.1,46.5,69.8,46.2,69.8L46.2,69.8z"/>
		</g>
	</g>
</g>
<g>
</g>
<g>
</g>
<g>
</g>
<g>
</g>
<g>
</g>
<g>
</g>
<g>
</g>
<g>
</g>
<g>
</g>
<g>
</g>
<g>
</g>
<g>
</g>
<g>
</g>
<g>
</g>
<g>
</g>
</svg>
