<?xml version="1.0" encoding="utf-8"?>
<!-- Generator: Adobe Illustrator 18.0.0, SVG Export Plug-In . SVG Version: 6.00 Build 0)  -->
<!DOCTYPE svg PUBLIC "-//W3C//DTD SVG 1.1//EN" "http://www.w3.org/Graphics/SVG/1.1/DTD/svg11.dtd">
<svg version="1.1" id="Layer_1" xmlns="http://www.w3.org/2000/svg" xmlns:xlink="http://www.w3.org/1999/xlink" x="0px" y="0px"
	 viewBox="0 0 146 146" enable-background="new 0 0 146 146" xml:space="preserve">
<g>
	<g>
		<path fill="#F6921E" stroke="#F6921E" stroke-width="0.7954" stroke-miterlimit="10" d="M42.3,43.2c0.1,0,0.2-0.1,0.3-0.1
			c0.3-0.1,0.3-0.5,0-0.5c-0.4-0.1-0.7-0.2-1.1-0.2c-0.1,0-0.3,0-0.4,0.1c-0.3,0-0.5,0.2-0.6,0.5c-0.2,0-0.3,0-0.5,0
			c-0.5,0-0.8,0.6-0.6,1c0.4,0.6,1.1,1.1,1.8,0.9c0.1-0.1,0.3-0.2,0.3-0.3c0.6,0.6,1.4-0.3,0.9-0.9C42.4,43.5,42.3,43.4,42.3,43.2z"
			/>
		<path fill="#F6921E" stroke="#F6921E" stroke-width="0.7954" stroke-miterlimit="10" d="M66.8,45.8c-0.3-0.5-1-0.8-1.6-0.8
			c-0.1,0-0.2,0-0.3,0.1c0,0,0,0,0,0c0-0.1,0-0.1-0.1-0.2c0,0,0,0,0,0c0,0,0,0,0,0l0,0c-0.1-0.3-0.6-0.4-0.7,0c0,0.1,0,0.2,0,0.2
			c-0.4,0.1-0.6,0.6-0.3,0.9c0.1,0.1,0.1,0.1,0.2,0.2c0.2,0.2,0.3,0.4,0.4,0.6c0.2,0.4,0.6,0.3,0.9,0c0.2-0.1,0.4-0.2,0.4-0.4
			c0.2,0.1,0.4,0.2,0.6,0.1C66.7,46.5,67,46.2,66.8,45.8z"/>
		<path fill="#F6921E" stroke="#F6921E" stroke-width="0.7954" stroke-miterlimit="10" d="M51.7,45.6c0-0.1-0.1-0.2-0.1-0.3
			c0,0,0,0,0-0.1c-0.1-0.3-0.5-0.5-0.8-0.5c-0.4,0-0.9,0.4-0.9,0.9c0,0.2,0,0.4,0.1,0.5c0,0,0.1,0.1,0.1,0.1
			c0.1,0.3,0.4,0.5,0.8,0.5c0.2,0,0.5-0.1,0.6-0.3C51.7,46.2,51.7,46,51.7,45.6z"/>
		<path fill="#F6921E" stroke="#F6921E" stroke-width="0.7954" stroke-miterlimit="10" d="M55.9,44.6c-0.5,0-0.9,0.4-0.9,0.9
			s0.4,0.9,0.9,0.9c0.5,0,0.9-0.4,0.9-0.9S56.3,44.6,55.9,44.6z"/>
		<path fill="#F6921E" stroke="#F6921E" stroke-width="0.7954" stroke-miterlimit="10" d="M64.2,50.2c-3.4,11.2-22.7,7.3-23.1-3.7
			c0-0.4-0.6-0.5-0.7-0.1c-1.6,5.9,5.5,10.1,10.2,11.4c6.2,1.7,12.9-0.8,14.8-7.3C65.7,49.7,64.4,49.4,64.2,50.2z"/>
		<path fill="#F6921E" stroke="#F6921E" stroke-width="0.7954" stroke-miterlimit="10" d="M39.5,43.1c0,0.1,0,0.2,0.1,0.3
			c-0.2,0.7,0.1,1.4,0.9,1.6c1,0.4,2.2-0.1,2.7-1.1C44,41.8,40.1,41,39.5,43.1z M41,44.3c-0.2,0-0.5-0.2-0.7-0.4
			c-0.2-0.2-0.1-0.5-0.1-0.7c0.3-0.4,0.7-0.8,1.3-0.7c0.4,0.1,1,0.3,0.9,0.8C42.3,44.1,41.5,44.4,41,44.3z"/>
		<path fill="#F6921E" stroke="#F6921E" stroke-width="0.7954" stroke-miterlimit="10" d="M65.4,44c-0.5-0.1-1,0-1.5,0.2
			c-0.5,0.3-1,0.9-0.9,1.4c0,0,0,0.1,0,0.1c0,0.2-0.1,0.3,0,0.5c0.1,0.6,0.7,1,1.2,1.2c1.2,0.4,2.7-0.5,2.9-1.7
			C67.3,44.9,66.3,44.2,65.4,44z M65,46.8c-0.4,0-0.8-0.1-1-0.4c-0.1-0.1-0.2-0.3-0.2-0.4c0.4-0.5,0.5-1,1.2-1c0.4,0,1,0.2,1.2,0.7
			C66.4,46.2,65.5,46.8,65,46.8z"/>
		<path fill="#F6921E" stroke="#F6921E" stroke-width="0.7954" stroke-miterlimit="10" d="M91.2,41.1l-0.1,0c-0.5,0-0.9,0.4-0.9,0.9
			c0,0.5,0.4,0.9,0.9,0.9l0.1,0c0.5,0,0.9-0.4,0.9-0.9C92.1,41.5,91.7,41.2,91.2,41.1z"/>
		<path fill="#F6921E" stroke="#F6921E" stroke-width="0.7954" stroke-miterlimit="10" d="M95.5,41.1l-0.1,0c-0.5,0-0.9,0.4-0.9,0.9
			c0,0.5,0.4,0.9,0.9,0.9l0.1,0c0.5,0,0.9-0.4,0.9-0.9C96.4,41.5,96,41.2,95.5,41.1z"/>
		<path fill="#F6921E" stroke="#F6921E" stroke-width="0.7954" stroke-miterlimit="10" d="M108.4,45c0-0.6-1-0.8-1.1-0.2
			c-0.5,2.9-1.6,5.1-4,6.8c-2.2,1.5-5,2.2-7.7,2.2c-3.4,0.1-7.2-1.1-9.9-3.2C83.5,49,80.9,46,81,43.2c0-0.4-0.6-0.4-0.6-0.1
			c-0.6,3,1.9,6,3.9,7.9c2.8,2.7,7,3.8,10.8,4C100.7,55.3,108.8,51.7,108.4,45z"/>
		<path fill="#F6921E" stroke="#F6921E" stroke-width="0.7954" stroke-miterlimit="10" d="M106.7,85.6 M106.7,84.6
			c0.6-7.3-2.6-13.8-7.5-19c-1-1.8-2.4-3.2-4.2-3.9c0,0,0.1-0.1,0.1-0.1c0.3-0.5,0.2-1.3,0.3-1.9c0-0.2,0.1-0.5,0.1-0.8
			c0.1,0,0.1,0,0.2,0c8.6-0.6,15.9-8,16.5-16.6c0.3-3.9-0.7-8-3.2-11c-2.7-3.3-7.9-4.6-11.9-5.1c-4.9-0.6-10.3-0.9-14.7,1.5
			c-3.8,2-5.8,6.2-6.5,10.2c-1.4,8.8,4.1,17.6,12.8,19.8c1,0.3,2,0.4,3.1,0.6c0,0-0.1,0.1-0.1,0.1c-0.3,0.9-0.2,1.9-0.2,2.9
			c-0.6,0.1-1.3,0.3-2,0.7c-2.1,1-3.2,2.9-3.8,4.9c-2.1,1.3-3.6,4-4.8,6c-0.9,1.4-1.7,2.9-2.7,4.2c-1,1.4-2.2,2.2-3.5,3.3
			c-0.7-0.3-1.5-0.3-2.2-0.1c-0.7,0.2-1.5,0.8-1.3,1.6c-0.5,0.1-0.9,0.3-1.1,0.7c-0.1,0.1-0.2,0.2-0.3,0.3
			c-3.9-4.4-5.5-10.4-9.7-14.6c-1.2-1.9-2.8-3.4-4.9-4c0.1-0.4,0.1-0.8,0.2-1.3c0.1-0.6,0.2-1.2,0.2-1.8c5.6-0.8,10.9-3.8,13.2-8.7
			c0.6,2.2,2.3,3.9,3.5,5.8c-0.6,0.2-1.3,0.4-1.9,0.7c-0.3,0.2-0.4,0.6-0.2,0.9c0.2,0.3,0.3,0.7,0.5,1c-0.7-0.1-1.4-0.1-2.1-0.1
			c-0.3,0-0.6,0.3-0.6,0.6c0.1,0.5,0.1,1.1,0,1.6c-0.6,0-1.1,0-1.7-0.1c-0.3,0-0.6,0.3-0.6,0.6c0.1,0.5,0.5,2.1-0.2,2.1
			c-0.9,0-1.7-0.1-2.6,0c-0.3,0-0.6,0.2-0.6,0.6c0,0.5,0,1.1,0.1,1.6c-0.9-0.3-1.9-0.7-2.7-0.3c-0.2,0.1-0.2,0.3,0,0.4
			c1.1,0.3,2.1,0.6,3.1,1.1c0.3,0.2,0.8,0,0.8-0.4c-0.1-0.6-0.1-1.2-0.1-1.8c0.9,0.1,2.2,0.3,2.9-0.2c0.8-0.5,0.7-1.5,0.6-2.4
			c0.5,0,1,0,1.6,0.1c0.3,0,0.6-0.3,0.6-0.6c0-0.5,0.1-1.1,0-1.6c0.9,0,1.7,0.2,2.6,0.2c0.6,0,0.8-0.6,0.4-1.1
			c-0.3-0.4-0.6-0.8-0.8-1.2c0.6-0.2,1.2-0.4,1.8-0.6c0.4-0.1,0.6-0.6,0.4-0.9c-0.9-1.7-2.3-2.9-3.1-4.6c-0.5-1-0.5-2.2-1.2-3
			c0.2-0.6,0.3-1.2,0.4-1.8c1.3-7.9-2.8-15.9-10.3-19c-8.1-3.3-17.2,1.3-21.1,8.6c-2,3.7-2.5,8.1-1.3,12.1c0.2,0.7,0.5,1.4,0.8,2
			c-0.1,0-0.2,0.1-0.2,0.2c-0.2,3.1-1.2,6.9-3.8,8.8c-0.6,0.4-0.2,1.3,0.5,1.2c1-0.1,1.9-0.4,2.8-0.7c-0.2,0.7-0.4,1.3-0.5,2
			c-0.1,0.4,0.2,0.9,0.6,0.8c1-0.1,1.8-0.6,2.6-1c-0.2,0.8-0.6,1.6-0.8,2.4c-0.2,0.5,0.3,0.9,0.8,0.8c1.1-0.3,1.9-1,2.7-1.6
			c0,0.9-0.1,1.9,0.2,2.8c0.1,0.5,0.6,0.6,1,0.4c0.4-0.2,0.8-0.5,1.1-0.8c0,0,0,0.1,0,0.1c-1.1,1.7-1.8,3.8-2.3,6
			c-1.2,1.1-2.4,2.4-3.5,3.7c-0.8,0.9-1.8,1.9-2.4,3.1c-0.1-0.1-0.3-0.1-0.4-0.1c-0.7-0.2-1.6-0.2-2.2,0.2c-0.6,0.4-0.5,1.1-0.1,1.6
			l0.5,0.1c0,0,0-0.1,0-0.1c-0.1-0.2-0.3-0.5-0.2-0.7c0-0.2,0.1-0.2,0.2-0.3c0.5-0.2,1-0.1,1.5,0.1c0.3,0.1,0.5,0.2,0.7,0.3
			c0.1,0.1,0.1,0.1,0.2,0.2c0,0,0.1,0.1,0.1,0.1c0,0,0.1,0.1,0.1,0.1c0.1,0.2,0,0.3-0.1,0.5c-0.2,0.4-0.6,0.6-0.8,1
			c-0.1,0.2,0.1,0.4,0.3,0.4c0.5,0,1-0.6,1.3-1c0.2-0.4,0.3-0.8,0.2-1.2c-0.1-0.4-0.4-0.7-0.7-0.9c1-0.9,1.9-2.1,2.8-3.1
			c0.7-0.7,1.4-1.5,2.1-2.2c-0.3,1.8-0.4,3.5-0.5,5c-0.3,4.1-0.2,8.2-0.6,12.3c-0.2,2.2-0.7,4.3-1.4,6.4c-0.7,2-2,3.4-3,5.3
			c-0.1,0.1-0.1,0.2,0,0.3c0,0.2,0,0.3,0.2,0.4c3.4,2.1,7.8,2.7,11.9,3.1c0,2.2,0.2,4.3,0,6.5c0,0.4-0.1,0.7-0.1,1.1
			c-1.6-0.7-4.4-1.5-4.8,0.8c-0.4,1.9,2.9,2,4,1.9c2-0.2,2.1-2.3,2.3-3.9c0.1-2,0-4.4-0.4-6.5c1.2,0.1,2.4,0.2,3.5,0.3
			c0.3,0,0.6,0,0.8,0.1c-0.6,3-1.5,9.6,2.5,10.2c1.4,0.2,3.4-0.5,2.9-2.3c-0.6-1.8-2.9-1.6-4.3-0.9c-0.1-0.5-0.2-0.9-0.3-1.3
			c-0.3-1.9,0-3.8-0.3-5.7c1.7,0.1,3.4,0.1,5.1,0.1c1.3,0,3.9,0,4.7-1.1c0.1-0.1,0.1-0.3,0.1-0.4c0.2-0.2,0.3-0.4,0.1-0.7
			c-2.6-3.6-2.1-8.4-1.8-12.6c0.4-5.7,0.2-11.4-0.3-17.1c-0.2-2.2-0.7-4.6-1.5-6.6c2.8,4.5,4.4,9.7,8.2,13.5c0,0,0,0,0,0
			c0,0.3,0,0.6,0.1,0.8c0.6,1.5,2.6,1.7,3.8,0.7c0.3-0.3,0.5-0.6,0.6-0.9c0.7,0.1,1.4-0.3,1.7-0.9c0.5-0.9,0.3-2.1-0.3-2.8
			c0,0,0,0-0.1-0.1c2.5-0.8,4.2-3.6,5.5-5.6c1.4-2.2,2.7-4.3,4.3-6.2c-0.2,1.1-0.3,2.3-0.4,3.4c-0.3,3-0.8,6.2-0.6,9.3
			c-0.6,0.1-0.7,0.9-0.2,1.2c-1.4,3.5-1.1,7.4-1,11.1c0.1,5.9-0.4,11.8-0.6,17.6c0,0.3,0.3,0.6,0.6,0.6c1.2-0.1,2.3-0.2,3.5-0.2
			c-0.1,1.1-0.1,2.2-0.2,3.2c-0.8-0.2-1.9-0.2-2.5-0.2c-0.9,0-2.2,0.1-2.5,1.1c-0.9,3,4.1,2.4,5.6,2c0.3-0.1,0.5-0.3,0.5-0.6
			c0-1.9,0-3.7-0.2-5.6c1,0,2,0,3.1,0c0.3,0,0.7-0.3,0.6-0.6c-0.7-6.1-0.8-12.3-0.7-18.4c0-2,0-3.9,0.1-5.8c0-1.2,0.2-2.5-0.1-3.7
			c1.8,0.3,3.6,0.6,5.4,0.8c-0.4,0.7-0.3,2.4-0.3,2.9C95,90,95,92.8,94.9,95.7c-0.1,5.4-0.1,10.8-0.1,16.1c0,0.4,0.3,0.7,0.7,0.7
			c0.7,0,1.4,0,2.2,0c0,1.8-0.1,3.5-0.4,5.2c-0.1,0.4,0.1,0.6,0.4,0.8c1.7,0.6,4.9,0.9,5.2-1.5c0.2-2.1-3-2.1-4.3-1.2
			c0-1.1-0.1-2.2-0.3-3.3c1.2-0.1,2.3-0.2,3.2-0.7c1.6-0.9,0.7-3.4,0.5-4.8c-0.3-1.9-0.2-3.9-0.2-5.8c0-2-0.1-4-0.3-6
			c-0.2-3.7-0.6-7.4-0.6-11.1c0.1,0,0.2,0,0.3,0c0.2,0,0.4-0.2,0.4-0.4c0.9-4.9,0.2-10.8-1.4-15.6c3.8,4.8,5.5,10.3,6.1,16.6
			c0,0.1,0,0.1,0.1,0.2 M47.4,117.5c-0.5,0-1-0.1-1.6-0.3c0.3-0.4,0.8-0.5,1.2-0.2c0.3,0.1,0.7,0.2,1,0.4
			C47.9,117.5,47.7,117.5,47.4,117.5z M56.1,117.4c0.6-0.3,1.4-0.6,2-0.1c0.5,0.4-1.4,0.4-1.7,0.3C56.3,117.5,56.2,117.4,56.1,117.4
			C56.1,117.4,56.1,117.4,56.1,117.4z M68.4,41.9c-0.6-0.1-1.2,0-1.8-0.2c-0.9-0.2-1.8-0.8-2.6-1.3c-1.5-0.9-2.7-2.3-3.5-3.8
			c1.1-0.7,2.5-1.8,2.9-3.1C65.8,35.7,67.5,38.7,68.4,41.9z M55.1,30.3c2.7,0.1,5.1,1.1,7.1,2.5c-0.5,0.5-0.8,1.2-1.3,1.6
			c-0.7,0.7-1.5,1.2-2.4,1.7c-1.9,1.1-4.1,1.7-6.2,2.2c-4.1,0.9-8.4,1.1-12.5,0.5C42.9,33.5,48.9,29.9,55.1,30.3z M38,45.6
			c0.1-2.2,0.6-4.3,1.6-6.2c4,1.6,9.1,1,13.2,0.2c2.4-0.5,4.7-1.3,6.8-2.5c0.7,1.8,2.2,3.3,3.7,4.4c1.2,0.9,3.8,2.3,5.4,1.4
			c0.2,1.2,0.4,2.4,0.3,3.7c-0.1,8.1-7.6,13.3-15.3,13.8c-0.1,0-0.1,0-0.2,0C45.5,59.2,37.7,54.6,38,45.6z M51.9,61
			c0.4,0,0.9,0,1.3,0c0,0.2,0.2,0.4,0.4,0.3c0.3,0,0.7,0,1-0.1c-0.1,0.4-0.1,0.8-0.1,1.2c0,0.5,0,1.1,0,1.6
			c-0.9-0.2-1.8-0.3-2.9-0.2c0.1-0.5,0.1-1.1,0.1-1.6C51.8,61.9,51.9,61.5,51.9,61z M44.6,66.2c-0.1,0.3-0.3,0.5-0.5,0.7
			c0-0.9,0.1-1.8,0-2.8c0-0.5-0.6-0.9-1-0.6c-0.7,0.5-1.3,1.1-2,1.6c0.3-0.8,0.5-1.6,0.5-2.5c0-0.5-0.6-0.8-1-0.6
			c-0.7,0.4-1.4,1-2.2,1.3c0.2-0.7,0.4-1.3,0.5-2c0.1-0.4-0.3-1-0.8-0.8c-0.6,0.2-1.2,0.4-1.8,0.6c1.7-2.3,2.3-5.4,2.1-8.1
			c1.6,2.7,4.1,4.9,6.9,6.3c1.9,1,3.8,1.5,5.8,1.7c-0.1,0.4,0,0.9,0.1,1.3c0,0.6,0.1,1.1,0.1,1.7c-0.1,0-0.3,0-0.4,0.1
			c-2,0.3-3.5,1.3-4.6,2.6c-0.1-0.2-0.2-0.4-0.3-0.6C45.5,65.7,44.8,65.7,44.6,66.2z M61.9,82.5c0.3,4.9,0,9.7-0.2,14.5
			c-0.2,3.4,0,7.4,1.9,10.3c-1.4,0.2-2.7,0.6-4.1,0.6c-2,0.1-4,0-6.1-0.2c-5.2-0.4-10.3-1-15.3-2.7c2.2-1.7,3.2-5.1,3.8-7.5
			c0.9-3.7,1-7.6,1.1-11.4c0.2-5-0.1-12.6,3.1-17.3c0.2-0.1,0.3-0.2,0.3-0.5c0.8-1,1.7-1.8,2.9-2.4c3.9-2.1,8,0,10,3.5
			C61.6,73.2,61.6,78.1,61.9,82.5z M72.8,84.7c-0.5,0.6-1.7,0.8-2.2,0c-0.2-0.3-0.3-0.6-0.2-0.9c0,0,0,0,0,0c0,0,0,0,0,0
			c0,0,0,0,0,0c0.7-0.3,1.3-1.1,2.1-0.5C72.9,83.5,73.2,84.2,72.8,84.7z M74.9,83.2c-0.2,0.4-0.5,0.5-0.8,0.4
			c-0.1-0.4-0.3-0.9-0.6-1.2c-0.4-0.4-1-0.6-1.6-0.6c0.1-1.1,2.3-0.9,2.8-0.3C75,82,75.1,82.7,74.9,83.2z M86.1,117
			c-0.6,0.1-1.1,0.2-1.7,0.2c-0.2,0-2.6-0.2-1.9-0.7c1-0.8,2.5,0,3.7,0.1C86.1,116.7,86.1,116.9,86.1,117z M98.6,116.9
			c0.7,0.1,1.4-0.4,2.2-0.4c0.3,0,0.9,0,0.9,0.5c0,0.4-0.6,0.6-0.8,0.7c-0.7,0.2-1.5,0.1-2.3-0.2C98.6,117.3,98.6,117.1,98.6,116.9z
			 M79.4,32c3.1-4.5,8.5-4.9,13.5-4.7c4.3,0.2,8.7,0.9,12.5,2.9c2.1,1.1,3.5,2.9,4.4,5c-2.3,0-4.6,0-6.9-0.8c-1.7-0.5-3.2-1.3-5-1.4
			c-0.3,0-0.6,0.3-0.5,0.5c0,1.4,0.6,2.5,1.5,3.4c-4.6,0.2-10.1-0.7-13.1-4.3c-0.2-0.2-0.6-0.2-0.7,0.1c-0.5,1.1-0.7,2-0.4,3
			c-0.8-0.3-1.5-0.7-2.2-1.4c-0.2-0.2-0.5-0.2-0.7,0.1c-0.5,1-0.5,1.9-0.2,2.8c-1.4-0.4-2.6-1.1-3.5-2.4c-0.1-0.1-0.1-0.1-0.2-0.1
			C78.3,33.8,78.8,32.8,79.4,32z M84.4,54.7c-3.7-2.4-6.3-6.1-7.3-10.4c-0.6-3-0.4-6.4,0.8-9.3c0,0,0,0,0,0c0.9,1.8,2.7,2.7,4.5,3.3
			c0.3,0.1,0.7-0.3,0.5-0.6c-0.5-0.8-0.6-1.5-0.4-2.3c0.8,0.7,1.7,1.1,2.8,1.4c0.3,0.1,0.6-0.2,0.5-0.5c-0.3-0.9-0.4-1.7-0.1-2.5
			c3.5,3.7,9.7,4.6,14.6,4.2c0.4,0,0.8-0.6,0.4-0.9c-1-0.8-1.8-1.6-2-2.8c1.8,0.3,3.6,1.2,5.3,1.7c1.9,0.5,4,0.4,5.9,0.4
			c0.1,0,0.3-0.1,0.4-0.1c0.5,1.4,0.7,2.8,0.8,4.2c0.6,8.7-6.7,16.7-15.3,17.5c-0.1,0-0.2,0.1-0.3,0.1C91.6,57,87.8,56.9,84.4,54.7z
			 M92.5,58.5c0.6,0.1,1.3,0.2,1.9,0.2c-0.1,0.3-0.1,0.7-0.1,1c0,0.6-0.1,1.3,0.1,1.9c-0.7-0.2-1.5-0.3-2.3-0.2
			c0.2-0.8,0.3-1.7,0.4-2.5C92.6,58.7,92.5,58.6,92.5,58.5z M83.5,111c0.2-5.3,0.5-10.6,0.5-16c0-3.9-0.7-8.2,0.5-12
			c1.5-0.1,3.1,0.1,4.6,0.3c0,0,0,0.1,0,0.1c0.2,0.7-0.2,2.8-0.3,3.7c-0.1,1.9-0.1,3.9-0.1,5.8c0,5.9,0,11.9,0.7,17.8
			C87.5,110.8,85.5,110.8,83.5,111z M101.1,109.6c0.2,1.7-3.2,1.6-4.9,1.5c0-4.7,0-9.5,0-14.2c0-2.9,0-5.8,0-8.7c0-0.9,0-1.8,0-2.8
			c0-0.2-0.1-1.3-0.1-1.2c0,0,0,0,0,0c1.2,0.1,2.4,0.1,3.6,0c0.1,5.9,0.8,11.8,0.8,17.7C100.5,104.6,100.9,107,101.1,109.6z
			 M100.7,80.2c0,0.9-0.1,1.7-0.2,2.6c-0.1,0.4-2,0.3-2.4,0.3c-1.8,0-3.6-0.2-5.3-0.5c-2.6-0.4-5.2-0.9-7.8-0.9
			c1.2-6.5-0.4-22,9.7-19c3,0.9,4.1,4.7,4.8,7.4C100.3,73.4,100.8,76.8,100.7,80.2z"/>
		<g>
			<path fill="#F6921E" stroke="#F6921E" stroke-width="0.7954" stroke-miterlimit="10" d="M106.6,84.8c0.7-0.2,1.5,0,2.1,0.3
				c0.6,0.3,1,0.9,0.4,1.5c-1.5,1.5-2.9-1.1-2.1-2.4c0.3-0.5-0.5-0.9-0.7-0.4c-1.2,2.1,0.9,5.4,3.3,3.6c0.9-0.7,1-1.8,0.1-2.6
				c-0.8-0.7-2.2-1.1-3.3-0.8C105.8,84.1,106.1,85,106.6,84.8L106.6,84.8z"/>
		</g>
	</g>
</g>
<circle fill="none" stroke="#F6921E" stroke-width="2" stroke-miterlimit="10" cx="73" cy="73" r="72"/>
<g>
</g>
<g>
</g>
<g>
</g>
<g>
</g>
<g>
</g>
<g>
</g>
<g>
</g>
<g>
</g>
<g>
</g>
<g>
</g>
<g>
</g>
<g>
</g>
<g>
</g>
<g>
</g>
<g>
</g>
</svg>
