<?xml version="1.0" encoding="utf-8"?>
<!-- Generator: Adobe Illustrator 18.0.0, SVG Export Plug-In . SVG Version: 6.00 Build 0)  -->
<!DOCTYPE svg PUBLIC "-//W3C//DTD SVG 1.1//EN" "http://www.w3.org/Graphics/SVG/1.1/DTD/svg11.dtd">
<svg version="1.1" id="Layer_1" xmlns="http://www.w3.org/2000/svg" xmlns:xlink="http://www.w3.org/1999/xlink" x="0px" y="0px"
	 viewBox="0 0 234.8 99.9" enable-background="new 0 0 234.8 99.9" xml:space="preserve">
<g id="planeta_x5F_verde_x5F_logo.svg">
	<g>
		<path fill="#FFFFFF" d="M29.1,38.5c-2.7,1.9-6.1,2.9-10.3,2.9c-3.1,0-5.9-0.6-8.2-1.7c-2.4-1.1-4.3-2.6-5.9-4.5
			c-1.6-1.9-2.7-4.1-3.5-6.6C0.4,26.1,0,23.5,0,20.7s0.4-5.4,1.2-7.8c0.8-2.5,1.9-4.7,3.5-6.6c1.6-1.9,3.5-3.4,5.9-4.6
			C12.9,0.6,15.6,0,18.8,0c3.1,0,5.8,0.6,8.2,1.7c2.3,1.1,4.3,2.7,5.8,4.6c1.6,1.9,2.7,4.1,3.5,6.6c0.8,2.5,1.2,5.1,1.2,7.8
			c0,3.1-0.5,6-1.5,8.8c-1,2.7-2.5,5.1-4.5,7l5.7,4.3l-1.9,2.3L29.1,38.5z M32.5,28.2c0.8-2.4,1.2-4.9,1.2-7.5
			c0-2.2-0.3-4.3-0.9-6.4c-0.6-2.1-1.5-3.9-2.7-5.6c-1.2-1.6-2.7-3-4.6-4c-1.9-1-4.1-1.5-6.8-1.5c-2.6,0-4.9,0.5-6.8,1.5
			c-1.9,1-3.4,2.3-4.6,4c-1.2,1.7-2.1,3.5-2.7,5.6c-0.6,2.1-0.9,4.2-0.9,6.4c0,2.2,0.3,4.3,0.9,6.4c0.6,2.1,1.5,4,2.7,5.6
			c1.2,1.6,2.8,3,4.6,4c1.9,1,4.2,1.5,6.8,1.5c2.8,0,5.3-0.6,7.3-1.9l-5.2-4l1.9-2.4l5.8,4.4C30.4,32.6,31.7,30.6,32.5,28.2z"/>
		<path fill="#FFFFFF" d="M58.3,40.6v-5.2h-0.1c-0.9,1.9-2.3,3.4-4,4.4c-1.8,1-3.7,1.5-5.9,1.5c-1.8,0-3.4-0.3-4.6-0.8
			c-1.3-0.5-2.3-1.2-3.1-2.1c-0.8-0.9-1.4-2.1-1.8-3.4c-0.4-1.3-0.6-2.9-0.6-4.6V11.9h3.5v18.7c0.1,2.6,0.7,4.6,1.8,5.9
			c1.1,1.3,3.1,2,5.9,2c1.5,0,2.8-0.3,3.9-1c1.1-0.7,2-1.5,2.7-2.6c0.7-1.1,1.2-2.3,1.6-3.7c0.3-1.4,0.5-2.8,0.5-4.3V11.9h3.5v28.7
			H58.3z"/>
		<path fill="#FFFFFF" d="M67.2,0.8v5.6h-3.5V0.8H67.2z M67.2,11.9v28.7h-3.5V11.9H67.2z"/>
		<path fill="#FFFFFF" d="M72.1,31.1c0.4,1.4,0.9,2.6,1.7,3.6c0.8,1.1,1.8,2,3,2.7c1.2,0.7,2.6,1.1,4.3,1.1c2.6,0,4.6-0.7,6-2
			c1.4-1.3,2.4-3.1,3-5.3h3.5c-0.7,3.3-2.1,5.8-4.1,7.6c-2,1.8-4.8,2.7-8.4,2.7c-2.3,0-4.2-0.4-5.9-1.2c-1.7-0.8-3-1.9-4-3.3
			c-1-1.4-1.8-3-2.3-4.8c-0.5-1.8-0.8-3.8-0.8-5.8c0-1.9,0.2-3.7,0.8-5.6c0.5-1.8,1.3-3.4,2.3-4.9c1-1.4,2.4-2.6,4-3.5
			c1.6-0.9,3.6-1.3,5.9-1.3c2.3,0,4.3,0.5,5.9,1.4c1.6,0.9,3,2.1,4,3.6c1,1.5,1.8,3.2,2.2,5.2c0.4,1.9,0.6,3.9,0.6,5.9H71.6
			C71.6,28.4,71.7,29.7,72.1,31.1z M89.5,20.4c-0.4-1.2-1-2.3-1.8-3.3c-0.8-0.9-1.7-1.7-2.8-2.3C83.7,14.3,82.4,14,81,14
			c-1.4,0-2.7,0.3-3.8,0.9c-1.1,0.6-2.1,1.3-2.8,2.3c-0.8,0.9-1.4,2-1.9,3.3c-0.5,1.2-0.8,2.5-0.9,3.8h18.6
			C90.1,22.9,89.9,21.6,89.5,20.4z"/>
		<path fill="#FFFFFF" d="M97.2,11.9v6.7h0.1c0.9-2.3,2.3-4.1,4.1-5.4c1.9-1.3,4.1-1.8,6.7-1.7V15c-1.6-0.1-3,0.1-4.3,0.6
			c-1.3,0.5-2.4,1.2-3.4,2.1c-0.9,0.9-1.7,2-2.2,3.3c-0.5,1.3-0.8,2.7-0.8,4.2v15.3h-3.5V11.9H97.2z"/>
		<path fill="#FFFFFF" d="M124,12.2c1.7,0.8,3.1,1.9,4.3,3.3c1.1,1.4,2,3,2.6,4.8c0.6,1.8,0.9,3.8,0.9,5.9c0,2.1-0.3,4-0.9,5.9
			c-0.6,1.8-1.5,3.4-2.6,4.8c-1.2,1.4-2.6,2.5-4.3,3.3c-1.7,0.8-3.6,1.2-5.8,1.2c-2.2,0-4.1-0.4-5.8-1.2c-1.7-0.8-3.1-1.9-4.3-3.3
			c-1.2-1.4-2-3-2.6-4.8c-0.6-1.8-0.9-3.8-0.9-5.9c0-2.1,0.3-4,0.9-5.9c0.6-1.8,1.5-3.4,2.6-4.8c1.1-1.4,2.6-2.5,4.3-3.3
			c1.7-0.8,3.6-1.2,5.8-1.2C120.3,11,122.3,11.4,124,12.2z M113.8,15c-1.3,0.7-2.3,1.6-3.1,2.8c-0.8,1.1-1.5,2.5-1.9,3.9
			c-0.4,1.5-0.6,3-0.6,4.5c0,1.5,0.2,3,0.6,4.5c0.4,1.5,1.1,2.8,1.9,3.9c0.8,1.2,1.9,2.1,3.1,2.8c1.3,0.7,2.7,1.1,4.4,1.1
			c1.7,0,3.1-0.4,4.4-1.1c1.3-0.7,2.3-1.6,3.1-2.8c0.8-1.1,1.5-2.5,1.9-3.9c0.4-1.5,0.6-3,0.6-4.5c0-1.5-0.2-3-0.6-4.5
			c-0.4-1.5-1.1-2.8-1.9-3.9c-0.8-1.2-1.9-2.1-3.1-2.8c-1.3-0.7-2.7-1.1-4.4-1.1C116.5,14,115,14.3,113.8,15z"/>
	</g>
	<g>
		<path fill="#FFFFFF" d="M142.5,39.7v-2.2h0c-0.4,0.8-1,1.5-1.7,1.9c-0.8,0.4-1.6,0.7-2.5,0.7c-0.8,0-1.4-0.1-2-0.3
			c-0.5-0.2-1-0.5-1.3-0.9c-0.3-0.4-0.6-0.9-0.8-1.5c-0.2-0.6-0.2-1.2-0.2-2v-8h1.5v8c0,1.1,0.3,2,0.8,2.5c0.5,0.6,1.3,0.9,2.5,0.9
			c0.7,0,1.2-0.1,1.7-0.4c0.5-0.3,0.8-0.6,1.1-1.1c0.3-0.5,0.5-1,0.7-1.6c0.1-0.6,0.2-1.2,0.2-1.8v-6.5h1.5v12.3H142.5z"/>
		<path fill="#FFFFFF" d="M146.3,27.4v2.1h0c0.3-0.7,0.8-1.3,1.5-1.8c0.7-0.5,1.5-0.7,2.4-0.7c0.9,0,1.6,0.1,2.2,0.3
			c0.6,0.2,1,0.5,1.4,0.9c0.3,0.4,0.6,0.9,0.7,1.5c0.1,0.6,0.2,1.2,0.2,2v7.9h-1.5V32c0-0.5,0-1-0.1-1.5c-0.1-0.4-0.3-0.8-0.5-1.2
			c-0.2-0.3-0.6-0.6-1-0.8c-0.4-0.2-0.9-0.3-1.5-0.3c-0.6,0-1.1,0.1-1.6,0.3c-0.5,0.2-0.9,0.5-1.2,0.9c-0.3,0.4-0.6,0.8-0.8,1.3
			c-0.2,0.5-0.3,1.1-0.3,1.7v7.2h-1.5V27.4H146.3z"/>
	</g>
	<g>
		<path fill="#FFFFFF" d="M20.2,49.4v4.1h0.1c0.6-1.5,1.6-2.7,3-3.5c1.4-0.8,2.9-1.2,4.7-1.2c1.6,0,3.1,0.3,4.3,0.9
			c1.2,0.6,2.2,1.4,3,2.5c0.8,1,1.4,2.3,1.8,3.6c0.4,1.4,0.6,2.8,0.6,4.4c0,1.5-0.2,3-0.6,4.4c-0.4,1.4-1,2.6-1.8,3.6
			c-0.8,1-1.8,1.9-3,2.5c-1.2,0.6-2.6,0.9-4.3,0.9c-0.8,0-1.6-0.1-2.3-0.3c-0.8-0.2-1.5-0.5-2.2-0.9c-0.7-0.4-1.3-0.9-1.8-1.5
			c-0.5-0.6-0.9-1.3-1.2-2h-0.1v12h-2.6V49.4H20.2z M34.6,56.8c-0.3-1.1-0.7-2.1-1.3-2.9c-0.6-0.9-1.3-1.6-2.2-2.1
			c-0.9-0.5-2-0.8-3.2-0.8c-1.4,0-2.7,0.3-3.6,0.8c-1,0.5-1.8,1.2-2.3,2c-0.6,0.8-1,1.8-1.2,2.9c-0.2,1.1-0.4,2.3-0.4,3.5
			c0,1.1,0.1,2.2,0.4,3.3c0.3,1.1,0.7,2.1,1.3,2.9c0.6,0.9,1.4,1.6,2.3,2.1c1,0.5,2.1,0.8,3.5,0.8c1.3,0,2.3-0.3,3.2-0.8
			c0.9-0.5,1.6-1.2,2.2-2.1c0.6-0.9,1-1.8,1.3-2.9c0.3-1.1,0.4-2.2,0.4-3.3C35,59,34.9,57.9,34.6,56.8z"/>
		<path fill="#FFFFFF" d="M41.1,41.1v29.8h-2.6V41.1H41.1z"/>
		<path fill="#FFFFFF" d="M43.3,52.7c0.4-0.9,1.1-1.7,1.8-2.3c0.8-0.6,1.7-1,2.7-1.3c1-0.3,2.2-0.4,3.4-0.4c0.9,0,1.9,0.1,2.8,0.3
			c0.9,0.2,1.8,0.5,2.5,1c0.8,0.5,1.4,1.2,1.8,2.1c0.5,0.9,0.7,2.1,0.7,3.5v11.4c0,1.1,0.5,1.6,1.5,1.6c0.3,0,0.6-0.1,0.8-0.2v2.2
			c-0.3,0.1-0.6,0.1-0.8,0.1c-0.2,0-0.5,0-0.9,0c-0.7,0-1.2-0.1-1.6-0.3c-0.4-0.2-0.7-0.4-0.9-0.8c-0.2-0.3-0.4-0.7-0.4-1.2
			c-0.1-0.5-0.1-1-0.1-1.5h-0.1c-0.5,0.7-1,1.3-1.4,1.9c-0.5,0.5-1,1-1.6,1.4c-0.6,0.4-1.3,0.6-2,0.8c-0.8,0.2-1.7,0.3-2.7,0.3
			c-1,0-1.9-0.1-2.8-0.4c-0.9-0.2-1.6-0.6-2.3-1.1c-0.7-0.5-1.2-1.2-1.5-2c-0.4-0.8-0.6-1.7-0.6-2.8c0-1.5,0.3-2.7,1-3.5
			c0.7-0.8,1.6-1.5,2.6-1.9c1.1-0.4,2.3-0.8,3.7-0.9c1.4-0.2,2.8-0.4,4.2-0.5c0.6-0.1,1-0.1,1.5-0.2c0.4-0.1,0.8-0.2,1-0.4
			c0.3-0.2,0.5-0.5,0.6-0.9c0.2-0.4,0.2-0.8,0.2-1.4c0-0.9-0.1-1.6-0.4-2.2c-0.3-0.6-0.7-1-1.2-1.4c-0.5-0.3-1.1-0.6-1.8-0.7
			C52.4,51,51.7,51,50.9,51c-1.7,0-3,0.4-4.1,1.2c-1.1,0.8-1.6,2.1-1.7,3.8h-2.6C42.6,54.7,42.9,53.6,43.3,52.7z M56.5,59.1
			c-0.2,0.3-0.5,0.5-1,0.7c-0.5,0.1-0.9,0.2-1.3,0.3c-1.1,0.2-2.3,0.4-3.4,0.5c-1.2,0.2-2.3,0.4-3.2,0.7c-1,0.3-1.8,0.7-2.4,1.3
			c-0.6,0.6-0.9,1.4-0.9,2.4c0,0.7,0.1,1.3,0.4,1.8c0.3,0.5,0.6,1,1.1,1.3c0.4,0.4,1,0.7,1.5,0.9c0.6,0.2,1.2,0.3,1.8,0.3
			c1,0,2-0.2,2.9-0.5c0.9-0.3,1.7-0.8,2.4-1.3c0.7-0.6,1.2-1.3,1.6-2.1c0.4-0.8,0.6-1.8,0.6-2.8L56.5,59.1L56.5,59.1z"/>
		<path fill="#FFFFFF" d="M63.7,49.4v3.7h0.1c0.5-1.3,1.4-2.4,2.7-3.2c1.3-0.8,2.7-1.2,4.2-1.2c1.5,0,2.8,0.2,3.8,0.6
			c1,0.4,1.8,0.9,2.4,1.6c0.6,0.7,1,1.6,1.3,2.6c0.2,1,0.4,2.2,0.4,3.5v13.9h-2.6V57.5c0-0.9-0.1-1.8-0.3-2.6
			c-0.2-0.8-0.5-1.5-0.9-2.1c-0.4-0.6-1-1-1.7-1.4c-0.7-0.3-1.6-0.5-2.7-0.5c-1.1,0-2,0.2-2.8,0.6c-0.8,0.4-1.5,0.9-2.1,1.5
			c-0.6,0.7-1,1.4-1.3,2.3c-0.3,0.9-0.5,1.9-0.5,2.9v12.6h-2.6V49.4H63.7z"/>
		<path fill="#FFFFFF" d="M82.1,63.8c0.3,1,0.7,1.9,1.3,2.7c0.6,0.8,1.3,1.5,2.2,2c0.9,0.5,2,0.8,3.2,0.8c1.9,0,3.4-0.5,4.5-1.5
			c1.1-1,1.8-2.3,2.3-4h2.6c-0.6,2.5-1.6,4.3-3.1,5.7c-1.5,1.3-3.6,2-6.3,2c-1.7,0-3.2-0.3-4.4-0.9c-1.2-0.6-2.2-1.4-3-2.5
			c-0.8-1-1.4-2.3-1.7-3.6c-0.4-1.4-0.6-2.8-0.6-4.4c0-1.4,0.2-2.8,0.6-4.2c0.4-1.4,1-2.6,1.7-3.7c0.8-1.1,1.8-1.9,3-2.6
			c1.2-0.7,2.7-1,4.4-1c1.7,0,3.2,0.4,4.4,1c1.2,0.7,2.2,1.6,3,2.7c0.8,1.1,1.3,2.4,1.6,3.9c0.3,1.5,0.5,2.9,0.4,4.4H81.7
			C81.7,61.8,81.9,62.8,82.1,63.8z M95.2,55.8c-0.3-0.9-0.8-1.7-1.4-2.4c-0.6-0.7-1.3-1.3-2.1-1.7c-0.8-0.4-1.8-0.6-2.8-0.6
			c-1.1,0-2,0.2-2.9,0.6c-0.8,0.4-1.5,1-2.1,1.7c-0.6,0.7-1,1.5-1.4,2.5c-0.3,0.9-0.6,1.9-0.7,2.9h13.9
			C95.6,57.6,95.5,56.7,95.2,55.8z"/>
		<path fill="#FFFFFF" d="M107.1,49.4v2.2h-4.4v14.5c0,0.9,0.1,1.5,0.4,2c0.2,0.5,0.8,0.8,1.8,0.8c0.7,0,1.5,0,2.3-0.1V71
			c-0.4,0-0.8,0-1.2,0c-0.4,0-0.8,0-1.2,0c-1.8,0-3-0.3-3.7-1c-0.7-0.7-1-1.9-1-3.8V51.6h-3.8v-2.2h3.8v-6.5h2.6v6.5H107.1z"/>
		<path fill="#FFFFFF" d="M108.1,52.7c0.4-0.9,1.1-1.7,1.8-2.3c0.8-0.6,1.7-1,2.7-1.3c1-0.3,2.2-0.4,3.4-0.4c0.9,0,1.9,0.1,2.8,0.3
			c0.9,0.2,1.8,0.5,2.5,1c0.8,0.5,1.4,1.2,1.8,2.1c0.5,0.9,0.7,2.1,0.7,3.5v11.4c0,1.1,0.5,1.6,1.5,1.6c0.3,0,0.6-0.1,0.8-0.2v2.2
			c-0.3,0.1-0.6,0.1-0.8,0.1c-0.2,0-0.5,0-0.9,0c-0.7,0-1.2-0.1-1.6-0.3c-0.4-0.2-0.7-0.4-0.9-0.8c-0.2-0.3-0.4-0.7-0.4-1.2
			c-0.1-0.5-0.1-1-0.1-1.5h-0.1c-0.5,0.7-1,1.3-1.4,1.9c-0.5,0.5-1,1-1.6,1.4c-0.6,0.4-1.3,0.6-2,0.8c-0.8,0.2-1.7,0.3-2.7,0.3
			c-1,0-1.9-0.1-2.8-0.4c-0.9-0.2-1.6-0.6-2.3-1.1c-0.7-0.5-1.2-1.2-1.5-2c-0.4-0.8-0.6-1.7-0.6-2.8c0-1.5,0.3-2.7,1-3.5
			c0.7-0.8,1.6-1.5,2.6-1.9c1.1-0.4,2.3-0.8,3.7-0.9c1.4-0.2,2.8-0.4,4.2-0.5c0.6-0.1,1-0.1,1.5-0.2c0.4-0.1,0.8-0.2,1-0.4
			c0.3-0.2,0.5-0.5,0.6-0.9c0.2-0.4,0.2-0.8,0.2-1.4c0-0.9-0.1-1.6-0.4-2.2c-0.3-0.6-0.7-1-1.2-1.4c-0.5-0.3-1.1-0.6-1.8-0.7
			c-0.7-0.1-1.4-0.2-2.2-0.2c-1.7,0-3,0.4-4.1,1.2c-1.1,0.8-1.6,2.1-1.7,3.8h-2.6C107.4,54.7,107.6,53.6,108.1,52.7z M121.2,59.1
			c-0.2,0.3-0.5,0.5-1,0.7c-0.5,0.1-0.9,0.2-1.3,0.3c-1.1,0.2-2.3,0.4-3.4,0.5c-1.2,0.2-2.3,0.4-3.2,0.7c-1,0.3-1.8,0.7-2.4,1.3
			c-0.6,0.6-0.9,1.4-0.9,2.4c0,0.7,0.1,1.3,0.4,1.8c0.3,0.5,0.6,1,1.1,1.3c0.4,0.4,1,0.7,1.5,0.9c0.6,0.2,1.2,0.3,1.8,0.3
			c1,0,2-0.2,2.9-0.5c0.9-0.3,1.7-0.8,2.4-1.3c0.7-0.6,1.2-1.3,1.6-2.1c0.4-0.8,0.6-1.8,0.6-2.8L121.2,59.1L121.2,59.1z"/>
	</g>
	<g>
		<path fill="#FFFFFF" d="M126,42.4l9,25.2h0.1l8.9-25.2h3.6l-10.7,28.7h-3.7l-11.1-28.7H126z"/>
		<path fill="#FFFFFF" d="M149.2,61.6c0.4,1.4,0.9,2.6,1.7,3.6c0.8,1.1,1.8,2,2.9,2.7c1.2,0.7,2.6,1.1,4.3,1.1c2.6,0,4.6-0.7,6-2
			c1.4-1.3,2.4-3.1,3-5.3h3.5c-0.7,3.3-2.1,5.8-4.1,7.6c-2,1.8-4.8,2.7-8.4,2.7c-2.3,0-4.2-0.4-5.9-1.2c-1.7-0.8-3-1.9-4-3.3
			c-1-1.4-1.8-3-2.3-4.8c-0.5-1.8-0.8-3.8-0.8-5.8c0-1.9,0.3-3.7,0.8-5.6c0.5-1.8,1.3-3.4,2.3-4.9c1-1.4,2.4-2.6,4-3.5
			c1.7-0.9,3.6-1.3,5.9-1.3c2.3,0,4.3,0.5,5.9,1.4c1.6,0.9,3,2.1,4,3.6c1,1.5,1.8,3.2,2.2,5.2c0.4,1.9,0.6,3.9,0.6,5.9h-22.1
			C148.7,58.9,148.9,60.2,149.2,61.6z M166.6,50.9c-0.4-1.2-1-2.3-1.8-3.3c-0.8-0.9-1.7-1.7-2.8-2.3c-1.1-0.6-2.4-0.9-3.8-0.9
			c-1.4,0-2.7,0.3-3.8,0.9c-1.1,0.6-2.1,1.3-2.8,2.3c-0.8,0.9-1.4,2-1.9,3.3c-0.5,1.2-0.8,2.5-0.9,3.8h18.6
			C167.2,53.4,167,52.1,166.6,50.9z"/>
		<path fill="#FFFFFF" d="M174.3,42.4v6.7h0.1c0.9-2.3,2.3-4.1,4.1-5.4c1.9-1.3,4.1-1.8,6.7-1.7v3.5c-1.6-0.1-3,0.1-4.3,0.6
			c-1.3,0.5-2.4,1.2-3.4,2.1c-0.9,0.9-1.7,2-2.2,3.3c-0.5,1.3-0.8,2.7-0.8,4.2v15.3h-3.5V42.4H174.3z"/>
		<path fill="#FFFFFF" d="M205.2,71.1v-5.5h-0.1c-0.4,0.9-0.9,1.8-1.6,2.6c-0.7,0.8-1.5,1.4-2.5,2c-0.9,0.5-1.9,1-3,1.3
			c-1.1,0.3-2.1,0.4-3.1,0.4c-2.2,0-4.1-0.4-5.7-1.2c-1.6-0.8-3-1.9-4-3.3c-1.1-1.4-1.9-3-2.4-4.8c-0.5-1.8-0.8-3.8-0.8-5.8
			c0-2,0.3-4,0.8-5.8c0.5-1.8,1.3-3.5,2.4-4.8c1.1-1.4,2.4-2.5,4-3.3c1.6-0.8,3.5-1.2,5.7-1.2c1.1,0,2.1,0.1,3.1,0.4
			c1,0.3,2,0.7,2.9,1.2c0.9,0.5,1.7,1.2,2.4,2c0.7,0.8,1.2,1.7,1.6,2.7h0.1V31.3h3.5v39.7H205.2z M185.9,61.1
			c0.4,1.5,0.9,2.8,1.7,3.9c0.8,1.1,1.7,2.1,2.9,2.8c1.2,0.7,2.6,1.1,4.3,1.1c1.9,0,3.4-0.4,4.7-1.1c1.3-0.7,2.3-1.7,3.1-2.8
			c0.8-1.2,1.4-2.5,1.7-3.9c0.4-1.5,0.5-2.9,0.5-4.4c0-1.5-0.2-3-0.5-4.4c-0.4-1.5-0.9-2.8-1.7-3.9c-0.8-1.2-1.8-2.1-3.1-2.8
			c-1.3-0.7-2.8-1.1-4.7-1.1c-1.7,0-3.1,0.4-4.3,1.1c-1.2,0.7-2.2,1.7-2.9,2.8c-0.8,1.2-1.3,2.5-1.7,3.9c-0.4,1.5-0.5,2.9-0.5,4.4
			C185.4,58.2,185.6,59.7,185.9,61.1z"/>
		<path fill="#FFFFFF" d="M213.2,61.6c0.4,1.4,0.9,2.6,1.7,3.6c0.8,1.1,1.8,2,2.9,2.7c1.2,0.7,2.6,1.1,4.3,1.1c2.6,0,4.6-0.7,6-2
			c1.4-1.3,2.4-3.1,3-5.3h3.5c-0.7,3.3-2.1,5.8-4.1,7.6c-2,1.8-4.8,2.7-8.4,2.7c-2.3,0-4.2-0.4-5.9-1.2c-1.7-0.8-3-1.9-4-3.3
			c-1-1.4-1.8-3-2.3-4.8c-0.5-1.8-0.8-3.8-0.8-5.8c0-1.9,0.3-3.7,0.8-5.6c0.5-1.8,1.3-3.4,2.3-4.9c1-1.4,2.4-2.6,4-3.5
			c1.7-0.9,3.6-1.3,5.9-1.3c2.3,0,4.3,0.5,5.9,1.4c1.6,0.9,3,2.1,4,3.6c1,1.5,1.8,3.2,2.2,5.2c0.4,1.9,0.6,3.9,0.6,5.9h-22.1
			C212.7,58.9,212.9,60.2,213.2,61.6z M230.6,50.9c-0.4-1.2-1-2.3-1.8-3.3c-0.8-0.9-1.7-1.7-2.8-2.3c-1.1-0.6-2.4-0.9-3.8-0.9
			c-1.4,0-2.7,0.3-3.8,0.9c-1.1,0.6-2.1,1.3-2.8,2.3c-0.8,0.9-1.4,2-1.9,3.3c-0.5,1.2-0.8,2.5-0.9,3.8h18.6
			C231.2,53.4,231,52.1,230.6,50.9z"/>
	</g>
	<path fill="#FFFFFF" d="M92.9,83.6L92.9,83.6c0,0-0.1-0.1-0.4-0.3c-0.4-0.3-0.8-0.5-1.1-0.6l0,0c0,0-1.5-0.6-1.5-0.6
		c-0.2-0.1-0.2-0.2-0.2-0.2c-0.1-0.2-0.2-0.4-0.3-0.5c-0.1-0.1-0.2-0.2-0.3-0.3c-0.7-0.5-2-1.3-2.2-1.4c-0.1,0-0.3-0.3-0.3-0.5l0,0
		c0,0,0,0,0,0c-0.2-0.5-0.8-0.7-1.2-0.7h0c-0.4,0-0.9,0-1.4-0.1C83,78,82,78,81.1,78.2c-2.3,0.7-4.8,2.7-6.3,5.4
		c-1.4,2.3-3.1,4.8-3.3,5.1c-0.3,0.4-0.4,0.7-0.5,1c-0.1,0.3,0.1,0.5,0.3,0.7c0.8,0.5,1.8,0.8,3.2,0.7c0.7,0,1.1-0.2,1.4-0.5
		c0,0-0.1,0.3-0.1,0.4c0,0.1,0,0.1,0,0.2c0,0.3,0.3,0.4,0.6,0.6c0.6,0.3,2.1,0.6,3.4,0.4c0.4,0,0.7-0.3,0.9-0.7c0,0.5,0.1,0.7,0.6,1
		c1.2,0.6,3.9,0.4,4.5-0.1c0.2-0.1,0.3-0.4,0.3-0.6c0.1,0,0.1,0.1,0.2,0.2l0,0c0,0,0,0,0,0c1.1,0.6,2.9,0.2,3.6-0.3
		c0.4-0.3,0.4-0.6,0.4-0.8c0-0.2-0.2-0.4-0.4-0.5l0,0c0,0-0.4-0.3-0.4-0.3c-0.2-0.1-0.7-0.4-0.8-0.7c0,0,0,0,0-0.1
		c0.1-0.1,0.3-0.2,0.9,0.1c0.1,0.1,0.2,0.1,0.2,0.2c-0.1-0.1,0.2,0.2,0.5,0.2c0.2,0,0.3-0.1,0.4-0.1c0.5-0.3,1.3-1.1,1.3-2.2l0-0.1
		c0,0,0,0,0,0c0.4-0.5,0.6-1,0.6-1.5l0-0.2c0-0.2,0-0.5,0.2-0.9l0-0.1c0.1-0.2,0.1-0.3,0.1-0.4C93.2,84,93.1,83.8,92.9,83.6z
		 M80.9,89.2c0,0.1,0,0.1,0,0.2c-0.3,1.8-0.8,2.1-1.1,2.1h0c-1.2,0.2-2.6-0.2-3.1-0.4c-0.1,0-0.5-0.2-0.2-0.6
		c0.5-0.9,0.6-1.1,0.7-1.4c0,0,0.4-1,1.6-3.9c1.3-2.9,3.3-3.8,4.2-3.9c0.2,0,1-0.1,1.3,0.2c0,0,0,0,0,0c0,0.1,0.5,0.8,0.5,0.9
		c0.2,0.3,0.3,0.6,0.3,0.9c0,0.2-0.1,0.2-0.2,0.2c-0.9-0.1-1.7,0.4-2.3,0.9c-0.5,0.5-0.9,1.2-1.2,2.3C81.2,87.6,81.1,88.3,80.9,89.2
		z M85.5,91.9c-0.4,0.3-2.9,0.5-4,0c-0.4-0.2-0.4-0.2-0.3-1c0.6-3.4,0.9-4.8,1.9-5.9c0.7-0.7,1.4-0.9,1.8-0.7c0,0,0.1,0,0.1,0.1
		c0,0.2-0.1,0.4-0.1,0.6c0,0.3,0,0.7,0.2,1c0.2,0.3,0.4,0.5,0.3,0.9c-0.3,0.8-0.6,1.6-0.6,2.4c0,0-0.1,0.7,0.5,1.7
		c0.1,0.1,0.3,0.5,0.3,0.6C85.7,91.7,85.6,91.8,85.5,91.9z M92.6,84.5c-0.2,0.6-0.3,1.1-0.3,1.2c-0.1,0.6-0.3,1-0.7,1.4
		c0.2,1.1-0.6,1.9-1,2.1c0,0-0.1,0.1-0.2,0.1c-0.1,0-0.1,0-0.1-0.1c-0.1-0.1-0.3-0.2-0.3-0.2c-1.3-0.6-1.8,0-1.6,0.5
		c0.2,0.5,0.7,0.8,0.9,1v0c0.3,0.2,0.4,0.3,0.5,0.3c0.1,0,0.1,0.1,0.1,0.1c0.1,0.5-2.1,1.2-3.3,0.6c-0.7-0.4-1-1.5-1.1-1.8
		c-0.1-0.8,0.1-1.5,0.3-2.2c0.2-0.3,0.4,0.1,0.6,0.2c0.8,0.6,1.9,0.6,2.9,0.5c0,0,0,0,0.1,0c0.3,0.1,0.8,0.3,1,0.4
		c0.1,0,0.1,0,0.1,0c0.1-0.1,0.5-0.4,0.5-1c0-0.2,0-0.3-0.1-0.5c-0.1-0.2-0.4-0.3-0.7-0.3c-0.2,0-0.3,0-0.4,0.1c0,0-0.1,0-0.1,0
		c-0.1-0.1,0-0.2,0.1-0.3c0.2-0.2,0.4-0.2,0.6-0.2c0.3,0,0.5,0,0.7,0.1c0.1,0,0.2-0.1,0.3-0.1c0.3-0.5,0.2-1.2,0.4-1.5l0.1-0.4
		c0-0.1,0-0.1,0-0.1c-0.4-0.3-1.1-0.6-1.4-0.7c0,0-1.8-0.8-1.9-0.8c-0.1,0-0.2-0.2-0.2-0.2s-0.3-0.6-0.3-0.7c0-0.1-0.1-0.1-0.1-0.1
		c-0.8-0.6-1.3-0.9-2.1-1.3c0,0-0.5-0.2-0.8-0.2c-0.2,0-0.4,0.2-0.5,0.3c-0.1,0.1-0.2,0.4-0.5,0.3c-1.3-0.5-2.7,0.4-2.7,0.4
		c-1,0.6-2.3,1.7-3.2,3.7c-0.4,1-0.8,1.7-1,2.3c0,0-0.4,1-0.6,1.3c-0.5,1.2-0.8,1.9-2.1,1.8c-1.3,0-2.1-0.2-2.6-0.5
		c-0.2-0.1-0.5-0.3-0.2-0.7c0.4-0.5,3.5-5.4,3.5-5.4c1.3-2.4,3.6-4.6,5.9-5.3c0.8-0.2,1.7-0.2,2.5,0c0.5,0.1,1,0.2,1.5,0.1
		c0.3,0,0.6,0.1,0.8,0.4c0.1,0.5,0.4,0.7,0.6,0.8c0,0,1.4,0.8,2,1.3c0.2,0.1,0.2,0.2,0.3,0.2c0.1,0.1,0.2,0.3,0.3,0.6
		c0.1,0.1,0.2,0.2,0.3,0.3c0.1,0,0,0,1.8,0.7c0.4,0.2,0.7,0.3,1,0.6c0,0,0.3,0.2,0.3,0.2C92.8,84.2,92.6,84.3,92.6,84.5z M86.8,82.8
		c0.2,0,0.5-0.1,0.9-0.2c0,0,0.1,0,0.1,0c0,0,0.3,0.1,0.4,0.2c0,0,0,0,0,0c0.1,0.1,0.1,0.3,0.1,0.5c0,0.1-0.1,0.3-0.1,0.3
		c-0.1,0.1-0.2-0.1-0.2-0.1c-0.1-0.2-0.3-0.3-0.4-0.4c-0.1,0-0.3,0-0.5,0c-0.2,0-0.2,0-0.3-0.1C86.7,83.1,86.6,82.9,86.8,82.8z"/>
	<rect x="132.7" y="78.5" fill="#FFFFFF" width="0.5" height="14.2"/>
	<path fill="#FFFFFF" d="M126.6,89.8c-0.1,0.1-0.1,0.3-0.3,0.3c-0.3,0.2-1.4,0.4-2.6,0.4c-3.1,0-5.2-2-5.2-5c0-2.6,2.2-4.8,5.1-4.8
		c1.6,0,2.8,0.6,3.2,0.8c0.1,0,0.1,0.1,0.1,0.2v0.9c0,0.1,0,0.1-0.1,0.1l-0.4,0.3c-0.2,0.1-0.7-1.4-2.8-1.4c-2,0-3.1,1.6-3.1,3.8
		c0,2.7,1.6,4.2,3.4,4.2c0.9,0,1.9-0.2,2.7-0.9c0.2-0.2,0.5,0,0.4,0.2L126.6,89.8z"/>
	<path fill="#FFFFFF" d="M111.1,86.7l1.4-3.7l1.4,3.7H111.1z M117.7,89.7c-0.7-0.2-0.8-0.2-1-0.9c-0.9-2.1-2-4.8-2.9-7.5
		c0-0.2-0.2-0.4-0.3-0.4h-2.3c-0.1,0-0.3,0-0.3,0.2l-0.1,0.2c-0.2,0.3,0.4,0.2,0.8,0.5c0.1,0.2,0.5,0.4,0.2,1l-2.3,6
		c-0.3,0.7-0.4,0.8-0.9,0.9c-0.2,0.1-0.3,0.1-0.4,0.2l-0.1,0.2c-0.1,0.3,0.2,0.3,0.4,0.3h2.1c0.2,0,0.2-0.2,0.3-0.2l0.1-0.1
		c0.2-0.3-0.9-0.2-0.6-0.9l0.6-1.5h3.4l1,2.6c0,0.1,0.2,0.2,0.3,0.2h1.9c0.2,0,0.3,0,0.3-0.1l0.1-0.3
		C117.9,89.8,117.9,89.7,117.7,89.7"/>
	<path fill="#FFFFFF" d="M146.8,89.8c-0.1,0.1-0.1,0.3-0.3,0.3c-0.3,0.2-1.4,0.4-2.6,0.4c-3.1,0-5.2-2-5.2-5c0-2.6,2.2-4.8,5.1-4.8
		c1.6,0,2.8,0.6,3.2,0.8c0.1,0,0.1,0.1,0.1,0.2v0.9c0,0.1,0,0.1-0.1,0.1l-0.4,0.3c-0.2,0.1-0.6-1.4-2.8-1.4c-2,0-3.1,1.6-3.1,3.8
		c0,2.7,1.6,4.2,3.4,4.2c0.9,0,1.9-0.2,2.7-0.9c0.2-0.2,0.5,0,0.4,0.2L146.8,89.8z"/>
	<path fill="#FFFFFF" d="M157.1,89.9c-0.5-0.3-1.6-1.8-2.8-3.9c1.3-0.6,1.8-1.7,1.8-2.8c0-1.6-1.3-2.3-2.5-2.3h-4.7
		c-0.1,0-0.2,0-0.2,0.2l-0.1,0.3c-0.1,0.2,0.1,0.2,0.3,0.2c0.6,0.1,0.8,0.3,0.8,0.9v6.4c0,0.5-0.4,0.7-0.7,0.8c-0.1,0-0.2,0-0.3,0.2
		l-0.1,0.2c-0.1,0.2,0.1,0.2,0.2,0.2h3.4c0.1,0,0.2,0,0.2-0.1l0.1-0.3c0.1-0.1,0-0.2-0.2-0.2c-0.7-0.1-0.9-0.2-0.9-0.8v-2.6h1
		l2.1,3.8c0.1,0.1,0.2,0.3,0.4,0.3h2V89.9z M151.5,81.6h1.1c0.8,0,1.5,0.4,1.5,1.7c0,1.5-0.8,2.2-1.7,2.2h-0.8V81.6"/>
	<path fill="#FFFFFF" d="M160.3,84.8h3.1c0.2,0,0.3,0.1,0.2,0.2l-0.2,0.4c-0.1,0.1-0.2,0.2-0.4,0.2h-2.6v2.6c0,1,0.2,1.3,1,1.3h1.1
		c1.3,0,1.5-1.1,1.7-1.1l0.3,0.1c0.1,0,0.1,0.1,0.1,0.1V90c0,0.2-0.3,0.3-0.6,0.3h-4.2c-1,0-1.3,0-1.3-0.9v-7c0-0.6-0.3-0.8-0.8-0.9
		c-0.2-0.1-0.3-0.1-0.3-0.2l0.1-0.3c0.1-0.1,0.1-0.2,0.2-0.2h5.9c0.3,0,0.4,0.1,0.4,0.3v1.1c0,0,0,0.1-0.1,0.1l-0.2,0.2
		c-0.2,0.2-0.4-0.9-1.3-0.9h-2V84.8z"/>
	<path fill="#FFFFFF" d="M166.5,89.5c0,0.4,0.1,0.6,0.4,0.7c0.7,0.2,1.6,0.3,3.3,0.3c3,0,5.1-2.3,5.1-5.1c0-2.7-1.2-4.5-5.1-4.5
		h-4.4c-0.1,0-0.2,0-0.2,0.2l-0.1,0.3c-0.1,0.2,0.1,0.2,0.3,0.2c0.6,0.1,0.8,0.3,0.8,0.9V89.5z M168.4,81.7h1.5
		c2.1,0,3.3,1.1,3.3,3.7c0,2.4-1,4.3-3.1,4.3c-1,0-1.7-0.2-1.7-1.3V81.7"/>
	<path fill="#FFFFFF" d="M181.8,80.7c-2.8,0-5.2,2-5.2,5c0,3,2.3,4.7,4.7,4.7c3.2,0,5.1-2.4,5.1-5.1
		C186.4,82.9,184.5,80.7,181.8,80.7z M181.5,81.6c1.5,0,2.9,1.2,2.9,4c0,1.8-0.8,4-2.8,4c-1.6,0-2.9-1.3-2.9-4.3
		C178.6,83.9,179.3,81.6,181.5,81.6"/>
	<path fill="#FFFFFF" d="M199.4,88.9c0,0.6,0.2,0.7,0.9,0.8c0.2,0,0.2,0.1,0.1,0.2l-0.1,0.3c0,0.1-0.1,0.1-0.2,0.1h-3.4
		c-0.1,0-0.2,0-0.2-0.2l0.1-0.2c0.1-0.1,0.2-0.2,0.3-0.2c0.3-0.1,0.7-0.3,0.7-0.8l-0.5-5.4h0l-3.2,6.6c-0.1,0.2-0.1,0.3-0.3,0.3
		h-0.4c-0.1,0-0.2-0.2-0.3-0.4l-3-6.4h0l-0.6,5.4c0,0.6,0.2,0.7,0.9,0.8c0.2,0,0.2,0.1,0.1,0.2l-0.1,0.3c0,0.1-0.1,0.1-0.2,0.1h-2.5
		c-0.1,0-0.2,0-0.2-0.2l0.1-0.2c0.1-0.1,0.2-0.2,0.3-0.2c0.3-0.1,0.7-0.3,0.7-0.8l0.6-6.2c0-0.3-0.2-0.5-0.3-0.6
		c-0.3-0.3-0.6-0.5-0.8-0.5c-0.3-0.1-0.3-0.2-0.2-0.3l0.1-0.3c0-0.1,0.1-0.1,0.2-0.1h2.1c0.4,0,0.5,0.1,0.8,0.5l3,6.4l3.3-6.5
		c0.2-0.4,0.4-0.4,0.6-0.4h2.1c0.1,0,0.3,0,0.2,0.2l-0.1,0.3c-0.1,0.1-0.2,0.2-0.3,0.2c-0.4,0.1-0.7,0.3-0.7,0.8L199.4,88.9z"/>
	<path fill="#FFFFFF" d="M215.6,88.9c0,0.6,0.2,0.7,0.9,0.8c0.2,0,0.2,0.1,0.1,0.2l-0.1,0.3c0,0.1-0.1,0.1-0.2,0.1h-3.4
		c-0.1,0-0.2,0-0.2-0.2l0.1-0.2c0.1-0.1,0.2-0.2,0.3-0.2c0.3-0.1,0.7-0.3,0.7-0.8v-7.1h-3.1c-0.2,0-0.4-0.1-0.2-0.3l0.3-0.5
		c0.1-0.1,0.3-0.2,0.5-0.2h7.6c0.2,0,0.4,0.1,0.2,0.3l-0.3,0.5c-0.1,0.1-0.3,0.2-0.5,0.2h-2.6V88.9z"/>
	<path fill="#FFFFFF" d="M221.1,82.4c0-0.6-0.2-0.7-0.9-0.8c-0.2,0-0.2-0.1-0.1-0.2l0.1-0.3c0-0.1,0.1-0.1,0.2-0.1h3.4
		c0.1,0,0.2,0,0.2,0.2l-0.1,0.2c-0.1,0.2-0.2,0.2-0.3,0.2c-0.3,0.1-0.7,0.3-0.7,0.8v6.6c0,0.6,0.2,0.7,0.9,0.8
		c0.2,0,0.2,0.1,0.2,0.2l-0.1,0.3c0,0.1-0.1,0.1-0.2,0.1h-3.4c-0.1,0-0.2,0-0.2-0.2l0.1-0.2c0.1-0.1,0.2-0.2,0.3-0.2
		c0.3-0.1,0.7-0.3,0.7-0.8V82.4z"/>
	<path fill="#FFFFFF" d="M233.2,89.8c-0.1,0.1-0.1,0.3-0.3,0.3c-0.3,0.2-1.4,0.4-2.6,0.4c-3.1,0-5.2-2-5.2-5c0-2.6,2.2-4.8,5.1-4.8
		c1.6,0,2.8,0.6,3.2,0.8c0.1,0,0.1,0.1,0.1,0.2v0.9c0,0.1,0,0.1-0.1,0.1l-0.4,0.3c-0.2,0.1-0.6-1.4-2.8-1.4c-2,0-3.1,1.6-3.1,3.8
		c0,2.7,1.6,4.2,3.4,4.2c0.9,0,1.9-0.2,2.7-0.9c0.2-0.2,0.5,0,0.4,0.2L233.2,89.8z"/>
	<path fill="#FFFFFF" d="M204.5,86.7l1.4-3.7l1.4,3.7H204.5z M211.1,89.7c-0.7-0.2-0.8-0.2-1-0.9c-0.9-2.1-2-4.8-2.9-7.5
		c0-0.2-0.2-0.4-0.3-0.4h-2.3c-0.1,0-0.3,0-0.3,0.2l-0.1,0.2c-0.2,0.3,0.4,0.2,0.8,0.5c0.1,0.2,0.5,0.4,0.2,1l-2.3,6
		c-0.3,0.7-0.4,0.8-0.9,0.9c-0.2,0.1-0.3,0.1-0.3,0.2l-0.1,0.2c-0.1,0.3,0.2,0.3,0.4,0.3h2.1c0.2,0,0.2-0.2,0.3-0.2l0.1-0.1
		c0.2-0.3-0.9-0.2-0.6-0.9l0.6-1.5l3.4,0l1,2.6c0,0.1,0.2,0.2,0.3,0.2h1.9c0.2,0,0.3,0,0.3-0.1l0.1-0.3
		C211.3,89.8,211.3,89.7,211.1,89.7"/>
	<path fill="#FFFFFF" d="M102.3,81.6h0.8c1.1,0,1.8,0.3,1.8,1.6c0,0.9-0.6,1.7-1.7,1.7h-0.8V81.6z M99.6,80.9c-0.1,0-0.2,0-0.2,0.2
		l-0.1,0.3c-0.1,0.1,0.1,0.2,0.3,0.2c0.6,0.1,0.8,0.3,0.8,0.9v7c0,0.4,0.1,0.6,0.4,0.7c0.7,0.2,1.6,0.3,2.9,0.3
		c1.9,0,3.8-0.8,3.8-2.9c0-0.9-0.6-2.3-2.6-2.5v0c1.2-0.4,2-1.2,1.9-2.2c-0.1-1.6-1.3-2-2.7-2H99.6 M102.3,85.7h0.8
		c1.3,0,2.2,0.8,2.2,2c0,1.3-0.6,2.1-1.7,2.1c-0.8,0-1.3-0.3-1.3-1.2V85.7"/>
	<path fill="#FFFFFF" d="M203.9,99.9v-4h-0.5V97c0,0.2,0,0.3,0,0.5c0,0.2,0,0.4,0,0.6c0,0.2,0,0.4,0,0.6c0,0.2,0,0.3,0,0.4
		c-0.1-0.1-0.2-0.3-0.2-0.4c-0.1-0.2-0.2-0.3-0.3-0.4l-1.5-2.4h-0.7v4h0.5v-1.3c0-0.2,0-0.3,0-0.5c0-0.2,0-0.4,0-0.6
		c0-0.2,0-0.4,0-0.5c0-0.2,0-0.3,0-0.4c0.1,0.1,0.1,0.3,0.2,0.4c0.1,0.1,0.2,0.3,0.2,0.4l1.5,2.5H203.9z"/>
	<polygon fill="#FFFFFF" points="208.1,99.9 208.1,99.4 206.6,99.4 206.6,98 208.1,98 208.1,97.6 206.6,97.6 206.6,96.3 208.1,96.3 
		208.1,95.9 206.1,95.9 206.1,99.9 	"/>
	<polygon fill="#FFFFFF" points="212.6,96.3 212.6,95.9 209.7,95.9 209.7,96.3 210.9,96.3 210.9,99.9 211.4,99.9 211.4,96.3 	"/>
	<path fill="#FFFFFF" d="M218.1,99.9h-0.7l-0.8-2.7c0-0.1-0.1-0.2-0.1-0.4c0-0.1,0-0.2-0.1-0.3h0c0,0.2-0.1,0.5-0.1,0.7l-0.7,2.7
		H215l-1.1-4h0.6l0.7,2.6c0,0.1,0.1,0.3,0.1,0.4c0,0.1,0,0.3,0.1,0.4h0c0-0.3,0.1-0.5,0.2-0.7l0.7-2.6h0.6l0.8,2.7
		c0,0.1,0.1,0.2,0.1,0.3c0,0.1,0,0.2,0.1,0.4h0c0-0.1,0-0.2,0.1-0.3c0-0.1,0-0.2,0.1-0.3l0.7-2.7h0.5L218.1,99.9z"/>
	<path fill="#FFFFFF" d="M224.2,97c-0.1-0.2-0.2-0.5-0.4-0.6c-0.2-0.2-0.3-0.3-0.6-0.4c-0.2-0.1-0.5-0.1-0.7-0.1
		c-0.3,0-0.5,0-0.7,0.1c-0.2,0.1-0.4,0.2-0.6,0.4c-0.2,0.2-0.3,0.4-0.4,0.7c-0.1,0.3-0.1,0.6-0.1,0.9c0,0.3,0,0.6,0.1,0.8
		c0.1,0.3,0.2,0.5,0.3,0.6c0.1,0.2,0.3,0.3,0.6,0.4c0.2,0.1,0.5,0.1,0.8,0.1c0.3,0,0.5,0,0.7-0.1c0.2-0.1,0.4-0.2,0.6-0.4
		c0.2-0.2,0.3-0.4,0.4-0.7c0.1-0.3,0.2-0.6,0.2-0.9C224.3,97.5,224.2,97.2,224.2,97z M223.6,98.6c-0.1,0.2-0.2,0.4-0.3,0.5
		c-0.1,0.1-0.3,0.2-0.4,0.3c-0.2,0.1-0.3,0.1-0.5,0.1c-0.2,0-0.4,0-0.6-0.1c-0.2-0.1-0.3-0.2-0.4-0.3c-0.1-0.1-0.2-0.3-0.2-0.5
		c-0.1-0.2-0.1-0.4-0.1-0.7c0-0.3,0-0.5,0.1-0.7c0.1-0.2,0.2-0.4,0.3-0.5c0.1-0.1,0.2-0.2,0.4-0.3c0.2-0.1,0.3-0.1,0.5-0.1
		c0.4,0,0.7,0.1,0.9,0.4c0.2,0.3,0.3,0.7,0.3,1.2C223.7,98.2,223.7,98.4,223.6,98.6"/>
	<path fill="#FFFFFF" d="M227.7,97.5c-0.2,0.1-0.4,0.2-0.7,0.2c-0.1,0-0.2,0-0.2,0c-0.1,0-0.1,0-0.1,0v-1.4c0.1,0,0.1,0,0.2,0
		c0.1,0,0.1,0,0.2,0c0.3,0,0.5,0.1,0.7,0.2c0.1,0.1,0.2,0.3,0.2,0.5C227.9,97.2,227.8,97.4,227.7,97.5z M228.7,99.9l-1.1-1.4
		c-0.1-0.1-0.1-0.1-0.2-0.2c-0.1-0.1-0.1-0.1-0.2-0.2c0.2,0,0.3,0,0.5-0.1c0.1-0.1,0.3-0.1,0.4-0.2c0.1-0.1,0.2-0.2,0.3-0.3
		c0.1-0.1,0.1-0.3,0.1-0.5c0-0.2,0-0.3-0.1-0.5c-0.1-0.1-0.2-0.2-0.3-0.3c-0.1-0.1-0.3-0.1-0.4-0.2c-0.2,0-0.3-0.1-0.5-0.1
		c-0.2,0-0.4,0-0.6,0c-0.2,0-0.3,0-0.4,0v4h0.5v-1.8h0.1l1.3,1.8H228.7"/>
	<polygon fill="#FFFFFF" points="232.7,99.9 231.1,97.9 231.1,99.9 230.5,99.9 230.5,95.9 231.1,95.9 231.1,97.8 232.7,95.9 
		233.3,95.9 231.6,97.8 233.4,99.9 	"/>
</g>
<g>
</g>
<g>
</g>
<g>
</g>
<g>
</g>
<g>
</g>
<g>
</g>
<g>
</g>
<g>
</g>
<g>
</g>
<g>
</g>
<g>
</g>
<g>
</g>
<g>
</g>
<g>
</g>
<g>
</g>
</svg>
