<?xml version="1.0" encoding="utf-8"?>
<!-- Generator: Adobe Illustrator 18.0.0, SVG Export Plug-In . SVG Version: 6.00 Build 0)  -->
<!DOCTYPE svg PUBLIC "-//W3C//DTD SVG 1.1//EN" "http://www.w3.org/Graphics/SVG/1.1/DTD/svg11.dtd">
<svg version="1.1" id="Layer_1" xmlns="http://www.w3.org/2000/svg" xmlns:xlink="http://www.w3.org/1999/xlink" x="0px" y="0px"
	 viewBox="0 0 20.9 20.9" enable-background="new 0 0 20.9 20.9" xml:space="preserve">
<g>
	<g>
		<g>
			<g>
				<path fill="#6D6E70" d="M10.4,14.8c-0.5,0-0.9-0.4-0.9-0.9V7c0-0.5,0.4-0.9,0.9-0.9c0.5,0,0.9,0.4,0.9,0.9v7
					C11.3,14.4,10.9,14.8,10.4,14.8L10.4,14.8z"/>
			</g>
			<g>
				<path fill="#6D6E70" d="M13.9,11.3H7c-0.5,0-0.9-0.4-0.9-0.9C6.1,10,6.5,9.6,7,9.6h7c0.5,0,0.9,0.4,0.9,0.9
					C14.8,10.9,14.4,11.3,13.9,11.3L13.9,11.3z"/>
			</g>
		</g>
		<g>
			<path fill="#6D6E70" d="M10.4,20.9c-2.8,0-5.4-1.1-7.4-3.1C-1,13.8-1,7.1,3.1,3.1C5,1.1,7.7,0,10.4,0s5.4,1.1,7.4,3.1
				c4.1,4.1,4.1,10.7,0,14.8C15.9,19.8,13.2,20.9,10.4,20.9L10.4,20.9z M10.4,1.8c-2.3,0-4.5,0.9-6.1,2.5c-3.4,3.4-3.4,8.9,0,12.3
				c1.6,1.6,3.8,2.5,6.1,2.5c2.3,0,4.5-0.9,6.1-2.5c3.4-3.4,3.4-8.9,0-12.3C14.9,2.7,12.8,1.8,10.4,1.8L10.4,1.8z"/>
		</g>
	</g>
</g>
</svg>
