<?xml version="1.0" encoding="utf-8"?>
<!-- Generator: Adobe Illustrator 18.0.0, SVG Export Plug-In . SVG Version: 6.00 Build 0)  -->
<!DOCTYPE svg PUBLIC "-//W3C//DTD SVG 1.1//EN" "http://www.w3.org/Graphics/SVG/1.1/DTD/svg11.dtd">
<svg version="1.1" id="Layer_1" xmlns="http://www.w3.org/2000/svg" xmlns:xlink="http://www.w3.org/1999/xlink" x="0px" y="0px"
	 viewBox="0 0 14 14.7" enable-background="new 0 0 14 14.7" xml:space="preserve">
<g>
	<g>
		<path fill="#808184" d="M2.3,9.6C1,9.6,0,8.6,0,7.3C0,6.1,1,5,2.3,5c1.3,0,2.3,1,2.3,2.3C4.6,8.6,3.6,9.6,2.3,9.6L2.3,9.6z
			 M2.3,6.2c-0.6,0-1.1,0.5-1.1,1.1c0,0.6,0.5,1.1,1.1,1.1c0.6,0,1.1-0.5,1.1-1.1C3.4,6.7,2.9,6.2,2.3,6.2L2.3,6.2z"/>
	</g>
	<g>
		<g>
			<path fill="#808184" d="M11.7,4.6c-1.3,0-2.3-1-2.3-2.3c0-1.3,1-2.3,2.3-2.3C13,0,14,1,14,2.3C14,3.6,13,4.6,11.7,4.6L11.7,4.6z
				 M11.7,1.2c-0.6,0-1.1,0.5-1.1,1.1c0,0.6,0.5,1.1,1.1,1.1c0.6,0,1.1-0.5,1.1-1.1C12.8,1.7,12.3,1.2,11.7,1.2L11.7,1.2z"/>
		</g>
		<g>
			<path fill="#808184" d="M11.7,14.7c-1.3,0-2.3-1-2.3-2.3c0-1.3,1-2.3,2.3-2.3c1.3,0,2.3,1,2.3,2.3C14,13.6,13,14.7,11.7,14.7
				L11.7,14.7z M11.7,11.3c-0.6,0-1.1,0.5-1.1,1.1c0,0.6,0.5,1.1,1.1,1.1c0.6,0,1.1-0.5,1.1-1.1C12.8,11.8,12.3,11.3,11.7,11.3
				L11.7,11.3z"/>
		</g>
	</g>
	<g>
		<g>
			<path fill="#808184" d="M9.9,12.1c-0.1,0-0.2,0-0.3-0.1l-6-3.5C3.3,8.4,3.2,8,3.4,7.7c0.2-0.3,0.5-0.4,0.8-0.2l6,3.5
				c0.3,0.2,0.4,0.5,0.2,0.8C10.3,12,10.2,12.1,9.9,12.1L9.9,12.1z"/>
		</g>
		<g>
			<path fill="#808184" d="M3.9,7.3C3.7,7.3,3.5,7.2,3.4,7C3.2,6.7,3.3,6.3,3.6,6.2l6-3.5c0.3-0.2,0.6-0.1,0.8,0.2
				c0.2,0.3,0.1,0.6-0.2,0.8l-6,3.5C4.1,7.2,4,7.3,3.9,7.3L3.9,7.3z"/>
		</g>
	</g>
</g>
<g>
</g>
<g>
</g>
<g>
</g>
<g>
</g>
<g>
</g>
<g>
</g>
<g>
</g>
<g>
</g>
<g>
</g>
<g>
</g>
<g>
</g>
<g>
</g>
<g>
</g>
<g>
</g>
<g>
</g>
</svg>
