<?xml version="1.0" encoding="utf-8"?>
<!-- Generator: Adobe Illustrator 18.0.0, SVG Export Plug-In . SVG Version: 6.00 Build 0)  -->
<!DOCTYPE svg PUBLIC "-//W3C//DTD SVG 1.1//EN" "http://www.w3.org/Graphics/SVG/1.1/DTD/svg11.dtd">
<svg version="1.1" id="Layer_1" xmlns="http://www.w3.org/2000/svg" xmlns:xlink="http://www.w3.org/1999/xlink" x="0px" y="0px"
	 viewBox="0 0 23.6 23.5" enable-background="new 0 0 23.6 23.5" xml:space="preserve">
<g>
	<g>
		<g>
			<path fill="#26A9E0" d="M0,11.8c0-3.1,1.2-6.1,3.4-8.3c4.6-4.6,12.1-4.6,16.7,0c2.2,2.2,3.4,5.2,3.4,8.3s-1.2,6.1-3.4,8.3
				c-4.6,4.6-12.1,4.6-16.7,0C1.2,17.9,0,14.9,0,11.8L0,11.8z M21.6,11.8c0-2.6-1-5.1-2.9-6.9C14.9,1,8.7,1,4.9,4.9
				C3,6.7,2,9.2,2,11.8c0,2.6,1,5.1,2.9,6.9c3.8,3.8,10,3.8,13.8,0C20.5,16.8,21.6,14.4,21.6,11.8L21.6,11.8z"/>
		</g>
		<g>
			<path fill="#26A9E0" d="M8.4,11.8c0-0.3,0.1-0.5,0.3-0.7l4.8-4.8c0.4-0.4,1-0.4,1.4,0c0.4,0.4,0.4,1,0,1.4l-4.1,4.1l4.1,4.1
				c0.4,0.4,0.4,1,0,1.4c-0.4,0.4-1,0.4-1.4,0l-4.8-4.8C8.5,12.3,8.4,12,8.4,11.8L8.4,11.8z"/>
		</g>
	</g>
</g>
<g>
</g>
<g>
</g>
<g>
</g>
<g>
</g>
<g>
</g>
<g>
</g>
<g>
</g>
<g>
</g>
<g>
</g>
<g>
</g>
<g>
</g>
<g>
</g>
<g>
</g>
<g>
</g>
<g>
</g>
</svg>
