<?xml version="1.0" encoding="utf-8"?>
<!-- Generator: Adobe Illustrator 18.0.0, SVG Export Plug-In . SVG Version: 6.00 Build 0)  -->
<!DOCTYPE svg PUBLIC "-//W3C//DTD SVG 1.1//EN" "http://www.w3.org/Graphics/SVG/1.1/DTD/svg11.dtd">
<svg version="1.1" id="Layer_1" xmlns="http://www.w3.org/2000/svg" xmlns:xlink="http://www.w3.org/1999/xlink" x="0px" y="0px"
	 viewBox="0 0 73.2 94" enable-background="new 0 0 73.2 94" xml:space="preserve">
<g>
	<defs>
		<rect id="SVGID_1_" x="0" y="0" width="73.2" height="65.7"/>
	</defs>
	<clipPath id="SVGID_2_">
		<use xlink:href="#SVGID_1_"  overflow="visible"/>
	</clipPath>
	<g clip-path="url(#SVGID_2_)">
		<path fill="#FFFFFF" d="M72,31.4c-1.5-1.2-3.9-1.2-5.3,0.1c-0.9,0.9-1.1,2.6-0.3,3.5c-0.1,0.1-0.1,0.2,0,0.3
			c0.1,0.1,0.1,0.2,0.2,0.3C64,38.3,61.9,41.1,58,42c-4,0.9-9.1,0.8-13.1-0.1c0,0-0.1,0-0.1,0c-0.2-1.4-0.4-2.7-0.6-4.1
			c0.6-0.2,1.2-0.5,1.7-0.8c3.6-1.8,6.1-4.7,7.6-8c1.9,0.7,4.5,0.7,5.2-1.6c0.7-2.2-1.4-4.4-3.6-4.4c0,0,0-0.1-0.1-0.1
			c0.2-2.6-0.1-5.3-0.9-7.9C51.3,5.6,41.9-1.1,31.9,0.1c-0.3,0-0.5,0.2-0.5,0.4c-6.6-1.3-13,4.8-15.4,10.7
			c-1.7,4.3-2.4,9.1-1.7,13.6c0,0,0,0,0,0c-0.9-0.6-2.2,0-2.8,0.8c-0.7,1-0.7,2.3-0.1,3.4c0.6,1,1.7,1.6,2.8,1.6
			c0.6,0,1.2-0.2,1.8-0.6c1,2.1,2.5,4,4.5,5.6c1.6,1.3,3.4,2.3,5.2,3c-0.5,1.6-1,3.3-1.4,4.9c0,0-0.1,0-0.1,0
			c-4.2,1.7-8.9,2.1-13.1,0.1c-3.4-1.6-5.2-4.1-7.1-7c1.7-0.2,2.9-2.2,2.8-3.7c-0.1-1.9-1.8-3.1-3.6-3c-1.8,0.1-3.4,1.5-3.3,3.4
			c0.1,1.4,1.4,3.2,3,3.3c1.1,3.7,4.7,6.8,8.2,8.3c4.2,1.8,9,1.5,13-0.6c-0.7,3.2-1.2,6.5-1.7,9.8c-0.8,5.2-1.6,10.4-1.7,15.6
			c0,0.4,0.3,0.6,0.6,0.5c0,0.1,0,0.2-0.1,0.3c0,0.2,0.1,0.5,0.3,0.6c0.6,0.1,1.2,0.2,1.9,0.3c-0.2,0.9-0.3,1.7-0.3,2.6
			c0,0.9-0.1,1.9,0.3,2.8c-0.1,0.1,0,0.4,0.2,0.4c1.1,0.3,2.2,0.5,3.4,0.7c0.2,6.4,4.8,12.4,10.7,14.8C43.3,95,51,94.2,55.6,90
			c1.5,1.3,3.3,2,5.3,2.1c1.4,0,3.5-0.5,3.3-2.3c-0.1-1.6-2.5-2.1-3.8-2.3c-1.6-0.2-3.3,0-4.4,1.1c-0.1-0.1-0.3-0.1-0.5,0
			c-5.2,3.8-11.6,5.5-17.7,2.7c-5.5-2.5-8.7-7.6-9.8-13.3c1.6,0.1,3.3,0.2,4.9,0.1c0.3,0,0.5-0.2,0.5-0.4c0.2,0,0.4-0.2,0.4-0.4
			c-0.1-1-0.2-2-0.1-3c0.1-0.7,0.3-1.4,0.3-2.1c0.9,0,1.7,0,2.6-0.1c0.1,1.7,0.2,3.4,0.5,5c0,0.1,0,0.1,0.1,0.2
			c-0.1,0.2,0.1,0.5,0.3,0.5c1.5-0.2,3.1-0.4,4.6-0.6c1.7,3.6,7.6,3.9,10.8,2.5c3.5-1.5,6.8-6,6-10c1.2,0.8,2.7,1.2,4.1,1.2
			c1.5,0,3.2-0.4,3.1-2.2C66,64.8,59.7,66,58,67.8c-0.1,0.1-0.1,0.2-0.1,0.3c-0.1,0.1-0.2,0.2-0.2,0.4c-0.1,1.7,0.1,3.3-0.5,4.9
			c-0.7,2-2.1,3.7-4,4.7c-3,1.7-7.6,1.5-10.1-1.1c1.4-0.2,2.9-0.3,4.3-0.9c0.1-0.1,0.2-0.1,0.2-0.2c0.3,0.1,0.6-0.1,0.5-0.4
			c-0.3-0.9-0.5-1.8-0.8-2.7c-0.2-0.6-0.3-1.2-0.6-1.7c0.4-0.1,0.8-0.1,1.2-0.2c0.6-0.1,0.5-0.7,0.1-1c0-0.1,0-0.2,0-0.3
			c-1.3-8.9-2.1-18-3.2-26.9c4,1.6,9.6,1.6,13.8,0.5c3.5-0.9,6.9-3.6,8.9-6.7c1.3,0.9,3,1.1,4.3,0.1C73.6,35.1,73.7,32.8,72,31.4z
			 M3.5,35.8c-0.1-0.1-0.3-0.1-0.5,0c-0.4-0.1-0.8-0.3-1.1-0.6c-0.5-0.5-0.9-1.2-0.9-1.9c-0.1-1.5,1.1-2.5,2.5-2.5
			c1.4,0,2.6,0.9,2.5,2.3C5.8,34.5,4.8,35.4,3.5,35.8C3.5,35.8,3.5,35.8,3.5,35.8z M56.4,89.6c0.9-0.9,1.8-1.2,3.1-1.2
			c0.6,0,1.1,0.1,1.7,0.2c0.3,0.1,0.6,0.2,0.9,0.3c0.7,0.1,0.9,0.4,0.4,1.1c0.1,0.8-0.2,1.1-1,1c-0.2,0-0.5,0-0.7,0
			c-0.6,0-1.2-0.1-1.8-0.3C57.9,90.5,57.1,90.1,56.4,89.6C56.3,89.6,56.3,89.6,56.4,89.6z M61.4,67.3c1.1-0.2,3.1-0.4,3.6,0.8
			c1,2.1-2.5,1.7-3.5,1.5c-1-0.2-1.9-0.7-2.8-1.2C59.6,68,60.4,67.5,61.4,67.3z M55,24.1c0.6,0.1,1.2,0.2,1.8,0.6
			c0.9,0.6,1.4,1.9,0.8,2.9c-0.7,1.2-2.4,1.1-3.7,0.9C54.4,27.1,54.8,25.6,55,24.1z M53.8,21.5c0,0.1,0,0.3,0,0.4
			C48,16.8,44.7,10.2,41.1,3.5c2.5,2.6,4.9,5.3,6.9,8.3C50.2,14.9,51.6,18.4,53.8,21.5C53.8,21.5,53.8,21.5,53.8,21.5z M51.4,11.8
			c1.2,2.3,2,5,2.3,7.7c-1.2-3-3.3-5.9-5.1-8.4c-2.2-3-4.8-5.9-7.6-8.4C45.3,4.3,49.1,7.4,51.4,11.8z M51.4,21.1
			c-2.6-1.4-4.9-3.1-6.8-5.7c-2.4-3.3-3.5-7-3.8-10.9C43.3,10.4,46.6,16.6,51.4,21.1z M35.7,2.4c-4.4,1.3-8.5,3-11.9,6.2
			c-2,1.8-3.6,3.9-5.1,6.1c-0.8,1.2-1.9,2.6-2.7,4c-0.2-1.8,1.8-4.9,2.6-6.4c1.2-2.2,2.6-4.3,4.7-5.8C26.5,4.3,31.3,2.5,35.7,2.4z
			 M15.7,21.1c1.9-0.7,3.6-2.6,5.1-3.9c2-1.8,4.1-3.5,6.1-5.3c1.8-1.6,3.6-3.3,5.6-4.8C33.7,6.2,35,5.5,36.3,5
			c-2.8,2.6-5.6,5.2-8.5,7.6c-3.9,3.2-8.1,6.1-12.2,9.1C15.6,21.5,15.7,21.3,15.7,21.1z M27.9,9.4c-2.1,1.8-4.2,3.7-6.2,5.6
			c-1.9,1.7-4.7,3.6-5.9,5.9c0.7-2.3,2.8-4.5,4.1-6.3c1.5-2.1,3.2-4.1,5.2-5.8c3.4-3,7.6-4.4,11.8-5.6C33.4,4.4,30.4,7.2,27.9,9.4z
			 M15.6,19.2C15.7,19.2,15.7,19.2,15.6,19.2c0,0.2-0.1,0.3-0.2,0.5c0-0.2,0-0.5,0.1-0.7C15.6,19,15.6,19.1,15.6,19.2z M27.8,13.8
			c3.8-3.1,7.9-6.3,11.2-10c0.1,0,0.2-0.1,0.3-0.1c-0.9,5-4.4,9-8.5,11.9c-2.2,1.5-4.5,2.8-6.8,4c-2.7,1.4-5.4,3-8.6,3.1
			c0-0.1,0-0.1,0-0.2C19.8,20,23.9,17,27.8,13.8z M35.3,1.4c-0.4,0-0.8,0.1-1.2,0.1c-0.1-0.1-0.3-0.1-0.4-0.2
			C34.1,1.3,34.7,1.3,35.3,1.4z M21.7,5.2c3-2.6,6.9-3.7,10.8-3.4c-0.9,0.2-1.8,0.5-2.7,0.8c-2.7,0.9-5.6,1.9-7.8,3.8
			c-2.1,1.7-3.6,4.1-4.7,6.6c-0.3,0.6-0.7,1.5-1.1,2.3C17,11.4,18.8,7.8,21.7,5.2z M14.4,29.4c-0.8,0.1-1.6-0.2-2-0.9
			c-0.4-0.6-0.5-1.5-0.1-2.2c0.4-0.8,1.2-1,2-1.3c0,0,0.1,0,0.1-0.1c0.2,1.3,0.6,2.6,1.1,3.9C15.2,29.1,14.8,29.3,14.4,29.4z
			 M24.5,36.6c-3.2-1.6-6.1-4.3-7.6-7.5c0-0.1-0.1-0.2-0.1-0.3c0,0,0,0,0,0c0-0.2-0.1-0.4-0.2-0.5c-0.6-1.5-1-3.1-1.1-4.8
			c3,0.2,5.8-1.1,8.4-2.5c3-1.6,6-3.2,8.7-5.2c3.4-2.6,6.1-5.9,7.4-9.9c0.3,3.6,1.6,7.1,3.7,10c2.3,3.2,6.1,6.5,10.1,7.6
			c-0.4,4-2,7.7-5.2,10.3C42.2,39,31.9,40.2,24.5,36.6z M32.9,77C32.9,77,32.9,77,32.9,77c-2.9,0-5.7-0.3-8.5-0.3
			c0.2-0.9,0-1.8-0.1-2.7c-0.1-0.9-0.1-1.7-0.2-2.6c2.9,0.4,5.9,0.7,8.9,0.7c-0.2,0.6-0.2,1.3-0.3,1.9C32.7,75,32.7,76,32.9,77z
			 M47.3,75.4c0,0-0.1,0-0.1,0c-1.5-0.1-3.1,0.3-4.6,0.6c-1.5,0.3-3,0.6-4.5,0.9c-0.1-1.6-0.4-3.2-0.7-4.8c2.9-0.1,5.7-0.4,8.5-0.9
			c0,0.6,0.3,1.2,0.5,1.8C46.7,73.8,47,74.6,47.3,75.4z M46.9,69.7c-4.2,0.6-8.3,1-12.5,1.1c-1.4,0-12.3-0.1-12.2-1.2
			c0-0.1-0.1-0.2-0.2-0.1c0,0,0,0-0.1,0c0.7-5.5,1.1-11,1.9-16.5c0.7-4.8,1.8-9.5,2.5-14.3c5.5,1.9,11.8,1.5,17.2-0.6
			C43.8,48.7,45.4,59.3,46.9,69.7z M70.9,35.7c-1,0.6-2.1,0.4-3.1-0.1c0,0,0,0,0,0c0.2-0.1,0.4-0.4,0.1-0.6c-1-0.8-1.2-2.1-0.1-2.9
			c1.1-0.8,2.6-0.6,3.6,0.3C72.5,33.5,72.2,35,70.9,35.7z"/>
		<path fill="#FFFFFF" d="M27.5,23.6c-0.7-0.7-1.8-1.1-2.8-0.9c-1.8,0.3-3.2,2.5-2.2,4.2c0.2,0.3,0.7,0.2,0.7-0.2
			c0-1.1,0.6-2.5,1.9-2.6c0.6-0.1,1.2,0.3,1.6,0.7c0.3,0.4,0.3,0.9,0.7,1.3c0.2,0.3,0.7,0.2,0.8-0.1C28.7,25.2,28.1,24.2,27.5,23.6z
			"/>
		<path fill="#FFFFFF" d="M43.2,21.5c-2-0.1-3.6,1.8-3.3,3.8c0.1,0.6,0.9,0.4,0.9-0.1c0.1-1.3,1.2-2.6,2.6-2.3
			c1.4,0.3,1.3,1.5,1.8,2.5c0.2,0.4,0.7,0.3,0.9,0C47.3,23.7,44.8,21.6,43.2,21.5z"/>
		<path fill="#FFFFFF" d="M35.1,28.3c-0.5,0.1-1.5,0.4-1.8-0.3c-0.2-0.6,0.7-1.1,1.1-0.7c0.3,0.2,0.6-0.2,0.5-0.5
			c-0.9-1.4-2.9-0.1-2.8,1.3c0.2,1.5,2.6,2.2,3.4,0.8C35.7,28.6,35.4,28.2,35.1,28.3z"/>
		<path fill="#FFFFFF" d="M39.8,29.9c-1.5,5.5-8,5.2-11.2,1.5c-0.3-0.3-0.9,0.1-0.6,0.5c1.7,2.4,4.3,4.1,7.3,3.8
			c2.9-0.3,5.4-2.5,5.9-5.4C41.3,29.4,40,29,39.8,29.9z"/>
	</g>
</g>
<g>
</g>
<g>
</g>
<g>
</g>
<g>
</g>
<g>
</g>
<g>
</g>
<g>
</g>
<g>
</g>
<g>
</g>
<g>
</g>
<g>
</g>
<g>
</g>
<g>
</g>
<g>
</g>
<g>
</g>
</svg>
