<?xml version="1.0" encoding="utf-8"?>
<!-- Generator: Adobe Illustrator 18.0.0, SVG Export Plug-In . SVG Version: 6.00 Build 0)  -->
<!DOCTYPE svg PUBLIC "-//W3C//DTD SVG 1.1//EN" "http://www.w3.org/Graphics/SVG/1.1/DTD/svg11.dtd">
<svg version="1.1" id="Layer_1" xmlns="http://www.w3.org/2000/svg" xmlns:xlink="http://www.w3.org/1999/xlink" x="0px" y="0px"
	 viewBox="0 0 99 99.2" enable-background="new 0 0 99 99.2" xml:space="preserve">
<g>
	<g>
		<g>
			<path fill="#F2EEE8" d="M35.6,99.2L35.6,99.2c-10-1-20.1-1-30.6-1c-2.5,0-4-2-4-4C1,83.6,1,73.6,0,64c0-1,0.5-2.5,1-3.5L60.7,1.3
				c1-1.5,3-1.5,4-1c8,2.5,15,7,21.1,13s10.5,13,13,21.1c0.5,1.5,0,3-1,4L38.6,98.2C38.1,98.7,36.6,99.2,35.6,99.2L35.6,99.2z
				 M9.5,89.6c8.5,0,17,0.5,24.6,1l56.2-56.2c-2-6-5.5-11-10-15.6c-4.5-4.5-9.5-8-15.5-10L8.5,65C9,73.1,9.5,81.1,9.5,89.6L9.5,89.6
				z"/>
		</g>
		<g>
			<path fill="#F2EEE8" d="M85.2,44.5c-0.5,0-1,0-1.5-0.5L55.7,15.9c-1-1-1-2,0-3c1-1,2-1,3,0l28.1,28.1c1,1,1,2,0,3
				C86.2,44.5,85.7,44.5,85.2,44.5L85.2,44.5z"/>
		</g>
		<g>
			<path fill="#F2EEE8" d="M36.1,93.6c-1,0-1.5-0.5-2-1.5C30.1,79.6,19.6,69.6,7,65c-1-0.5-1.5-1.5-1.5-2.5C6,61.5,7,61,8,61
				c14,4.5,25.1,15.6,29.6,29.6c0.5,1,0,2-1.5,2.5C36.6,93.6,36.1,93.6,36.1,93.6L36.1,93.6z"/>
		</g>
		<g>
			<path fill="#F2EEE8" d="M19.6,96.7L19.6,96.7L5,96.2c-1,0-2-1-2-2L2.5,79.6c0-1,1-2,2-2c0.5,0,1,0,1.5,0c8.5,0,16,7,16,16.1
				c0,0.5,0,1,0,1.5C21.6,95.6,20.6,96.7,19.6,96.7L19.6,96.7z M7.5,92.1l10,0.5c0-6-5-10.5-10.5-11L7.5,92.1L7.5,92.1z"/>
		</g>
	</g>
</g>
<g>
</g>
<g>
</g>
<g>
</g>
<g>
</g>
<g>
</g>
<g>
</g>
<g>
</g>
<g>
</g>
<g>
</g>
<g>
</g>
<g>
</g>
<g>
</g>
<g>
</g>
<g>
</g>
<g>
</g>
</svg>
