<?xml version="1.0" encoding="utf-8"?>
<!-- Generator: Adobe Illustrator 18.0.0, SVG Export Plug-In . SVG Version: 6.00 Build 0)  -->
<!DOCTYPE svg PUBLIC "-//W3C//DTD SVG 1.1//EN" "http://www.w3.org/Graphics/SVG/1.1/DTD/svg11.dtd">
<svg version="1.1" id="Layer_1" xmlns="http://www.w3.org/2000/svg" xmlns:xlink="http://www.w3.org/1999/xlink" x="0px" y="0px"
	 viewBox="0 0 100 105" enable-background="new 0 0 100 105" xml:space="preserve">
<g>
	<g>
		<g>
			<path fill="#FFFFFF" d="M95.3,20.4H4.1c-2.3,0-4.1-1.8-4.1-4.7c0-2.3,1.8-4.7,4.1-4.7h91.2c2.3,0,4.7,1.8,4.7,4.7
				S97.7,20.4,95.3,20.4L95.3,20.4z"/>
		</g>
		<g>
			<path fill="#FFFFFF" d="M61.4,18.1c-1.2-5.2-5.8-9.3-11.1-9.3s-10.5,4.1-11.1,9.3l-8.8-1.8C32.2,7,40.9,0,50.3,0
				s18.1,7,19.9,16.3L61.4,18.1L61.4,18.1z"/>
		</g>
		<g>
			<path fill="#FFFFFF" d="M20.5,105c-4.7,0-8.2-3.5-8.8-8.8L7,20.4c0-2.3,1.8-4.7,4.1-4.7s4.7,1.8,4.7,4.1l4.7,75.8h59.1l4.7-76.4
				c0-2.3,2.3-4.1,4.7-4.1s4.1,2.3,4.1,4.7l-4.7,75.8c-0.6,4.7-4.1,8.8-8.8,8.8l0,0H20.5V105z"/>
		</g>
		<g>
			<g>
				<path fill="#FFFFFF" d="M33.3,88.7c-2.3,0-4.1-1.8-4.1-4.1l-3.5-51.9c0-2.3,1.8-4.7,4.1-4.7s4.7,1.8,4.7,4.1L37.4,84
					C37.4,86.9,35.7,88.7,33.3,88.7L33.3,88.7L33.3,88.7z"/>
			</g>
			<g>
				<path fill="#FFFFFF" d="M66.7,88.7C66.1,88.7,66.1,88.7,66.7,88.7c-2.9,0-4.7-2.3-4.7-4.7l2.9-51.9c0-2.3,2.3-4.1,4.7-4.1
					s4.1,2.3,4.1,4.7l-2.9,51.9C70.8,86.9,69,88.7,66.7,88.7L66.7,88.7z"/>
			</g>
		</g>
		<g>
			<path fill="#FFFFFF" d="M49.7,88.7c-2.3,0-4.7-1.8-4.7-4.7V32.1c0-2.3,1.8-4.7,4.7-4.7c2.3,0,4.7,1.8,4.7,4.7V84
				C54.4,86.9,52,88.7,49.7,88.7L49.7,88.7z"/>
		</g>
	</g>
</g>
<g>
</g>
<g>
</g>
<g>
</g>
<g>
</g>
<g>
</g>
<g>
</g>
<g>
</g>
<g>
</g>
<g>
</g>
<g>
</g>
<g>
</g>
<g>
</g>
<g>
</g>
<g>
</g>
<g>
</g>
</svg>
