<?xml version="1.0" encoding="utf-8"?>
<!-- Generator: Adobe Illustrator 18.0.0, SVG Export Plug-In . SVG Version: 6.00 Build 0)  -->
<!DOCTYPE svg PUBLIC "-//W3C//DTD SVG 1.1//EN" "http://www.w3.org/Graphics/SVG/1.1/DTD/svg11.dtd">
<svg version="1.1" id="Layer_1" xmlns="http://www.w3.org/2000/svg" xmlns:xlink="http://www.w3.org/1999/xlink" x="0px" y="0px"
	 viewBox="0 0 17.6 16" enable-background="new 0 0 17.6 16" xml:space="preserve">
<g>
	<path fill="#8A8C8F" d="M3.6,16c-0.2,0-0.4,0-0.6,0c-0.3,0-0.6-0.3-0.7-0.6c-0.1-0.3,0.1-0.7,0.4-0.8c0.7-0.3,1.2-0.8,1.6-1.3
		C1.6,11.9,0,9.6,0,7.1C0,3.2,3.9,0,8.8,0c4.9,0,8.8,3.2,8.8,7.1s-3.9,7.1-8.8,7.1c-0.1,0-0.2,0-0.3,0C7.2,15.3,5.5,16,3.6,16
		L3.6,16z M8.8,1.5c-4,0-7.3,2.5-7.3,5.6c0,2.1,1.6,4.1,4.1,5c0.2,0.1,0.4,0.2,0.4,0.4c0.1,0.2,0.1,0.4,0,0.6l0,0.1
		c0,0.1-0.1,0.2-0.1,0.3c-0.1,0.2-0.3,0.4-0.5,0.6c0.9-0.3,1.6-0.7,2.2-1.3c0.2-0.2,0.4-0.2,0.6-0.2c0.2,0,0.4,0,0.6,0
		c4,0,7.3-2.5,7.3-5.6S12.8,1.5,8.8,1.5L8.8,1.5z"/>
</g>
<g>
</g>
<g>
</g>
<g>
</g>
<g>
</g>
<g>
</g>
<g>
</g>
<g>
</g>
<g>
</g>
<g>
</g>
<g>
</g>
<g>
</g>
<g>
</g>
<g>
</g>
<g>
</g>
<g>
</g>
</svg>
