<?xml version="1.0" encoding="utf-8"?>
<!-- Generator: Adobe Illustrator 18.0.0, SVG Export Plug-In . SVG Version: 6.00 Build 0)  -->
<!DOCTYPE svg PUBLIC "-//W3C//DTD SVG 1.1//EN" "http://www.w3.org/Graphics/SVG/1.1/DTD/svg11.dtd">
<svg version="1.1" id="Layer_1" xmlns="http://www.w3.org/2000/svg" xmlns:xlink="http://www.w3.org/1999/xlink" x="0px" y="0px"
	 viewBox="0 0 125.9 125.9" enable-background="new 0 0 125.9 125.9" xml:space="preserve">
<path fill="#00A69C" d="M119.5,35.2L65.2,98.4c-2,2.4-5,3.8-8.1,4c-3.1,0.2-6.2-0.9-8.4-3.1L22.3,75.2c-2.3-2-3.6-4.9-3.8-7.9
	c-0.2-3,0.9-6,2.9-8.3l2.5-2.8c4.2-4.6,11.3-5.1,16-1l14.3,12.4l47.5-52.7c0.2-0.3,0.5-0.5,0.8-0.8C91.8,5.3,78,0,63,0
	C28.2,0,0,28.2,0,63s28.2,63,63,63s63-28.2,63-63C125.9,53,123.6,43.6,119.5,35.2z"/>
<g>
</g>
<g>
</g>
<g>
</g>
<g>
</g>
<g>
</g>
<g>
</g>
<g>
</g>
<g>
</g>
<g>
</g>
<g>
</g>
<g>
</g>
<g>
</g>
<g>
</g>
<g>
</g>
<g>
</g>
</svg>
