<?xml version="1.0" encoding="utf-8"?>
<!-- Generator: Adobe Illustrator 18.0.0, SVG Export Plug-In . SVG Version: 6.00 Build 0)  -->
<!DOCTYPE svg PUBLIC "-//W3C//DTD SVG 1.1//EN" "http://www.w3.org/Graphics/SVG/1.1/DTD/svg11.dtd">
<svg version="1.1" id="Layer_1" xmlns="http://www.w3.org/2000/svg" xmlns:xlink="http://www.w3.org/1999/xlink" x="0px" y="0px"
	 viewBox="0 0 25.3 27" enable-background="new 0 0 25.3 27" xml:space="preserve">
<g>
	<g>
		<g>
			<path fill="#8EAF48" d="M8.9,20.3c-0.2,0-0.5-0.1-0.6-0.3c-0.3-0.3-0.3-0.6-0.2-1c0.7-1.6,0.5-3.4-0.5-4.8
				c-0.3,0-0.5-0.1-0.7-0.1c-0.4-0.1-0.6-0.3-0.7-0.7c0-0.2-0.1-0.5-0.1-0.7c-1.4-0.9-3.3-1.1-4.8-0.5c-0.3,0.1-0.7,0.1-1-0.2
				c-0.3-0.3-0.3-0.6-0.2-1c0.3-0.8,0.8-1.5,1.5-2.2C3,7.4,5,6.7,7,6.9c0.6-1.3,1.4-2.4,2.4-3.4c2.2-2.2,5.1-3.5,8-3.5
				c0.6,0,1.3,0.1,1.9,0.2c0.4,0.1,0.6,0.3,0.7,0.7c0.7,3.4-0.6,7.2-3.3,9.9c-1,1-2.2,1.8-3.4,2.4c0.2,2-0.5,4.1-2,5.5
				c-0.6,0.6-1.3,1.1-2.2,1.5C9.1,20.2,9,20.3,8.9,20.3L8.9,20.3z M7.8,12.4c0.1,0,0.2,0,0.3,0c0.3,0,0.5,0.1,0.6,0.4
				c1,1.3,1.5,3,1.4,4.6c1.1-1.2,1.6-2.9,1.3-4.5c-0.1-0.4,0.1-0.9,0.6-1c1.3-0.5,2.5-1.3,3.5-2.3c2.1-2.1,3.2-5,2.9-7.7
				c-2.7-0.3-5.6,0.8-7.7,2.9c-1,1-1.8,2.2-2.3,3.5c-0.2,0.4-0.6,0.6-1,0.6C5.8,8.4,4.1,8.9,2.9,10c1.6-0.1,3.3,0.4,4.6,1.4
				c0.2,0.2,0.3,0.4,0.4,0.6C7.8,12.2,7.8,12.3,7.8,12.4L7.8,12.4z"/>
		</g>
		<g>
			<path fill="#8EAF48" d="M14.5,8c-0.6,0-1.2-0.2-1.6-0.7c-0.9-0.9-0.9-2.3,0-3.2c0.8-0.8,2.3-0.8,3.2,0c0.4,0.4,0.7,1,0.7,1.6
				s-0.2,1.2-0.7,1.6C15.7,7.7,15.1,8,14.5,8L14.5,8z M14.5,4.4c-0.4,0-0.7,0.1-0.9,0.4c-0.5,0.5-0.5,1.4,0,1.9
				c0.5,0.5,1.4,0.5,1.9,0c0.3-0.3,0.4-0.6,0.4-0.9c0-0.4-0.1-0.7-0.4-0.9C15.2,4.5,14.9,4.4,14.5,4.4L14.5,4.4z"/>
		</g>
		<g>
			<path fill="#8EAF48" d="M4.4,17.2c-0.3,0-0.6,0-0.9-0.1c-0.2,0-0.3-0.2-0.4-0.4c-0.3-1.8,0.4-3.8,1.8-5.2c0.2-0.2,0.5-0.2,0.6,0
				c0.2,0.2,0.2,0.5,0,0.6c-1.1,1.1-1.7,2.6-1.6,4.1c1.5,0.1,3-0.4,4.1-1.6c0.2-0.2,0.5-0.2,0.6,0c0.2,0.2,0.2,0.5,0,0.6
				C7.5,16.5,6,17.2,4.4,17.2L4.4,17.2z"/>
		</g>
	</g>
</g>
<g>
	<g>
		<g>
			<path fill="#8EAF48" d="M18.7,27c-0.2,0-0.4-0.1-0.6-0.2l-5.6-4.1c-0.5-0.3-0.6-1-0.2-1.5c0.3-0.5,1-0.6,1.5-0.2l5,3.6l5-3.6
				c0.5-0.3,1.1-0.2,1.4,0.2c0.3,0.5,0.2,1.1-0.2,1.5l-5.6,4.1C19.1,26.9,18.9,27,18.7,27L18.7,27z"/>
		</g>
		<g>
			<path fill="#8EAF48" d="M18.7,27c-0.6,0-1-0.5-1-1V14.8c0-0.6,0.5-1,1-1c0.6,0,1,0.5,1,1v11.2C19.7,26.5,19.3,27,18.7,27L18.7,27
				z"/>
		</g>
	</g>
</g>
<g>
</g>
<g>
</g>
<g>
</g>
<g>
</g>
<g>
</g>
<g>
</g>
<g>
</g>
<g>
</g>
<g>
</g>
<g>
</g>
<g>
</g>
<g>
</g>
<g>
</g>
<g>
</g>
<g>
</g>
</svg>
