<?xml version="1.0" encoding="utf-8"?>
<!-- Generator: Adobe Illustrator 18.0.0, SVG Export Plug-In . SVG Version: 6.00 Build 0)  -->
<!DOCTYPE svg PUBLIC "-//W3C//DTD SVG 1.1//EN" "http://www.w3.org/Graphics/SVG/1.1/DTD/svg11.dtd">
<svg version="1.1" id="Layer_1" xmlns="http://www.w3.org/2000/svg" xmlns:xlink="http://www.w3.org/1999/xlink" x="0px" y="0px"
	 viewBox="0 0 27.6 27" enable-background="new 0 0 27.6 27" xml:space="preserve">
<g>
	<g>
		<g>
			<g>
				<path fill="#00A69C" d="M11.1,19.9c-0.2,0-0.4-0.2-0.4-0.4v-4.2c0-0.2,0.2-0.4,0.4-0.4h4.2c0.2,0,0.4,0.2,0.4,0.4
					c0,0.2-0.2,0.4-0.4,0.4h-3.8v3.8C11.5,19.7,11.4,19.9,11.1,19.9L11.1,19.9z"/>
			</g>
			<g>
				<path fill="#00A69C" d="M11.1,20.3H3.8c-0.4,0-0.8-0.4-0.8-0.8V5c0-0.4,0.4-0.8,0.8-0.8h11.5c0.4,0,0.8,0.4,0.8,0.8v10.3
					c0,0.2-0.1,0.4-0.2,0.6L11.7,20C11.5,20.2,11.3,20.3,11.1,20.3L11.1,20.3z M4.6,18.6h6.2l3.8-3.8V5.8H4.6V18.6L4.6,18.6z"/>
			</g>
			<g>
				<path fill="#00A69C" d="M10.4,8H6.2C6,8,5.8,7.9,5.8,7.6c0-0.2,0.2-0.4,0.4-0.4h4.1c0.2,0,0.4,0.2,0.4,0.4
					C10.8,7.9,10.6,8,10.4,8L10.4,8z"/>
			</g>
			<g>
				<path fill="#00A69C" d="M13.1,10.2H6.2C6,10.2,5.8,10,5.8,9.8S6,9.4,6.2,9.4h6.9c0.2,0,0.4,0.2,0.4,0.4S13.3,10.2,13.1,10.2
					L13.1,10.2z"/>
			</g>
			<g>
				<path fill="#00A69C" d="M13.1,12.3H6.2c-0.2,0-0.4-0.2-0.4-0.4c0-0.2,0.2-0.4,0.4-0.4h6.9c0.2,0,0.4,0.2,0.4,0.4
					C13.5,12.1,13.3,12.3,13.1,12.3L13.1,12.3z"/>
			</g>
			<g>
				<path fill="#00A69C" d="M9.1,14.5H6.2c-0.2,0-0.4-0.2-0.4-0.4s0.2-0.4,0.4-0.4h2.9c0.2,0,0.4,0.2,0.4,0.4S9.3,14.5,9.1,14.5
					L9.1,14.5z"/>
			</g>
		</g>
		<g>
			<path fill="#00A69C" d="M3.6,17.3H0.8C0.4,17.3,0,17,0,16.5v-15c0-0.4,0.4-0.8,0.8-0.8h11.7c0.4,0,0.8,0.4,0.8,0.8v3.1
				c0,0.4-0.4,0.8-0.8,0.8c-0.4,0-0.8-0.4-0.8-0.8V2.3h-10v13.4h2c0.4,0,0.8,0.4,0.8,0.8C4.4,17,4.1,17.3,3.6,17.3L3.6,17.3z"/>
		</g>
		<g>
			<path fill="#00A69C" d="M9,3.2H4.3c-0.9,0-1.6-0.7-1.6-1.6S3.4,0,4.3,0H9c0.9,0,1.6,0.7,1.6,1.6S9.9,3.2,9,3.2L9,3.2z"/>
		</g>
	</g>
</g>
<g>
	<g>
		<g>
			<path fill="#00A69C" d="M21,27c-0.2,0-0.4-0.1-0.6-0.2l-5.6-4.1c-0.5-0.3-0.6-1-0.2-1.5c0.3-0.5,1-0.6,1.5-0.2l5,3.6l5-3.6
				c0.5-0.3,1.1-0.2,1.4,0.2c0.3,0.5,0.2,1.1-0.2,1.5l-5.6,4.1C21.4,26.9,21.2,27,21,27L21,27z"/>
		</g>
		<g>
			<path fill="#00A69C" d="M21,27c-0.6,0-1-0.5-1-1V14.8c0-0.6,0.5-1,1-1c0.6,0,1,0.5,1,1v11.2C22,26.5,21.5,27,21,27L21,27z"/>
		</g>
	</g>
</g>
<g>
</g>
<g>
</g>
<g>
</g>
<g>
</g>
<g>
</g>
<g>
</g>
<g>
</g>
<g>
</g>
<g>
</g>
<g>
</g>
<g>
</g>
<g>
</g>
<g>
</g>
<g>
</g>
<g>
</g>
</svg>
