<?xml version="1.0" encoding="utf-8"?>
<!-- Generator: Adobe Illustrator 18.0.0, SVG Export Plug-In . SVG Version: 6.00 Build 0)  -->
<!DOCTYPE svg PUBLIC "-//W3C//DTD SVG 1.1//EN" "http://www.w3.org/Graphics/SVG/1.1/DTD/svg11.dtd">
<svg version="1.1" id="Layer_1" xmlns="http://www.w3.org/2000/svg" xmlns:xlink="http://www.w3.org/1999/xlink" x="0px" y="0px"
	 viewBox="0 0 32 27" enable-background="new 0 0 32 27" xml:space="preserve">
<g>
	<g>
		<path fill="#26A9E0" d="M15.8,20.3H3.5c-1.9,0-3.5-1.6-3.5-3.5v-1c0-1.9,1.6-3.5,3.5-3.5h12.3c0.5,0,0.9,0.4,0.9,0.9
			c0,0.5-0.4,0.9-0.9,0.9H3.5c-1,0-1.7,0.8-1.7,1.7v1c0,1,0.8,1.7,1.7,1.7h12.3c0.5,0,0.9,0.4,0.9,0.9
			C16.6,19.9,16.3,20.3,15.8,20.3L15.8,20.3z"/>
	</g>
	<g>
		<path fill="#26A9E0" d="M1.2,15.4c-0.2,0-0.4-0.1-0.5-0.2c-0.4-0.3-0.4-0.8-0.1-1.2l1.4-1.7c0.3-0.4,0.8-0.4,1.2-0.1
			c0.4,0.3,0.4,0.8,0.1,1.2l-1.4,1.7C1.7,15.3,1.4,15.4,1.2,15.4L1.2,15.4z"/>
	</g>
	<g>
		<path fill="#26A9E0" d="M16,20.3c-0.2,0-0.4-0.1-0.5-0.2c-0.4-0.3-0.4-0.8-0.1-1.2l4.6-5.7c0.3-0.4,0.8-0.4,1.2-0.1
			c0.4,0.3,0.4,0.8,0.1,1.2l-4.6,5.7C16.5,20.2,16.2,20.3,16,20.3L16,20.3z"/>
	</g>
	<g>
		<path fill="#26A9E0" d="M15.8,14c-0.2,0-0.4-0.1-0.6-0.2c-0.4-0.3-0.4-0.9-0.1-1.2L20,6.8c0.3-0.4,0.9-0.4,1.2-0.1
			c0.4,0.3,0.4,0.9,0.1,1.2l-4.8,5.8C16.3,13.9,16,14,15.8,14L15.8,14z"/>
	</g>
	<g>
		<path fill="#26A9E0" d="M15.2,15.9H3.3c-0.2,0-0.4-0.2-0.4-0.4c0-0.2,0.2-0.4,0.4-0.4h11.8c0.2,0,0.4,0.2,0.4,0.4
			C15.6,15.7,15.4,15.9,15.2,15.9L15.2,15.9z"/>
	</g>
	<g>
		<path fill="#26A9E0" d="M15.2,17.5H3.3c-0.2,0-0.4-0.2-0.4-0.4c0-0.2,0.2-0.4,0.4-0.4h11.8c0.2,0,0.4,0.2,0.4,0.4
			C15.6,17.3,15.4,17.5,15.2,17.5L15.2,17.5z"/>
	</g>
	<g>
		<path fill="#26A9E0" d="M15.8,13.7H3.5c-1.9,0-3.5-1.6-3.5-3.5v-1c0-1.9,1.6-3.5,3.5-3.5h12.3c0.5,0,0.9,0.4,0.9,0.9
			c0,0.5-0.4,0.9-0.9,0.9H3.5c-1,0-1.7,0.8-1.7,1.7v1c0,1,0.8,1.7,1.7,1.7h12.3c0.5,0,0.9,0.4,0.9,0.9
			C16.6,13.4,16.3,13.7,15.8,13.7L15.8,13.7z"/>
	</g>
	<g>
		<path fill="#26A9E0" d="M5.8,3.2C5.6,3.2,5.4,3.1,5.2,3C4.8,2.7,4.8,2.2,5.1,1.8C5.7,1,6.5-0.1,8.1,0l12.5,0
			c0.5,0,0.9,0.4,0.9,0.9s-0.4,0.9-0.9,0.9H8.1c-0.7,0-1,0.2-1.6,1.1C6.3,3.1,6,3.2,5.8,3.2L5.8,3.2z"/>
	</g>
	<g>
		<path fill="#26A9E0" d="M1.2,8.9C1,8.9,0.8,8.8,0.6,8.7C0.3,8.4,0.2,7.8,0.5,7.5l4.6-5.7C5.4,1.3,6,1.3,6.3,1.6
			c0.4,0.3,0.4,0.8,0.1,1.2L1.9,8.5C1.7,8.8,1.4,8.9,1.2,8.9L1.2,8.9z"/>
	</g>
	<g>
		<path fill="#26A9E0" d="M16,13.8c-0.2,0-0.4-0.1-0.5-0.2c-0.4-0.3-0.4-0.8-0.1-1.2l4.6-5.7c0.3-0.4,0.8-0.4,1.2-0.1
			c0.4,0.3,0.4,0.8,0.1,1.2l-4.6,5.7C16.5,13.6,16.2,13.8,16,13.8L16,13.8z"/>
	</g>
	<g>
		<path fill="#26A9E0" d="M15.8,7.5c-0.2,0-0.4-0.1-0.6-0.2c-0.4-0.3-0.4-0.9-0.1-1.2L20,0.3c0.3-0.4,0.9-0.4,1.2-0.1
			c0.4,0.3,0.4,0.9,0.1,1.2l-4.8,5.8C16.3,7.4,16,7.5,15.8,7.5L15.8,7.5z"/>
	</g>
	<g>
		<path fill="#26A9E0" d="M15.2,9.4H3.3c-0.2,0-0.4-0.2-0.4-0.4c0-0.2,0.2-0.4,0.4-0.4h11.8c0.2,0,0.4,0.2,0.4,0.4
			C15.6,9.2,15.4,9.4,15.2,9.4L15.2,9.4z"/>
	</g>
	<g>
		<path fill="#26A9E0" d="M15.2,11H3.3c-0.2,0-0.4-0.2-0.4-0.4c0-0.2,0.2-0.4,0.4-0.4h11.8c0.2,0,0.4,0.2,0.4,0.4
			C15.6,10.8,15.4,11,15.2,11L15.2,11z"/>
	</g>
</g>
<g>
	<g>
		<path fill="#26A9E0" d="M25.4,27c-0.2,0-0.4-0.1-0.6-0.2l-5.6-4.1c-0.5-0.3-0.6-1-0.2-1.5c0.3-0.5,1-0.6,1.5-0.2l5,3.6l5-3.6
			c0.5-0.3,1.1-0.2,1.5,0.2c0.3,0.5,0.2,1.1-0.2,1.5L26,26.8C25.8,26.9,25.6,27,25.4,27L25.4,27z"/>
	</g>
	<g>
		<path fill="#26A9E0" d="M25.4,27c-0.6,0-1-0.5-1-1V14.8c0-0.6,0.5-1,1-1c0.6,0,1,0.5,1,1v11.2C26.4,26.5,25.9,27,25.4,27L25.4,27z
			"/>
	</g>
</g>
<g>
</g>
<g>
</g>
<g>
</g>
<g>
</g>
<g>
</g>
<g>
</g>
<g>
</g>
<g>
</g>
<g>
</g>
<g>
</g>
<g>
</g>
<g>
</g>
<g>
</g>
<g>
</g>
<g>
</g>
</svg>
