<?xml version="1.0" encoding="utf-8"?>
<!-- Generator: Adobe Illustrator 18.0.0, SVG Export Plug-In . SVG Version: 6.00 Build 0)  -->
<!DOCTYPE svg PUBLIC "-//W3C//DTD SVG 1.1//EN" "http://www.w3.org/Graphics/SVG/1.1/DTD/svg11.dtd">
<svg version="1.1" id="Layer_1" xmlns="http://www.w3.org/2000/svg" xmlns:xlink="http://www.w3.org/1999/xlink" x="0px" y="0px"
	 viewBox="0 0 30.1 27" enable-background="new 0 0 30.1 27" xml:space="preserve">
<g>
	<g>
		<g>
			<path fill="#E36B6C" d="M23.5,27c-0.2,0-0.4-0.1-0.6-0.2l-5.6-4.1c-0.5-0.3-0.6-1-0.2-1.5c0.3-0.5,1-0.6,1.5-0.2l5,3.6l5-3.6
				c0.5-0.3,1.1-0.2,1.5,0.2c0.3,0.5,0.2,1.1-0.2,1.5l-5.6,4.1C23.9,26.9,23.7,27,23.5,27L23.5,27z"/>
		</g>
		<g>
			<path fill="#E36B6C" d="M23.5,27c-0.6,0-1-0.5-1-1V14.8c0-0.6,0.5-1,1-1c0.6,0,1,0.5,1,1v11.2C24.5,26.5,24.1,27,23.5,27L23.5,27
				z"/>
		</g>
	</g>
</g>
<g>
	<g>
		<g>
			<path fill="#E36B6C" d="M17.6,20.3h-16c-0.9,0-1.6-0.7-1.6-1.6V9.5c0-0.9,0.7-1.6,1.6-1.6h16c0.9,0,1.6,0.7,1.6,1.6v9.1
				C19.3,19.5,18.5,20.3,17.6,20.3L17.6,20.3z M17.6,9.5l-15.9,0l0,9.1l15.9,0V9.5L17.6,9.5z"/>
		</g>
		<g>
			<path fill="#E36B6C" d="M17.5,8.8c-0.1,0-0.2,0-0.2,0L1.5,6.5C1,6.4,0.6,6.2,0.4,5.9C0.1,5.5,0,5.1,0.1,4.6l0.5-3.2
				c0.1-0.9,1-1.5,1.9-1.4l15.8,2.3C18.6,2.4,19,2.6,19.3,3c0.3,0.4,0.4,0.8,0.3,1.2l-0.5,3.2C19,8.2,18.3,8.8,17.5,8.8L17.5,8.8z
				 M2.2,1.7L1.7,4.9l15.7,2.3l0.5-3.2L2.2,1.7L2.2,1.7z"/>
		</g>
		<g>
			<path fill="#E36B6C" d="M18.2,13.3H0.8c-0.2,0-0.4-0.2-0.4-0.4s0.2-0.4,0.4-0.4h17.4c0.2,0,0.4,0.2,0.4,0.4S18.5,13.3,18.2,13.3
				L18.2,13.3z"/>
		</g>
		<g>
			<path fill="#E36B6C" d="M2.5,13c-0.1,0-0.2,0-0.2-0.1c-0.2-0.1-0.3-0.4-0.1-0.6l2.2-3.5C4.5,8.6,4.8,8.6,5,8.7
				c0.2,0.1,0.3,0.4,0.1,0.6l-2.2,3.5C2.8,12.9,2.7,13,2.5,13L2.5,13z"/>
		</g>
		<g>
			<path fill="#E36B6C" d="M6.4,13c-0.1,0-0.2,0-0.2-0.1c-0.2-0.1-0.3-0.4-0.1-0.6l2.2-3.5c0.1-0.2,0.4-0.3,0.6-0.1
				C9,8.8,9,9.1,8.9,9.3l-2.2,3.5C6.6,12.9,6.5,13,6.4,13L6.4,13z"/>
		</g>
		<g>
			<path fill="#E36B6C" d="M10.2,13c-0.1,0-0.2,0-0.2-0.1c-0.2-0.1-0.3-0.4-0.1-0.6L12,8.8c0.1-0.2,0.4-0.3,0.6-0.1
				c0.2,0.1,0.3,0.4,0.1,0.6l-2.2,3.5C10.5,12.9,10.3,13,10.2,13L10.2,13z"/>
		</g>
		<g>
			<path fill="#E36B6C" d="M14,13c-0.1,0-0.2,0-0.2-0.1c-0.2-0.1-0.3-0.4-0.1-0.6l2.2-3.5c0.1-0.2,0.4-0.3,0.6-0.1
				c0.2,0.1,0.3,0.4,0.1,0.6l-2.2,3.5C14.3,12.9,14.2,13,14,13L14,13z"/>
		</g>
		<g>
			<path fill="#E36B6C" d="M4.8,5.7c-0.2,0-0.3-0.1-0.4-0.3L2.7,1.7c-0.1-0.2,0-0.5,0.2-0.6c0.2-0.1,0.5,0,0.6,0.2l1.7,3.8
				c0.1,0.2,0,0.5-0.2,0.6C4.9,5.7,4.8,5.7,4.8,5.7L4.8,5.7z"/>
		</g>
		<g>
			<path fill="#E36B6C" d="M8.5,6.3C8.4,6.3,8.2,6.2,8.2,6L6.5,2.3c-0.1-0.2,0-0.5,0.2-0.6c0.2-0.1,0.5,0,0.6,0.2l1.7,3.8
				c0.1,0.2,0,0.5-0.2,0.6C8.7,6.3,8.6,6.3,8.5,6.3L8.5,6.3z"/>
		</g>
		<g>
			<path fill="#E36B6C" d="M12.3,6.8c-0.2,0-0.3-0.1-0.4-0.2l-1.7-3.8c-0.1-0.2,0-0.5,0.2-0.6c0.2-0.1,0.5,0,0.6,0.2l1.7,3.8
				c0.1,0.2,0,0.5-0.2,0.6C12.4,6.8,12.4,6.8,12.3,6.8L12.3,6.8z"/>
		</g>
		<g>
			<path fill="#E36B6C" d="M16.1,7.4c-0.2,0-0.3-0.1-0.4-0.3l-1.7-3.8c-0.1-0.2,0-0.5,0.2-0.6c0.2-0.1,0.5,0,0.6,0.2l1.7,3.8
				c0.1,0.2,0,0.5-0.2,0.6C16.2,7.4,16.2,7.4,16.1,7.4L16.1,7.4z"/>
		</g>
	</g>
</g>
<g>
</g>
<g>
</g>
<g>
</g>
<g>
</g>
<g>
</g>
<g>
</g>
<g>
</g>
<g>
</g>
<g>
</g>
<g>
</g>
<g>
</g>
<g>
</g>
<g>
</g>
<g>
</g>
<g>
</g>
</svg>
