<?xml version="1.0" encoding="utf-8"?>
<!-- Generator: Adobe Illustrator 18.0.0, SVG Export Plug-In . SVG Version: 6.00 Build 0)  -->
<!DOCTYPE svg PUBLIC "-//W3C//DTD SVG 1.1//EN" "http://www.w3.org/Graphics/SVG/1.1/DTD/svg11.dtd">
<svg version="1.1" id="Layer_1" xmlns="http://www.w3.org/2000/svg" xmlns:xlink="http://www.w3.org/1999/xlink" x="0px" y="0px"
	 viewBox="0 0 31.8 31.8" enable-background="new 0 0 31.8 31.8" xml:space="preserve">
<g>
	<rect x="0" y="0" opacity="0.7" fill="#404041" width="31.8" height="31.8"/>
	<g>
		<g>
			<path fill="#F2EEE8" d="M13.1,25.8C13.1,25.8,13.1,25.8,13.1,25.8c-2-0.2-4-0.2-6.1-0.2c-0.5,0-0.8-0.4-0.8-0.8
				c0-2.1,0-4.1-0.2-6c0-0.2,0.1-0.5,0.2-0.7L18.1,6.3C18.3,6,18.7,6,18.9,6.1c1.6,0.5,3,1.4,4.2,2.6c1.2,1.2,2.1,2.6,2.6,4.2
				c0.1,0.3,0,0.6-0.2,0.8L13.7,25.6C13.6,25.7,13.3,25.8,13.1,25.8L13.1,25.8z M7.9,23.9c1.7,0,3.4,0.1,4.9,0.2L24,12.9
				c-0.4-1.2-1.1-2.2-2-3.1c-0.9-0.9-1.9-1.6-3.1-2L7.7,19C7.8,20.6,7.9,22.2,7.9,23.9L7.9,23.9z"/>
		</g>
		<g>
			<path fill="#F2EEE8" d="M23,14.9c-0.1,0-0.2,0-0.3-0.1l-5.6-5.6c-0.2-0.2-0.2-0.4,0-0.6c0.2-0.2,0.4-0.2,0.6,0l5.6,5.6
				c0.2,0.2,0.2,0.4,0,0.6C23.2,14.9,23.1,14.9,23,14.9L23,14.9z"/>
		</g>
		<g>
			<path fill="#F2EEE8" d="M13.2,24.7c-0.2,0-0.3-0.1-0.4-0.3C12,21.9,9.9,19.9,7.4,19c-0.2-0.1-0.3-0.3-0.3-0.5
				c0.1-0.2,0.3-0.3,0.5-0.3c2.8,0.9,5,3.1,5.9,5.9c0.1,0.2,0,0.4-0.3,0.5C13.3,24.7,13.2,24.7,13.2,24.7L13.2,24.7z"/>
		</g>
		<g>
			<path fill="#F2EEE8" d="M9.9,25.3C9.9,25.3,9.9,25.3,9.9,25.3L7,25.2c-0.2,0-0.4-0.2-0.4-0.4l-0.1-2.9c0-0.2,0.2-0.4,0.4-0.4
				c0.1,0,0.2,0,0.3,0c1.7,0,3.2,1.4,3.2,3.2c0,0.1,0,0.2,0,0.3C10.3,25.1,10.1,25.3,9.9,25.3L9.9,25.3z M7.5,24.4l2,0.1
				c0-1.2-1-2.1-2.1-2.2L7.5,24.4L7.5,24.4z"/>
		</g>
	</g>
</g>
<g>
</g>
<g>
</g>
<g>
</g>
<g>
</g>
<g>
</g>
<g>
</g>
<g>
</g>
<g>
</g>
<g>
</g>
<g>
</g>
<g>
</g>
<g>
</g>
<g>
</g>
<g>
</g>
<g>
</g>
</svg>
