<?xml version="1.0" encoding="utf-8"?>
<!-- Generator: Adobe Illustrator 18.0.0, SVG Export Plug-In . SVG Version: 6.00 Build 0)  -->
<!DOCTYPE svg PUBLIC "-//W3C//DTD SVG 1.1//EN" "http://www.w3.org/Graphics/SVG/1.1/DTD/svg11.dtd">
<svg version="1.1" id="Layer_1" xmlns="http://www.w3.org/2000/svg" xmlns:xlink="http://www.w3.org/1999/xlink" x="0px" y="0px"
	 viewBox="0 0 12.9 12.9" enable-background="new 0 0 12.9 12.9" xml:space="preserve">
<g id="expand-arrow-down.svg">
	<g>
		<g>
			<path fill="#26A7DF" d="M6.4,12.9c-1.7,0-3.3-0.7-4.6-1.9c-2.5-2.5-2.5-6.6,0-9.1C3.1,0.7,4.7,0,6.4,0C8.2,0,9.8,0.7,11,1.9
				c2.5,2.5,2.5,6.6,0,9.1C9.8,12.2,8.2,12.9,6.4,12.9L6.4,12.9z M6.4,1.1C5,1.1,3.7,1.7,2.7,2.7c-2.1,2.1-2.1,5.5,0,7.6
				c1,1,2.4,1.6,3.8,1.6s2.8-0.6,3.8-1.6c2.1-2.1,2.1-5.5,0-7.6C9.2,1.7,7.9,1.1,6.4,1.1L6.4,1.1z"/>
		</g>
		<g>
			<path fill="#26A7DF" d="M6.4,8.3c-0.1,0-0.3-0.1-0.4-0.2L3.4,5.5c-0.2-0.2-0.2-0.6,0-0.8c0.2-0.2,0.6-0.2,0.8,0L6.4,7l2.3-2.3
				c0.2-0.2,0.6-0.2,0.8,0c0.2,0.2,0.2,0.6,0,0.8L6.8,8.2C6.7,8.3,6.6,8.3,6.4,8.3L6.4,8.3z"/>
		</g>
	</g>
</g>
<g>
</g>
<g>
</g>
<g>
</g>
<g>
</g>
<g>
</g>
<g>
</g>
<g>
</g>
<g>
</g>
<g>
</g>
<g>
</g>
<g>
</g>
<g>
</g>
<g>
</g>
<g>
</g>
<g>
</g>
</svg>
