<?xml version="1.0" encoding="utf-8"?>
<!-- Generator: Adobe Illustrator 18.0.0, SVG Export Plug-In . SVG Version: 6.00 Build 0)  -->
<!DOCTYPE svg PUBLIC "-//W3C//DTD SVG 1.1//EN" "http://www.w3.org/Graphics/SVG/1.1/DTD/svg11.dtd">
<svg version="1.1" id="Layer_1" xmlns="http://www.w3.org/2000/svg" xmlns:xlink="http://www.w3.org/1999/xlink" x="0px" y="0px"
	 viewBox="0 0 20.2 20.2" enable-background="new 0 0 20.2 20.2" xml:space="preserve">
<g>
	<g>
		<path fill="#ECBD45" d="M19.4,20.2H0.9c-0.5,0-0.9-0.4-0.9-0.9V0.9C0,0.4,0.4,0,0.9,0h9.2c0.5,0,0.8,0.4,0.8,0.9
			c0,0.5-0.4,0.8-0.8,0.8H1.7v16.8h16.8v-8.4c0-0.5,0.4-0.9,0.8-0.9c0.5,0,0.9,0.4,0.9,0.9v9.2C20.2,19.9,19.9,20.2,19.4,20.2
			L19.4,20.2z"/>
	</g>
	<g>
		<g>
			<path fill="#ECBD45" d="M19.4,6.7c-0.5,0-0.8-0.4-0.8-0.9l0-4.2h-4.2c-0.5,0-0.8-0.4-0.8-0.8c0-0.5,0.4-0.8,0.8-0.8l0,0h5
				c0.5,0,0.9,0.4,0.9,0.8l0,5C20.2,6.4,19.9,6.7,19.4,6.7L19.4,6.7L19.4,6.7z"/>
		</g>
		<g>
			<path fill="#ECBD45" d="M11.4,9.7c-0.2,0-0.4-0.1-0.6-0.2c-0.3-0.3-0.3-0.9,0-1.2l7.3-7.3c0.3-0.3,0.9-0.3,1.2,0
				c0.3,0.3,0.3,0.9,0,1.2L12,9.4C11.9,9.6,11.6,9.7,11.4,9.7L11.4,9.7z"/>
		</g>
	</g>
</g>
<g>
</g>
<g>
</g>
<g>
</g>
<g>
</g>
<g>
</g>
<g>
</g>
<g>
</g>
<g>
</g>
<g>
</g>
<g>
</g>
<g>
</g>
<g>
</g>
<g>
</g>
<g>
</g>
<g>
</g>
</svg>
