<?xml version="1.0" encoding="utf-8"?>
<!-- Generator: Adobe Illustrator 18.0.0, SVG Export Plug-In . SVG Version: 6.00 Build 0)  -->
<!DOCTYPE svg PUBLIC "-//W3C//DTD SVG 1.1//EN" "http://www.w3.org/Graphics/SVG/1.1/DTD/svg11.dtd">
<svg version="1.1" id="Layer_1" xmlns="http://www.w3.org/2000/svg" xmlns:xlink="http://www.w3.org/1999/xlink" x="0px" y="0px"
	 viewBox="0 0 165 70" enable-background="new 0 0 165 70" xml:space="preserve">
<g>
	<rect x="0" y="0" fill="#1B75BB" width="165" height="70"/>
	<rect x="0" y="17.1" fill="#FFFFFF" width="165" height="35.7"/>
</g>
<g>
	<polygon fill="#1B75BB" points="63.8,21.8 65.1,25.1 67.9,25.6 65.9,28.1 66.3,31.6 63.8,30 61.2,31.6 61.7,28.1 59.6,25.6 
		62.5,25.1 	"/>
	<polygon fill="#1B75BB" points="85,28.9 86.3,32.2 89.2,32.7 87.1,35.2 87.6,38.7 85,37.1 82.4,38.7 82.9,35.2 80.8,32.7 
		83.7,32.2 	"/>
	<polygon fill="#1B75BB" points="63.8,36.9 65.1,40.1 67.9,40.7 65.9,43.2 66.3,46.7 63.8,45 61.2,46.7 61.7,43.2 59.6,40.7 
		62.5,40.1 	"/>
	<polygon fill="#1B75BB" points="105.8,21.8 107.1,25.1 110,25.6 107.9,28.1 108.4,31.6 105.8,30 103.2,31.6 103.7,28.1 101.6,25.6 
		104.5,25.1 	"/>
	<polygon fill="#1B75BB" points="105.8,36.9 107.1,40.1 110,40.7 107.9,43.2 108.4,46.7 105.8,45 103.2,46.7 103.7,43.2 101.6,40.7 
		104.5,40.1 	"/>
</g>
<g>
</g>
<g>
</g>
<g>
</g>
<g>
</g>
<g>
</g>
<g>
</g>
<g>
</g>
<g>
</g>
<g>
</g>
<g>
</g>
<g>
</g>
<g>
</g>
<g>
</g>
<g>
</g>
<g>
</g>
</svg>
