<?xml version="1.0" encoding="utf-8"?>
<!-- Generator: Adobe Illustrator 18.0.0, SVG Export Plug-In . SVG Version: 6.00 Build 0)  -->
<!DOCTYPE svg PUBLIC "-//W3C//DTD SVG 1.1//EN" "http://www.w3.org/Graphics/SVG/1.1/DTD/svg11.dtd">
<svg version="1.1" id="Layer_1" xmlns="http://www.w3.org/2000/svg" xmlns:xlink="http://www.w3.org/1999/xlink" x="0px" y="0px"
	 viewBox="0 0 55.5 55.5" enable-background="new 0 0 55.5 55.5" xml:space="preserve">
<g>
	<g>
		<g>
			<g>
				<path fill="#26A9E0" d="M28,28.8c-0.2,0-0.5-0.1-0.7-0.2l-6.1-4.4c-0.5-0.4-0.6-1.1-0.2-1.6c0.4-0.5,1.1-0.6,1.6-0.2l5.4,3.9
					l5.4-3.9c0.5-0.4,1.2-0.3,1.6,0.2c0.4,0.5,0.3,1.2-0.2,1.6l-6.1,4.4C28.4,28.7,28.2,28.8,28,28.8L28,28.8z"/>
			</g>
			<g>
				<path fill="#26A9E0" d="M28,28.8c-0.6,0-1.1-0.5-1.1-1.1V15.5c0-0.6,0.5-1.1,1.1-1.1c0.6,0,1.1,0.5,1.1,1.1v12.1
					C29.1,28.3,28.6,28.8,28,28.8L28,28.8z"/>
			</g>
		</g>
		<g>
			<path fill="#26A9E0" d="M39.8,41H16.1c-0.6,0-1.1-0.5-1.1-1.1v-8c0-0.6,0.5-1.1,1.1-1.1h7.3c0.6,0,1.1,0.5,1.1,1.1v1.6h6.8v-1.6
				c0-0.6,0.5-1.1,1.1-1.1h7.3c0.6,0,1.1,0.5,1.1,1.1v8C41,40.5,40.5,41,39.8,41L39.8,41z M17.2,38.8h21.5V33h-5.1v0.5
				c0,1.2-1,2.3-2.3,2.3h-6.8c-1.2,0-2.3-1-2.3-2.3V33h-5.1V38.8L17.2,38.8z"/>
		</g>
		<g>
			<g>
				<g>
					<path fill="#26A9E0" d="M16.1,33c-0.3,0-0.6-0.1-0.8-0.3c-0.4-0.4-0.5-1.1,0-1.6l4.6-4.7c0.4-0.4,1.2-0.5,1.6,0
						c0.4,0.4,0.5,1.1,0,1.6l-4.6,4.7C16.7,32.9,16.4,33,16.1,33L16.1,33z"/>
				</g>
			</g>
			<g>
				<g>
					<path fill="#26A9E0" d="M39.8,33c-0.3,0-0.6-0.1-0.8-0.3L34.5,28c-0.4-0.4-0.4-1.2,0-1.6c0.4-0.4,1.2-0.4,1.6,0l4.6,4.7
						c0.4,0.4,0.4,1.2,0,1.6C40.4,32.9,40.1,33,39.8,33L39.8,33z"/>
				</g>
			</g>
		</g>
	</g>
</g>
<circle fill="none" stroke="#26A9E0" stroke-width="3.2031" stroke-miterlimit="10" cx="27.7" cy="27.7" r="26.1"/>
<g>
</g>
<g>
</g>
<g>
</g>
<g>
</g>
<g>
</g>
<g>
</g>
<g>
</g>
<g>
</g>
<g>
</g>
<g>
</g>
<g>
</g>
<g>
</g>
<g>
</g>
<g>
</g>
<g>
</g>
</svg>
