<?xml version="1.0" encoding="utf-8"?>
<!-- Generator: Adobe Illustrator 18.0.0, SVG Export Plug-In . SVG Version: 6.00 Build 0)  -->
<!DOCTYPE svg PUBLIC "-//W3C//DTD SVG 1.1//EN" "http://www.w3.org/Graphics/SVG/1.1/DTD/svg11.dtd">
<svg version="1.1" id="Layer_1" xmlns="http://www.w3.org/2000/svg" xmlns:xlink="http://www.w3.org/1999/xlink" x="0px" y="0px"
	 viewBox="0 0 55.5 55.5" enable-background="new 0 0 55.5 55.5" xml:space="preserve">
<g>
	<circle fill="none" stroke="#26A9E0" stroke-width="3.2031" stroke-miterlimit="10" cx="27.7" cy="27.7" r="26.1"/>
	<g>
		<g>
			<path fill="#26A9E0" d="M18.4,41.6c-0.2,0-0.3,0-0.5-0.1c-0.4-0.2-0.6-0.6-0.6-1v-3.1h-1c-1.2,0-2.2-1-2.2-2.2v-9.8
				c0-1.2,1-2.2,2.2-2.2h14.5c1.2,0,2.2,1,2.2,2.2v9.8c0,1.2-1,2.2-2.2,2.2h-6.7l-5,4C18.9,41.5,18.6,41.6,18.4,41.6L18.4,41.6z
				 M16.2,25.4v9.8h2.2c0.6,0,1.1,0.5,1.1,1.1v1.9l3.5-2.8c0.2-0.2,0.4-0.2,0.7-0.2h7.1v-9.8H16.2L16.2,25.4z"/>
		</g>
		<g>
			<path fill="#26A9E0" d="M37.4,33.5c-0.2,0-0.5-0.1-0.7-0.2L31.4,29c-0.5-0.4-0.6-1.1-0.2-1.6c0.4-0.5,1.1-0.6,1.6-0.2l3.5,2.8
				v-1.9c0-0.6,0.5-1.1,1.1-1.1h2.2v-9.8H25.1V24c0,0.6-0.5,1.1-1.1,1.1c-0.6,0-1.1-0.5-1.1-1.1v-6.7c0-1.2,1-2.2,2.2-2.2h14.5
				c1.2,0,2.2,1,2.2,2.2V27c0,1.2-1,2.2-2.2,2.2h-1v3.1c0,0.4-0.2,0.8-0.6,1C37.8,33.4,37.6,33.5,37.4,33.5L37.4,33.5z"/>
		</g>
	</g>
</g>
<g>
</g>
<g>
</g>
<g>
</g>
<g>
</g>
<g>
</g>
<g>
</g>
<g>
</g>
<g>
</g>
<g>
</g>
<g>
</g>
<g>
</g>
<g>
</g>
<g>
</g>
<g>
</g>
<g>
</g>
</svg>
