<?xml version="1.0" encoding="utf-8"?>
<!-- Generator: Adobe Illustrator 18.0.0, SVG Export Plug-In . SVG Version: 6.00 Build 0)  -->
<!DOCTYPE svg PUBLIC "-//W3C//DTD SVG 1.1//EN" "http://www.w3.org/Graphics/SVG/1.1/DTD/svg11.dtd">
<svg version="1.1" id="Layer_1" xmlns="http://www.w3.org/2000/svg" xmlns:xlink="http://www.w3.org/1999/xlink" x="0px" y="0px"
	 viewBox="0 0 146 146" enable-background="new 0 0 146 146" xml:space="preserve">
<g>
	<g>
		<path fill="#F6921E" stroke="#F6921E" stroke-width="0.3483" stroke-miterlimit="10" d="M68.1,70.2c-1.1-3.8-7.1-3.5-10.7-2.7
			c-0.3-0.4-0.7-0.9-1-1.3c2.6-1.6,4.8-3.8,6.3-6.4c1.6,0.8,3.8,0.1,4.2-1.9c0.2-1-0.2-2-1-2.6c-0.4-0.3-0.8-0.5-1.3-0.5
			c0-0.1,0-0.2,0.1-0.3c0.1-0.4,0.1-0.8,0.2-1.2c0.3-0.1,0.4-0.5,0.1-0.7c0.3-6.4-3.2-12.7-9.2-15.2c-3.9-1.7-8.2-1.7-12.3-1.1
			c-2.3,0.3-4.8,0.8-7,1.7c-0.1,0-0.1,0-0.2,0.1c-1.7,0.7-3.3,1.7-4.5,3.1c0,0-0.1,0.1-0.1,0.1c-2.4,1.9-3.2,5-3.4,8
			c-0.2,2.9-0.1,5.9,0.8,8.7c-0.7,0.1-1.3,0.6-1.6,1.3c-0.4,0.9-0.3,1.9,0.3,2.6c0.6,0.7,1.5,1,2.4,0.9c0.4,0,0.9-0.2,1.3-0.5
			c1.1,1.4,2.5,2.5,4,3.5c-1.7,0.9-2.9,2.7-3.7,4.8c-2.5,0.6-4.8,2.2-5.3,4.7c-0.4,1.7,0.7,3.2,2.2,3.8c0.4,0.2,0.8,0.3,1.3,0.4
			c0,0.3-0.1,0.6-0.1,0.9c-0.4,3-0.8,6.7,1,9.4c1.1,1.7,3,2.8,5,2.6c-0.2,1.6-0.5,3.2-0.7,4.8c-0.1,0.6,0.6,0.9,1,0.7
			c0.4,0.2,0.9,0.3,1.4,0.4c-0.2,0.8-0.4,1.6-0.5,2.5c-0.1,0.8-0.3,1.7,0.1,2.4c0.2,0.2,0.5,0.3,0.7,0c0.4-0.6,0.2-1.3,0.2-2
			c0-0.9,0.1-1.8,0.3-2.7c1,0.1,1.9,0.1,2.9,0.2c2.3,0.1,4.5,0.1,6.8,0c0,0.1-0.1,0.2-0.1,0.2c-0.1,1.2,0,2.5,0.1,3.7
			c-1.9,0.1-3.8,0.2-5.7,0.3c-1.6,0.1-3.2,0-4.7,0.7c-0.2,0.1-0.1,0.3,0,0.4c1.5,0.6,3.4,0.3,5,0.2c-0.4,4-0.5,8.6,0.2,12.5
			c-1-0.6-2.3-0.8-3.4-0.6c-1.2,0.2-2.7,0.9-2.8,2.2c-0.2,3.1,5.7,1.5,7-0.2c0.2-0.1,0.4-0.3,0.2-0.6c0,0-0.1-0.1-0.1-0.1
			c0.1-0.1,0.2-0.2,0.3-0.4c0.2-2.2-0.1-4.5-0.2-6.7c-0.1-2.1-0.1-4.1-0.2-6.2c1.7-0.1,3.4-0.2,5.1-0.3c0.6,0,0.8-0.7,0.5-1.1
			c0.1-1.3,0.2-2.6,0.1-3.9c0-0.1,0-0.2-0.1-0.3c0.6,0,1.3,0,1.9,0c0,0,0,0,0,0c-0.2,1.5,0,3.1,0.5,4.5c0.1,0.3,0.3,0.4,0.5,0.4
			c0.1,0.1,0.2,0.2,0.3,0.2c1.3,0,2.7,0,4-0.1c0,2.4,0.2,4.8,0.4,7.2c0.2,2.4,0.2,4.8,0.8,7.2c0,0.2,0.1,0.3,0.2,0.3
			c0,0-0.1,0.1-0.1,0.1c-0.2,0.4,0.4,1,0.7,0.6c0.1-0.1,0.1-0.2,0.2-0.3c1.1,0.5,2.4,0.5,3.5,0.1c1-0.4,2.2-1.3,1.8-2.5
			c-0.5-1.2-2-1.3-3-0.8c-0.8,0.4-1.7,0.9-2.3,1.6c0-2.4-0.4-4.8-0.7-7.1c-0.2-2.1-0.5-4.3-0.8-6.4c1.5-0.1,3.1-0.2,4.6-0.4
			c0.3,0,0.4-0.2,0.5-0.4c0.3,0,0.7-0.3,0.6-0.6c-0.2-0.8-0.5-1.6-0.7-2.4c-0.2-0.7-0.4-1.5-0.8-2.1c0,0,0,0-0.1-0.1
			c0.4-0.1,0.9-0.2,1.3-0.3c0.3-0.1,0.4-0.3,0.3-0.6c0.1,0,0.3-0.1,0.3-0.3c-0.7-2.9-1.7-5.7-2.7-8.5c3.4-0.6,5.7-3.8,4.4-7.3
			c-0.6-1.5-1.3-3-2-4.5C65.8,75.1,68.9,73.1,68.1,70.2z M41.1,118.3c-0.7,0.2-2.7,0.7-3.2-0.1c-0.6-1.1,1.8-1.5,2.4-1.5
			c1,0,1.6,0.4,2.4,0.8C42.2,117.8,41.6,118.1,41.1,118.3z M59.8,117.2c0.5-0.4,1.7-1.4,2.4-1.3c1.8,0.4,0.2,1.5-0.2,1.7
			c-0.3,0.2-0.7,0.3-1,0.4c-0.7,0.2-1.3,0.1-1.9,0C59.3,117.7,59.5,117.4,59.8,117.2z M57.7,75c-0.5,0-0.9,0.1-1.3,0.4
			c-0.1,0-0.1,0.1-0.2,0.2c-0.8-2.7-1.7-5.3-2.4-8c0.3-0.1,0.7-0.3,1-0.4c0,0,0,0,0,0.1C55.4,69.8,56.5,72.4,57.7,75z M57.1,76
			c0.3-0.2,0.6-0.2,0.9-0.2c0.1,0.3,0.3,0.5,0.4,0.8C58,77,57.6,77.3,57,77C56.5,76.7,56.7,76.2,57.1,76z M57.8,78.1
			c0.3-0.1,0.7-0.2,1.1-0.5c0.4,0.7,0.7,1.4,1.1,2.2c-0.7,0.2-1.4,0.4-2.2,0.6c0,0-0.1,0-0.1,0c-0.3-0.8-0.5-1.5-0.8-2.3
			C57.3,78.2,57.6,78.2,57.8,78.1z M56.3,68.4c0.1,0,0.1,0,0.2,0c1.5,2.1,2.9,4.3,4.2,6.5c-0.5,0-1,0.1-1.5,0.1
			C58.3,72.8,57.4,70.6,56.3,68.4z M65.3,56.1c0.6,0.4,0.8,1,0.6,1.7c-0.3,1.4-1.6,1.8-2.8,1.4c0.6-1.1,1-2.2,1.3-3.4
			C64.8,55.8,65,55.9,65.3,56.1z M63.5,53.6c-4.9,1.2-10.6,1.1-15.5,0.2c-2.3-0.4-4.5-1.1-6.5-2.4c-1.8-1.3-4.1-3.5-4.4-5.9
			c0.1-1,0.1-2.1,0.1-3.1c1.3,3,3.9,5.5,6.8,7.1c5.5,3.1,12.8,3.8,19,3.9c0.4,0,0.5-0.6,0.1-0.7c-5.9-1.1-12-0.7-17.5-3.4
			c-4.1-2-7.3-5.3-8.5-9.6c3.5,3,7.6,5.1,11.9,6.8c4.9,2,9.8,3.8,14.5,6.1c0,0,0.1,0,0.1,0.1C63.6,53,63.5,53.3,63.5,53.6z M41,37.8
			c3.5-0.8,7.1-1.1,10.7-0.4c6.4,1.2,11.1,6.2,11.8,12.5c0,0-0.1-0.1-0.1-0.1C59.9,40.5,48.2,38.2,39,38.3
			C39.6,38.1,40.3,37.9,41,37.8z M61.2,47.8c-3-2.1-6.9-3.4-10.1-4.7c-2.8-1.1-5.6-2.1-8.4-2.9c-0.9-0.3-2.2-0.9-3.5-1.3
			c4.9,0.1,9.9,0.5,14.4,2.6C56.7,42.9,59.4,45.1,61.2,47.8z M40.6,40.1c1.2,0.4,2.3,0.8,3.4,1.2c2.3,0.8,4.6,1.7,6.8,2.6
			c2.2,0.9,4.4,1.8,6.5,2.9c2,1,3.6,2.3,5.3,3.6c0.1,0.3,0.2,0.6,0.3,0.9c-8.5-4.5-18.3-6.1-26.1-12.1c0,0,0,0,0-0.1
			C38,38.9,39.7,39.8,40.6,40.1z M30.3,56.9C30.3,56.9,30.3,56.9,30.3,56.9c0.2-1.6,1.2-3.1,1.7-4.5c0.6-1.4,1.2-2.9,1.7-4.4
			c0.9-2.8,1.8-5.6,2.3-8.5C36.1,46.1,35.9,52.7,30.3,56.9z M32.4,49.3c-0.7,1.9-1.7,3.8-2.3,5.7c-0.1,0.1-0.1,0.3-0.1,0.4
			c0.2-5.6,1.9-10.3,5.1-14.8C34.2,43.6,33.4,46.5,32.4,49.3z M32,41.8c0.1,0,0.3,0,0.4-0.1c0.5-0.5,1.1-1,1.7-1.4
			c-2.9,3.5-4.6,8.2-4.8,12.8C29,49.1,29.8,44.9,32,41.8z M30.3,61.6c-0.6,0.1-1.2,0-1.6-0.4c-0.7-0.8-0.2-2.1,0.7-2.7
			c0.3,0.7,0.6,1.4,1,2c0.2,0.3,0.4,0.5,0.5,0.8C30.7,61.4,30.5,61.5,30.3,61.6z M34,62.8c-1.5-1.3-2.6-3.1-3.4-5.1
			c3.5-2.1,5.4-5.8,6.2-9.8c1.4,3,5.4,5.4,7.9,6.2c2.8,1,5.7,1.2,8.6,1.3c-0.7,0.5-1.1,1.3-1.1,2.1c0,0.6,1,0.8,1.1,0.1
			c0.1-0.8,0.9-1.6,1.7-1.4c0.8,0.2,0.9,1.1,1.4,1.7c0.1,0.2,0.4,0.2,0.6,0.1c0.9-0.8,0.2-2-0.7-2.6c2.4,0,4.7-0.1,7-0.7
			c0,0.1,0,0.2-0.1,0.3c-0.1,0.1-0.1,0.2-0.1,0.3c-1.3,4.7-4.8,8.7-9.3,10.6C47.4,68.9,39.2,67.5,34,62.8z M36.8,79.4
			c-0.2,0-0.5-0.1-0.7-0.2c0.1-0.7,0.2-1.5,0.3-2.2c0.1,0,0.2-0.1,0.4-0.1c0.6,0,1.1,0.5,1.1,1.1c0,0,0,0,0,0c0,0.1,0,0.2,0,0.3
			C37.7,79,37.4,79.4,36.8,79.4z M37.6,80.3c-0.1,0.6-0.2,1.2-0.2,1.7c-0.1,0.5-0.2,1.1-0.2,1.6c-0.5-0.1-1.1-0.2-1.6-0.2
			c0.1-1,0.3-2,0.4-3.1c0.2,0.1,0.4,0.1,0.6,0.2C36.9,80.5,37.3,80.4,37.6,80.3z M37.2,76c-0.2,0-0.4,0-0.7,0
			c0.4-3.2,0.6-6.4,0.5-9.5c0.9,0.4,1.8,0.8,2.7,1.2c-0.9,2.8-1.3,5.8-1.7,8.8C37.9,76.2,37.6,76.1,37.2,76z M36.3,66.1
			C36.3,66.1,36.4,66.1,36.3,66.1c0,0.1,0,0.1,0,0.2c-0.2,1.4-0.4,2.8-0.6,4.2c-0.7-0.2-1.5-0.3-2.3-0.3
			C34.1,68.6,35,67.2,36.3,66.1z M31.5,77.5c0.4-2.1,0.8-4.2,1.5-6.2c0.8-0.1,1.7-0.1,2.6,0c0,0,0,0,0,0c-0.2,1.8-0.4,3.5-0.6,5.3
			c-0.2,0.2-0.4,0.5-0.4,0.8c-0.1,0-0.2,0-0.3,0c-1,0.2-2,0.6-3,0.7C31.5,77.9,31.5,77.7,31.5,77.5z M30.1,78.1
			c-0.9-0.2-2.2-0.8-2.4-1.8c-0.2-1,0.4-2,1-2.7c0.8-0.9,1.7-1.5,2.7-1.9C30.7,73.9,30.4,76.2,30.1,78.1
			C30.1,78.1,30.1,78.1,30.1,78.1z M36.1,90.9c-3.3,0.4-5-2.8-5.2-5.8c-0.1-1.9,0.1-3.9,0.4-5.8c1.2-0.1,2.4-0.5,3.4-0.9
			c0,0.2,0.1,0.5,0.2,0.7c-0.2,1.6-0.3,3.2-0.6,4.8c0,0.4,0.3,0.6,0.6,0.6c0.7,0.1,1.4,0.2,2.1,0.2C36.7,86.8,36.4,88.9,36.1,90.9z
			 M61.7,101.7c-3,0.2-6,0.5-9,1c0,0,0-0.1,0-0.2c-0.5-1.4-0.8-2.8-0.8-4.2c0,0,0,0,0,0c2.8-0.1,5.7-0.2,8.4-0.7c0,0,0,0.1,0,0.2
			c0,0.8,0.4,1.6,0.7,2.3C61.3,100.6,61.5,101.1,61.7,101.7z M62.4,96.1c-2.3-0.1-4.6,0.4-6.9,0.6c-2,0.2-4,0.3-6,0.4
			c-4.2,0.2-8.8,0.6-13,0c0.8-5,1.5-10.1,2.3-15.1c0.7-4.6,1.8-9.4,1.8-14.1c3.2,1,6.6,1.2,9.7,0.6c0.8-0.1,1.6-0.3,2.4-0.6
			c0,0,0,0,0,0c0.1,0.2,0.3,0.2,0.4,0.2c-0.1,0.1-0.2,0.2-0.3,0.3c0.1,0.4,0.2,0.8,0.3,1.2c0.1,0.5,0.3,1.1,0.4,1.6
			c0.3,1.2,0.7,2.4,1,3.7c0.8,2.6,1.6,5.1,2.4,7.6c1.5,4.6,3.2,9.3,5.5,13.5C62.5,96.1,62.4,96.1,62.4,96.1z M61.7,76.8
			c0.9,1.7,2.3,3.9,2.2,5.9c-0.1,2.2-2,3.6-3.9,4.3c-0.6-1.7-1.2-3.4-1.8-5.1c-0.1-0.2-0.1-0.4-0.2-0.6c1-0.1,2-0.2,3-0.5
			c0.4-0.1,0.5-0.5,0.3-0.9c-0.6-1.2-1.1-2.5-1.7-3.7c0.5,0.1,1.1,0.1,1.7,0C61.5,76.3,61.6,76.6,61.7,76.8z M63.1,74.5
			c-0.3,0.1-0.7,0.2-1,0.3c-1.3-2.3-2.7-4.5-4.2-6.6c2.7-0.4,6.3-0.5,8.1,1.2C68.6,71.7,65,73.8,63.1,74.5z"/>
		<path fill="#F6921E" stroke="#F6921E" stroke-width="0.3483" stroke-miterlimit="10" d="M37.5,55.6C36,56,35.2,57.8,36,59.2
			c0.2,0.5,1,0.1,0.8-0.3c-0.2-0.8,0.2-1.8,1.1-2c1-0.2,1.6,0.7,1.7,1.5c0.1,0.8,1.2,0.5,1.3-0.2C41,56.5,39.1,55.1,37.5,55.6z"/>
		<path fill="#F6921E" stroke="#F6921E" stroke-width="0.3483" stroke-miterlimit="10" d="M48.1,59.8c-0.7-1.3-2.7-1.5-3.5-0.3
			c-0.2,0.3,0.2,0.8,0.5,0.5c0.6-0.5,1.6-0.6,2,0.2c0.1,0.3,0.2,0.7,0,0.9c-0.4,0.3-1,0.1-1.4,0.3c-0.4,0.2-0.3,0.6,0,0.8
			c0.6,0.4,2,0.1,2.4-0.5C48.6,61.3,48.4,60.4,48.1,59.8z"/>
		<path fill="#F6921E" stroke="#F6921E" stroke-width="0.3483" stroke-miterlimit="10" d="M51.2,63c-1.5,0.9-2.7,1.8-4.5,2
			c-1.8,0.2-3.6-0.3-5.2-1.3c-0.3-0.2-0.6,0.2-0.4,0.5c2.6,2.6,8.5,3,10.6-0.5C52.1,63.2,51.6,62.7,51.2,63z"/>
	</g>
	<g>
		<path fill="#F6921E" stroke="#F6921E" stroke-width="0.3483" stroke-miterlimit="10" d="M119.6,113.2c-0.1-1.5-1.8-2.1-3.1-2.1
			c-1.3,0-2.6,0.6-3.4,1.6c-0.2-1.8-0.8-3.7-1.2-5.5c-0.6-2.4-1.1-4.9-1.9-7.2c2.3-0.7,4.7-1.4,6.6-2.6c0.2-0.1,0.3-0.3,0.3-0.5
			c0.1-0.2,0.2-0.4,0-0.6c-3.9-5.1-6.7-10.6-8.7-16.7c0,0,0,0,0,0c2-1.8,3.8-3.9,5.3-6.3c1,1.9,1.7,4,2.2,6c-1,0.7-1.8,2-1.4,3.3
			c0.4,1.1,1.7,1.8,2.8,1.3c1.3-0.5,1.4-2.5,0.7-3.6c-0.3-0.4-0.7-0.7-1.2-0.7c-0.2-2.4-1-5.1-2.4-7.6c3.4-5.8,5.1-12.7,4.9-19.2
			c-0.2-7.4-3.1-15.8-9.4-19.9c-3.2-2.8-7.4-4.5-11.7-4.6c-0.3,0-0.5,0.2-0.5,0.4c0,0.1-0.1,0.2,0,0.2c0,0,0,0,0,0
			c-0.1,0-0.2-0.1-0.3-0.1c0-0.1-0.2-0.2-0.3-0.1c-4-1.3-8.3,0.1-11.5,2.8c-5.7,3.8-8.5,11.3-8.7,18c-0.1,5.3,1.2,10.5,2.9,15.5
			c0.8,2.3,1.6,4.7,2.7,7c-1,2.1-1.4,4.4-1,6.3c0,0-0.1,0.1-0.1,0.1c-0.4,0.5-1.1,2.5-0.1,2.8c0.4,0.1,0.7-0.4,0.5-0.6
			c0-0.5,0.1-1.1,0.4-1.5c0.1,0,0.1-0.1,0.2-0.2c0.1-0.1,0.3-0.2,0.4-0.2c0.7,0,0.4,1,0.4,1.6c-2,0.9-2.9,3.7-1.5,5.4
			c-1.8,1-3.3,2.5-4.5,4.4c-2.3,3.5-3.2,7.8-3.7,11.9c-0.5,4.8-0.4,9.9,1,14.6c-0.3,0.2-0.5,0.6-0.1,0.9c2.6,2,5.7,2.6,8.9,2.6
			c4,0.1,8-0.1,11.9-0.7c2.6-0.4,7-1,8.7-3.4c0.2-0.3,0.3-0.6,0.4-0.9c0.1,0.1,0.3,0.2,0.4,0.1c3.8-0.6,4.1-4.8,3.8-7.9
			c-0.2-2.2-0.7-4.4-1.3-6.5c0.1,0,0.2,0.1,0.4,0c0.7-0.2,1.3-0.4,2.1-0.6c0.3,2.3,0.8,4.6,1.3,6.9c0.5,2.4,0.8,5.1,1.8,7.3
			c0.1,0.3,0.4,0.2,0.6,0.1C114.6,116,119.8,116.1,119.6,113.2z M116.1,80.7c0.8-0.7,1.1,0.3,1.1,1c0,0.7-0.4,1.3-1.1,1
			c-1.1-0.3-1-1.4-0.6-2.2C115.5,80.8,115.9,80.9,116.1,80.7z M107.7,78.4c-0.2-0.5-0.3-1.1-0.5-1.6c0.1,0.1,0.3,0.2,0.5,0.1
			c1.6-1.1,2.7-3.2,3.7-4.9c0.2-0.4,0.4-0.7,0.6-1.1c0.3,0.4,0.5,0.8,0.7,1.2C111.3,74.3,109.7,76.4,107.7,78.4z M79.7,49.3
			c0.2,1.2,0.6,2.3,1.1,3.4c-0.3,0.1-0.6,0.3-0.9,0.3c-0.7,0-1.3-0.2-1.7-0.8c-0.3-0.5-0.2-1.3,0-1.8C78.5,49.8,79.1,49.5,79.7,49.3
			z M79.4,48.7c0-0.7,0-1.4,0-2c0,0.7,0.1,1.4,0.2,2C79.5,48.6,79.4,48.6,79.4,48.7z M81.2,53.6c0,0.1,0.1,0.1,0.1,0.2
			c1.4,4.8,4.6,9,8.6,12c-1.3,0-2.6,0.4-3.8,1.2c-0.7-1-1.4-2.1-2-3.3c-1.7-3.2-2.7-6.4-3.7-9.8C80.7,53.9,81,53.8,81.2,53.6z
			 M79.6,54.1c0.1,0,0.2,0,0.2,0c0.5,3.3,1.7,6.6,3.2,9.6c0.7,1.3,1.4,2.7,2.3,4.1c-0.4,0.4-0.9,0.8-1.2,1.3c-0.7-1.4-1.4-2.9-2-4.3
			c-1.4-3.4-2.3-7-3-10.6C79.3,54,79.5,54.1,79.6,54.1z M84.2,71c0.1,0.2,0.2,0.4,0.3,0.6c0.8,1.3,1.7,3.3,3,4.3
			c-0.3,0.5-0.5,1.1-0.8,1.6c-1.3-1.6-2.4-3.4-3.3-5.2c0.1-0.3,0.3-0.6,0.5-0.9C84,71.3,84.1,71.2,84.2,71z M86.5,73.1
			c-0.5-0.8-1.1-1.7-1.5-2.5c0-0.1-0.1-0.2-0.1-0.3c0.4-0.5,0.9-0.9,1.3-1.4c0.9,1.3,1.9,2.5,3.1,3.5c-0.4,0.9-0.8,1.8-1.3,2.7
			C87.6,74.4,86.8,73.6,86.5,73.1z M87,68.3c1.2-0.8,2.6-1.4,4.1-1.3c-0.4,1.3-0.8,2.7-1.3,4c-0.1,0.2-0.2,0.5-0.3,0.7
			C88.7,70.5,87.8,69.4,87,68.3z M83.1,56.2c0.4,0.4,0.8,0.7,1.2,1.1c0.6,0.5,1.3,0.9,2.1,1.3c0.6,0.9,1.4,1.8,2.2,2.6
			c0.9,0.9,2,1.9,3.2,2.5c-0.1,0.7-0.2,1.5-0.3,2.2C87.7,63.3,85.1,60,83.1,56.2z M88.9,60.5c-0.5-0.5-1-1-1.4-1.5
			c1.3,0.5,2.7,0.9,4.1,1.1c0.2,0.9,0.2,1.7,0.2,2.6C90.8,61.9,89.8,61.3,88.9,60.5z M88.7,58c-5.3-1.8-7.7-6.6-8-11.8
			c3.8,1.1,8.1,1.2,12.1,1.2c4.3,0,8.8-0.4,13-1.6c0.3-0.1,0.4-0.3,0.4-0.5c0.1,0,0.2-0.1,0.2-0.3c0.2-2.5-0.1-5-1.1-7.2
			c1.4,2.2,2.6,4.5,3.2,7.3c0.1,0.4,0.5,0.4,0.7,0.1c1.3,0.5,3.3,0.7,4.7,0.2c-0.2,4-2,8-5.2,10.6C103.5,60.1,94.8,60.1,88.7,58z
			 M88.3,46.1c-1.6-0.1-3.1-0.2-4.7-0.4c0.2-6.9,4.2-12.8,10.4-15.5C89.5,33.6,86.8,40.9,88.3,46.1z M115.2,42.7c0.6,2,0.9,4,1.2,6
			c-0.5-0.2-1-0.3-1.5-0.2C115.3,46.6,115.4,44.6,115.2,42.7z M116.6,51.7c-0.3,0.6-0.7,1-1.3,1.1c-0.1-0.1-0.3-0.1-0.4,0.1
			c-0.6,0-1.2-0.1-1.7-0.4c0.5-0.8,0.8-1.7,1.1-2.6c0,0,0,0,0,0C115.8,49,117.2,50.3,116.6,51.7z M109.7,63.6
			c1.5-3.3,2.7-6.8,3.3-10.3c0,0,0-0.1,0-0.1c0.5,0.4,1.1,0.6,1.7,0.6c-0.9,3.3-1.7,6.5-3.1,9.6c-0.1,0.3-0.9,1.7-1.8,3.3
			c-0.4-0.3-0.9-0.5-1.3-0.7C108.9,65.3,109.3,64.4,109.7,63.6z M107.5,65.7c-0.6-0.2-1.3-0.3-2-0.3c1-1.5,1.9-3.2,2.7-4.8
			c0.6-1.1,1.1-2.2,1.2-3.4c1.3-1,2.4-2.2,3.2-3.6c-1.1,3-2.2,6-3.5,8.9C108.6,63.5,108.1,64.6,107.5,65.7z M111.8,65.3
			c1.6-3.6,3-7.5,3.4-11.5c0.5,0,1-0.2,1.5-0.5c-0.7,3.9-1.7,7.9-3.1,11.5c-0.5,1.3-1.1,2.6-1.7,3.8c-0.4-0.4-0.8-0.8-1.2-1.1
			C111.1,66.8,111.5,66.1,111.8,65.3z M103.5,59.9c0.7-0.2,1.5-0.4,2.2-0.7c-0.3,0.6-0.6,1.2-1,1.8c-0.2,0.3-0.4,0.6-0.7,0.9
			C103.8,61.3,103.7,60.6,103.5,59.9z M106.4,58.9c0.1,0,0.2-0.1,0.3-0.1c0.7-0.3,1.4-0.7,2-1.2c-0.8,2.6-2.9,4.8-4.1,7.2
			c-0.1-0.6-0.2-1.1-0.4-1.7C105.3,62.1,106,60.4,106.4,58.9z M107,66.7c-0.3,0.5-0.6,1-0.9,1.5c-0.2,0.3-0.4,0.7-0.6,1c0,0,0,0,0,0
			c-0.2-1-0.4-2-0.6-3C105.6,66.3,106.3,66.5,107,66.7z M107.2,68.4c0.3-0.4,0.5-0.9,0.7-1.3c0.4,0.2,0.9,0.5,1.3,0.8
			c-1.3,2.3-2.7,4.7-2.7,4.8c-0.1-0.1-0.2-0.1-0.3-0.1c-0.1-0.7-0.3-1.3-0.4-2C106.5,70.1,106.9,69,107.2,68.4z M108.4,71.5
			c0.6-0.9,1.2-1.9,1.8-2.9c0.4,0.4,0.8,0.8,1.1,1.2c-0.2,0.4-0.4,0.8-0.7,1.2c-1.1,1.8-2.7,3.4-3.4,5.4v0c-0.3-1-0.5-1.9-0.7-2.9
			C107.4,73.5,107.9,72.3,108.4,71.5z M118.3,53.9c-0.1,6.1-1.8,11.8-4.7,16.8c-0.3-0.4-0.5-0.8-0.8-1.1c0.6-1.2,1.2-2.5,1.8-3.8
			c1.7-4.2,2.7-8.5,2.8-13c0.2-0.3,0.4-0.7,0.5-1.1c0.2-0.9-0.1-1.9-0.7-2.5c0.1-2.9-0.8-5.8-2.1-8.3c0-0.1-0.1-0.1-0.2-0.1
			c-0.3-1.3-0.8-2.6-1.5-3.7C116.8,41.8,118.4,48.2,118.3,53.9z M112.9,39.4c0.6,1.5,0.9,3.1,1,4.8c-0.7,0.1-1.3,0.3-2,0.4
			c-0.1,0-0.3,0-0.4,0c-1.3-5.8-5-13-11-14.9C105.9,30.7,110.8,34.2,112.9,39.4z M110.8,44.6c-0.5,0-1.1,0-1.6,0
			c-0.7-3.6-2.5-7.6-5.5-10c-0.5-1.2-1.5-2.2-2.4-3.1c-0.5-0.6-1.1-1.1-1.6-1.5C105.7,31.8,109.2,39,110.8,44.6z M100.7,31.9
			c0.7,0.8,1.3,1.6,1.9,2.4c-0.1,0.1-0.1,0.2,0,0.4c2.1,3,3.1,6.4,3.1,10.1c-0.1,0-0.1,0-0.2,0c-0.5,0.1-1.1,0.2-1.6,0.2
			c0.9-5-1.3-10.5-4.4-14.4C99.9,31,100.3,31.4,100.7,31.9z M102.1,37.1c0.9,2.7,0.9,5.3,1,8.1c-0.6,0.1-1.1,0.2-1.7,0.2
			c0.9-4.8,0.1-9.5-2.1-13.8C100.5,33.3,101.4,35.1,102.1,37.1z M100.7,45.5C100.7,45.5,100.7,45.5,100.7,45.5
			c-0.5,0.1-1,0.1-1.5,0.2c0.5-4.7,0.2-9.7-0.7-14.5C100.7,35.6,101.4,40.6,100.7,45.5z M97.7,29.8c0,0,0.1,0,0.1,0c0,0,0,0.1,0,0.1
			c0,0,0,0,0,0c0.5,5.3,0.6,10.5,0.7,15.9c-0.3,0-0.7,0.1-1,0.1c-0.4-2.7-0.9-5.2-0.9-7.9C96.6,35.2,97.1,32.5,97.7,29.8z
			 M97.2,29.7c-1.9,5-2.2,11.3-0.4,16.2c-1.2,0.1-2.4,0.2-3.7,0.2c-1.3-5.9-0.1-11.7,3.4-16.6C96.8,29.6,97,29.7,97.2,29.7z
			 M92.2,46.2c-1.1,0-2.1,0-3.2-0.1c0.2-3.4,0.1-6.5,1.6-9.7c1-2.3,2.5-4.3,4.4-5.8C91.7,35,90.6,41,92.2,46.2z M81.2,40.6
			c1.6-6.8,7.1-11.2,13.6-11.1c-7.3,1.9-12.3,8.5-12,16.2c-0.7,0-1.4-0.1-2.1-0.1C80.6,43.9,80.8,42.2,81.2,40.6z M80.6,38
			c-0.1,0.3-0.2,0.5-0.3,0.8c0,0,0,0-0.1,0.1c-1.5,2.9-2.4,6.7-1.6,10c-0.4,0.1-0.8,0.4-1.1,0.8C77.6,45.4,78.6,41.4,80.6,38z
			 M80.4,65c-1.3-3.8-2.4-7.7-2.7-11.7c0.3,0.3,0.6,0.4,0.9,0.6c0.4,4.3,1.5,8.4,3.2,12.4c0.5,1.2,1.1,2.4,1.7,3.5
			c-0.3,0.4-0.5,0.8-0.8,1.2C81.8,69,81.1,67,80.4,65z M82.1,77.6c0.1-1.5,0.3-2.8,0.8-4.2c0.9,1.7,2,3.3,3.3,4.7
			c0,0,0.1,0.1,0.1,0.1c-0.3,0.6-0.6,1.3-0.9,1.9c-0.5-0.2-1-0.3-1.5-0.3c0-0.2,0-0.4,0-0.5c0-0.4-0.1-0.9-0.3-1.2
			C83.3,77.7,82.7,77.5,82.1,77.6z M83.1,81.1c0.7-0.4,1.4-0.3,2.1-0.1c0.1,0.3,0.4,0.5,0.7,0.4c0.8,0.6,1.3,1.5,1.3,2.5
			c0,0,0,0,0,0c-0.3,0-0.6,0-1,0.1c0.4-0.6-0.2-1.5-0.7-1.9c-0.6-0.5-1.5-0.6-2.1-0.2c-1.1,0.6-1.2,2.1-0.5,3
			c-0.3,0.1-0.6,0.3-1,0.5C81.2,83.9,81.6,81.9,83.1,81.1z M84.7,82.6c0.1,0,0.2,0.1,0.2,0.1c0.2,0.1,0.4,0.4,0.5,0.6
			c0.1,0.2,0.1,0.4,0.1,0.7c0,0,0,0.1,0.1,0.1c-0.7,0.1-1.4,0.3-2.1,0.5c-0.2-0.2-0.3-0.5-0.3-0.7c0,0,0.1,0,0.1,0.1
			c0.2,0,0.3,0.1,0.5,0c0.1-0.1,0.2-0.2,0.3-0.2c0.2-0.1,0.3-0.3,0.5-0.5C84.7,83,84.7,82.8,84.7,82.6z M102.1,115.6
			c-0.8,0.8-2.1,1.2-3.2,1.5c-3.9,1.2-8.1,1.5-12.2,1.6c-4,0.1-8.5,0.5-11.8-2.1c-1.3-8.4-2-18.6,2.9-26c2.4-3.7,6.8-6.4,11.3-5.3
			c4,0.9,6.8,4.4,8.5,7.9c1.7,3.6,2.8,7.5,3.8,11.4c0.6,2.3,1.1,4.6,1.3,6.9C102.8,112.8,103.2,114.5,102.1,115.6z M94.8,87.2
			c3.7,2,5.4,6.2,6.9,10c0.4,1.1,0.9,2.2,1.2,3.3c-0.1,0-0.3,0.1-0.4,0.2c-0.3,0.1-0.5,0.2-0.8,0.3C100.4,95.9,98.5,90.6,94.8,87.2z
			 M103.8,111.5c-0.2-2.1-0.6-4.1-1-6.1c-0.2-1.1-0.5-2.2-0.8-3.3c0.3-0.1,0.6-0.1,0.9-0.2c0.2,0,0.3-0.1,0.5-0.1
			c0.2,0.5,0.3,1,0.5,1.6C104,103.9,105.4,111.6,103.8,111.5C103.8,111.5,103.8,111.5,103.8,111.5z M104,114.1
			C104,114.1,104,114.1,104,114.1c0-0.5,0-1,0-1.5c0.2,0.1,0.4,0,0.6-0.1c1.7-1.3,1.2-4.8,0.9-6.6c-0.4-3.1-1.6-6.1-2.8-8.9
			c-1.9-4.5-4.1-9.9-9.4-11c0,0-0.1-0.1-0.1-0.1c-1-0.7-2-1.2-3.1-1.5c6.4-2.6,11.5,4.6,13.5,9.9C105.1,98.2,110.9,112.9,104,114.1z
			 M106.7,99.6c-0.1,0-0.1,0.1-0.2,0.1c-0.6-2.1-1.4-4.3-2.1-6.3c-1.3-3.4-3.2-6.9-6.4-8.9c-2.8-1.7-6.2-2.1-9-0.4
			c-0.3-0.1-0.7-0.1-1-0.1c0,0,0,0,0-0.1c0.1-1.2-0.6-2.4-1.5-3.1c2.3-2.6,3.6-6.6,4.8-9.8c1.2-3.4,2.5-7.2,1.4-10.7
			c0.5,0.1,1,0.1,1.5,0.2c2.8,0.2,5.7,0.2,8.5-0.3c0.5,6.6,1.9,13.3,3.9,19.6c1.9,5.9,4.6,11.8,8.6,16.7
			C112.4,96.9,109.4,98.4,106.7,99.6z M118.3,113.4c-0.2,1-1.9,1.1-2.7,1c-0.8,0-1.4-0.3-2.1-0.6c0.6-0.7,1.2-1.3,2.1-1.5
			C116.4,112.2,118.5,112.2,118.3,113.4z"/>
		<path fill="#F6921E" stroke="#F6921E" stroke-width="0.3483" stroke-miterlimit="10" d="M94.3,114.6c-0.1-1.7-1.1-3.6-1.7-5.2
			c0.2-0.1,0.4-0.1,0.6-0.2c0.1-0.1,0.2-0.2,0.1-0.3c0.2,0,0.4-0.1,0.4-0.4c-0.2-1-0.4-2-0.8-3c-0.1-0.2-0.3-0.3-0.4-0.3
			c-0.1-0.1-0.2-0.2-0.3-0.2c-5.3,0.6-10.2,1-15.5,0.7c-0.1,0-0.2,0.1-0.3,0.2c-0.1,0-0.2,0-0.3,0.1c-0.9,0.8-0.5,2.9-0.1,3.9
			c0.1,0.3,0.4,0.3,0.6,0.2c0.2,0,0.5,0.1,0.7,0.1c-0.2,1.8-1,5.4,0.7,6.6c0.7,0.5,1.9,0.5,2.7,0.6c1.8,0.2,3.6,0.2,5.4,0.1
			c1.4-0.1,2.9-0.2,4.3-0.5c1-0.2,2.7-0.2,3.6-1C94.2,115.6,94.3,115.1,94.3,114.6z M76.7,109.6c-0.1-0.6-0.2-1.3-0.2-1.9
			c0-0.4,0.2-0.9,0.2-1.3c5,0.7,10.5,0.6,15.5-0.6c0.2,0.9,0.6,1.9,1,2.8c-2.8,0.3-5.5,1.1-8.3,1.2c-2.4,0.2-4.7,0.1-7.1,0
			c-0.1,0-0.2-0.1-0.3,0C77.2,109.7,76.9,109.7,76.7,109.6C76.7,109.6,76.7,109.6,76.7,109.6z M92.4,115.5c-0.7,0.5-2.5,0.5-3.3,0.6
			c-1.2,0.2-2.4,0.3-3.6,0.3c-1.8,0.1-4.3,0.4-6-0.3c-1.5-0.6-1.5-1.7-1.5-3.1c0-0.9-0.1-1.9-0.1-2.8c2.4,0.4,4.8,0.5,7.3,0.3
			c2.1-0.1,4.5-0.3,6.6-1C92.4,111.3,94,114.4,92.4,115.5z"/>
		<path fill="#F6921E" stroke="#F6921E" stroke-width="0.3483" stroke-miterlimit="10" d="M100.6,105.3c-0.7-1.1-1.1-2.3-1.2-3.6
			c0,0,0-0.1,0-0.1c0.2-0.1,0.1-0.4-0.1-0.4c-0.2,0-0.4,0-0.5-0.1c-0.9-2.7-2.1-5.4-3.4-7.9c-1-2-2.2-4-4.1-5.4c-4-3-8.9-1.1-12.1,2
			c-0.3,0.3,0.1,0.7,0.5,0.5c3.7-3.1,8.9-4.5,12.5-0.4c2.7,3.1,4.1,7.4,5.7,11.2c-0.1,0-0.3,0-0.4,0c-0.1-0.3-0.5-0.1-0.5,0.2
			c0,0,0,0.1,0,0.1c0,0.1,0,0.2,0,0.2c0.1,0.9,0.2,1.8,0.3,2.7c0.1,0.6,0,1.5,0.4,2.1c0.6,1.1,2.3-0.2,3-0.5
			C100.6,105.8,100.7,105.5,100.6,105.3z M98.1,105.4c-0.1-0.3-0.1-0.7-0.2-1c-0.2-0.9-0.3-1.7-0.5-2.6c0.2,0,0.5,0,0.7,0
			c0.1,0.1,0.3,0.1,0.4,0c0.1,1.3,0.5,2.4,1.2,3.5c-0.3,0.2-0.7,0.4-1,0.4C98.1,105.9,98.2,105.7,98.1,105.4z"/>
		<path fill="#F6921E" stroke="#F6921E" stroke-width="0.3483" stroke-miterlimit="10" d="M90.2,48.1c-1.7,0-2.9,1.7-2.5,3.3
			c0.2,0.7,1.3,0.6,1.3-0.2c0-0.7,0.4-1.5,1.1-1.6c0.7-0.1,1.4,0.7,1.3,1.4c-0.1,1,1.3,1.4,1.5,0.4C93.1,49.8,92,48.1,90.2,48.1z"/>
		<path fill="#F6921E" stroke="#F6921E" stroke-width="0.3483" stroke-miterlimit="10" d="M105.8,47.4c-1.8-0.2-3.3,1.7-2.8,3.4
			c0.2,0.9,1.5,0.5,1.4-0.4c-0.1-0.7,0.6-1.6,1.4-1.5c0.8,0.1,1.1,1,1,1.7c-0.1,0.7,0.9,1.3,1.3,0.5
			C108.7,49.6,107.6,47.6,105.8,47.4z"/>
		<path fill="#F6921E" stroke="#F6921E" stroke-width="0.3483" stroke-miterlimit="10" d="M99,51.7c-0.8-0.9-2.4-0.8-2.9,0.4
			c-0.1,0.3,0.3,0.6,0.5,0.3c0.3-0.5,1.3-0.5,1.6,0c0.3,0.5-0.1,1.2-0.6,1.3c-0.3,0.1-0.4,0.3-0.4,0.5c0,0.1,0,0.2,0.1,0.3
			c0.1,0.2,0.4,0.3,0.6,0.3C99.2,54.4,99.8,52.8,99,51.7z"/>
		<path fill="#F6921E" stroke="#F6921E" stroke-width="0.3483" stroke-miterlimit="10" d="M101.6,55.1c-1.6,0.7-2.9,1.5-4.6,1.6
			c-1.5,0.1-3-0.3-4.4-0.8c-0.4-0.1-0.5,0.4-0.2,0.6c2.8,1.9,7.5,1.9,9.9-0.6C102.5,55.5,102,54.9,101.6,55.1z"/>
	</g>
</g>
<circle fill="none" stroke="#F6921E" stroke-width="2" stroke-miterlimit="10" cx="73" cy="73" r="72"/>
<g>
</g>
<g>
</g>
<g>
</g>
<g>
</g>
<g>
</g>
<g>
</g>
<g>
</g>
<g>
</g>
<g>
</g>
<g>
</g>
<g>
</g>
<g>
</g>
<g>
</g>
<g>
</g>
<g>
</g>
</svg>
