<?xml version="1.0" encoding="utf-8"?>
<!-- Generator: Adobe Illustrator 18.0.0, SVG Export Plug-In . SVG Version: 6.00 Build 0)  -->
<!DOCTYPE svg PUBLIC "-//W3C//DTD SVG 1.1//EN" "http://www.w3.org/Graphics/SVG/1.1/DTD/svg11.dtd">
<svg version="1.1" id="Layer_1" xmlns="http://www.w3.org/2000/svg" xmlns:xlink="http://www.w3.org/1999/xlink" x="0px" y="0px"
	 viewBox="0 0 146 146" enable-background="new 0 0 146 146" xml:space="preserve">
<g>
	<circle fill="none" stroke="#F6921E" stroke-width="2" stroke-miterlimit="10" cx="73" cy="73" r="72"/>
	<g>
		<g>
			<g>
				<path fill="#F6921E" d="M105.4,39.8c-0.5,0-1.1-0.2-1.6-0.6l-0.4-0.3l0.3-0.4c0.5-0.5,0.8-1.2,0.9-1.7c-1.5,0.7-3.4,0.6-4.8-0.4
					c-1.6-1.2-2.2-3.1-1.7-4.9c-0.5,0.3-1.2,0.7-1.8,1.7l-0.3,0.4l-0.4-0.3c-0.8-0.6-1-1.5-0.7-2.4c0.5-1.5,2.4-2.2,4.3-1.4
					c0.2-0.2,0.4-0.4,0.6-0.5c1.5-1.7,3.5-2,5.4-0.7c2.7,1.9,2.4,4.8,1.6,6.2c0,0.1-0.1,0.2-0.1,0.3c0.8,1.1,0.9,2.7,0.5,3.8
					C106.8,39.3,106.2,39.8,105.4,39.8z M104.7,38.7c0.3,0.1,0.5,0.2,0.7,0.2c0.5,0,0.8-0.4,0.9-0.7c0.4-0.8,0.2-2.2-0.5-3.1l0,0
					l-0.1,0.7C105.6,36.5,105.4,37.7,104.7,38.7z M99.5,30.6L99.2,31c-0.8,1.6-0.4,3.6,1.1,4.7c1.4,1,3.3,0.9,4.6-0.2l0.6-0.5l0,0
					l0.3-0.5c0.1-0.1,0.1-0.2,0.2-0.3c0.6-1.1,1.1-3.5-1.3-5.1c-1.5-1.1-3-0.8-4.3,0.6c-0.3,0.2-0.5,0.4-0.7,0.7L99.5,30.6
					L99.5,30.6z M97.6,30c-1,0-1.6,0.6-1.8,1.2c-0.1,0.4-0.1,0.8,0.1,1.1c1.1-1.5,2.4-1.8,2.9-1.9l0.2,0C98.5,30.1,98,30,97.6,30z
					 M102.6,36.1c-0.7,0-1.4-0.2-2-0.7c-1.5-1.1-1.8-3.2-0.8-4.7l0.2-0.3l0.3,0.1c0.3,0.1,1-0.2,1.2-0.3l0.4-0.2l0.2,0.3
					c0.1,0.2,0.2,0.5-0.1,1.2c0.5-0.1,1.2-0.4,1.5-0.6l1.6-0.8l-1.8,2.4c0.5,0.4,1.4,0.9,1.9,1.3l0.1,0.1l0.1,0.4l-0.2,0.4
					C104.7,35.6,103.7,36.1,102.6,36.1z M100.3,31.4c-0.6,1.1-0.3,2.5,0.7,3.3c1,0.7,2.5,0.6,3.4-0.3c-0.6-0.4-1.7-1-2.1-1.5
					l-0.2-0.3l0.3-0.4c-0.3,0.1-0.5,0.1-0.8,0.1c-0.5,0-0.7-0.2-0.8-0.4l-0.2-0.3l0.2-0.2c0.1-0.1,0.1-0.1,0.1-0.2
					C100.8,31.4,100.6,31.4,100.3,31.4z"/>
			</g>
			<g>
				<path fill="#F6921E" d="M93.8,49.9l-2.3-1.7l0,0l-2.4-1.7l0.8-1.1l0.4,0.3l2.1-2.9l-3.1-2.2l6-2.6l0.2-0.3l-4.5,1l0.5-2.6
					l6.7-1.7l4.3,3.1l0.1,7.6l-2.5-1l0-3.3L99.7,41l-1,6.3l-2.4-1.7l-2.1,2.9l0,0l0.4,0.3L93.8,49.9z M92.6,47.9l0.6,0.4l2.9-4
					l1.9,1.4l0.8-5.1l2-2.4l0.1,5.1l0.7,0.3l-0.1-5.8L98,35.2l-5.7,1.5l-0.1,0.7l5.1-1.2L96,38.5l-4.9,2.1l2.5,1.9l-3,4l0.6,0.4
					l2.9-4l1.3,1L92.6,47.9z"/>
			</g>
			<g>
				<path fill="#F6921E" d="M82.6,28.5C82.6,28.5,82.6,28.5,82.6,28.5c-0.2,0-0.4,0-0.6,0c-1.1-0.2-2-0.7-2.7-1.6
					c-0.6-0.9-0.9-1.9-0.7-3c0-0.3,0-0.6,0-0.9c0-0.6-0.1-1.2,0.7-1.7c0.8-0.5,2.1-1.1,3.1-0.9c0.4,0,3.2,0.6,3.9,1.2
					c0.8,0.8,0.6,1.7,0.4,2.6c-0.1,0.3-0.1,0.5-0.2,0.8C86.3,27,84.6,28.5,82.6,28.5z M82,21.2c-0.7,0-1.7,0.4-2.3,0.8
					c-0.3,0.2-0.3,0.3-0.3,0.9c0,0.3,0.1,0.7,0,1.1c-0.1,0.8,0.1,1.6,0.6,2.3c0.2,0.3,0.5,0.6,0.8,0.8c-0.9-0.7-1.5-1.8-1.3-3
					c0-0.1,0-0.2,0.1-0.4l0.1-0.3l0.3-0.1c0.5,0,0.9,0.1,1.2,0.2l2.6-0.8L83,23.6c0.9,0,1.8,0.2,2.4,0.4l0.3,0.1v0.3
					c0,0.1,0,0.2,0,0.2c0-0.3,0.1-0.5,0.2-0.7c0.2-0.9,0.3-1.4-0.1-1.8c-0.4-0.3-2.6-0.9-3.5-1C82.2,21.2,82.1,21.2,82,21.2z
					 M80.5,24.2C80.5,24.2,80.5,24.2,80.5,24.2c-0.2,1.2,0.7,2.4,1.8,2.6c0.1,0,0.2,0,0.3,0c1.1,0,2-0.8,2.2-1.9c0,0,0,0,0,0
					c-0.7-0.2-1.6-0.4-2.5-0.2c0,0-0.1,0-0.2,0h-0.3l-0.2-0.3c0,0,0,0,0,0l-0.5,0.2L81,24.3C81,24.3,80.8,24.2,80.5,24.2z"/>
			</g>
			<g>
				<path fill="#F6921E" d="M82.9,43.7l-2.8-0.4l0,0l-2.9-0.4l0.2-1.4l0.5,0.1l0.5-3.5l-0.7-0.1l0.8-5l-2.5,3.2l-1.6-2.2l5.3-6
					l5.2,0.7l3,6.3l-1.7,2L84.7,34L84,38.8l-0.9-0.1l-0.5,3.6l0.4,0.1L82.9,43.7z M81,42.5l0.7,0.1l0.7-4.9l0.9,0.1l0.9-6.6l2.1,4.1
					l0.5-0.5l-2.6-5.3l-4.2-0.6l-4.5,5.1l0.5,0.7l3.9-5.1l-1.2,7.6l0.7,0.1l-0.7,4.9l0.7,0.1l0-0.1l0.7-4.9l1.6,0.2L81,42.5z"/>
			</g>
			<g>
				<path fill="#F6921E" d="M119.8,73.7L119.8,73.7c-0.5,0-1.7-0.2-2-2.2l-0.1-0.5l0.5,0c0.7,0,1.4-0.3,1.9-0.5
					c-1.6-0.6-2.8-2-3-3.7c-0.3-1.9,0.7-3.7,2.4-4.6c-0.6-0.2-1.5-0.3-2.4-0.1l-0.5,0.1l-0.1-0.5c-0.1-0.6,0.1-1.2,0.5-1.7
					c0.4-0.5,1.1-0.8,1.8-0.8c1,0,2.3,0.6,2.9,2.3c0.3,0,0.5,0,0.8,0.1l0.1,0c2.3,0,3.8,1.2,4.2,3.4c0.5,3.2-1.8,5-3.4,5.5
					c-0.1,0-0.2,0.1-0.3,0.1C122.8,72.2,121.3,73.7,119.8,73.7z M118.9,71.9c0.1,0.5,0.4,0.9,1,0.9c1,0,2.3-1.3,2.3-2.6l-0.6,0.5
					C121.1,71,120,71.7,118.9,71.9z M121.1,62.4l-0.5,0.1c-1.8,0.5-2.9,2.2-2.6,4.1c0.2,1.7,1.6,3,3.3,3.2l0.8,0.1l0-0.1l0.5-0.1
					c0.1,0,0.3-0.1,0.4-0.1c1.2-0.3,3.3-1.6,2.9-4.5c-0.3-1.8-1.4-2.7-3.3-2.7l-0.1,0c-0.4-0.1-0.7-0.1-1-0.1L121.1,62.4z M118.2,61
					c1.4,0,2.3,0.6,2.6,0.8l0.1,0.1c-0.4-1.2-1.2-1.8-2.1-1.8c-0.4,0-0.8,0.2-1.1,0.5c-0.1,0.1-0.2,0.3-0.3,0.5
					C117.7,61,117.9,61,118.2,61z M121.7,69.6c-1.7,0-3.2-1.3-3.4-3c-0.2-1.9,1-3.5,2.9-3.9l0.3-0.1l0.1,0.3
					c0.1,0.3,0.7,0.5,1.1,0.6l0.4,0.1l-0.1,0.4c0,0.2-0.2,0.5-1,0.7c0.3,0.2,0.9,0.5,1.5,0.7l1.7,0.6l-3,0.4c0,0.6,0.3,1.7,0.4,2.3
					l0,0.2l-0.2,0.4l-0.3,0.1C122,69.6,121.9,69.6,121.7,69.6z M121.1,63.7c-1.2,0.3-2,1.5-1.9,2.8c0.2,1.3,1.2,2.2,2.6,2.2
					c-0.2-0.7-0.4-2-0.3-2.5l0-0.3l0.4-0.1c-0.6-0.3-1-0.8-0.9-1.3l0.1-0.3l0.3,0c0.1,0,0.2,0,0.3,0C121.4,64,121.2,63.8,121.1,63.7
					z"/>
			</g>
			<g>
				<path fill="#F6921E" d="M112.8,74.7l-1-2.5l2.4-2.3l-0.5,0l-5.2,3.7l-0.4-2.9l-3.6,0.5l0.1,0.4l-1.4,0.2l-0.4-2.9l0,0l-0.4-2.8
					l1.4-0.2l0,0.4l3.5-0.5L107,62l6.1,2.5l0.3-0.1l-3.8-2.5l2.2-1.5l5.9,3.7l0.7,5.2L112.8,74.7z M112.9,72.4l0.3,0.7l4.2-4.1
					l-0.6-4.4l-5-3.1l-0.6,0.4l4.3,2.9l-2.5,0.7l-4.9-2l0.4,3.1l-4.9,0.7l0.1,0.7l4.9-0.7l0.2,1.6l-5,0.7l0.1,0.7l5-0.7l0.3,2.4
					l4.2-3l3.1-0.2L112.9,72.4z"/>
			</g>
			<g>
				<path fill="#F6921E" d="M116.3,52.6L116.3,52.6c-1.6,0-3-0.9-3.7-2.3c-0.5-1-0.5-2.1-0.1-3.1c0.4-1,1.1-1.8,2.1-2.3
					c0.3-0.1,0.5-0.3,0.7-0.5c0.5-0.4,1-0.7,1.8-0.4c0.7,0.3,2,1.1,2.5,2.1c0.2,0.4,1.3,3.1,1.1,4c-0.2,1.1-1.1,1.5-2,1.8
					c-0.3,0.1-0.5,0.2-0.8,0.3C117.5,52.5,116.9,52.6,116.3,52.6z M117.2,48.5c0.6,0.9,0.9,1.9,1,2.3l0.1,0.3l-0.4,0.2
					c-0.1,0-0.2,0.1-0.2,0.1c0,0,0,0,0,0c0.3-0.1,0.6-0.2,0.9-0.3c0.9-0.3,1.3-0.5,1.4-1.1c0.1-0.5-0.7-2.6-1.1-3.5
					c-0.3-0.6-1.3-1.3-2-1.7c-0.4-0.2-0.5-0.1-0.9,0.2c-0.2,0.2-0.5,0.4-0.9,0.6c-1.1,0.5-1.8,1.6-1.8,2.8c0.1-1.1,0.7-2.1,1.8-2.6
					c0.1,0,0.2-0.1,0.3-0.1l0.4-0.2l0.2,0.3c0.3,0.4,0.4,0.8,0.4,1.1l2.1,1.7L117.2,48.5z M115.4,46.7
					C115.4,46.7,115.4,46.7,115.4,46.7c-1.1,0.5-1.6,1.8-1.1,2.9c0.5,1.1,1.9,1.6,2.9,1c0,0,0,0,0,0c-0.2-0.5-0.5-1.5-1.2-2.2
					c-0.3-0.2-0.3-0.4-0.2-0.6c0,0,0-0.1,0.1-0.1l-0.4-0.3l0-0.2C115.5,47.2,115.5,47,115.4,46.7z"/>
			</g>
			<g>
				<path fill="#F6921E" d="M100.3,59.3l-1.2-2.6l0,0L97.9,54l1.3-0.6l0.2,0.4l3.3-1.5l-0.3-0.7l4.7-2l-4.1-0.3l1-2.6l7.9,1.2
					l2.2,4.7l-3.6,5.9l-2.6-0.3l1.6-2.8l-4.4,2l-0.4-0.8l-3.2,1.5l0.2,0.4L100.3,59.3z M100.3,57l0.3,0.7l4.5-2.1l0.4,0.8l6.1-2.8
					l-2.2,4l0.7,0.1l3.1-5.1l-1.8-3.9l-6.8-1l-0.3,0.8l6.4,0.5l-7,3.1l0.3,0.6l-4.5,2.1l0.3,0.7l0.1,0l4.5-2.1l0.7,1.5L100.3,57z"/>
			</g>
			<g>
				<path fill="#F6921E" d="M112,108.7L112,108.7c-0.8,0-1.7-0.2-2.4-0.6c-0.1,0-0.2-0.1-0.3-0.1c-0.6,0.5-1.4,0.7-2.3,0.7
					c-1.2,0-2.1-0.5-2.5-1.2c-0.2-0.5-0.4-1.3,0.5-2.4l0.3-0.4l0.4,0.3c0.5,0.5,1.1,0.8,1.7,0.9c-0.7-1.5-0.6-3.4,0.5-4.8
					c1.1-1.5,3.1-2.2,4.9-1.7c-0.2-0.5-0.7-1.2-1.6-1.8l-0.4-0.3L111,97c0.4-0.5,1-0.8,1.7-0.8c0.8,0,1.6,0.5,2.1,1.2
					c0.3,0.5,0.7,1.6,0,3.2c0.2,0.2,0.4,0.4,0.5,0.6c1.7,1.6,1.9,3.5,0.6,5.4C114.6,108.3,113.1,108.7,112,108.7z M109.2,106.8
					l0.5,0.3c0.1,0.1,0.2,0.1,0.3,0.2c0.5,0.3,1.2,0.5,2,0.5l0,0c0.9,0,2.1-0.3,3.1-1.7c1.1-1.5,0.9-3-0.6-4.3
					c-0.2-0.3-0.4-0.5-0.6-0.7l-0.3-0.2l0,0l-0.4-0.2c-0.5-0.3-1.1-0.4-1.7-0.4c-1.2,0-2.3,0.5-3,1.5c-1,1.4-1,3.3,0.1,4.6
					L109.2,106.8L109.2,106.8z M105.4,105.9c-0.2,0.4-0.3,0.8-0.1,1.1c0.2,0.4,0.9,0.7,1.7,0.7c0.8,0,1.5-0.3,2-0.7l-0.7-0.1
					C107.1,106.8,106.2,106.4,105.4,105.9z M112,97.2c1.4,1.1,1.8,2.5,1.8,2.9l0,0.2c0.6-1.3,0.3-2.1,0.1-2.5
					c-0.3-0.5-0.8-0.8-1.3-0.8C112.5,97,112.3,97.1,112,97.2z M109.8,106.8l-0.3-0.2c-0.8-0.6-1.2-1.4-1.4-2.3
					c-0.1-0.9,0.1-1.8,0.7-2.6c0.7-0.9,1.7-1.4,2.7-1.4c0.7,0,1.4,0.2,2,0.7l0.3,0.2l-0.1,0.3c-0.1,0.3,0.1,0.9,0.3,1.2l0.2,0.4
					l-0.3,0.2c-0.1,0.1-0.6,0.2-1.2-0.1c0.1,0.4,0.3,1,0.5,1.5l0.8,1.6l-2.4-1.8c-0.4,0.5-1,1.4-1.3,1.9l-0.1,0.1L109.8,106.8z
					 M111.5,101.3c-0.8,0-1.6,0.4-2,1c-0.4,0.5-0.6,1.2-0.5,1.9c0.1,0.6,0.3,1.1,0.8,1.5c0.4-0.6,1.1-1.7,1.5-2.1l0.3-0.2l0.3,0.2
					c-0.2-0.7-0.1-1.3,0.3-1.5l0.3-0.2l0.2,0.2c0.1,0.1,0.1,0.1,0.2,0.2c-0.1-0.2-0.1-0.4-0.1-0.7
					C112.4,101.4,112,101.3,111.5,101.3z"/>
			</g>
			<g>
				<path fill="#F6921E" d="M106.8,103.7l-7.6-0.1l1-2.5l3.3,0l-0.4-0.3l-6.3-1.1l1.8-2.4l-2.9-2.1l-0.3,0.4l-1.1-0.9l1.8-2.3l0,0
					l1.7-2.3L99,91l-0.3,0.4l2.9,2.2l2.3-3l2.5,6l0.3,0.2l-0.9-4.5l2.6,0.5l1.6,6.7L106.8,103.7z M100.5,102.8l5.8,0l2.7-3.5
					l-1.4-5.8l-0.7-0.1l1.1,5.1l-2.3-1.3l-2.1-4.9l-1.9,2.5l-4-3l-0.4,0.6l4,3l-1,1.3l-4-3l-0.4,0.6l4,3l-1.5,1.9l5.1,0.9l2.3,2
					l-5.1,0L100.5,102.8z"/>
			</g>
			<g>
				<path fill="#F6921E" d="M121.2,92.9L121.2,92.9c-0.5,0-1-0.2-1.6-0.5c-0.3-0.1-0.5-0.2-0.8-0.3c-2.1-0.8-3.2-3.1-2.4-5.2
					c0.6-1.6,2.1-2.7,3.8-2.7c0.5,0,0.9,0.1,1.4,0.2c0.3,0.1,0.6,0.1,0.8,0.2c0.6,0.1,1.2,0.1,1.6,1c0.3,0.9,0.6,2.3,0.3,3.2
					c0,0-1.2,3-2,3.6C121.9,92.8,121.6,92.9,121.2,92.9z M119.2,91.3c0.3,0.1,0.6,0.2,0.8,0.4c0.5,0.2,0.9,0.4,1.2,0.4l0,0
					c0.2,0,0.4-0.1,0.5-0.2c0.4-0.3,1.3-2.3,1.7-3.2c0.2-0.6,0-1.8-0.3-2.6c-0.1-0.4-0.3-0.4-0.8-0.5c-0.3,0-0.6-0.1-1-0.2
					c-1.2-0.4-2.5-0.1-3.3,0.8c0.8-0.8,2.1-1.1,3.2-0.7l0.7,0.4l-0.1,0.3c-0.1,0.5-0.3,0.9-0.5,1.1l0.3,2.7l-0.8-1.1
					c-0.2,1.1-0.7,1.9-0.9,2.3l-0.2,0.3l-0.4-0.1C119.3,91.3,119.2,91.3,119.2,91.3z M120,86.2c-0.9,0-1.8,0.6-2.1,1.4
					c-0.4,1.1,0.2,2.4,1.4,2.8c0,0,0,0,0,0c0.3-0.5,0.7-1.4,0.7-2.4c0,0,0-0.3,0.1-0.5l0.1-0.2l0.1,0l-0.1-0.5l0.2-0.2l0,0
					c0,0,0.2-0.2,0.3-0.5l-0.1,0C120.6,86.2,120.3,86.2,120,86.2z"/>
			</g>
			<g>
				<path fill="#F6921E" d="M108.9,91.3l-1.6-2l3-0.9l-4.6-1.6l0.3-0.8l-3.4-1.2l-0.1,0.4l-1.3-0.5l0.9-2.7l0,0l1-2.8l1.3,0.4
					l-0.2,0.4l3.4,1.2l0.2-0.7l4.8,1.8l-2.7-3.1l2.5-1.1l4.8,6.4l-1.8,4.9L108.9,91.3z M108.9,89.8l0.4,0.5l5.7-1.4l1.5-4l-4.1-5.5
					l-0.8,0.3l4.2,4.8l-7.2-2.8l-0.2,0.7l-4.7-1.7l-0.3,0.7l4.7,1.7l-0.6,1.6l-4.7-1.7l-0.2,0.7l4.7,1.7l-0.3,0.8l6.3,2.3
					L108.9,89.8z"/>
			</g>
			<g>
				<path fill="#F6921E" d="M80.2,126.2L80.2,126.2c-3,0-4.3-2.3-4.6-3.6c0-0.1-0.1-0.2-0.1-0.3c-1.6-0.3-3-1.7-3.1-3.2
					c0-1.1,0.8-1.8,2.2-2l0.5-0.1l0,0.5c0,0.7,0.3,1.4,0.5,1.9c0.6-1.6,2-2.8,3.8-3c1.9-0.2,3.7,0.8,4.6,2.4
					c0.2-0.6,0.4-1.4,0.1-2.4l-0.1-0.5l0.5,0c1.2-0.1,2.2,0.7,2.4,1.9c0.2,1.2-0.5,2.6-2.4,3.3c0,0.3,0,0.5-0.1,0.8
					c0,2.3-1.2,3.9-3.5,4.2C80.7,126.2,80.4,126.2,80.2,126.2z M76.2,121.5L76.2,121.5l0.1,0.3c0.1,0.2,0.1,0.4,0.2,0.6
					c0.2,1,1.3,2.9,3.7,2.9l0,0c0.2,0,0.5,0,0.7-0.1c1.8-0.3,2.7-1.4,2.7-3.4c0.1-0.4,0.1-0.7,0.1-1l0-0.3l0,0l-0.1-0.5
					c-0.5-1.7-2.2-2.9-4-2.7c-1.7,0.2-3.1,1.6-3.2,3.3L76.2,121.5z M74.3,118.1c-0.5,0.1-1,0.4-0.9,1c0,1,1.2,2.3,2.6,2.3l0,0
					l-0.5-0.6C75.2,120.5,74.5,119.4,74.3,118.1z M85.1,116.9c0.2,1.6-0.4,2.7-0.8,3.3l-0.1,0.2c1.5-0.5,1.9-1.6,1.8-2.4
					C86,117.5,85.7,117.1,85.1,116.9z M79.9,124.7l-0.4-3c-0.8,0-2.3,0.4-2.3,0.4l-0.2,0l-0.3-0.3l-0.1-0.3c-0.1-1,0.1-1.9,0.7-2.6
					c0.6-0.7,1.4-1.2,2.3-1.3c1.9-0.2,3.5,1.1,3.8,2.9l0,0.3l-0.3,0.1c-0.3,0.1-0.6,0.7-0.7,1.1l-0.1,0.4l-0.4-0.1
					c-0.2,0-0.5-0.2-0.7-1c-0.2,0.3-0.5,0.9-0.7,1.5L79.9,124.7z M79.7,120.8c0.1,0,0.2,0,0.3,0l0.3,0l0.1,0.4
					c0.3-0.5,0.7-0.9,1.1-0.9l0.1,0l0.3,0.1l0,0.3c0,0.1,0,0.2,0,0.3c0.1-0.2,0.3-0.4,0.4-0.5c-0.3-1.2-1.5-2.1-2.8-1.9
					c-0.7,0.1-1.3,0.4-1.7,1c-0.4,0.5-0.5,1-0.5,1.6C78,121,79,120.8,79.7,120.8z"/>
			</g>
			<g>
				<path fill="#F6921E" d="M76.8,117.6l-5.2-5.5l2.5-0.9l2.3,2.4l0-0.5l-3.6-5.3l2.9-0.4l-0.4-3.6l-0.5,0l-0.2-1.4l2.8-0.3l0,0
					l2.9-0.4l0.2,1.4l-0.4,0.1l0.4,3.6l3.7-0.4l-2.6,6l0.1,0.3l2.6-3.8l1.4,2.2l-3.8,5.8L76.8,117.6z M73.1,112.5l4,4.2l4.4-0.5
					l3.2-5l-0.4-0.6l-2.9,4.3l-0.6-2.5l2.1-4.9l-3.1,0.4l-0.6-5l-0.7,0.1l0.6,5l-1.6,0.2l-0.6-5l-0.7,0.1l0.6,4.9l-2.4,0.3l2.9,4.3
					l0.1,3.1l-3.5-3.7L73.1,112.5z"/>
			</g>
			<g>
				<path fill="#F6921E" d="M95.7,121.1L95.7,121.1c-0.1,0-0.2,0-0.2,0c-1.1-0.2-1.4-1.2-1.7-2c-0.1-0.3-0.2-0.5-0.3-0.8
					c-0.4-1-0.5-2.1-0.1-3.1c0.4-1,1.1-1.8,2.1-2.2c0.5-0.2,1.1-0.4,1.6-0.4c1.6,0,3,0.9,3.7,2.4c0.1,0.3,0.3,0.5,0.5,0.7
					c0.3,0.5,0.7,1,0.3,1.8c-0.4,0.9-1.2,2-2.1,2.4C98.9,120.3,96.7,121.1,95.7,121.1z M94.3,118c0.1,0.3,0.2,0.5,0.3,0.8
					c0.3,0.9,0.5,1.3,1,1.4l0.1,0c0.7,0,2.8-0.7,3.4-1c0.6-0.3,1.3-1.2,1.7-2c0.2-0.3,0.1-0.5-0.2-0.9c-0.2-0.2-0.4-0.5-0.6-0.9
					c-0.5-1.1-1.6-1.9-2.9-1.9c1.2,0.1,2.2,0.8,2.7,1.9c0.1,0.2,0.1,0.3,0.2,0.5l0.1,0.3l-0.2,0.2c-0.4,0.3-0.8,0.4-1.1,0.4
					l-1.7,2.1l0.2-1.3c-0.9,0.6-1.8,0.8-2.3,0.9l-0.3,0.1l-0.2-0.2C94.4,118.2,94.4,118.1,94.3,118z M97,114.4
					c-0.3,0-0.6,0.1-0.9,0.2c-0.5,0.2-0.9,0.7-1.1,1.2c-0.2,0.6-0.2,1.2,0.1,1.7c0,0,0,0,0,0c0.6-0.2,1.5-0.5,2.2-1.1
					c0,0,0.2-0.2,0.4-0.2h0.2l0.1,0.1l0.3-0.4l0.2,0c0,0,0.2,0,0.5-0.1c0,0,0,0,0,0C98.7,114.9,97.9,114.4,97,114.4z"/>
			</g>
			<g>
				<path fill="#F6921E" d="M93.1,114.3l-5.9-3.7l0.4-2.6l2.7,1.6l-2-4.4l0.8-0.3l-1.5-3.3l-0.4,0.2l-0.6-1.3l2.7-1.2l0,0l2.6-1.2
					l0.6,1.3l-0.4,0.2l1.5,3.3l0.7-0.3l2,4.7l0.4-4l2.5,1.1l-1.3,7.9L93.1,114.3z M88.2,110.2l5,3.1l3.9-1.7l1.1-6.8l-0.8-0.3
					l-0.6,6.3l-3-7.1l-0.6,0.3l-2-4.6l-0.7,0.3l2,4.6L91,105l-2-4.6l-0.7,0.3l2,4.6l-0.8,0.3l2.7,6.1l-4-2.3L88.2,110.2z"/>
			</g>
			<g>
				<path fill="#F6921E" d="M46.2,119.3c-0.6,0-1.3-0.2-1.9-0.5c-2.9-1.5-3.1-4.4-2.4-6c0-0.1,0.1-0.2,0.1-0.3c-1.1-1-1.3-2.7-1-3.8
					c0.4-1.3,1.7-1.7,3.2-0.9l0.4,0.2l-0.3,0.4c-0.4,0.6-0.6,1.2-0.7,1.9c1.4-1,3.3-1.1,4.8-0.3c1.7,0.9,2.6,2.8,2.4,4.6
					c0.5-0.3,1.1-0.9,1.5-1.9l0.2-0.5l0.4,0.3c0.9,0.5,1.3,1.5,1,2.5c-0.3,1-1.2,2-2.8,2l0,0c-0.4,0-0.7-0.1-1.1-0.2
					c-0.1,0.2-0.3,0.4-0.5,0.6C48.7,118.6,47.5,119.3,46.2,119.3z M42.9,112.2L42.9,112.2l-0.1,0.5c-0.1,0.1-0.1,0.3-0.1,0.4
					c-0.4,1.2-0.6,3.6,2,4.9c0.5,0.3,1.1,0.4,1.6,0.4c1.2,0,2.1-0.9,2.6-1.6c0.3-0.3,0.4-0.5,0.6-0.8l0.2-0.3l0,0l0.1-0.5
					c0.6-1.7-0.2-3.6-1.8-4.5c-1.5-0.8-3.4-0.4-4.5,0.8L42.9,112.2z M50.2,115.8c0.3,0.1,0.7,0.1,1,0.1c1.2,0,1.8-0.7,2-1.3
					c0.1-0.4,0.1-0.8-0.2-1.1c-0.8,1.5-2,2.1-2.6,2.3L50.2,115.8z M42.7,108.2c-0.4,0-0.7,0.2-0.9,0.7c-0.3,0.9,0,2.4,0.9,3.1l0-0.7
					c0-0.8,0.1-1.9,0.6-2.9C43.1,108.3,42.9,108.2,42.7,108.2z M44.2,116.8l1.4-2.6c-0.5-0.3-1.5-0.7-2.1-1l-0.2-0.1l-0.2-0.4
					l0.1-0.3c0.6-1.2,1.8-1.9,3.1-1.9c0.6,0,1.1,0.1,1.6,0.4c1.6,0.9,2.3,2.9,1.4,4.6l-0.1,0.3l-0.3,0c0,0,0,0,0,0
					c-0.4,0-0.9,0.3-1.2,0.5l-0.3,0.3l-0.3-0.3c-0.1-0.1-0.3-0.5,0-1.2c-0.4,0.2-1,0.5-1.4,0.8L44.2,116.8z M47.4,114.1
					c0.3,0,0.5,0.1,0.6,0.2l0.2,0.2l-0.1,0.3c0,0.1-0.1,0.2-0.1,0.2c0.2-0.1,0.4-0.2,0.6-0.2c0.5-1.2,0-2.6-1.2-3.2
					c-1.1-0.6-2.6-0.2-3.3,0.8c0.6,0.3,1.8,0.8,2.3,1.2l0.3,0.2l-0.2,0.4C46.8,114.2,47.2,114.1,47.4,114.1z"/>
			</g>
			<g>
				<path fill="#F6921E" d="M50.3,111.8l-4.7-2.5l-1.1-7.5l2.6,0.6l0.5,3.3l0.3-0.4L48,99l2.6,1.4l1.7-3.2L51.9,97l0.7-1.2l2.6,1.4
					l0,0l2.5,1.3L57,99.7l-0.4-0.2l-1.7,3.2l3.3,1.8l-5.6,3.5l-0.1,0.3l4.3-1.7l-0.1,2.6L50.3,111.8z M46.5,108.8l3.9,2.1l5.5-2.3
					l0-0.7l-4.9,1.9l0.9-2.5l4.5-2.8l-2.8-1.5l2.3-4.4l-0.6-0.3l-2.3,4.4l-1.5-0.7l2.3-4.4l-0.6-0.3l-2.3,4.4l-2.1-1.1l-0.1,5.2
					l-1.7,2.6l-0.8-5l-0.7-0.2L46.5,108.8z"/>
			</g>
			<g>
				<path fill="#F6921E" d="M63.4,124.3L63.4,124.3c-0.2,0-0.3,0-0.4,0c0,0-3.2-0.7-3.9-1.4c-0.8-0.8-0.5-1.8-0.3-2.6
					c0.1-0.3,0.2-0.5,0.2-0.8c0.4-2.1,2.5-3.6,4.7-3.2c2.2,0.4,3.6,2.5,3.2,4.7c-0.1,0.3-0.1,0.6,0,0.9c0,0.6,0,1.2-0.8,1.7
					C65.4,123.8,64.3,124.3,63.4,124.3z M59.9,119.5c-0.1,0.3-0.1,0.6-0.2,0.9c-0.2,0.9-0.4,1.3,0.1,1.8c0.3,0.3,2.5,1,3.4,1.2
					c0.7,0.1,1.9-0.3,2.5-0.7c0.3-0.2,0.3-0.3,0.3-0.9c0-0.3,0-0.7,0.1-1.1c0.2-1.2-0.3-2.4-1.2-3.1c0.8,0.7,1.3,1.8,1.1,3
					c0,0.2-0.1,0.3-0.1,0.5l-0.1,0.3l-0.3,0c-0.5,0-0.9-0.1-1.1-0.3l-2.6,0.7l0.9-0.9c-0.9,0-1.8-0.3-2.4-0.5l-0.3-0.1V120
					C59.9,119.8,59.9,119.7,59.9,119.5z M64.6,120.3c0,0,0.2,0.1,0.5,0.2c0,0,0,0,0,0c0.2-1.2-0.5-2.4-1.7-2.6
					c-1.2-0.2-2.3,0.6-2.6,1.8c0,0,0,0,0,0c0.6,0.2,1.5,0.5,2.4,0.3c0,0,0.1,0,0.2,0h0.3l0.2,0.3c0,0,0,0,0,0l0.5-0.1L64.6,120.3
					L64.6,120.3z"/>
			</g>
			<g>
				<g>
					<path fill="#F6921E" d="M66.1,116.9l-5.1-1l-2.7-6.4l1.8-1.9l1.3,2.9l0.9-4.7l0.8,0.1l0.7-3.5h0l-0.4-0.1l0.3-1.4l2.8,0.5l0,0
						l2.9,0.6l-0.3,1.4l-0.4-0.1l-0.7,3.5l0.7,0.1l-1,5l2.6-3.1l1.5,2.3L66.1,116.9z M61.6,115.1l4.2,0.8l4.7-4.9l-0.5-0.7l-4.1,4.9
						l1.6-7.5l-0.7-0.1l0.9-4.9l-0.7-0.1l-0.9,4.9l-1.6-0.3l0.9-4.9l-0.7-0.1l-0.9,4.9l-0.8-0.1l-1.3,6.6l-1.9-4.2l-0.5,0.5
						L61.6,115.1z"/>
				</g>
				<g>
					<path fill="#F6921E" d="M27.7,92.1L27.7,92.1c-1.1,0-2.2-0.7-2.9-1.9c-0.3,0-0.5,0-0.7,0c-1.4,0.3-3.8,0.2-4.7-2.8
						c-1-3.4,1.2-5.3,2.6-5.9c0.1,0,0.2-0.1,0.3-0.1c0-0.9,0.4-1.8,1.1-2.6c0.6-0.6,1.3-1,1.9-1c0.5,0,1.5,0.2,2,1.9l0.1,0.5
						l-0.5,0.1c-0.7,0.1-1.3,0.5-1.8,0.8c1.7,0.3,3,1.6,3.5,3.2c0.5,1.9-0.1,3.8-1.7,4.9c0.6,0.1,1.6,0.1,2.4-0.2l0.5-0.2l0.1,0.5
						c0.2,0.7,0,1.3-0.4,1.8C29.2,91.7,28.5,92.1,27.7,92.1z M25.6,89.7c0.5,1,1.3,1.5,2.1,1.5c0.5,0,1-0.2,1.2-0.6
						c0.1-0.1,0.2-0.3,0.2-0.6c-0.5,0.1-0.9,0.2-1.4,0.2c-1,0-1.7-0.3-2-0.5L25.6,89.7z M23.2,81.9L23.2,81.9l-0.3,0.2
						c-0.2,0.1-0.3,0.1-0.5,0.2c-1.1,0.5-3,2.1-2.1,4.8c0.5,1.8,1.8,2.5,3.8,2.2c0.3,0,0.6,0,0.9-0.1l0.3-0.1l0,0l0.4-0.2
						c1.7-0.8,2.5-2.6,2-4.4c-0.5-1.6-1.9-2.7-3.6-2.7L23.2,81.9z M25.3,78.7c-0.4,0-0.9,0.3-1.3,0.7c-0.6,0.6-0.9,1.5-0.8,2.2l0,0
						l0.5-0.6c0.5-0.5,1.4-1.3,2.5-1.6C26.1,79.1,25.8,78.7,25.3,78.7z M24.9,89l-0.2-0.3c-0.2-0.2-0.8-0.4-1.2-0.5l-0.4,0l0-0.4
						c0-0.2,0.1-0.6,0.8-0.9c-0.4-0.2-1-0.4-1.6-0.5l-1.8-0.4l2.9-0.8c-0.1-0.6-0.5-1.6-0.8-2.2l-0.1-0.2l0.2-0.4l0.3-0.1
						c0,0,0,0-0.1,0c0.4-0.1,0.7-0.2,1-0.2c1.5,0,2.9,1,3.3,2.5c0.5,1.8-0.5,3.7-2.3,4.2L24.9,89z M24.6,87.6
						c0.2,0.1,0.4,0.2,0.6,0.3c1.2-0.5,1.8-1.8,1.5-3c-0.4-1.2-1.6-2-2.9-1.8c0.3,0.6,0.7,1.9,0.7,2.5l0,0.3L24.1,86
						c0.6,0.3,1.1,0.6,1.1,1.1l0,0.3l-0.3,0.1C24.8,87.6,24.7,87.6,24.6,87.6z"/>
				</g>
			</g>
			<g>
				<path fill="#F6921E" d="M35,89.8L28.6,87l-1.4-5.1l4.6-6l1.3,2.3l-2,2.6l0.5-0.1l4.7-4.4l0.8,2.8l3.5-1l-0.1-0.4l1.3-0.4
					l0.8,2.7l0,0l0.8,2.8L42,83.4L41.9,83l-3.5,1l1,3.6L33.1,86l-0.3,0.1l4.2,2L35,89.8z M29.4,86.4l5.4,2.4l0.5-0.5l-4.7-2.2l2.4-1
					l5.2,1.3l-0.9-3l4.8-1.4l-0.2-0.7l-4.8,1.4l-0.5-1.6l4.8-1.4L41.3,79l-4.8,1.4l-0.7-2.3L32,81.6l-3,0.6l3.1-4l-0.4-0.7l-3.6,4.6
					L29.4,86.4z"/>
			</g>
			<g>
				<path fill="#F6921E" d="M31.7,106.5c-0.2,0-0.3,0-0.5-0.1c-0.9-0.3-2.2-0.9-2.7-1.7c-0.3-0.4-1.7-2.9-1.7-3.8
					c0-1.1,0.9-1.6,1.7-2c0.2-0.1,0.5-0.3,0.7-0.4c0.7-0.4,1.4-0.7,2.2-0.7c1.4,0,2.6,0.7,3.4,1.8c0.6,0.9,0.8,2,0.6,3
					c-0.2,1.1-0.8,2-1.7,2.5c-0.3,0.2-0.5,0.4-0.7,0.6C32.6,106.2,32.2,106.5,31.7,106.5z M29.6,99.3c-0.2,0.2-0.5,0.3-0.7,0.4
					c-0.8,0.4-1.2,0.7-1.2,1.3c0,0.5,1.1,2.5,1.5,3.3c0.4,0.6,1.4,1.1,2.2,1.4c0.4,0.1,0.5,0,0.9-0.4c0.2-0.2,0.5-0.5,0.8-0.7
					c0.7-0.5,1.2-1.2,1.4-2c0.1-0.4,0.1-0.8,0-1.1c0.1,1.1-0.4,2.3-1.4,2.9c-0.2,0.1-0.3,0.2-0.4,0.2l-0.3,0.1l-0.2-0.2
					c-0.4-0.4-0.5-0.8-0.6-1l-2.3-1.4l1.3,0c-0.7-0.8-1.1-1.6-1.3-2.1l-0.1-0.3l0.2-0.2C29.5,99.4,29.5,99.3,29.6,99.3z M31.9,102.7
					l0.4,0.3l0,0.2c0,0,0,0.2,0.2,0.5c0,0,0,0,0,0c1-0.7,1.3-2,0.7-3c-0.6-1-2.1-1.3-3.1-0.6c0,0,0,0,0,0c0.3,0.6,0.8,1.4,1.5,2
					C32,102.1,32,102.4,31.9,102.7C31.9,102.6,31.9,102.6,31.9,102.7z"/>
			</g>
			<g>
				<path fill="#F6921E" d="M43.9,101.9l-8,0L33,97.5l2.7-6.4l2.6-0.1l-1.2,3l4-2.6l0.5,0.7l3-2l-0.2-0.4l1.2-0.8l3.1,4.8l-1.2,0.8
					l-0.2-0.4l-3,1.9l0.4,0.6l-4.3,2.7l4.1-0.3L43.9,101.9z M36.3,101l6.8,0l0.2-0.8l-6.4,0.4l6.5-4.1l-0.4-0.6l4.2-2.7l-0.4-0.6
					l-4.2,2.7l-0.9-1.4l4.2-2.7l-0.4-0.6l-4.2,2.7L41,92.6l-5.6,3.7L37,92l-0.7,0L34,97.4L36.3,101z"/>
			</g>
			<g>
				<path fill="#F6921E" d="M30.2,53.8L30.2,53.8c-0.8,0-1.5-0.4-2-1.1c-0.6-0.8-0.7-1.9-0.4-3c-0.2-0.2-0.4-0.3-0.6-0.5
					c-1.9-1.3-2.4-3.2-1.4-5.3c1.2-2.3,3.2-2.7,4.2-2.7c0.6,0,1.3,0.1,1.8,0.3c0.1,0,0.2,0.1,0.3,0.1c0.7-0.7,1.7-1.1,2.8-1.1
					c1,0,1.8,0.4,2.1,1c0.3,0.4,0.4,1.2-0.2,2.4l-0.2,0.4l-0.4-0.3c-0.5-0.3-1.1-0.6-1.9-0.7c1,1.4,1.1,3.3,0.2,4.8
					c-0.9,1.6-2.8,2.6-4.6,2.3c0.3,0.5,0.9,1.1,1.9,1.5l0.5,0.2l-0.3,0.4C31.7,53.4,31,53.8,30.2,53.8z M28.7,49.9
					c-0.3,0.9-0.2,1.8,0.2,2.4c0.3,0.4,0.8,0.7,1.3,0.7l0,0c0.3,0,0.5-0.1,0.8-0.3c-1.6-0.9-2.1-2.2-2.2-2.6L28.7,49.9z M28.9,49.4
					l0.5,0.2c1.7,0.6,3.6-0.2,4.5-1.7c0.8-1.5,0.5-3.4-0.8-4.6l-0.6-0.6l-0.1,0.1l-0.3-0.1c-0.2-0.1-0.3-0.2-0.5-0.2
					c-0.2-0.1-0.7-0.3-1.5-0.3c-1,0-2.5,0.4-3.4,2.2c-0.9,1.6-0.5,3,1.2,4.2c0.2,0.2,0.5,0.4,0.8,0.6L28.9,49.4L28.9,49.4z
					 M32.6,42.5h0.7c1.1,0,2.1,0.2,2.9,0.6c0.1-0.4,0.2-0.8,0-1.1c-0.2-0.4-0.7-0.6-1.4-0.6C34,41.5,33.1,41.9,32.6,42.5z
					 M30.6,49.4c-0.6,0-1.1-0.1-1.6-0.4l-0.3-0.1l0.1-0.3c0-0.3-0.3-0.9-0.5-1.2L28,47.1l0.3-0.3c0.1-0.1,0.6-0.3,1.2,0
					c-0.1-0.4-0.4-0.9-0.8-1.4l-1-1.5l2.6,1.5c0.3-0.5,0.8-1.5,1-2.1l0.1-0.2l0.3-0.2l0.4,0.1c0.8,0.4,1.4,1.2,1.6,2.1
					c0.3,0.9,0.2,1.8-0.3,2.6C33,48.8,31.8,49.4,30.6,49.4z M29.6,48.4c1.2,0.5,2.6,0,3.2-1.1c0.3-0.6,0.4-1.3,0.2-1.9
					c-0.2-0.6-0.5-1-1-1.4c-0.3,0.6-0.8,1.8-1.2,2.3l-0.2,0.3l-0.4-0.2c0.2,0.6,0.3,1.2,0,1.6L30,48l-0.3-0.2
					c-0.1,0-0.2-0.1-0.2-0.1C29.5,47.9,29.6,48.2,29.6,48.4z"/>
			</g>
			<g>
				<path fill="#F6921E" d="M40,58.1l-3.4-5.6l-0.3-0.1l1.6,4.3l-2.6-0.1l-2.5-6.4l2.5-4.6l7.5-1L42.1,47l-3.3,0.5l0.4,0.3l6.4,0.2
					l-1.4,2.6l3.2,1.7l0,0l0.2-0.4l1.2,0.7L46,57.6L44.8,57l0.2-0.4l-3.1-1.7L40,58.1z M34.8,50.8l2.4,1l2.8,4.6l1.5-2.7l4.4,2.4
					l0.4-0.6l-0.1,0L41.8,53l0.8-1.4l4.4,2.4l0.3-0.6L43,50.9l1.2-2.1l-5.2-0.1L36.3,47l5.1-0.7l0.2-0.7l-5.8,0.8l-2.1,3.9l2.2,5.5
					l0.7,0L34.8,50.8z"/>
			</g>
			<g>
				<path fill="#F6921E" d="M23.9,67.9c-0.3,0-0.6,0-0.8-0.1c-0.2,0-0.4-0.1-0.6-0.1l-0.5,0c-0.5,0-1.1-0.1-1.5-0.8
					c-0.2-0.3-1-2-0.7-3.2c0.1-0.5,0.8-3.2,1.4-3.9c0.7-0.7,1.6-0.5,2.6-0.2c0.3,0.1,0.5,0.2,0.8,0.2c2.2,0.4,3.6,2.6,3.1,4.8
					C27.4,66.6,25.7,67.9,23.9,67.9z M22.4,66.9c0.2,0,0.5,0,0.8,0.1c1.2,0.3,2.4-0.3,3.2-1.2c-0.7,0.8-1.9,1.3-3,1.1
					c-0.1,0-0.3-0.1-0.4-0.1l-0.3-0.1l-0.1-0.4c0-0.5,0.2-0.9,0.3-1.1l-0.7-2.7l0.9,1c0-0.9,0.3-1.8,0.6-2.4l0.1-0.3H24
					c0.2,0,0.3,0,0.5,0.1c0,0,0,0,0,0c0,0-0.1,0-0.1,0c-0.3-0.1-0.6-0.2-0.9-0.2c-0.7-0.2-1.3-0.4-1.8,0c-0.3,0.3-1,2.5-1.2,3.4
					c-0.1,0.7,0.2,1.8,0.6,2.6c0.2,0.3,0.3,0.3,0.7,0.3L22.4,66.9z M23.5,66C23.5,66,23.5,66,23.5,66c0.2,0,0.3,0.1,0.5,0.1
					c1,0,2-0.7,2.2-1.7c0.1-0.6,0-1.1-0.3-1.6c-0.3-0.5-0.8-0.8-1.4-1c0,0,0,0,0,0c-0.2,0.7-0.5,1.6-0.4,2.4c0,0,0.1,0.3-0.1,0.5
					l-0.1,0.2l-0.1,0l0.1,0.5l-0.1,0.2C23.7,65.5,23.5,65.7,23.5,66z"/>
			</g>
			<g>
				<g>
					<path fill="#F6921E" d="M32.7,72.7L27,67.1l1-5.1l6.4-2.6l1.9,1.8l-2.9,1.3l4.7,1l-0.2,0.9l3.5,0.7l0.1-0.4l1.4,0.3l-1.2,5.6
						l-1.4-0.3l0.1-0.4L37.1,69l-0.1,0.7l-5-1.1l3.1,2.7L32.7,72.7z M28,66.8l4.9,4.8l0.7-0.4l-4.8-4.2l7.5,1.7l0.1-0.7l4.9,1
						l0.1-0.7l-0.1,0l-4.8-1l0.3-1.6l4.9,1l0.1-0.7l-4.9-1l0.2-0.9l-6.6-1.4l4.2-1.9l-0.5-0.5l-5.5,2.2L28,66.8z"/>
				</g>
				<g>
					<path fill="#F6921E" d="M58.9,30.1c-1.1,0-2-0.8-2.2-1.9c-0.2-1.1,0.3-2.6,2.3-3.3c0-0.3,0-0.5,0.1-0.8
						c-0.1-2.3,1.1-3.9,3.4-4.2c3.6-0.6,5.1,2.1,5.5,3.4c0,0.1,0.1,0.2,0.1,0.3c1.6,0.2,3.1,1.7,3.1,3.1c0.1,1.1-0.7,1.8-2.1,2
						l-0.5,0.1l0-0.5c0-0.7-0.3-1.4-0.5-1.9c-0.6,1.6-2,2.8-3.7,3c-1.9,0.3-3.7-0.7-4.7-2.3c-0.2,0.6-0.4,1.4-0.1,2.4l0.1,0.5
						l-0.5,0.1C59,30.1,59,30.1,58.9,30.1z M59.4,25.7c-1.5,0.6-1.9,1.6-1.8,2.4c0.1,0.5,0.4,1,0.9,1.1c-0.2-1.7,0.4-2.9,0.8-3.3
						L59.4,25.7z M59.9,25.5l0.1,0.5c0.5,1.7,2.2,2.8,4.1,2.6c1.7-0.2,3-1.6,3.2-3.3l0.1-0.8l-0.1,0l-0.1-0.5c0-0.1-0.1-0.3-0.1-0.4
						c-0.3-1.2-1.6-3.3-4.5-2.8c-1.8,0.3-2.7,1.5-2.7,3.4c-0.1,0.4-0.1,0.7-0.1,1V25.5L59.9,25.5z M67.6,24.4l0.5,0.6
						c0.3,0.4,1.1,1.5,1.2,2.7c0.5-0.1,1-0.4,0.9-1C70.2,25.8,69,24.5,67.6,24.4L67.6,24.4z M63.6,28.3c-1.7,0-3.1-1.2-3.4-2.9
						l0-0.3l0.3-0.1c0.3-0.1,0.5-0.7,0.6-1.1l0.1-0.4l0.4,0.1c0.2,0,0.5,0.2,0.7,1c0.2-0.3,0.5-0.9,0.7-1.5l0.6-1.7l0.4,3
						c0.7-0.1,1.9-0.3,2.3-0.4l0.2,0l0.4,0.2l0.1,0.3c0.1,0.9-0.1,1.9-0.6,2.6c-0.6,0.7-1.4,1.2-2.3,1.3
						C63.9,28.3,63.8,28.3,63.6,28.3z M61.2,25.5c0.3,1.2,1.5,2,2.8,1.9c0.7-0.1,1.3-0.4,1.7-1c0.3-0.5,0.5-1,0.5-1.6
						c-0.7,0.2-2,0.4-2.5,0.4l-0.3,0l-0.1-0.4c-0.3,0.5-0.7,0.9-1.1,0.9l-0.1,0l-0.3-0.1l0-0.3c0-0.1,0-0.2,0-0.2
						C61.5,25.2,61.3,25.4,61.2,25.5z"/>
				</g>
			</g>
			<g>
				<path fill="#F6921E" d="M63.5,44.2l-0.2-1.4l0.4-0.1l-0.5-3.6l-3.7,0.5l2.5-6.1l-0.1-0.3l-2.5,3.8L58,34.9l3.6-5.9l5.2-0.7
					l5.3,5.4l-2.5,1l-2.3-2.4l0,0.5l3.7,5.2l-2.9,0.4l0.5,3.6L69,42l0.2,1.4l-2.9,0.4l0,0L63.5,44.2z M64,38.2l0.7,4.9l0.7-0.1
					l-0.7-5l1.6-0.2l0.7,4.9l0.7-0.1l-0.7-5l2.4-0.3l-3-4.2l-0.2-3.1l3.6,3.6l0.7-0.3l-4.1-4.2l-4.4,0.6L59,34.9l0.4,0.6l2.9-4.4
					l0.7,2.5l-2,4.9L64,38.2z"/>
			</g>
			<g>
				<path fill="#F6921E" d="M43.9,36.4c-1.3,0-2.6-0.7-3.3-1.7c-0.2-0.3-0.4-0.5-0.6-0.6c-0.4-0.4-0.9-0.8-0.6-1.7
					c0.1-0.3,0.6-2.1,1.6-2.8c0.3-0.2,2.8-1.8,3.7-1.8c1.1,0,1.6,0.9,2.1,1.6c0.1,0.2,0.3,0.5,0.4,0.7c0.6,0.9,0.8,2,0.6,3
					c-0.2,1.1-0.8,2-1.7,2.6C45.6,36.2,44.8,36.4,43.9,36.4z M44.8,28.6c-0.5,0-2.5,1.1-3.2,1.6c-0.6,0.4-1.1,1.5-1.3,2.3
					c-0.1,0.4,0,0.5,0.4,0.9c0.2,0.2,0.5,0.4,0.7,0.8c0.7,1,1.9,1.5,3,1.3c-1.1,0.1-2.2-0.4-2.9-1.4c-0.1-0.1-0.2-0.3-0.2-0.4
					l-0.1-0.3l0.2-0.2c0.4-0.4,0.8-0.5,1-0.6l1.3-2.3l0,1.3c0.7-0.7,1.6-1.1,2.1-1.4l0.3-0.1l0.2,0.2c0.1,0.1,0.1,0.1,0.2,0.2
					c-0.2-0.2-0.3-0.5-0.4-0.7C45.6,29,45.3,28.6,44.8,28.6z M42.2,33.6C42.3,33.6,42.3,33.6,42.2,33.6c0.7,1,2.1,1.3,3.1,0.6
					c1-0.7,1.2-2.1,0.5-3.1c0,0,0,0,0,0c-0.5,0.3-1.4,0.8-2,1.5c-0.1,0.3-0.5,0.4-0.7,0.3l-0.3,0.5l-0.2,0
					C42.7,33.4,42.5,33.5,42.2,33.6z"/>
			</g>
			<g>
				<path fill="#F6921E" d="M52.4,49.6l-0.8-1.2l0.4-0.3l-2-3l-0.6,0.4l-2.8-4.3l0.4,4.1l-2.7-0.6l-0.2-8l4.3-3l6.5,2.6l0.1,2.6
					L52,38l2.7,4L54,42.5l2,3l0.4-0.3l0.8,1.2l-2.3,1.6l0,0L52.4,49.6z M50.2,44l2.8,4.1l0.6-0.4l-0.1-0.1l-2.8-4l1.4-0.9l2.8,4.1
					l0.6-0.4l-2.8-4.1l0.7-0.5l-3.8-5.5l4.3,1.6l0-0.7l-5.5-2.2l-3.5,2.4l0.2,6.8l0.8,0.2L45.4,38l4.3,6.4L50.2,44z"/>
			</g>
		</g>
		<g>
			<g>
				<path fill="#F6921E" d="M92,89.7C92,89.7,92,89.7,92,89.7C92.1,89.8,92.1,89.8,92,89.7z"/>
				<path fill="#F6921E" d="M97.8,81c1.8-5.7,0.8-12.3-1.3-17.9c0-0.1,0-0.1,0-0.2c-0.1-0.3-0.2-0.5-0.4-0.7
					c-2.3-5.7-6.3-11-12.1-13.4c-2.9-1.2-6-2-9-2.6c-2.4-0.5-5.2-0.8-7.3,0.5c0,0,0,0-0.1,0c-0.1,0-0.1-0.1-0.2,0
					c-7.6,1.6-14.4,7.2-18.1,13.9c-3.9,7.1-3.7,15.5-0.1,22.6c3.5,6.9,9.9,12.3,17.2,14.6c7.3,2.3,15.1,0.6,21.4-3.7
					c2.7-1.8,5-4.2,6.9-6.9c0,0,0.1,0.1,0.1,0.1c0.2,0.2,0.6-0.1,0.4-0.3c0,0,0,0,0,0c0,0,0,0,0,0c0,0,0,0,0,0
					c0-0.1-0.1-0.1-0.1-0.2C96.2,85,97.1,83,97.8,81z M92.2,83.8c-2.3-2.6-4.5-5.4-6.6-8.2c3.1,2.7,5.6,6,8.7,8.7
					c0.2,0.2,0.5-0.1,0.4-0.3c-2.4-3.7-6.3-6.3-8.5-10.2c3.9,2.5,6.5,6.7,10.1,9.5c0,0,0,0,0,0c-0.5,1.1-1,2.1-1.6,3.1
					C93.9,85.5,93.1,84.6,92.2,83.8z M97.1,81.3c-0.2,0.5-0.3,1-0.5,1.5c-2.5-3.6-5.8-6.6-8.4-10.1c3.2,2,5.3,5.3,8.4,7.5
					c0.3,0.2,0.5-0.2,0.3-0.4c-2-2.5-4.3-4.7-6.2-7.3c2.1,1.7,3.9,3.9,6.4,5.1c0.3,0.1,0.5-0.2,0.3-0.4c-1.7-1.9-3.5-3.7-4.8-5.9
					c1.9,0.9,3.3,2.7,5,3.7c0.2,0.1,0.5-0.1,0.3-0.3c-1.1-1.7-2.5-3.2-3.8-4.7c0.9,0.8,1.8,1.7,2.8,2.4c0.3,0.2,0.5-0.2,0.4-0.4
					c-0.6-1.5-1.8-2.7-2.9-3.9c0.8,0.5,1.6,1,2.4,1.3c0.2,0.1,0.4-0.2,0.3-0.4c-0.7-1.2-1.7-2-2.6-2.9c0.6,0.4,1.3,0.7,1.9,1
					c0.2,0.1,0.5-0.2,0.3-0.4c-0.6-0.8-1.3-1.5-2.1-2.2c0.3,0.2,0.5-0.2,0.3-0.4c-0.9-0.9-1.7-1.9-2.6-2.9c0,0,0,0,0,0
					c0.4,0.4,0.9,0.7,1.3,1.1c0,0,0,0,0,0l0,0c0,0,0,0,0.1,0c0.2,0.2,0.5-0.1,0.4-0.3c0.5,0.5,1,1.1,1.6,1.4
					C98.3,68.9,98.9,75.5,97.1,81.3z M93.1,65c-0.1-0.1-0.1-0.1-0.2-0.1c0.1-0.1,0.2-0.3,0.3-0.4c0.2-0.3-0.2-0.5-0.4-0.2
					c-0.5,0.7-1.1,1.5-1.6,0.3c-0.2-0.5-0.3-1.1-0.4-1.6c0,0,0-0.1,0-0.2c0.1,0.1,0.1,0.2,0.2,0.4c0,0,0,0.1,0,0.1
					c0.2,0.6,0.2,0.5,0.5,1.1c0.1,0.3,0.5,0.1,0.5-0.2c0-0.1-0.1-0.3-0.1-0.4c0.2,0.1,0.4,0.2,0.5,0.3c0.2,0.2,0.5-0.1,0.3-0.3
					c-0.1-0.2-0.2-0.4-0.3-0.7c1.2,0.8,2.3,1.6,3.3,2.7c-0.7-0.4-1.3-0.8-2.1-1.1c-0.2-0.1-0.6,0.1-0.4,0.4c0.9,1.2,2.1,2.1,3.1,3.3
					c-0.9-0.5-1.7-1.1-2.7-1.5c0,0-0.1,0-0.1,0C93.7,66.2,93.7,65.7,93.1,65z M90.5,63.6c-0.1-0.2-0.3-0.5-0.5-0.7
					c-0.3-0.3-0.8-1.8-0.5-2.5c0,0,0,0,0,0c0.2,0.4,0.4,0.8,0.6,1.2C90.2,62.4,90.4,63.1,90.5,63.6z M89.4,64.9
					c0,0.2-0.1,0.5-0.1,0.7c0-0.1-0.1-0.2-0.2-0.2c-0.6-0.1-1.3-0.1-2,0.1c0,0,0,0,0,0c-0.8-0.8-1.5-1.7-2-2.7
					c1.2,0.4,2.2,1.3,3.2,2c0.2,0.2,0.4-0.2,0.3-0.4c-0.6-0.7-1.2-1.4-1.7-2.1c0.6,0.3,1.2,0.7,1.8,1c0.2,0.1,0.4,0,0.4-0.2
					c0-1.5-0.9-2.7-1.9-3.8c0.4,0.3,0.8,0.5,1.2,0.8c0.2,0.1,0.4-0.1,0.3-0.3c-0.1-0.1-0.1-0.2-0.2-0.3c0.3,0.2,0.5,0.3,0.8,0.5
					c0.1,0,0.1,0,0.2,0C89.1,60.2,89,60.5,89,61c0,0.4-0.1,1.1,0.1,1.5c0.3,0.5,1.8,1.9,0.4,2.2C89.4,64.6,89.3,64.8,89.4,64.9z
					 M85.1,68.4c0.2,1,0.7,2.2-0.4,2.9c-1,0.8-1.1-0.3-1.4-0.8c-0.4-0.5-1.4-1.2-0.7-2c0.2-0.2,0.6-0.3,0.7-0.6
					c0.2-0.7-1.1-0.4-0.4-1.2c0.3-0.2,0.5-0.5,0.6-0.9c0,0,0-0.1,0.1-0.3c0.1,0.3,0.1,0.5,0.3,0.8c0.4,0.8,0.7,1-0.3,0.5
					c-0.1-0.1-0.3,0-0.3,0.2c0.2,0.8,0.5,1.4,0.9,2c-0.1-0.2-1,0-1.1,0c-0.1,0-0.2,0.1-0.1,0.2c0.5,0.9,1,1.6,2.1,1.6
					c0.1,0,0.1-0.2,0-0.2c-1-0.1-2.5-2.1-0.4-1.1c0.2,0.1,0.3-0.1,0.2-0.2c-0.4-0.6-0.7-1.2-1-1.9c-0.1-0.4,0.7,0.2,0.7,0.2
					c0.1,0.1,0.3,0,0.3-0.2c-0.2-0.6-0.5-1.2-0.8-1.8c0,0,1.3,0.4,1.5,0.5c0.2,0.1,0.3-0.2,0.2-0.3c-0.4-0.4-0.6-0.8-0.9-1.3
					c0.7,0.2,1.3,0.6,1.9,1c-0.1,0-0.1,0-0.2,0.1c-1,0.5,0,2-1.2,2.4C85.1,68.1,85,68.3,85.1,68.4z M83.7,63.7
					c0.1,0,0.2-0.1,0.2-0.1c0.2-1.1,2-3.5,0.1-4.2c-0.1-0.1-0.3-0.1-0.4-0.1c0.1-0.1,0.1-0.2,0-0.3c-0.1-0.1-0.2-0.2-0.3-0.3
					c1.6,1.3,3,2.8,4.9,3.9c0.1,0,0.2,0,0.2,0c0,0.1,0,0.2,0.1,0.2c-0.8-0.4-1.5-0.9-2.3-1.1c-0.3-0.1-0.4,0.2-0.2,0.4
					c0.3,0.4,0.7,0.8,1,1.2c-0.7-0.4-1.3-0.8-2.1-0.9c-0.2,0-0.3,0.1-0.2,0.3c0.4,0.8,0.8,1.5,1.4,2.2c-0.5-0.3-1-0.5-1.5-0.6
					c-0.2,0-0.2,0.2-0.2,0.3c0.2,0.4,0.4,0.8,0.7,1.2c-0.4-0.1-0.8-0.3-1.2-0.4c-0.1,0-0.1,0-0.2,0C83.7,64.6,83.7,63.7,83.7,63.7z
					 M82.3,61.1C82.2,61.1,82.2,61,82.3,61.1c0.1,0.1,0.4-0.1,0.3-0.3c-0.1-0.1-0.2-0.3-0.3-0.4c0.3,0.1,0.6,0.1,0.9,0.3
					c0,0,0.1,0,0.1,0c0,0.3,0.1,0.5,0.1,0.6c0,0.2,0,0.5,0,0.7c-0.7,0.3-1,0.2-0.9-0.3C82.4,61.5,82.4,61.2,82.3,61.1z M81.6,60.1
					c0.2,0.3,0.4,0.6,0.6,0.9c-0.4-0.5-0.8-0.8-1.1-1.5c-0.2-0.5-0.6-3.3,0.5-2.9c0.6,0.2,1.4,0.1,1.2-0.6c1.8,1.7,3.5,3.5,4.8,5.6
					c-2-1.3-3.6-3.2-5.7-4.5c-0.2-0.1-0.4,0.2-0.3,0.3c0.4,0.4,0.8,0.9,1.2,1.3c-0.5-0.1-0.9-0.3-1.4-0.5c-0.2-0.1-0.5,0.2-0.3,0.3
					c0.5,0.4,0.9,0.9,1.3,1.4c-0.3-0.1-0.5-0.1-0.8-0.2C81.7,59.7,81.5,59.9,81.6,60.1z M88.9,54.4c0.5,0.5,1,1,1.6,1.4c0,0,0,0,0,0
					v0c0,0,0,0,0.1,0c0.1,0.1,0.3,0,0.3-0.1c0.1,0.2,0.2,0.3,0.4,0.5c0,0,0.1,0.1,0.1,0.1c-0.6-0.4-1.2-0.8-1.8-1.1
					c-0.1,0-0.2,0-0.2,0c-0.8-0.4-1.6-0.8-2.5-0.9c0,0-0.1,0-0.1,0c0-0.1,0-0.1-0.1-0.2c-1.3-1.6-3-3-4-4.8c0.9,0.1,1.7,0.7,2.5,1.3
					C86.2,52.3,87.6,53.4,88.9,54.4z M87.2,52.1c0.9,0.7,1.8,1.6,2.6,2.5c-0.2-0.2-0.4-0.3-0.5-0.5C88.6,53.4,87.9,52.8,87.2,52.1z
					 M88.6,57.3c0.7,0.7,1.4,1.3,2.1,1.9c0.3,0.3,0.6,0.5,0.9,0.8c-0.2,0-0.4,0.3-0.2,0.5c0.5,0.5,1,1,1.4,1.5
					c-0.7-0.5-1.5-1.1-2.3-1.5c0-0.2,0-0.3,0-0.3c0.2-0.1,0.1-0.3,0-0.4c-0.4-0.1-0.7-0.1-0.9,0.1c0-0.1,0-0.2,0-0.2
					c-0.8-1.6-2-3-3.2-4.4C87.1,55.9,87.9,56.6,88.6,57.3z M89.2,57.2c0.4,0.3,0.9,0.7,1.3,1c1.1,0.9,2.2,1.8,3.2,2.8
					c0.2,0.2,0.3,0.3,0.5,0.5C92.5,60,90.8,58.7,89.2,57.2z M92.2,62.3c-0.2-0.1-0.4,0.1-0.4,0.3c0.1,0.2,0.1,0.5,0.2,0.7
					c-0.1-0.1-0.3-0.1-0.4-0.2c-0.3-0.5-0.6-1.1-0.9-1.6c0-0.1,0-0.3,0-0.4c0.9,0.5,1.8,1.2,2.6,1.8C92.9,62.8,92.5,62.5,92.2,62.3z
					 M88.6,59c-0.4-0.2-0.7-0.5-1.1-0.7c-1.3-1.8-2.7-3.5-4-5.3c0.2,0.1,0.4,0.3,0.6,0.4c0,0,0,0,0,0C85.5,55.3,87.3,56.9,88.6,59z
					 M87.6,59.1c-0.5-0.4-1-0.7-1.5-1.1c0,0,0,0,0,0c0.5,0.3,0.9,0.6,1.4,0.9C87.4,58.9,87.5,59,87.6,59.1z M83.2,60
					c-0.2-0.3-0.5-0.6-0.7-0.9c0.3,0.1,0.6,0.2,1,0.2C83.3,59.4,83.2,59.7,83.2,60z M93.1,59.8c-1.1-1-2.2-1.9-3.3-2.7
					c-0.7-0.5-1.4-1.1-2.1-1.6c-0.1-0.1-0.2-0.2-0.2-0.3c2.3,0.5,4,2.7,6,4c0,0,0.1,0,0.1,0c0.8,1,1.6,2.1,2.2,3.2
					C94.8,61.8,93.9,60.6,93.1,59.8z M86.2,50.5c2.3,1.3,4.1,3.3,5.7,5.3c0.8,1,1.5,2.1,2.2,3.3C93.3,58,92.4,57,91.6,56
					c-1.7-2.1-3.5-4.3-6-5.4c-1-0.8-2.1-1.6-3.4-1.6c-0.2,0-0.3,0.2-0.2,0.4c0.3,0.7,0.7,1.3,1.2,1.9c-0.4-0.4-0.9-0.8-1.3-1.3
					c-0.7-0.7-1.3-1.4-2-2C82.1,48.7,84.2,49.4,86.2,50.5z M82.3,51.1c0.6,0.6,1.3,1.2,1.9,1.7c-0.5-0.3-0.9-0.6-1.4-0.9
					c-0.2-0.1-0.4,0.1-0.3,0.3c1.3,1.8,2.6,3.6,4,5.4c-0.4-0.2-0.8-0.4-1.2-0.6c-0.1-0.1-0.3,0-0.4,0.1c-0.9-0.7-1.8-1.5-2.7-2.3
					c-0.2-0.3-0.4-0.5-0.6-0.8c-0.2-0.3-0.5-0.6-0.7-1c-0.3-0.4,0-0.7,0-1.2c0-0.5-0.3-0.8-0.8-0.8c-1.1-0.1-1.3-1.2-2.2-1.6
					c-0.1-0.4-0.2-0.7-0.4-1c1.4,1,2.6,2.1,3.9,3.2c0.2,0.2,0.6-0.1,0.4-0.3c-0.7-1-1.5-1.9-2.3-2.9C80.6,49.1,81.4,50.3,82.3,51.1z
					 M78.4,47.6c0,0.1,0,0.2,0,0.2c0.4,0.6,0.9,1.2,1.4,1.8c-0.9-0.8-1.9-1.6-3-2.2c-0.2-0.1-0.5,0.1-0.3,0.3c0.4,0.5,0.7,1,0.8,1.6
					c-0.2,0-0.3,0-0.4,0c-0.9-0.8-1.7-1.8-2.7-2.5c-0.2-0.2-0.4,0.1-0.3,0.3c0.1,0.2,0.2,0.5,0.3,0.7c-0.7-0.5-1.3-1.1-2.1-1.6
					C74.3,46.4,76.5,47,78.4,47.6z M75,48.4c-0.1-0.2-0.1-0.3-0.2-0.5c0.5,0.5,1,1,1.5,1.5c-0.3,0-0.6-0.1-1.3-0.6
					c0,0-0.1-0.1-0.1-0.1C75,48.6,75.1,48.5,75,48.4z M71.4,46.2C71.4,46.2,71.4,46.2,71.4,46.2c0.2,0.4,0.3,0.7,0.5,1
					c-0.6-0.3-1.2-0.7-1.8-1C70.5,46.2,71,46.2,71.4,46.2z M70.5,46.9c0.6,0.3,1.1,0.7,1.7,1c0.2,0.1,0.4-0.1,0.3-0.2
					c-0.1-0.3-0.2-0.6-0.3-0.8c0.6,0.5,1.2,1,1.8,1.4c0,0-0.1,0-0.1,0c-0.2,0-0.5,0-0.7,0.1c-0.8,0.2-1.6-0.1-2.4-0.1
					c-0.2,0-0.3,0-0.4,0c0,0,0,0,0,0C70.3,47.6,69.6,46.5,70.5,46.9z M67.6,47.2c0.1,0,0.2-0.1,0.2-0.2c0.6-0.3,1.1-0.5,1.8-0.7
					c0,0,0,0,0,0.1c0.1,0.5,0.2,0.9,0.4,1.4c0,0-1.4-0.5-1.6-0.6c-0.2-0.1-0.3,0.2-0.2,0.3c0.2,0.3,0.4,0.6,0.6,1
					c0,0-1.5,0.1-1.6,0.1c-0.1,0-0.2,0.2-0.1,0.2c0.2,0.1,0.4,0.2,0.6,0.3c0.1,0.1,0.3-0.1,0.1-0.2c-0.4-0.2-0.4-0.2,0-0.1
					c0.2,0,0.4,0,0.6,0c-0.4,0.3-0.8,0.6-1.3,0.7c-0.7-0.5-0.8-1-0.3-1.6c0.2-0.3,0.4-0.5,0.6-0.8C67.5,47.2,67.5,47.2,67.6,47.2z
					 M69.7,48.2c-0.2,0-0.4,0.1-0.6,0.2c-0.2-0.3-0.3-0.6-0.4-0.9C68.8,47.9,69.3,48.1,69.7,48.2z M61.5,95c0.1-0.3,0.1-0.6,0.1-0.8
					c0.5,0.2,0.9,0.5,1.4,0.7c-0.4-0.1-0.8,0-0.9,0.2c-0.1,0.1,0,0.2,0.1,0.1c0.2-0.2,0.9-0.1,1.7,0.1c0.2,0.1,0.4,0.2,0.6,0.2
					c0.4,0.1,0.7,0.3,1.1,0.4c0.2,0.1,0.4,0.2,0.6,0.2c0.2,0.1,0.4,0.2,0.5,0.2c0.2,0.1,0.2-0.2,0.1-0.3c-1.3-0.5-2.5-1-3.8-1.5
					C62.8,94.5,62,94,61.8,94c0.9,0,1.8,0.2,2.7,0.5c0.4,0.1,0.7,0.2,1.1,0.3c0.9,0.4,1.8,0.6,2.8,0.8c0.2,0,0.2-0.3,0-0.3
					c-0.9-0.2-1.7-0.5-2.6-0.7c-0.6-0.3-1.2-0.6-1.8-0.9c-0.9-0.5-1.9-1.1-2.8-1.8c-0.6-0.4-0.6-0.3,0-0.2c0.7,0,1.5,0.2,2.2,0.4
					c1.6,0.6,3.3,1.2,4.9,1.7c0.6,0.2,1.3,0.4,1.9,0.6c0.2,0.1,0.3-0.3,0.1-0.3c-0.8-0.3-1.6-0.5-2.4-0.8c-1.4-0.5-2.7-1-4.1-1.4
					c-1.9-0.7-3.7-1.6-5.4-2.7c0.2,0,0.4,0,0.5,0c1.2,1,3.1,1.2,4.6,1.7c1.8,0.5,3.6,1.1,5.4,1.6c1.1,0.3,2.3,0.6,3.5,0.7
					c0,0,0,0,0,0c0,0,0,0,0,0c0,0,0,0,0.1,0c0.2,0,0.3-0.4,0.1-0.4c-1-0.2-2-0.4-3-0.7c-3.5-1-6.8-2.9-10.4-3.3
					c0-0.1-0.1-0.1-0.1-0.2c2.3,0,4.7,1.1,6.9,1.8c2.3,0.8,4.8,1.1,7.2,1.6c0.2,0,0.4-0.3,0.2-0.4c-0.5-0.3-1.1-0.5-1.6-0.8
					c0.7-0.1,1.4,0,2.1,0.1c0.1,0.5,0.1,1.1,0,1.6c-0.3,1.5-1.7,1.8-3,2.1c-1.6,0.4-2.9,1.1-3.1,2.9C65.7,97,63.5,96.2,61.5,95z
					 M58.3,84.5c1.8,1,3.6,1.8,5.4,2.6c-2.1-0.6-4.1-1.3-6.2-1.7c-0.2,0-0.3,0.2-0.1,0.3c1.6,1,3.4,1.7,5.2,2.3
					c-1.5-0.4-3-0.7-4.6-0.6c0,0-0.1,0-0.1,0.1c-0.6-0.9-1.3-1.8-0.7-3c0.2-0.4,0.3-0.7,0.4-1.1c0.8,0.4,1.6,0.6,2.4,0.9
					c-0.6-0.1-1.1-0.2-1.7-0.2C58.2,84,58.1,84.4,58.3,84.5z M59.1,88.2C59.2,88.2,59.2,88.1,59.1,88.2c-0.5-0.4-1.1-0.5,0.1-0.5
					c1.2,0,2.3,0.4,3.5,0.7c1.7,0.5,3.4,1.2,5.1,1.7c0.2,0.1,0.3-0.2,0.1-0.3c-3-1.5-6.3-2.1-9.3-3.7c2.5,0.6,4.9,1.6,7.5,2.1
					c0.2,0,0.4-0.3,0.2-0.4c-2.3-1-4.5-1.9-6.7-3c1.1,0.2,2.1,0.4,3.2,0.6c0.2,0,0.4-0.3,0.2-0.4c-1.7-0.8-3.6-1.1-5.2-1.9
					c0.4,0,0.8,0,1.2,0.1c0.1,0,0.2,0.1,0.4,0.1c0.3,0.1,0.4-0.4,0.1-0.4c-1-0.2-2-0.5-2.9-1c0-0.1,0-0.2-0.1-0.2
					c0,0-0.8-0.8-1.1-0.6c0.1,0,0.1-0.1,0.1-0.1c0.1-0.1,0.1-0.2,0-0.2c-0.1-0.1-0.5-0.5-0.7-0.8c0-0.1-0.1-0.2-0.1-0.2
					c0-0.1,0.1-0.1,0-0.2c-0.1-0.2-0.2-0.3-0.3-0.3c0,0,0-0.1-0.1-0.1c0-0.1,0.2,0,0.8,0c0.2,0,0.3-0.2,0.1-0.3
					c-0.4-0.2-2.5-1.1-0.8-0.8c0.2,0,0.4-0.2,0.2-0.3c-0.3-0.3-0.6-0.5-1-0.8c0,0,0.1,0,0.2,0.1c0.2,0.1,0.4-0.2,0.2-0.4
					c-0.7-0.4-1.3-0.8-1.9-1.2c0.1,0,0.2-0.2,0.1-0.3c-0.2-0.3-0.4-0.7-0.7-1c0,0,0-0.1,0-0.1c0.2,0,0.3,0,0.4,0
					c0.1,0,0.3-0.1,0.3-0.3c-0.4-0.9-0.9-1.3,0.2-1.7c0.1,0,0.2-0.2,0.1-0.3c-0.1-0.1-0.3-0.4-0.4-0.7c0.1-0.1,0.1-0.1,0-0.2
					c0,0-0.1-0.1-0.1-0.1c-0.1-0.1-0.2-0.1-0.3-0.1c0-0.1,0.1-0.2,0.1-0.4c0.4,0.4,0.8,0.8,1.4,1.1c0.1,0.1,0.3-0.1,0.1-0.2
					c-0.4-0.2-0.8-0.5-1.2-0.9c0.2-0.1,0.4-0.3,0.6-0.4c0.3,0.1,0.7,0.2,1,0.4c0.1,0,0.2-0.1,0.2-0.2c-0.2-0.6-0.5-1.1-0.9-1.6
					c0.4,0.2,0.9,0.4,1.3,0.6c0,0,0.1,0,0.1,0c0.8,0.5,1.7,1,2.6,1.4c0.1,0.1,0.2,0.2,0.4,0.3c0.4,0.3,0.8,0.7,1.1,1.1
					c0.1,0.1-1.5,0.1-1.7,0c-0.2,0-0.2,0.2-0.1,0.3c0.4,0.4,0.8,0.7,1.2,0.9l-0.1,0c-0.1,0-0.2,0.1-0.2,0.2c-0.1,0.1-0.1,0.2,0,0.3
					c0.1,0,0.2,0,0.3,0c0,0,0.1,0,0.1,0c0,0,0.1,0,0.1,0c0,0.1,0,0.1,0,0.2c0,0.5,0,1-0.4,1.4c-0.1,0.1-0.8-1.5-0.8-1.7
					c-0.3-1.1-0.6-3.1-2.2-3c-1.8,0.1-0.8,2.6-2.4,3c-0.1,0-0.2,0.2-0.1,0.3c0.2,0.7,0.4,1.4,1.1,1.7c0.8,0.4,1-0.6,1.6,0.9
					c0.3,0.7,0.6,1.9,0.4,2.6c-0.5,2.6,2.6,2.7,4.4,3.2c0,0.1,0,0.2,0.1,0.2c1.6,0.7,2.6,1.8,3.8,2.9c0.8,0.8,1.8,1,2.7,1.5
					c1.2,0.6,1.3,2.5,2.2,3.4c0.5,0.5,1.4,0.4,2,0.2c0.5-0.1,1-0.4,1.5-0.5c0.7-0.2,1.1-0.1,1.4,0.3c-0.1,0-0.2,0.1-0.2,0.3
					c-0.7-0.1-1.4-0.1-2.1,0.1c-0.2,0-0.2,0.3,0,0.4c0.3,0.2,0.5,0.3,0.8,0.5c-2.1-0.4-4.3-0.8-6.3-1.5c-2.3-0.7-4.5-1.6-7-1.6
					c-0.1,0-0.2,0.2-0.2,0.3c0,0.1,0.1,0.1,0.2,0.2c-0.2,0-0.4,0-0.7,0c0.1-0.4,0.1-0.9,0-1.2c0,0,0,0,0,0
					C58.7,88,58.1,87.7,59.1,88.2z M54.3,78.5c-0.1,0-0.1,0-0.2,0c-0.1-0.1-0.1-0.2-0.2-0.3c0.1,0,0.1,0.1,0.2,0.1
					C54.1,78.4,54.2,78.5,54.3,78.5z M53.7,77.4c-0.1,0-0.3,0-0.4,0c0,0,0,0,0,0c-0.2-0.2-0.3-0.5-0.5-0.7
					C53.1,76.9,53.4,77.1,53.7,77.4z M51.3,73.4c0-0.2-0.1-0.5-0.1-0.8C51.6,73.1,51.7,73.4,51.3,73.4z M51.3,71.9
					c0.1-0.3,0.1-0.7,0.2-1C51.5,71.6,52.4,71.6,51.3,71.9z M61.9,52.3c0.3,0.3,0.5,0.6,0.6,0.9c-0.5-0.1-1-0.1-1.4-0.2
					c0-0.2,0-0.3,0-0.4c0-0.1-0.1-0.2-0.1-0.3c0-0.1-0.1-0.2-0.1-0.2c-0.3-0.3-0.2-0.5,0.3-0.8c0.2,0.3,0.4,0.6,0.7,0.7c0,0,0,0,0,0
					C61.8,52,61.8,52.2,61.9,52.3z M65.1,63.2c0.3,0.4,0.7,0.7,1,1c-0.5-0.2-1.1-0.4-1.7-0.6c-0.2-0.1-0.4,0.2-0.2,0.4
					c0.5,0.4,1,0.9,1.5,1.3c-0.6-0.3-1.2-0.5-1.9-0.6c0,0,0,0-0.1,0c0.1-0.1,0.1-0.2,0.1-0.3c0.2-0.5,0.2-1.1,0.3-1.7
					c0.1-0.5,0.2-0.9,0.8-1.2c1.3-1,1.2,0.7,1.1,1.5c-0.2-0.1-0.4-0.2-0.6-0.3C65,62.7,64.9,63,65.1,63.2z M65,66.4
					c-0.6-0.2-1.2-0.3-1.8-0.4c-0.1,0-0.2,0.2-0.1,0.2c0.2,0.1,0.5,0.2,0.8,0.2c0.6,0.2,1.2,0.3,1.7,0.5c0.2,0.1,0.3-0.2,0.2-0.3
					c-0.4-0.4-0.8-0.8-1.2-1.1c0.8,0.3,1.6,0.7,2.5,1.1c0.2,0.1,0.4-0.3,0.2-0.4c-0.6-0.5-1.3-1.1-1.9-1.6c0.6,0.2,1.1,0.4,1.7,0.7
					c0.3,0.1,0.4-0.3,0.3-0.4c-0.3-0.3-0.6-0.7-1-1c0.6,0,0.9,0.1,1,0.8c0,0.1,0.2,0.2,0.3,0.1c0.1,0.3,0.2,0.7-0.1,1.1
					c-0.1,0.1,0,0.2,0.1,0.3c0.4,0.3,1,0.9,0.5,1.4c-0.6-0.5-1.5-0.6-2.1,0C65.4,68,66,69,66.7,69.1c0.6,0.1,1.3-0.2,1.9-0.2
					c1-0.1-0.7,0.5-1,0.5c-0.4,0-0.8-0.1-1.2-0.1c-0.5-0.1-1.1,0-1.6,0.1c0.1-0.1,0.1-0.2,0-0.3c0,0,0,0,0,0l0,0c0,0,0,0,0,0
					c-3.2-2.5-7.9-3.7-10.1-7.3c1.9,0.5,3.3,2,4.8,3.1c1.6,1.2,3.4,2.1,4.9,3.4c0.2,0.2,0.5-0.1,0.3-0.3c-2.8-2.6-6.2-4.4-9-7
					c2.1,0.4,3.8,1.8,5.6,2.8c0.2,0.1,0.4-0.2,0.3-0.4c-1.3-1.5-3-2.6-4.4-4c1.4,0.5,2.6,1.5,4.1,1.8c0,0,0.1,0,0.1,0
					c-0.1,1.4,0.6,2.7,0.7,4.1c0,0.1,0.1,0.2,0.2,0.2c0.5,0,0.9-0.2,1.1-0.5c0,0,0,0,0,0.1C64,65.5,64.6,65.9,65,66.4z M64.6,69.4
					c-0.3,0.1-0.6,0.3-0.9,0.6c0,0,0,0,0,0c-3.2-2.1-6.9-3.4-9.7-6.2c-0.2-0.2-0.3-0.4-0.5-0.6c0.7,0.2,1.3,0.5,1.9,0.8
					c0.9,0.5,1.8,1.2,2.7,1.7C60.1,67.2,62.4,68.2,64.6,69.4L64.6,69.4z M61.4,60.7C61.4,60.7,61.4,60.8,61.4,60.7
					c-0.9-1-2-1.8-3-2.7c1.5,0.4,2.9,1.3,4.4,1.8c-0.3,0.4-0.5,0.7-1.1,0.7C61.5,60.5,61.4,60.6,61.4,60.7z M65.1,58.3
					c-1.2-1.2-2.7-2-3.9-3.1c0.8,0.4,1.5,0.8,2.3,1.1c0.1,0.1,0.3-0.1,0.3-0.2c0.5,0.6,1.2,1,1.9,1.6c0,0,0.1,0.1,0.1,0.1
					c0,0.7,0,1.7-1.1,1.6c-0.1,0-0.2,0.1-0.2,0.2c-0.1,0.2-1-0.2-1.2-0.1c0,0,0,0,0,0c0,0,0,0,0,0c-1-1-2.2-1.8-3.1-2.8
					c1.7,0.5,3.1,1.5,4.8,2.1C65.1,58.8,65.2,58.5,65.1,58.3z M63.5,55.4c0,0.1,0.1,0.3,0.1,0.4c-0.7-0.8-1.4-1.6-2.1-2.3
					c0.5,0.1,1,0.2,1.5,0.2c0.2,0,0.3-0.2,0.2-0.4c-0.2-0.3-0.4-0.7-0.6-1c0.2,0,0.4,0,0.6,0c0.3,0,0.3-0.5,0-0.5l-0.7,0
					c0.2-0.1,0.5-0.1,0.7-0.2c0.5-0.1,1-0.2,1.5-0.4c1.2-0.4,0.5,0.5,0.2,1C64.3,53.1,63.2,54.3,63.5,55.4z M60.8,53.5
					c0.6,0.7,1.3,1.3,1.9,2c-0.8-0.4-1.6-0.9-2.4-1.3C60.4,54,60.6,53.8,60.8,53.5z M63.6,57.7c-1.4-0.6-2.7-1.4-4.2-1.7
					c-0.2,0-0.4,0.2-0.3,0.4C60,57.4,61,58.2,62,59c-1.4-0.6-2.7-1.4-4.3-1.6c-0.2,0-0.3,0.3-0.2,0.4c1,1,2.2,1.8,3.2,2.8
					c-1.4-0.5-2.7-1.5-4.2-1.8c-0.2,0-0.4,0.2-0.2,0.4c1.1,1.2,2.3,2.2,3.5,3.3c-1.5-0.9-3-1.8-4.7-1.9c-0.2,0-0.3,0.2-0.1,0.4
					c0.4,0.4,0.9,0.8,1.3,1.2c-0.6-0.4-1.3-0.6-2-0.8c-0.2,0-0.3,0.1-0.2,0.3c0.5,0.9,1.1,1.7,1.8,2.4c-0.9-0.5-1.8-1-2.9-1.2
					c-0.1,0-0.3,0.1-0.2,0.3c0.5,0.7,1.1,1.3,1.7,1.9c-0.7-0.4-1.5-0.6-2.4-0.7c-0.2,0-0.3,0.2-0.1,0.3c0.4,0.4,0.7,0.8,1.1,1.1
					c-0.4-0.2-0.8-0.3-1.1-0.5c-0.1-0.1-0.2,0.2-0.1,0.2c0.6,0.3,1.2,0.6,1.9,0.8c2.2,2,4.7,3.6,7.6,4.7c0.2,0.1,0.4-0.2,0.2-0.4
					c-2.2-1.7-4.7-3.2-7.2-4.4c-0.6-0.5-1.1-1-1.6-1.5c1.8,0.3,3.3,1.6,4.9,2.6c1.8,1.2,3.8,2.1,5.7,3c-0.2,0.1-0.3,0.1-0.5,0.1
					c-0.1,0-0.1,0.1-0.1,0.1c-0.7,0-1,0.2-1.4,0.7c-0.6,0.8-1.1,1.5-2.1,1.8c-0.2,0-0.4,0.1-0.5,0.2c-0.4-0.3-1-0.8-1.3-0.8
					c0.6,0.1,1.1,0,1.7-0.1c0.1,0,0.2-0.2,0.1-0.3c-0.3-0.3-0.6-0.6-1-0.9c0.7,0.3,1.4,0.6,2,0.8c0.2,0.1,0.3-0.2,0.2-0.3
					c-1.2-1.4-2.9-2.3-4.4-3.3c-1.5-1-2.8-2.2-4.5-2.6c1-2.6,2.8-5.1,4.6-6.8c1.3-1.3,2.6-2.5,3.8-3.9c0-0.1,0.1-0.1,0.2-0.2
					C60.9,56,62.3,56.7,63.6,57.7z M55.4,67c1.6,0.8,3.2,1.8,4.6,2.9C58.3,69.1,56.8,68.1,55.4,67z M51.8,66
					c0.8,0.2,1.6,0.8,2.3,1.3c1.7,1.2,3.9,2.3,5.4,3.8c-0.9-0.3-1.7-0.7-2.5-1.1c-0.9-0.7-1.8-1.2-2.8-1.6c-0.7-0.6-1.4-1.1-2-1.7
					C51.9,66.4,50.7,65.7,51.8,66z M53.2,68.1C53.2,68.1,53.2,68.1,53.2,68.1c-0.3-0.1-0.6-0.3-0.9-0.4c-0.2-0.1-0.3,0.2-0.2,0.3
					c0.4,0.3,1.9,1.9,0.7,1.5c-0.3-0.1-0.6-0.1-0.9-0.1c0.1-0.6,0.2-1.2,0-1.8c-0.3-0.8-0.8-0.5-1.2-0.1c0.1-0.4,0.2-0.9,0.4-1.3
					C51.8,66.9,52.5,67.5,53.2,68.1z M61.9,91.4c-0.5-0.1-1-0.1-1.5-0.1c-0.2,0-0.2,0.2-0.1,0.3c1.3,0.8,2.5,1.7,3.9,2.5
					c-0.9-0.2-1.7-0.4-2.6-0.4c-0.1-1-0.8-1.6-2.1-2.3c-0.9-0.5-1.5-1-1.5-2.2C59.3,90.1,60.6,90.8,61.9,91.4z M59.9,89.4
					c1.1,0.2,2.2,0.5,3.2,0.9c-0.1,0-0.3-0.1-0.4-0.1c-0.5-0.2-1.1-0.3-1.6-0.4c-0.1,0-0.3-0.1-0.4-0.1
					C60.3,89.6,60.1,89.5,59.9,89.4z M79.1,97.6c-3.7,1-7.3,0.9-10.9,0.1c0.3-3,3.8-2.1,5.5-3.6c1-0.9,1.4-3.9-0.2-4.5
					c-1-0.4-2,0.2-2.9,0.5c-2.3,0.8-2.6-2.5-3.9-3.5c-0.3-0.2-0.7-0.3-1-0.4c-0.9-0.3-1.7-1-2.3-1.7c-0.9-0.9-1.8-1.8-3-2.2
					c0,0,0,0,0-0.1c-1.6-1-5-0.6-4.5-3.4c0.2-1-0.4-2.4-0.9-3.2c-0.1-0.2-0.3-0.3-0.5-0.4c-0.2-0.1-0.6,0-0.7,0c0.4,0-1.9-1.1-1-1.3
					c0.8-0.2,0.9-1.4,1.1-2c0.1-0.6,0.6-0.9,1.5-0.8c0.6,0.2,0.8,1,1,1.5c0.2,0.6,0.3,1.3,0.5,1.9c0.1,0.2,0.5,1.4,1,1.1
					c0.9-0.5,0.8-2.1,1.7-2.4c0.5-0.2,0.9-0.2,1.3-0.6c0.6-0.7,0.6-1.8,1.9-1.7c0.2,0,0.2-0.2,0.2-0.3c0.5,0,0.7-0.2,1.2-0.5
					c0.6-0.5,1.6-0.4,2.4-0.4c1.1,0.1,2.5,0.5,3-0.8c0-0.1,0-0.3-0.1-0.3c-0.5-0.2-0.9-0.2-1.4-0.1c-0.5,0.1-0.9,0.2-1.4,0.2
					c-0.3-1,0-1.4,0.7-1.2c0.3,0.1,0.5,0.2,0.7,0.4c0.2,0.1,0.4,0,0.3-0.2c0.8-0.3,0.3-1.3-0.2-1.8c0.4-0.7,0.1-1.4-0.4-2
					c0,0,0,0-0.1,0c0-0.1,0-0.1-0.1-0.2c0-0.1-0.1-0.2-0.2-0.2c-0.3,0-0.7,0-1,0c0.2-0.7,0.4-1.6-0.2-2.1c-0.6-0.6-1.5-0.4-2,0.2
					c-0.6,0.7-0.6,1.7-0.7,2.6c0,0.1-0.9,1.6-0.9,0.9c0-0.3-0.1-0.5-0.2-0.8c-0.1-0.5-1.1-3.3,0-3c0.1,0,0.2,0,0.3-0.2
					c0.5-0.2,1-0.4,1.5-0.6c0.1,0.1,0.3,0.1,0.3,0c0.4-0.4,0.9-0.4,1.2-0.7c0.5-0.5,0.3-1.5,0.3-2.1c0-0.1-0.1-0.1-0.2-0.1
					c-1.1-1-2.6-1.5-1.6-3.5c0.5-1,1.3-1.8,1.5-3c0-0.1-0.1-0.3-0.2-0.3c-0.9,0.1-3.3,1.3-4,0.3c-0.3-0.4-0.5-0.5-1-0.2
					c-0.3,0.2-0.5,0.6-0.3,1c0.7,1.6-0.8,2.7-1.7,3.8c-1.8,2.1-4.1,3.6-5.5,6c-0.7,1.2-1.5,2.5-2,3.9c0,0-0.1,0-0.1,0
					c-0.2,0-0.3,0.2-0.2,0.3c0,0,0.1,0.1,0.1,0.1c-0.2,0.7-0.4,1.5-0.4,2.2c0,0.1-0.1,0.2-0.1,0.3c-0.1,0.3,0.3,0.4,0.4,0.1
					c0.8-0.7,1.1-0.6,0.8,0.2c0,0.2-0.1,0.5-0.2,0.7c0,0,0,0,0,0c-0.1,0-0.2,0.2-0.1,0.3c0,0,0,0,0,0c0,0,0,0,0,0
					c-0.2,0.6-0.3,1.2-0.4,1.8c-0.1,0.7-0.1,1.3,0,1.9c-0.2,0-0.3,0.2-0.2,0.4c0.1,0.1,0.2,0.2,0.3,0.3c0.1,0.3,0.2,0.6,0.3,0.9
					c-0.1,0.1-0.1,0.3,0,0.3c0.1,0,0.1,0.1,0.2,0.1c0.1,0.1,0.1,0.2,0.2,0.4c0.9,1.8,2.3,3.1,2.9,5C55,82,56,82,56.8,82.6
					c-0.2,0.1-0.2,0.3,0,0.4c0.2,0.1,0.3,0.2,0.5,0.2c-0.2,0.8-1,1.7-0.9,2.5c0.1,0.6,0.3,0.9,0.7,1.3c1,1.2,0.2,1.9,0.5,3
					c0.3,0.9,1.3,1.4,2,1.8c0.8,0.4,1.4,0.8,1.6,1.7c-0.1,0.1-0.1,0.2,0,0.2c0,0,0,0.1,0,0.1c0,0.3,0,0.5,0,0.8
					c-2-1.2-3.9-2.6-5.7-4.2c-6.8-6.4-10.3-15.9-7.7-25c2.4-8.7,10.3-16.2,19.2-18.3c-0.8,1-1.6,2.6,0,2.8c0.8,0.1,1.7-0.8,2.3-1.2
					c0.8-0.5,1.7-0.2,2.6-0.1c0.8,0.1,1.9-0.3,2.6,0.1c0.6,0.3,0.9,0.7,1.5,1c0.3,0.1,0.6,0.1,1,0.1c0.2,0.2,0.4,0.4,0.7,0.5
					c0.2,0.1,0.4,0,0.4-0.2c0-0.1,0-0.1,0-0.2c0.3,0.1,0.5,0.4,0.7,0.8c0.1,0.3,0.3,0.4,0.6,0.5c0.9,0.3,1.1,0.6,1.1,1.4
					c0,0.4,0.7,1.3,1.3,2c0,0.1,0,0.1,0.1,0.2c0.1,0,0.1,0.1,0.1,0.1c0.7,0.9,0.9,1.6-1,0.9c-0.1,0-0.2,0-0.2,0.1
					c-0.2,1.6-0.5,3.4,0.7,4.6c0.7,0.7,0.3,1.9,1.5,2c0.8,0,0.9-1,0.9-1.5c0-0.3-0.1-0.5-0.1-0.8c-0.1-1.1,0.7,0.3,0.7,0.6
					c0,0.1-0.7,2.2-0.9,2.2c-0.1,0-0.2,0.1-0.2,0.1c-0.1,0.4-0.1,0.7,0,1.2c0.1,1.1-0.6,1.8-1.3,2.5c-0.1,0.1,0,0.3,0.1,0.3
					c1.1,0.4-0.5,1.5,0,2.3c0.4,0.6,0.9,0.9,1.2,1.6c0.2,0.4,0.4,0.6,0.8,0.7c0.9,0.2,1.8-0.9,1.8-1.7c0-0.5-0.4-1.5,0-1.8
					c0.3-0.2,0.5-0.4,0.5-0.8c0.1-1.4,1-1.7,2.2-1.8c0.5,0,0.2,0.5,0.5,0.8c0.5,0.5,1-0.2,1.1-0.6c0-0.3-0.3-0.9-0.1-1
					c0.3-0.1,0.5-0.3,0.6-0.5c0.4,1.3,1.2,1.5,2,0.8c0,0.1,0,0.1,0.1,0.2c1.3,1.5-0.3,2-1,2.7c-0.3,0.3-0.1,1.1-0.1,1.5
					c-0.2,1.3-2-0.1-2.6,0c-1.1,0.2-1.1,1-2,1.6c-0.9,0.6-1.9,0.8-2.7,1.6c-0.8,0.7-1.2,1.8-1.5,2.8c-0.2,0.5-0.2,1-0.2,1.5
					c0,1.4,0,1-0.6,1.9c-0.4,0.7-0.3,1.2,0,1.9c0.4,1.1,1.1,2.1,1.5,3.3c0.2,0.5,0.2,1.4,0.6,1.8c1,1,2.7,0.1,3.5-0.6
					c0.3-0.3,1.5-1.7,2-1c0.5,0.7,0.9,1.4,1,2.2c0.1,1.4-1.9,2.7-2.8,3.6c-1.2,1.2-2,2.6-1.2,4.3c0,0,0,0,0,0
					C84.2,95.8,81.6,96.9,79.1,97.6z M86.7,94.3c-1.2-3,2.3-4.2,3.7-6.2c1.1-1.6,0.3-3-0.8-4.5c-0.1-0.1-0.2-0.1-0.3-0.1
					c-1.7,0.6-2.4,2.2-4.3,2.4c-0.8,0.1-1.3-1.4-1.7-2.6c0.6,0.9,1.4,1.7,2.3,2.3c0.2,0.1,0.4-0.1,0.3-0.3c-0.3-0.4-0.5-0.8-0.8-1.2
					c0.4,0.3,0.7,0.6,1.2,0.9c0.2,0.1,0.4-0.1,0.3-0.3c-0.3-0.5-0.7-0.9-1-1.4c0.5,0.4,1,0.8,1.6,1c0.2,0.1,0.3-0.1,0.2-0.2
					c-0.5-1-1.2-1.8-1.9-2.7c0.8,0.7,1.7,1.3,2.6,1.7c0.2,0.1,0.4-0.1,0.3-0.3c-0.7-1-1.5-1.9-2.3-2.7c2.5,2,5,4.1,6.6,6.8
					c-0.4-0.3-0.9-0.6-1.3-0.9c-0.2-0.1-0.4,0.1-0.3,0.3c0.2,0.4,0.4,0.7,0.6,1.1c-0.2-0.1-0.4-0.2-0.6-0.4
					c-0.2-0.1-0.4,0.1-0.3,0.3c0.2,0.5,0.5,1,0.8,1.5c-0.3-0.2-0.6-0.4-0.9-0.5c-0.1-0.1-0.3,0-0.3,0.2c0.2,0.5,0.3,1.3,0.7,1.6
					c-0.3-0.3-0.8-0.5-1.2-0.7c-0.1-0.1-0.3,0-0.2,0.2c0.2,0.7-0.1,0.5-0.7,0.4c-0.1,0-0.3,0.1-0.2,0.2c0.2,0.5,0.4,0.9,0.6,1.4
					c-0.1-0.3-1.1-0.5-1.4-0.6c-0.1,0-0.2,0.1-0.2,0.2c0.2,1.2,0.4,1.2-0.6,0.6c-0.1-0.1-0.2,0-0.2,0.1c0.2,0.5,0.2,1.1,0.3,1.7
					c0,0.1,0.2,0.1,0.2,0c0-0.9-0.5-1.9,0.6-0.9c0.1,0.1,0.3,0,0.2-0.1c-0.5-1.7,0.2-1.2,1.4-0.5C88.7,92.9,87.7,93.6,86.7,94.3z
					 M84,83.4c0.1,0,0.1,0,0.2-0.1c0.3,0.4,0.6,0.8,0.8,1.2C84.6,84.2,84.3,83.8,84,83.4z M89.8,92C89.8,92,89.8,92,89.8,92
					c-0.5-0.9-1.1-1.6,0.2-1.3c0.1,0,0.2-0.1,0.2-0.2c-0.3-1,0.7,0,1,0.3c0,0,0,0,0.1,0C90.7,91.2,90.3,91.6,89.8,92z M91.4,90.5
					c-0.2-0.5-0.3-1-0.5-1.5c-0.1-0.4,0.9,0.5,1.1,0.7c0,0,0.1,0,0.1,0C91.9,90,91.6,90.3,91.4,90.5z M92.3,89.6
					C92.3,89.5,92.3,89.5,92.3,89.6c-0.3-0.7-0.6-1.2-0.9-1.8c0.3,0.2,0.6,0.4,0.9,0.7c0.2,0.2,0.4,0,0.3-0.2
					c-0.3-0.5-0.5-0.9-0.8-1.4c0.5,0.3,0.9,0.6,1.4,1c0.2,0.1,0.4-0.1,0.3-0.3c-2.1-4.3-6.2-7-9.8-9.8c-0.2-0.2-0.5,0.1-0.3,0.3
					c1.5,1.4,2.9,2.8,4.2,4.4c-1.5-0.9-2.7-2.1-4-3.4c-0.2-0.2-0.4,0.1-0.3,0.3c1.2,1.5,2.5,2.9,3.6,4.5c-0.2-0.4-1.4-1.1-1.9-1.5
					c-0.6-0.6-1.2-1.2-1.9-1.8c-0.2-0.2-0.4,0.1-0.3,0.3c0.9,1,1.8,1.9,2.6,3c-0.7-0.6-1.3-1.4-2-2c-0.2-0.2-0.5,0.1-0.3,0.3
					c0.2,0.3,0.5,0.6,0.7,0.9c-0.1-0.1-0.2-0.1-0.4-0.2c-0.1,0-0.2,0-0.2,0.1c-0.1-0.4-0.3-0.8-0.4-1c-0.5-1-1.3-2-0.4-3.1
					c0.5-0.6,0.5-1.1,0.4-1.8c-0.2-1.4,0.8-3.1,1.6-4.1c0.6-0.7,1.8-1,2.7-1.5c0.4-0.2,0.6-0.5,0.9-0.9c1-1.6,1.6,0,2.6-0.1
					c0.6,0,1.3,0,1.4-0.8c0-0.4,0.3-0.7,0.2-1.1c-0.2-0.6,0.6-0.5,0.8-0.9c0.1-0.2,0.2-0.4,0.3-0.6c1,1.3,2.1,2.4,3,3.7
					c-1.1-0.9-2-1.9-3.3-2.6c-0.2-0.1-0.5,0.1-0.4,0.4c1.3,1.8,2.9,3.2,4.2,5c-1.5-1.2-2.9-2.6-4.7-3.3c-0.2-0.1-0.4,0.2-0.3,0.4
					c1,2.1,2.5,3.7,4.1,5.4c-2.2-1.5-3.9-3.6-6.1-5.1c-0.2-0.1-0.5,0.1-0.4,0.4c1.4,2.4,3.4,4.4,5.2,6.5c-2.4-2.2-4.4-4.8-7.3-6.3
					c-0.2-0.1-0.5,0.1-0.3,0.3c2.3,3.4,5.3,6.2,7.8,9.5c-3.1-2.9-5.6-6.4-9.3-8.6c-0.2-0.1-0.4,0.1-0.3,0.3c1.6,3.3,4.4,5.7,6.8,8.4
					c-2.5-2.5-4.8-5.2-7.7-7.4c0,0,0,0,0,0l0,0c0,0,0,0,0,0c-0.2-0.1-0.4,0.1-0.3,0.3c1.8,2.4,3.6,4.7,5.5,7
					c-0.7-0.6-1.4-1.2-2.1-1.9c-1.1-1-2.9-3.3-4.6-3.1c-0.1,0-0.1,0.2,0,0.2c1.7-0.2,3.7,2.5,4.8,3.6c1.3,1.2,2.6,2.3,3.8,3.5
					c0.9,1,1.8,2.1,2.8,3.1C93.8,87.8,93.1,88.7,92.3,89.6z"/>
			</g>
			<path fill="#F6921E" d="M75.9,57.1c-0.5-0.5-1.4-0.6-1.6-1.5c-0.2-0.6-0.2-0.9-0.8-1.2c-0.2-0.1-0.4,0.1-0.3,0.3
				c-0.2-0.2,0.1-0.2-0.4-0.1c-0.3,0.1-0.6,0.2-0.8,0.2c-0.5,0.1-1.5,0.2-1.5,0.6c0-0.2-0.3-0.3-0.4-0.1c-0.5,0.7-0.3,2.6,0.1,3.3
				c0.2,0.3,0.3,0.7,0.3,1c-0.1,0-0.1,0-0.2-0.1c-0.2,0-0.3,0.1-0.3,0.3c0.1,0.3,0.2,0.6,0.4,0.8c-0.1,0.3-0.1,0.6-0.2,1
				c-0.1,0-0.1,0-0.2,0c-0.1,0-0.2,0.2-0.2,0.3c0.1,0.1,0.2,0.3,0.3,0.4c0,0.4,0,0.8,0.2,1.2c0.4,0.9,1.5,1.5,2.3,0.7
				c1.1-1.1,0.8-2.8,1.7-3.8c0.1-0.1,0-0.2-0.1-0.1c-0.5,0.4-0.6,1-0.8,1.6c-0.2,0.7-0.4,1.3-0.9,1.9c-0.8,1-1.5,0.3-1.8-0.6
				c0.2,0.2,0.5,0.4,0.8,0.5c0.1,0.1,0.3-0.1,0.1-0.2c-0.4-0.3-0.8-0.7-1.1-1.1c0-0.1,0-0.1,0-0.2c0.4,0.1,0.8,0.4,1.1,0.6
				c0.2,0.1,0.4-0.1,0.3-0.3c-0.3-0.6-0.8-1.2-1.1-1.8c0-0.1,0.1-0.2,0.1-0.4c0.4,0.2,0.7,0.4,1.1,0.6c0.2,0.1,0.4-0.1,0.3-0.3
				c-0.3-0.6-0.7-1.1-1.1-1.6c0.9,0.2,1.7,0.6,2.5,0.8c0.2,0.1,0.4-0.2,0.3-0.3c-0.4-0.5-0.8-0.9-1.3-1.2c0.5,0.2,1,0.4,1.6,0.6
				c0.3,0.1,0.4-0.2,0.3-0.4c-0.4-0.5-0.8-0.9-1.3-1.3c0.4,0.1,0.7,0.3,1,0.5c0.2,0.1,0.5-0.1,0.4-0.4c-0.2-0.3-0.5-0.5-0.8-0.8
				c-0.2-0.1-0.4,0-0.4,0.2c-0.4-0.2-0.8-0.3-1.2-0.4c-0.3-0.1-0.4,0.3-0.3,0.4c0.4,0.5,0.9,0.9,1.4,1.4c-0.9-0.4-1.8-0.8-2.7-1.2
				c-0.2-0.1-0.5,0.2-0.3,0.4c0.8,0.7,1.7,1.2,2.5,1.9c-0.8-0.3-1.5-0.6-2.3-0.6c-0.4-0.8-0.8-2-0.3-2.8c0.9-0.1,2.3-0.3,3.1-0.8
				c0.5,0.4,0.4,1,0.7,1.5c0.2,0.3,0.8,0.6,1,0.8c0.9,0.6-0.2,2-0.4,2.9c0,0.2,0.3,0.3,0.4,0.1C75.4,59.7,76.4,57.6,75.9,57.1z
				 M71.2,62.1c-0.2-0.1-0.4-0.2-0.6-0.3c0-0.2,0.1-0.4,0.1-0.5C70.8,61.6,71,61.8,71.2,62.1z M71,59.6c0.1,0.2,0.3,0.4,0.4,0.6
				c-0.1-0.1-0.3-0.1-0.4-0.2C71,59.8,71,59.7,71,59.6z"/>
		</g>
	</g>
</g>
<g>
</g>
<g>
</g>
<g>
</g>
<g>
</g>
<g>
</g>
<g>
</g>
<g>
</g>
<g>
</g>
<g>
</g>
<g>
</g>
<g>
</g>
<g>
</g>
<g>
</g>
<g>
</g>
<g>
</g>
</svg>
