<?xml version="1.0" encoding="utf-8"?>
<!-- Generator: Adobe Illustrator 18.0.0, SVG Export Plug-In . SVG Version: 6.00 Build 0)  -->
<!DOCTYPE svg PUBLIC "-//W3C//DTD SVG 1.1//EN" "http://www.w3.org/Graphics/SVG/1.1/DTD/svg11.dtd">
<svg version="1.1" id="Layer_1" xmlns="http://www.w3.org/2000/svg" xmlns:xlink="http://www.w3.org/1999/xlink" x="0px" y="0px"
	 viewBox="0 0 31.8 30.9" enable-background="new 0 0 31.8 30.9" xml:space="preserve">
<path fill="#FFFFFF" d="M31.6,23.1l-4.8-4.8c0.2-0.6,0.1-1.2,0.1-1.8c0-0.4-0.1-0.9,0-1.2c0.1-0.3,0.3-0.6,0.6-1
	c0.4-0.6,0.9-1.2,0.9-2c0-0.8-0.5-1.4-0.9-2c-0.3-0.3-0.5-0.7-0.6-1c-0.1-0.3,0-0.7,0-1.2c0.1-0.7,0.2-1.5-0.2-2.1
	c-0.4-0.7-1.1-1-1.7-1.3c-0.4-0.2-0.8-0.3-1-0.6c-0.2-0.2-0.4-0.6-0.6-1c-0.3-0.6-0.6-1.4-1.3-1.7c-0.3-0.2-0.7-0.3-1.3-0.3
	c-0.3,0-0.6,0-0.9,0.1c-0.3,0-0.5,0.1-0.7,0.1c-0.2,0-0.3,0-0.4,0c-0.3-0.1-0.6-0.3-1-0.6c-0.6-0.4-1.2-0.9-2-0.9
	c-0.8,0-1.4,0.5-2,0.9c-0.3,0.3-0.7,0.5-1,0.6c-0.1,0-0.3,0-0.4,0c-0.2,0-0.5,0-0.7-0.1c-0.3,0-0.6-0.1-0.9-0.1
	c-0.5,0-0.9,0.1-1.3,0.3C9,2.1,8.7,2.8,8.4,3.4c-0.2,0.4-0.3,0.8-0.6,1C7.6,4.6,7.3,4.8,6.9,5C6.2,5.2,5.5,5.6,5.1,6.2
	C4.7,6.9,4.8,7.7,4.9,8.4c0,0.4,0.1,0.9,0,1.2c-0.1,0.3-0.3,0.6-0.6,1c-0.4,0.6-0.9,1.2-0.9,2c0,0.8,0.5,1.4,0.9,2
	c0.3,0.3,0.5,0.7,0.6,1c0.1,0.3,0,0.7,0,1.2c-0.1,0.6-0.1,1.2,0.1,1.8l-4.8,4.8C0,23.3,0,23.6,0,23.8c0.1,0.2,0.3,0.4,0.6,0.5
	L5.9,25l0.7,5.3c0,0.3,0.2,0.5,0.5,0.6c0.1,0,0.1,0,0.2,0c0.2,0,0.4-0.1,0.5-0.2l6.4-6.4c0.5,0.4,1.1,0.7,1.7,0.7
	c0.7,0,1.2-0.3,1.7-0.7l6.4,6.4c0.1,0.1,0.3,0.2,0.5,0.2c0.1,0,0.1,0,0.2,0c0.2-0.1,0.4-0.3,0.5-0.6l0.7-5.3l5.3-0.7
	c0.3,0,0.5-0.2,0.6-0.5C31.9,23.6,31.8,23.3,31.6,23.1z M7.8,28.7l-0.6-4.5c0-0.3-0.3-0.5-0.6-0.6l-4.5-0.6l3.7-3.7
	c0.3,0.2,0.7,0.4,1,0.5c0.4,0.2,0.8,0.3,1,0.6c0.2,0.2,0.4,0.6,0.6,1c0.3,0.6,0.6,1.4,1.3,1.7c0.3,0.2,0.7,0.3,1.3,0.3
	c0.3,0,0.6,0,0.9-0.1c0.3,0,0.5-0.1,0.7-0.1c0.2,0,0.3,0,0.4,0c0,0,0,0,0,0L7.8,28.7z M17.1,22.9c-0.4,0.3-0.8,0.6-1.2,0.6
	c-0.3,0-0.8-0.3-1.2-0.6c-0.4-0.3-0.9-0.6-1.4-0.8c-0.2-0.1-0.5-0.1-0.8-0.1c-0.3,0-0.6,0-0.9,0.1c-0.3,0-0.5,0.1-0.7,0.1
	c-0.3,0-0.4,0-0.6-0.1c-0.3-0.2-0.5-0.6-0.7-1.1c-0.2-0.5-0.4-1-0.8-1.4c-0.4-0.4-0.9-0.6-1.4-0.8c-0.5-0.2-0.9-0.4-1.1-0.7
	c-0.2-0.3-0.1-0.8-0.1-1.3c0.1-0.5,0.1-1.1,0-1.7c-0.1-0.5-0.5-1-0.8-1.4c-0.3-0.4-0.6-0.8-0.6-1.2c0-0.3,0.3-0.8,0.6-1.2
	c0.3-0.4,0.6-0.9,0.8-1.4c0.1-0.5,0.1-1.1,0-1.7c-0.1-0.5-0.1-1,0.1-1.3c0.2-0.3,0.6-0.5,1.1-0.7c0.5-0.2,1-0.4,1.4-0.8
	C9.2,5,9.4,4.5,9.7,4c0.2-0.5,0.4-0.9,0.7-1.1c0.1-0.1,0.3-0.1,0.6-0.1c0.2,0,0.5,0,0.7,0.1c0.3,0,0.6,0.1,0.9,0.1
	c0.3,0,0.5,0,0.8-0.1c0.5-0.1,1-0.5,1.4-0.8c0.4-0.3,0.8-0.6,1.2-0.6c0.3,0,0.8,0.3,1.2,0.6c0.4,0.3,0.9,0.6,1.4,0.8
	c0.2,0.1,0.5,0.1,0.8,0.1c0.3,0,0.6,0,0.9-0.1c0.3,0,0.5-0.1,0.7-0.1c0.3,0,0.4,0,0.6,0.1C21.8,3,22,3.5,22.2,4
	c0.2,0.5,0.4,1,0.8,1.4c0.4,0.4,0.9,0.6,1.4,0.8c0.5,0.2,0.9,0.4,1.1,0.7c0.2,0.3,0.1,0.8,0.1,1.3c-0.1,0.5-0.1,1.1,0,1.7
	c0.1,0.5,0.5,1,0.8,1.4c0.3,0.4,0.6,0.8,0.6,1.2c0,0.3-0.3,0.8-0.6,1.2c-0.3,0.4-0.6,0.9-0.8,1.4c-0.1,0.5-0.1,1.1,0,1.7
	c0.1,0.5,0.1,1-0.1,1.3c-0.2,0.3-0.6,0.5-1.1,0.7c-0.5,0.2-1,0.4-1.4,0.8c-0.4,0.4-0.6,0.9-0.8,1.4c-0.2,0.5-0.4,0.9-0.7,1.1
	c-0.1,0.1-0.3,0.1-0.6,0.1c-0.2,0-0.5,0-0.7-0.1c-0.3,0-0.6-0.1-0.9-0.1c-0.3,0-0.5,0-0.8,0.1C18,22.3,17.5,22.6,17.1,22.9z
	 M25.2,23.7c-0.3,0-0.5,0.3-0.6,0.6l-0.6,4.5l-5.2-5.2c0,0,0,0,0,0c0.1,0,0.3,0,0.4,0c0.2,0,0.5,0,0.7,0.1c0.3,0,0.6,0.1,0.9,0.1
	c0.5,0,0.9-0.1,1.3-0.3c0.7-0.4,1-1.1,1.3-1.7c0.2-0.4,0.3-0.8,0.6-1c0.2-0.2,0.6-0.4,1-0.6c0.3-0.2,0.7-0.3,1-0.5l3.7,3.7
	L25.2,23.7z"/>
<g>
	<g>
		<path fill="#FFFFFF" d="M18.7,14.2v1.7h-5.5v-1.7h1.9v-4.1c-0.1,0.1-0.2,0.2-0.4,0.3s-0.4,0.2-0.6,0.3c-0.2,0.1-0.4,0.2-0.7,0.2
			c-0.2,0.1-0.4,0.1-0.6,0.1V9.4c0.2,0,0.4-0.1,0.6-0.2S14,9,14.2,8.8c0.2-0.1,0.4-0.3,0.6-0.4c0.2-0.1,0.3-0.3,0.3-0.3H17v6.1H18.7
			z"/>
	</g>
</g>
<g>
</g>
<g>
</g>
<g>
</g>
<g>
</g>
<g>
</g>
<g>
</g>
<g>
</g>
<g>
</g>
<g>
</g>
<g>
</g>
<g>
</g>
<g>
</g>
<g>
</g>
<g>
</g>
<g>
</g>
</svg>
