<?xml version="1.0" encoding="utf-8"?>
<!-- Generator: Adobe Illustrator 18.0.0, SVG Export Plug-In . SVG Version: 6.00 Build 0)  -->
<!DOCTYPE svg PUBLIC "-//W3C//DTD SVG 1.1//EN" "http://www.w3.org/Graphics/SVG/1.1/DTD/svg11.dtd">
<svg version="1.1" id="Layer_1" xmlns="http://www.w3.org/2000/svg" xmlns:xlink="http://www.w3.org/1999/xlink" x="0px" y="0px"
	 viewBox="0 0 272.5 77.5" enable-background="new 0 0 272.5 77.5" xml:space="preserve">
<g id="social_x5F_corporativa.svg">
	<g>
		<g>
			
				<ellipse transform="matrix(0.9327 -0.3606 0.3606 0.9327 -3.309 13.6267)" fill="#FFFFFF" cx="34.9" cy="15.7" rx="15" ry="8.2"/>
			<g>
				<path fill="#FFFFFF" d="M61.3,36.7c0.8,8.2-5.7,16.6-16.9,19.3s-21.9-1.6-23.8-9.6c0,0-2.7-6,5.5-15.4c0,0,17.6,2.3,27-12.8
					C53.2,18.2,59.9,23.6,61.3,36.7z"/>
				<path fill="#FFFFFF" d="M59.6,13c5.8-2.5,10.5-5.5,9.5-8C68.4,3.3,62.7,2.2,56,3.6c0,0-4.9,1.1-8.2,2.3c0,0,6.7,1.6,6.4,9.3
					C54.3,15.2,57.1,14.1,59.6,13z"/>
				<path fill="#FFFFFF" d="M19.3,28.4c-6.2,3.1-14.3,3.3-15.7,0.4C2.2,25.9,2.7,19,21.1,14.1c0,0-4.5,4.6-4.5,8.7
					c0,0-0.3,3,2.4,5.3L19.3,28.4z"/>
				<path fill="#FFFFFF" d="M42.6,5.5C42.4,3,36,0.8,29,1.5c-6.6,0.6-11.7,3.7-11.5,6.2c0.2,2.5,3.4,4.6,6.9,4.1
					c0,0,6.9-5.3,16.2-6.2L42.6,5.5z"/>
			</g>
			<g>
				<path fill="#FFFFFF" d="M60.9,35.4c0.8,8.2-5.7,16.6-16.9,19.3C32.8,57.3,22.2,53,20.3,45c0,0-2.7-6,5.5-15.4
					c0,0,17.6,2.3,27-12.8C52.8,16.8,59.6,22.3,60.9,35.4z"/>
				<path fill="#FFFFFF" d="M59.2,11.7c5.8-2.5,10.5-5.5,9.5-8c-0.7-1.7-6.4-2.8-13.1-1.4c0,0-4.9,1.1-8.2,2.3c0,0,6.7,1.6,6.4,9.3
					C53.9,13.9,56.8,12.7,59.2,11.7z"/>
				<path fill="#FFFFFF" d="M19,27c-6.2,3.1-14.3,3.3-15.7,0.4c-1.4-2.9-0.9-9.8,17.5-14.7c0,0-4.5,4.6-4.5,8.7c0,0-0.3,3,2.4,5.3
					L19,27z"/>
				<path fill="#FFFFFF" d="M42.3,4.2c-0.2-2.5-6.6-4.7-13.7-4c-6.6,0.6-11.7,3.7-11.5,6.2c0.2,2.5,3.4,4.6,6.9,4.1
					c0,0,6.9-5.3,16.2-6.2L42.3,4.2z"/>
			</g>
			<path fill="#FFFFFF" d="M0.3,56.6c0,0,3.4-16.9,19.6-28.3c0,0,0.4,0.7,1.2,0.7c0,0-16,9-14.2,29.7c0,0-0.1,3.2-4.2,2.4
				C2.7,61.1-1.1,60.7,0.3,56.6z"/>
			<ellipse fill="#FFFFFF" cx="3.4" cy="58.9" rx="3.2" ry="2.4"/>
		</g>
		<g>
			<path fill="#FFFFFF" d="M123.6,17.5l-3-4.5h-0.2v4.5h-2.1v-11c0.4,0,0.9,0,1.4,0c0.5,0,1.1,0,1.7,0c0.6,0,1.2,0.1,1.6,0.2
				c0.5,0.1,0.9,0.3,1.3,0.5c0.3,0.2,0.6,0.6,0.8,1c0.2,0.4,0.3,0.9,0.3,1.4c0,0.4-0.1,0.8-0.2,1.1c-0.1,0.3-0.3,0.6-0.6,0.9
				c-0.2,0.3-0.5,0.5-0.9,0.7c-0.3,0.2-0.7,0.3-1.1,0.4c0.2,0.2,0.3,0.4,0.5,0.6c0.2,0.2,0.3,0.4,0.4,0.6l2.6,3.7H123.6z M123.3,9.8
				c0-1-0.7-1.6-2-1.6c-0.2,0-0.3,0-0.4,0c-0.1,0-0.3,0-0.4,0v3.2c0.1,0,0.2,0,0.3,0c0.1,0,0.3,0,0.4,0c0.6,0,1.1-0.1,1.5-0.4
				C123.1,10.7,123.3,10.3,123.3,9.8z"/>
			<path fill="#FFFFFF" d="M127.6,17.5v-11h6v1.8h-3.9V11h3.7v1.7h-3.7v3h3.9v1.8H127.6z"/>
			<path fill="#FFFFFF" d="M141.9,14.1c0,0.5-0.1,1-0.3,1.4c-0.2,0.4-0.5,0.8-0.9,1.1c-0.4,0.3-0.8,0.6-1.3,0.7
				c-0.5,0.2-1.1,0.3-1.7,0.3c-1,0-1.8-0.1-2.5-0.3l0.2-2c0.4,0.2,0.7,0.3,1.1,0.3c0.4,0.1,0.8,0.1,1.3,0.1c0.2,0,0.5,0,0.7-0.1
				c0.2-0.1,0.4-0.1,0.6-0.3c0.2-0.1,0.3-0.3,0.4-0.4c0.1-0.2,0.1-0.4,0.1-0.7c0-0.3-0.1-0.6-0.3-0.8c-0.2-0.2-0.5-0.4-0.9-0.5
				c-0.3-0.2-0.7-0.3-1.1-0.4c-0.4-0.1-0.8-0.3-1.1-0.6c-0.3-0.2-0.6-0.5-0.9-0.9c-0.2-0.4-0.3-0.9-0.3-1.5c0-0.5,0.1-0.9,0.3-1.3
				c0.2-0.4,0.5-0.8,0.8-1c0.4-0.3,0.8-0.5,1.3-0.7c0.5-0.2,1.1-0.2,1.8-0.2c0.3,0,0.6,0,1,0.1c0.4,0,0.7,0.1,1,0.1l-0.2,1.9
				c-0.3-0.1-0.6-0.2-0.9-0.2c-0.3-0.1-0.6-0.1-1-0.1c-0.6,0-1.1,0.1-1.4,0.4c-0.3,0.2-0.4,0.6-0.4,1c0,0.3,0.1,0.6,0.3,0.8
				c0.2,0.2,0.5,0.4,0.9,0.5c0.3,0.2,0.7,0.3,1.1,0.5c0.4,0.2,0.8,0.3,1.1,0.6c0.3,0.2,0.6,0.5,0.9,0.9
				C141.8,13.1,141.9,13.6,141.9,14.1z"/>
			<path fill="#FFFFFF" d="M150.6,9.8c0,0.5-0.1,1-0.3,1.5c-0.2,0.5-0.5,0.9-0.9,1.2c-0.4,0.3-0.8,0.6-1.4,0.8
				c-0.5,0.2-1.1,0.3-1.8,0.3c-0.1,0-0.2,0-0.3,0c-0.1,0-0.2,0-0.4,0v3.9h-2.1v-11c0.5,0,0.9,0,1.4,0c0.5,0,1,0,1.5,0
				c1.4,0,2.4,0.3,3.1,0.9C150.2,7.9,150.6,8.8,150.6,9.8z M148.4,10c0-0.5-0.2-1-0.5-1.3c-0.3-0.3-0.9-0.5-1.6-0.5
				c-0.1,0-0.3,0-0.4,0c-0.1,0-0.2,0-0.4,0v3.6c0.2,0,0.4,0,0.6,0c0.6,0,1.2-0.2,1.6-0.5C148.2,11,148.4,10.6,148.4,10z"/>
			<path fill="#FFFFFF" d="M161.6,11.8c0,0.9-0.1,1.7-0.4,2.4c-0.3,0.7-0.7,1.3-1.1,1.8c-0.5,0.5-1,0.9-1.7,1.2
				c-0.6,0.3-1.3,0.4-2.1,0.4c-0.8,0-1.6-0.1-2.2-0.4c-0.6-0.3-1.1-0.6-1.6-1.1c-0.4-0.5-0.7-1.1-0.9-1.7c-0.2-0.7-0.3-1.4-0.3-2.3
				c0-0.9,0.1-1.7,0.4-2.4c0.3-0.7,0.7-1.3,1.2-1.8c0.5-0.5,1.1-0.9,1.7-1.1c0.7-0.3,1.3-0.4,2.1-0.4c0.7,0,1.4,0.1,2,0.3
				c0.6,0.2,1.1,0.6,1.6,1c0.4,0.5,0.8,1,1,1.7C161.5,10.1,161.6,10.9,161.6,11.8z M159.4,12c0-1.2-0.2-2.2-0.7-2.8
				c-0.5-0.6-1.2-1-2.2-1c-0.4,0-0.7,0.1-1.1,0.2c-0.4,0.2-0.7,0.4-0.9,0.7c-0.3,0.3-0.5,0.7-0.6,1.1c-0.2,0.5-0.2,1-0.2,1.6
				c0,0.6,0.1,1.1,0.2,1.6c0.1,0.5,0.3,0.9,0.5,1.2c0.2,0.3,0.5,0.6,0.9,0.8c0.4,0.2,0.8,0.3,1.3,0.3c0.4,0,0.7-0.1,1.1-0.2
				c0.4-0.1,0.7-0.4,1-0.7c0.3-0.3,0.5-0.7,0.7-1.2C159.3,13.2,159.4,12.7,159.4,12z"/>
			<path fill="#FFFFFF" d="M170.2,17.5h-0.7l-3.2-5.5c-0.2-0.4-0.5-0.8-0.6-1.2c-0.2-0.4-0.4-0.8-0.5-1.1c0,0.2,0,0.5,0,0.8
				c0,0.3,0,0.7,0,1c0,0.4,0,0.7,0,1.1c0,0.4,0,0.7,0,1v3.9h-2.1v-11h2.1h0.7l3,5.2c0.2,0.4,0.5,0.9,0.7,1.3
				c0.2,0.4,0.4,0.9,0.6,1.3c0-0.3,0-0.6-0.1-1c0-0.4,0-0.8,0-1.2c0-0.4,0-0.8,0-1.2c0-0.4,0-0.8,0-1.1V6.5h2.1v11H170.2z"/>
			<path fill="#FFFFFF" d="M180.8,14.1c0,0.5-0.1,1-0.3,1.4c-0.2,0.4-0.5,0.8-0.9,1.1c-0.4,0.3-0.8,0.6-1.3,0.7
				c-0.5,0.2-1.1,0.3-1.7,0.3c-1,0-1.8-0.1-2.5-0.3l0.2-2c0.4,0.2,0.7,0.3,1.1,0.3c0.4,0.1,0.8,0.1,1.3,0.1c0.3,0,0.5,0,0.7-0.1
				c0.2-0.1,0.4-0.1,0.6-0.3c0.2-0.1,0.3-0.3,0.4-0.4c0.1-0.2,0.1-0.4,0.1-0.7c0-0.3-0.1-0.6-0.3-0.8c-0.2-0.2-0.5-0.4-0.9-0.5
				c-0.3-0.2-0.7-0.3-1.1-0.4c-0.4-0.1-0.8-0.3-1.1-0.6c-0.3-0.2-0.6-0.5-0.9-0.9c-0.2-0.4-0.3-0.9-0.3-1.5c0-0.5,0.1-0.9,0.3-1.3
				c0.2-0.4,0.5-0.8,0.8-1c0.4-0.3,0.8-0.5,1.3-0.7c0.5-0.2,1.1-0.2,1.8-0.2c0.3,0,0.6,0,1,0.1c0.4,0,0.7,0.1,1,0.1l-0.2,1.9
				c-0.3-0.1-0.6-0.2-0.9-0.2c-0.3-0.1-0.6-0.1-1-0.1c-0.6,0-1.1,0.1-1.4,0.4c-0.3,0.2-0.4,0.6-0.4,1c0,0.3,0.1,0.6,0.3,0.8
				c0.2,0.2,0.5,0.4,0.9,0.5c0.3,0.2,0.7,0.3,1.1,0.5c0.4,0.2,0.8,0.3,1.1,0.6c0.3,0.2,0.6,0.5,0.9,0.9
				C180.7,13.1,180.8,13.6,180.8,14.1z"/>
			<path fill="#FFFFFF" d="M188.9,17.5l-0.8-2.2H184l-0.8,2.2h-2.1l3.8-11h2.4l3.9,11H188.9z M186.6,10.5c-0.1-0.3-0.2-0.5-0.3-0.8
				c-0.1-0.2-0.1-0.5-0.2-0.7h0c-0.1,0.2-0.1,0.5-0.2,0.7c-0.1,0.2-0.2,0.5-0.2,0.8l-1.1,3.1h3.1L186.6,10.5z"/>
			<path fill="#FFFFFF" d="M199.9,14.1c0,0.4-0.1,0.8-0.2,1.2c-0.1,0.4-0.4,0.8-0.7,1.1c-0.3,0.3-0.8,0.6-1.4,0.8
				c-0.6,0.2-1.3,0.3-2.1,0.3c-0.3,0-0.8,0-1.3,0c-0.6,0-1.2,0-1.9,0v-11c0.5,0,1,0,1.7-0.1c0.6,0,1.3,0,2,0c1.2,0,2.1,0.2,2.7,0.7
				c0.6,0.5,1,1.1,1,2c0,0.6-0.1,1-0.4,1.5c-0.3,0.4-0.7,0.8-1.2,1v0c0.3,0.1,0.6,0.2,0.9,0.3c0.2,0.2,0.4,0.4,0.6,0.6
				c0.2,0.2,0.3,0.5,0.4,0.7C199.9,13.6,199.9,13.8,199.9,14.1z M197.3,9.5c0-0.4-0.1-0.7-0.4-1c-0.3-0.2-0.7-0.4-1.4-0.4
				c-0.2,0-0.4,0-0.6,0c-0.2,0-0.4,0-0.6,0v2.9c0.1,0,0.3,0,0.4,0c0.1,0,0.3,0,0.5,0c0.7,0,1.2-0.1,1.6-0.4
				C197.2,10.4,197.3,10,197.3,9.5z M197.6,14.1c0-0.5-0.2-0.9-0.6-1.2c-0.4-0.2-1-0.3-1.7-0.3c-0.1,0-0.2,0-0.4,0
				c-0.2,0-0.4,0-0.5,0v3.1c0.1,0,0.3,0,0.5,0c0.2,0,0.4,0,0.7,0c0.7,0,1.2-0.1,1.6-0.4C197.5,15,197.6,14.6,197.6,14.1z"/>
			<path fill="#FFFFFF" d="M201.7,17.5v-11h2.1v11H201.7z"/>
			<path fill="#FFFFFF" d="M206.2,17.5v-11h2.1v9.1h3.6v1.9H206.2z"/>
			<path fill="#FFFFFF" d="M213.1,17.5v-11h2.1v11H213.1z"/>
			<path fill="#FFFFFF" d="M226.7,11.8c0,0.9-0.1,1.8-0.4,2.5c-0.3,0.7-0.7,1.3-1.2,1.8c-0.5,0.5-1.2,0.8-1.9,1.1
				c-0.7,0.2-1.6,0.4-2.4,0.4c-0.6,0-1.1,0-1.6,0c-0.5,0-1,0-1.4-0.1V6.5c0.4,0,1,0,1.6-0.1c0.6,0,1.3,0,2,0c0.8,0,1.6,0.1,2.3,0.3
				c0.7,0.2,1.3,0.5,1.8,0.9c0.5,0.4,0.9,1,1.1,1.7C226.6,10,226.7,10.9,226.7,11.8z M224.5,12c0-0.6-0.1-1.1-0.2-1.6
				c-0.1-0.5-0.3-0.9-0.6-1.2c-0.3-0.3-0.6-0.6-1.1-0.7c-0.4-0.2-1-0.3-1.6-0.3c-0.2,0-0.5,0-0.7,0c-0.2,0-0.4,0-0.6,0v7.4
				c0.2,0,0.3,0,0.5,0.1c0.2,0,0.4,0,0.6,0c0.5,0,1-0.1,1.4-0.2c0.4-0.1,0.8-0.4,1.1-0.7c0.3-0.3,0.6-0.7,0.7-1.2
				C224.4,13.2,224.5,12.6,224.5,12z"/>
			<path fill="#FFFFFF" d="M234.5,17.5l-0.8-2.2h-4.2l-0.8,2.2h-2.1l3.8-11h2.4l3.9,11H234.5z M232.1,10.5c-0.1-0.3-0.2-0.5-0.3-0.8
				c-0.1-0.2-0.1-0.5-0.2-0.7h0c-0.1,0.2-0.1,0.5-0.2,0.7c-0.1,0.2-0.1,0.5-0.2,0.8l-1.1,3.1h3.1L232.1,10.5z"/>
			<path fill="#FFFFFF" d="M246.9,11.8c0,0.9-0.1,1.8-0.4,2.5c-0.3,0.7-0.7,1.3-1.2,1.8c-0.5,0.5-1.2,0.8-1.9,1.1
				c-0.7,0.2-1.6,0.4-2.4,0.4c-0.6,0-1.1,0-1.6,0c-0.5,0-1,0-1.4-0.1V6.5c0.4,0,1,0,1.6-0.1c0.6,0,1.3,0,2,0c0.8,0,1.6,0.1,2.3,0.3
				c0.7,0.2,1.3,0.5,1.8,0.9c0.5,0.4,0.9,1,1.1,1.7C246.8,10,246.9,10.9,246.9,11.8z M244.7,12c0-0.6-0.1-1.1-0.2-1.6
				c-0.1-0.5-0.3-0.9-0.6-1.2c-0.3-0.3-0.6-0.6-1.1-0.7c-0.4-0.2-1-0.3-1.6-0.3c-0.2,0-0.5,0-0.7,0c-0.2,0-0.4,0-0.6,0v7.4
				c0.2,0,0.3,0,0.5,0.1c0.2,0,0.4,0,0.6,0c0.5,0,1-0.1,1.4-0.2c0.4-0.1,0.8-0.4,1.1-0.7c0.3-0.3,0.6-0.7,0.7-1.2
				C244.6,13.2,244.7,12.6,244.7,12z"/>
		</g>
		<g>
			<path fill="#FFFFFF" d="M80.2,38.5c0,0.7-0.2,1.4-0.5,2.1c-0.3,0.6-0.8,1.1-1.4,1.6c-0.6,0.4-1.3,0.8-2.1,1
				c-0.8,0.2-1.7,0.4-2.7,0.4c-0.6,0-1.2,0-1.8-0.1c-0.6-0.1-1.1-0.1-1.6-0.3l0.3-3.3c0.5,0.2,1,0.4,1.5,0.5
				c0.6,0.1,1.1,0.2,1.7,0.2c0.7,0,1.3-0.1,1.8-0.4c0.4-0.3,0.7-0.7,0.7-1.2c0-0.4-0.2-0.8-0.5-1.1c-0.3-0.3-0.7-0.5-1.1-0.6
				C74,37,73.5,36.8,73,36.6c-0.5-0.2-1-0.4-1.5-0.7c-0.5-0.3-0.8-0.7-1.1-1.3c-0.3-0.5-0.5-1.2-0.5-2.1c0-0.7,0.1-1.3,0.4-1.9
				c0.3-0.6,0.6-1.1,1.2-1.5c0.5-0.4,1.2-0.8,2-1c0.8-0.3,1.7-0.4,2.8-0.4c0.4,0,0.9,0,1.4,0.1c0.5,0.1,0.9,0.1,1.4,0.3l-0.2,3
				c-0.4-0.1-0.8-0.2-1.3-0.3c-0.5-0.1-0.9-0.1-1.4-0.1c-0.8,0-1.3,0.1-1.7,0.4c-0.4,0.3-0.5,0.7-0.5,1.1c0,0.4,0.2,0.8,0.5,1
				c0.3,0.2,0.7,0.5,1.2,0.6c0.5,0.2,1,0.4,1.5,0.6c0.5,0.2,1,0.5,1.5,0.8c0.5,0.3,0.9,0.7,1.2,1.2C80,37,80.2,37.6,80.2,38.5z"/>
			<path fill="#FFFFFF" d="M95.7,35.3c0,1.2-0.2,2.3-0.6,3.3c-0.4,1-0.9,1.9-1.6,2.6c-0.7,0.7-1.5,1.3-2.4,1.7
				c-0.9,0.4-2,0.6-3.1,0.6c-1.1,0-2-0.1-2.9-0.4c-0.9-0.3-1.6-0.7-2.2-1.4c-0.6-0.6-1.1-1.4-1.4-2.4c-0.3-1-0.5-2.1-0.5-3.5
				c0-1.2,0.2-2.3,0.6-3.3c0.4-1,0.9-1.8,1.6-2.6c0.7-0.7,1.5-1.3,2.4-1.7c0.9-0.4,2-0.6,3.1-0.6c2.2,0,3.9,0.6,5.1,1.8
				C95,30.8,95.7,32.7,95.7,35.3z M91.6,35.5c0-1.5-0.3-2.6-0.8-3.4c-0.5-0.8-1.4-1.2-2.5-1.2c-0.4,0-0.8,0.1-1.3,0.3
				c-0.4,0.2-0.8,0.4-1.1,0.8c-0.3,0.4-0.6,0.8-0.8,1.4c-0.2,0.6-0.3,1.2-0.3,2c0,3.1,1.1,4.7,3.4,4.7c1,0,1.8-0.4,2.4-1.2
				C91.3,38.2,91.6,37.1,91.6,35.5z"/>
			<path fill="#FFFFFF" d="M105.3,43.3c-0.8,0.1-1.5,0.2-2.3,0.2c-1.1,0-2-0.1-2.8-0.4c-0.8-0.3-1.6-0.7-2.1-1.3
				c-0.6-0.6-1-1.3-1.4-2.3c-0.3-0.9-0.5-2-0.5-3.3c0-1.2,0.2-2.3,0.5-3.3c0.3-1,0.8-1.9,1.4-2.6c0.6-0.8,1.4-1.3,2.4-1.8
				c1-0.4,2.1-0.6,3.4-0.6c0.6,0,1.2,0,1.7,0.1c0.6,0.1,1.1,0.2,1.6,0.4l-0.6,3.3c-0.4-0.2-0.9-0.3-1.3-0.4c-0.5-0.1-1-0.2-1.5-0.2
				c-1.2,0-2,0.4-2.6,1.3c-0.6,0.9-0.9,2-0.9,3.4c0,0.7,0.1,1.2,0.2,1.8c0.1,0.5,0.3,1,0.6,1.4c0.3,0.4,0.6,0.7,1.1,0.9
				c0.4,0.2,1,0.3,1.6,0.3c1.1,0,2-0.2,3-0.6l0.5,3.3C106.7,43,106.1,43.1,105.3,43.3z"/>
			<path fill="#FFFFFF" d="M113.1,23.5c0,0.6-0.2,1.2-0.7,1.7c-0.5,0.5-1.1,0.7-1.7,0.7c-0.7,0-1.2-0.2-1.7-0.7
				c-0.5-0.5-0.7-1-0.7-1.7c0-0.6,0.2-1.2,0.7-1.7c0.5-0.5,1-0.7,1.7-0.7c0.7,0,1.2,0.2,1.7,0.7C112.9,22.2,113.1,22.8,113.1,23.5z
				 M108.7,43.2V28h3.9v15.1H108.7z"/>
			<path fill="#FFFFFF" d="M123.4,43.2c0-0.5,0-0.9,0-1.3c0-0.4,0.1-0.9,0.1-1.3l0,0c-0.4,0.9-1,1.6-1.8,2.1c-0.9,0.5-1.9,0.8-3,0.8
				c-1.4,0-2.4-0.4-3.2-1.2c-0.8-0.8-1.1-1.9-1.1-3.1c0-0.9,0.2-1.7,0.6-2.3c0.4-0.7,1-1.2,1.8-1.7c0.8-0.4,1.7-0.8,2.8-1
				c1.1-0.2,2.3-0.3,3.6-0.3v-0.8c0-0.8-0.2-1.4-0.7-1.8c-0.4-0.4-1.2-0.6-2.3-0.6c-0.7,0-1.4,0.1-2.2,0.3c-0.8,0.2-1.5,0.5-2.1,0.8
				l-0.7-3.1c0.8-0.3,1.7-0.5,2.6-0.7c1-0.2,2-0.3,3-0.3c1.2,0,2.2,0.1,3,0.4c0.8,0.2,1.4,0.6,1.9,1c0.5,0.4,0.8,1,1,1.6
				c0.2,0.6,0.3,1.3,0.3,2.1v6.5c0,0.6,0,1.3,0,1.9c0,0.7,0,1.3,0.1,2H123.4z M123.2,36.4c-1,0-1.8,0.1-2.5,0.2
				c-0.7,0.1-1.2,0.3-1.6,0.5c-0.4,0.2-0.6,0.5-0.8,0.7c-0.2,0.3-0.2,0.6-0.2,0.9c0,0.5,0.2,0.9,0.5,1.3c0.3,0.3,0.8,0.5,1.3,0.5
				c0.5,0,0.9-0.1,1.3-0.3c0.4-0.2,0.7-0.5,1-0.8c0.3-0.3,0.5-0.7,0.7-1.1c0.2-0.4,0.2-0.9,0.2-1.3V36.4z"/>
			<path fill="#FFFFFF" d="M129.8,43.2V21h3.9v22.2H129.8z"/>
			<path fill="#FFFFFF" d="M149.5,43.3c-0.8,0.1-1.5,0.2-2.3,0.2c-1.1,0-2-0.1-2.8-0.4c-0.8-0.3-1.6-0.7-2.1-1.3
				c-0.6-0.6-1-1.3-1.4-2.3c-0.3-0.9-0.5-2-0.5-3.3c0-1.2,0.2-2.3,0.5-3.3c0.3-1,0.8-1.9,1.4-2.6c0.6-0.8,1.4-1.3,2.4-1.8
				c1-0.4,2.1-0.6,3.4-0.6c0.6,0,1.2,0,1.7,0.1c0.6,0.1,1.1,0.2,1.6,0.4l-0.6,3.3c-0.4-0.2-0.9-0.3-1.3-0.4c-0.5-0.1-1-0.2-1.5-0.2
				c-1.2,0-2,0.4-2.6,1.3c-0.6,0.9-0.9,2-0.9,3.4c0,0.7,0.1,1.2,0.2,1.8c0.1,0.5,0.3,1,0.6,1.4c0.3,0.4,0.6,0.7,1.1,0.9
				c0.4,0.2,1,0.3,1.6,0.3c1.1,0,2-0.2,3-0.6l0.5,3.3C151,43,150.3,43.1,149.5,43.3z"/>
			<path fill="#FFFFFF" d="M166.2,35.3c0,1.2-0.2,2.3-0.6,3.3c-0.4,1-0.9,1.9-1.6,2.6c-0.7,0.7-1.5,1.3-2.4,1.7
				c-0.9,0.4-2,0.6-3.1,0.6c-1.1,0-2-0.1-2.9-0.4c-0.9-0.3-1.6-0.7-2.2-1.4c-0.6-0.6-1.1-1.4-1.4-2.4c-0.3-1-0.5-2.1-0.5-3.5
				c0-1.2,0.2-2.3,0.6-3.3c0.4-1,0.9-1.8,1.6-2.6c0.7-0.7,1.5-1.3,2.4-1.7c0.9-0.4,2-0.6,3.1-0.6c2.1,0,3.9,0.6,5.1,1.8
				C165.6,30.8,166.2,32.7,166.2,35.3z M162.2,35.5c0-1.5-0.3-2.6-0.8-3.4c-0.5-0.8-1.4-1.2-2.5-1.2c-0.4,0-0.8,0.1-1.3,0.3
				c-0.4,0.2-0.8,0.4-1.1,0.8c-0.3,0.4-0.6,0.8-0.8,1.4c-0.2,0.6-0.3,1.2-0.3,2c0,3.1,1.1,4.7,3.4,4.7c1,0,1.8-0.4,2.4-1.2
				C161.9,38.2,162.2,37.1,162.2,35.5z"/>
			<path fill="#FFFFFF" d="M176,31.5c-2.8-0.5-4.2,1.3-4.2,5.4v6.2h-3.9V28h3.7c0,0.4,0,0.9-0.1,1.4c0,0.6-0.1,1.1-0.2,1.6h0.1
				c0.2-0.5,0.4-0.9,0.7-1.4c0.3-0.4,0.6-0.8,1-1.1c0.4-0.3,0.9-0.6,1.4-0.7c0.5-0.2,1.1-0.2,1.8-0.2L176,31.5z"/>
			<path fill="#FFFFFF" d="M191,34.8c0,1.3-0.2,2.5-0.5,3.6c-0.3,1.1-0.9,2-1.5,2.7c-0.7,0.8-1.5,1.3-2.5,1.7
				c-1,0.4-2.1,0.6-3.4,0.6c-0.4,0-0.7,0-1,0c-0.3,0-0.6-0.1-0.9-0.1v7.2h-3.9V28h3.6c0,0.4,0,0.8,0,1.2c0,0.5-0.1,0.9-0.1,1.3h0.1
				c0.4-0.9,1-1.6,1.8-2.1c0.8-0.5,1.8-0.7,2.9-0.7c1.8,0,3.2,0.6,4.1,1.8C190.5,30.8,191,32.6,191,34.8z M186.9,35.2
				c0-2.9-0.9-4.3-2.6-4.3c-0.5,0-1,0.1-1.4,0.4c-0.4,0.3-0.7,0.6-1,1.1c-0.3,0.5-0.5,1-0.6,1.6c-0.2,0.6-0.2,1.2-0.2,1.9v4.2
				c0.6,0.2,1.3,0.3,2.1,0.3c0.6,0,1.1-0.1,1.5-0.3c0.5-0.2,0.9-0.5,1.2-0.9c0.3-0.4,0.6-0.9,0.8-1.6
				C186.8,37,186.9,36.2,186.9,35.2z"/>
			<path fill="#FFFFFF" d="M206.4,35.3c0,1.2-0.2,2.3-0.6,3.3c-0.4,1-0.9,1.9-1.6,2.6c-0.7,0.7-1.5,1.3-2.4,1.7
				c-0.9,0.4-2,0.6-3.1,0.6c-1.1,0-2-0.1-2.9-0.4c-0.9-0.3-1.6-0.7-2.2-1.4c-0.6-0.6-1.1-1.4-1.4-2.4c-0.3-1-0.5-2.1-0.5-3.5
				c0-1.2,0.2-2.3,0.6-3.3c0.4-1,0.9-1.8,1.6-2.6c0.7-0.7,1.5-1.3,2.4-1.7c0.9-0.4,2-0.6,3.1-0.6c2.1,0,3.9,0.6,5.1,1.8
				C205.8,30.8,206.4,32.7,206.4,35.3z M202.4,35.5c0-1.5-0.3-2.6-0.8-3.4c-0.5-0.8-1.4-1.2-2.5-1.2c-0.4,0-0.8,0.1-1.3,0.3
				c-0.4,0.2-0.8,0.4-1.1,0.8c-0.3,0.4-0.6,0.8-0.8,1.4c-0.2,0.6-0.3,1.2-0.3,2c0,3.1,1.1,4.7,3.4,4.7c1,0,1.8-0.4,2.4-1.2
				C202.1,38.2,202.4,37.1,202.4,35.5z"/>
			<path fill="#FFFFFF" d="M216.1,31.5c-2.8-0.5-4.2,1.3-4.2,5.4v6.2h-3.9V28h3.7c0,0.4,0,0.9-0.1,1.4c0,0.6-0.1,1.1-0.2,1.6h0.1
				c0.2-0.5,0.4-0.9,0.7-1.4c0.3-0.4,0.6-0.8,1-1.1c0.4-0.3,0.9-0.6,1.4-0.7c0.5-0.2,1.1-0.2,1.8-0.2L216.1,31.5z"/>
			<path fill="#FFFFFF" d="M224.9,43.2c0-0.5,0-0.9,0-1.3c0-0.4,0.1-0.9,0.1-1.3l0,0c-0.4,0.9-1,1.6-1.8,2.1c-0.9,0.5-1.9,0.8-3,0.8
				c-1.4,0-2.4-0.4-3.2-1.2c-0.8-0.8-1.1-1.9-1.1-3.1c0-0.9,0.2-1.7,0.6-2.3c0.4-0.7,1-1.2,1.8-1.7c0.8-0.4,1.7-0.8,2.8-1
				c1.1-0.2,2.3-0.3,3.6-0.3v-0.8c0-0.8-0.2-1.4-0.7-1.8c-0.4-0.4-1.2-0.6-2.3-0.6c-0.7,0-1.4,0.1-2.2,0.3c-0.8,0.2-1.5,0.5-2.1,0.8
				l-0.7-3.1c0.8-0.3,1.7-0.5,2.6-0.7c1-0.2,2-0.3,3-0.3c1.2,0,2.2,0.1,3,0.4c0.8,0.2,1.4,0.6,1.9,1c0.5,0.4,0.8,1,1,1.6
				c0.2,0.6,0.3,1.3,0.3,2.1v6.5c0,0.6,0,1.3,0,1.9c0,0.7,0,1.3,0.1,2H224.9z M224.6,36.4c-1,0-1.8,0.1-2.5,0.2
				c-0.7,0.1-1.2,0.3-1.6,0.5c-0.4,0.2-0.6,0.5-0.8,0.7c-0.2,0.3-0.2,0.6-0.2,0.9c0,0.5,0.2,0.9,0.5,1.3c0.3,0.3,0.8,0.5,1.3,0.5
				c0.5,0,0.9-0.1,1.3-0.3c0.4-0.2,0.7-0.5,1-0.8c0.3-0.3,0.5-0.7,0.7-1.1c0.2-0.4,0.2-0.9,0.2-1.3V36.4z"/>
			<path fill="#FFFFFF" d="M237.7,43.4c-0.6,0.1-1.1,0.1-1.7,0.1c-0.8,0-1.5-0.1-2.1-0.2c-0.6-0.2-1-0.4-1.4-0.8
				c-0.3-0.4-0.6-0.9-0.7-1.5c-0.1-0.6-0.2-1.3-0.2-2.2v-7.7h-2.6v-3h2.6v-4.7l3.9-1V28h3.7v3h-3.7v6.7c0,1,0.1,1.6,0.4,2
				c0.3,0.3,0.7,0.5,1.4,0.5c0.7,0,1.2-0.1,1.7-0.2l0.3,3C238.9,43.2,238.3,43.3,237.7,43.4z"/>
			<path fill="#FFFFFF" d="M245.3,23.5c0,0.6-0.2,1.2-0.7,1.7c-0.5,0.5-1,0.7-1.7,0.7c-0.7,0-1.2-0.2-1.7-0.7
				c-0.5-0.5-0.7-1-0.7-1.7c0-0.6,0.2-1.2,0.7-1.7c0.5-0.5,1-0.7,1.7-0.7c0.7,0,1.2,0.2,1.7,0.7C245.1,22.2,245.3,22.8,245.3,23.5z
				 M240.9,43.2V28h3.9v15.1H240.9z"/>
			<path fill="#FFFFFF" d="M255.1,43.2h-4L245.5,28h4.2l2.4,6.8c0.4,1.1,0.7,2.2,1,3.3h0.1c0.1-0.5,0.3-1.1,0.4-1.6
				c0.2-0.5,0.3-1.1,0.5-1.6l2.4-6.9h4.1L255.1,43.2z"/>
			<path fill="#FFFFFF" d="M268.8,43.2c0-0.5,0-0.9,0-1.3c0-0.4,0.1-0.9,0.1-1.3l0,0c-0.4,0.9-1,1.6-1.8,2.1c-0.9,0.5-1.9,0.8-3,0.8
				c-1.4,0-2.4-0.4-3.2-1.2c-0.8-0.8-1.1-1.9-1.1-3.1c0-0.9,0.2-1.7,0.6-2.3c0.4-0.7,1-1.2,1.8-1.7c0.8-0.4,1.7-0.8,2.8-1
				c1.1-0.2,2.3-0.3,3.6-0.3v-0.8c0-0.8-0.2-1.4-0.7-1.8c-0.4-0.4-1.2-0.6-2.3-0.6c-0.7,0-1.4,0.1-2.2,0.3c-0.8,0.2-1.5,0.5-2.1,0.8
				l-0.7-3.1c0.8-0.3,1.7-0.5,2.6-0.7c1-0.2,2-0.3,3-0.3c1.2,0,2.2,0.1,3,0.4c0.8,0.2,1.4,0.6,1.9,1c0.5,0.4,0.8,1,1,1.6
				c0.2,0.6,0.3,1.3,0.3,2.1v6.5c0,0.6,0,1.3,0,1.9c0,0.7,0,1.3,0.1,2H268.8z M268.6,36.4c-1,0-1.8,0.1-2.5,0.2
				c-0.7,0.1-1.2,0.3-1.6,0.5c-0.4,0.2-0.6,0.5-0.8,0.7c-0.2,0.3-0.2,0.6-0.2,0.9c0,0.5,0.2,0.9,0.5,1.3c0.3,0.3,0.8,0.5,1.3,0.5
				c0.5,0,0.9-0.1,1.3-0.3c0.4-0.2,0.7-0.5,1-0.8c0.3-0.3,0.5-0.7,0.7-1.1c0.2-0.4,0.2-0.9,0.2-1.3V36.4z"/>
		</g>
	</g>
	<g>
		<path fill="#FFFFFF" d="M130.9,61L130.9,61c0,0-0.1-0.1-0.4-0.3c-0.4-0.3-0.8-0.5-1.1-0.6l0,0c0,0-1.5-0.6-1.5-0.6
			c-0.2-0.1-0.2-0.2-0.2-0.2c-0.1-0.2-0.2-0.4-0.3-0.5c-0.1-0.1-0.2-0.2-0.3-0.3c-0.7-0.5-2-1.4-2.2-1.5c-0.1,0-0.3-0.3-0.3-0.5l0,0
			c0,0,0,0,0,0c-0.2-0.5-0.8-0.7-1.2-0.7h0c-0.4,0-0.9,0-1.4-0.1c-0.8-0.3-1.8-0.3-2.7,0c-2.3,0.7-4.8,2.7-6.3,5.4
			c-1.4,2.3-3.1,4.8-3.3,5.1c-0.3,0.4-0.4,0.7-0.5,1c-0.1,0.3,0.1,0.5,0.3,0.7c0.8,0.5,1.9,0.8,3.2,0.7c0.7,0,1.1-0.2,1.5-0.5
			c0,0-0.1,0.3-0.1,0.4c0,0.1,0,0.1,0,0.2c0,0.3,0.3,0.4,0.6,0.6c0.6,0.3,2.1,0.6,3.4,0.4c0.4,0,0.7-0.3,0.9-0.7
			c0,0.5,0.1,0.8,0.6,1c1.2,0.6,4,0.4,4.6-0.1c0.2-0.1,0.3-0.4,0.3-0.6c0.1,0,0.1,0.1,0.2,0.2l0,0c0,0,0,0,0,0
			c1.1,0.6,2.9,0.2,3.6-0.3c0.4-0.3,0.4-0.6,0.4-0.8c0-0.2-0.2-0.4-0.4-0.5l0,0c0,0-0.4-0.3-0.4-0.3c-0.2-0.1-0.7-0.4-0.8-0.7
			c0,0,0,0,0-0.1c0.1-0.1,0.3-0.2,0.9,0.1c0.1,0.1,0.2,0.1,0.2,0.2c-0.1-0.1,0.2,0.2,0.5,0.2c0.2,0,0.3-0.1,0.4-0.1
			c0.5-0.3,1.3-1.1,1.3-2.2l0-0.1c0,0,0,0,0,0c0.4-0.5,0.6-1,0.6-1.5l0-0.2c0-0.2,0-0.5,0.2-0.9l0-0.1c0.1-0.2,0.1-0.3,0.1-0.4
			C131.2,61.4,131.1,61.2,130.9,61z M118.8,66.7c0,0.1,0,0.1,0,0.2c-0.3,1.8-0.9,2.1-1.1,2.1h0c-1.2,0.2-2.6-0.2-3.1-0.4
			c-0.1,0-0.5-0.2-0.2-0.6c0.5-0.9,0.6-1.1,0.7-1.4c0,0,0.4-1,1.6-3.9c1.3-2.9,3.4-3.8,4.2-3.9c0.2,0,1.1-0.1,1.3,0.2c0,0,0,0,0,0
			c0,0.1,0.5,0.8,0.5,0.9c0.2,0.3,0.3,0.6,0.3,1c0,0.2-0.1,0.2-0.2,0.2c-0.9-0.1-1.7,0.4-2.3,0.9c-0.5,0.5-1,1.2-1.3,2.3
			C119.1,65,119,65.7,118.8,66.7z M123.5,69.4c-0.4,0.3-2.9,0.5-4,0c-0.4-0.2-0.4-0.2-0.3-1c0.6-3.4,0.9-4.9,1.9-5.9
			c0.7-0.7,1.4-0.9,1.8-0.7c0,0,0.1,0,0.1,0.1c0,0.2-0.1,0.4-0.1,0.6c0,0.3,0,0.7,0.2,1c0.2,0.3,0.4,0.5,0.3,0.9
			c-0.3,0.8-0.6,1.6-0.6,2.5c0,0-0.1,0.7,0.5,1.8c0.1,0.1,0.3,0.5,0.3,0.6C123.6,69.2,123.6,69.3,123.5,69.4z M130.5,61.9
			c-0.2,0.6-0.3,1.1-0.3,1.2c-0.1,0.6-0.3,1-0.7,1.4c0.2,1.1-0.6,1.9-1,2.1c0,0-0.1,0.1-0.2,0.1c-0.1,0-0.1,0-0.1-0.1
			c-0.1-0.1-0.3-0.2-0.3-0.2c-1.3-0.6-1.8,0-1.6,0.5c0.2,0.5,0.7,0.8,0.9,1v0c0.3,0.2,0.4,0.3,0.5,0.3c0.1,0,0.1,0.1,0.1,0.1
			c0.1,0.5-2.1,1.2-3.3,0.6c-0.7-0.4-1-1.5-1.1-1.8c-0.1-0.8,0.1-1.5,0.3-2.2c0.2-0.3,0.4,0.1,0.6,0.2c0.9,0.6,1.9,0.6,3,0.5
			c0,0,0,0,0.1,0c0.3,0.1,0.8,0.3,1,0.4c0.1,0,0.1,0,0.1,0c0.1-0.1,0.5-0.4,0.5-1c0-0.2,0-0.3-0.1-0.5c-0.1-0.2-0.4-0.3-0.7-0.3
			c-0.2,0-0.3,0-0.4,0.1c0,0-0.1,0-0.1,0c-0.1-0.1,0-0.2,0.1-0.3c0.2-0.2,0.4-0.2,0.6-0.2c0.3,0,0.5,0,0.8,0.1
			c0.1,0,0.2-0.1,0.3-0.1c0.3-0.5,0.2-1.2,0.4-1.5l0.1-0.4c0-0.1,0-0.1,0-0.1c-0.4-0.3-1.1-0.6-1.4-0.7c0,0-1.8-0.8-1.9-0.8
			c-0.1,0-0.2-0.2-0.2-0.2s-0.3-0.6-0.3-0.7c0-0.1-0.1-0.1-0.1-0.1c-0.8-0.6-1.3-0.9-2.1-1.3c0,0-0.5-0.2-0.8-0.2
			c-0.2,0-0.4,0.2-0.5,0.3c-0.1,0.1-0.2,0.4-0.5,0.3c-1.3-0.5-2.7,0.4-2.7,0.4c-1,0.6-2.3,1.7-3.2,3.8c-0.4,1-0.8,1.7-1,2.3
			c0,0-0.4,1-0.6,1.3c-0.5,1.2-0.8,1.9-2.1,1.8c-1.3,0-2.1-0.2-2.7-0.5c-0.2-0.1-0.5-0.3-0.2-0.7c0.4-0.5,3.5-5.4,3.5-5.4
			c1.3-2.4,3.6-4.6,6-5.3c0.8-0.2,1.7-0.2,2.5,0c0.5,0.1,1,0.2,1.6,0.1c0.3,0,0.6,0.1,0.8,0.4c0.1,0.5,0.4,0.7,0.6,0.8
			c0,0,1.4,0.8,2.1,1.3c0.2,0.1,0.2,0.2,0.3,0.2c0.1,0.1,0.2,0.3,0.3,0.6c0.1,0.1,0.2,0.2,0.3,0.3c0.1,0,0,0,1.8,0.7
			c0.4,0.2,0.7,0.3,1.1,0.6c0,0,0.3,0.2,0.3,0.2C130.7,61.6,130.6,61.8,130.5,61.9z M124.8,60.3c0.2,0,0.5-0.1,0.9-0.2
			c0,0,0.1,0,0.1,0c0,0,0.3,0.1,0.4,0.2c0,0,0,0,0,0c0.1,0.1,0.1,0.3,0.1,0.5c0,0.1-0.1,0.3-0.1,0.3c-0.1,0.1-0.2-0.1-0.2-0.1
			c-0.1-0.2-0.3-0.3-0.4-0.4c-0.1,0-0.3,0-0.5,0c-0.2,0-0.2,0-0.3-0.1C124.7,60.5,124.6,60.3,124.8,60.3z"/>
		<rect x="170.9" y="55.9" fill="#FFFFFF" width="0.5" height="14.3"/>
		<path fill="#FFFFFF" d="M164.8,67.3c-0.1,0.1-0.1,0.3-0.3,0.4c-0.3,0.2-1.4,0.4-2.6,0.4c-3.1,0-5.2-2-5.2-5c0-2.7,2.2-4.8,5.2-4.8
			c1.6,0,2.8,0.6,3.2,0.8c0.1,0,0.1,0.1,0.1,0.2v0.9c0,0.1,0,0.1-0.1,0.1l-0.4,0.3c-0.2,0.1-0.7-1.5-2.8-1.5c-2,0-3.1,1.6-3.1,3.8
			c0,2.7,1.6,4.2,3.4,4.2c0.9,0,1.9-0.2,2.7-0.9c0.2-0.2,0.5,0,0.4,0.2L164.8,67.3z"/>
		<path fill="#FFFFFF" d="M149.2,64.2l1.4-3.7l1.4,3.7H149.2z M155.9,67.1c-0.7-0.2-0.8-0.2-1-0.9c-0.9-2.1-2-4.8-3-7.6
			c0-0.2-0.2-0.4-0.3-0.4h-2.3c-0.1,0-0.3,0-0.3,0.2l-0.1,0.2c-0.2,0.3,0.5,0.2,0.8,0.5c0.1,0.2,0.5,0.4,0.2,1l-2.3,6
			c-0.3,0.7-0.4,0.8-1,0.9c-0.2,0.1-0.3,0.1-0.4,0.2l-0.1,0.2c-0.1,0.3,0.2,0.3,0.4,0.3h2.1c0.2,0,0.2-0.2,0.3-0.2l0.1-0.1
			c0.2-0.3-0.9-0.2-0.6-0.9L149,65h3.4l1,2.6c0,0.1,0.2,0.2,0.3,0.2h1.9c0.2,0,0.3,0,0.3-0.1l0.1-0.3
			C156.1,67.3,156,67.2,155.9,67.1"/>
		<path fill="#FFFFFF" d="M185.2,67.3c-0.1,0.1-0.1,0.3-0.3,0.4c-0.3,0.2-1.4,0.4-2.6,0.4c-3.1,0-5.2-2-5.2-5c0-2.7,2.2-4.8,5.2-4.8
			c1.6,0,2.8,0.6,3.2,0.8c0.1,0,0.1,0.1,0.1,0.2v0.9c0,0.1,0,0.1-0.1,0.1l-0.4,0.3c-0.2,0.1-0.7-1.5-2.8-1.5c-2,0-3.1,1.6-3.1,3.8
			c0,2.7,1.6,4.2,3.4,4.2c0.9,0,1.9-0.2,2.7-0.9c0.2-0.2,0.5,0,0.4,0.2L185.2,67.3z"/>
		<path fill="#FFFFFF" d="M195.5,67.4c-0.5-0.3-1.6-1.8-2.9-3.9c1.3-0.6,1.9-1.7,1.9-2.8c0-1.6-1.3-2.3-2.5-2.3h-4.7
			c-0.1,0-0.2,0-0.2,0.2l-0.1,0.3c-0.1,0.2,0.1,0.2,0.3,0.3c0.6,0.1,0.9,0.3,0.9,0.9v6.5c0,0.5-0.4,0.7-0.7,0.8
			c-0.1,0-0.2,0-0.3,0.2l-0.1,0.2c-0.1,0.2,0.1,0.2,0.2,0.2h3.4c0.1,0,0.2,0,0.2-0.1l0.1-0.3c0.1-0.1,0-0.2-0.2-0.2
			c-0.7-0.1-0.9-0.2-0.9-0.8v-2.6h1l2.1,3.8c0.1,0.1,0.2,0.3,0.4,0.3h2V67.4z M189.9,59h1.1c0.8,0,1.5,0.4,1.5,1.8
			c0,1.5-0.8,2.2-1.7,2.2h-0.8V59"/>
		<path fill="#FFFFFF" d="M198.7,62.3h3.1c0.2,0,0.3,0.1,0.2,0.2l-0.2,0.4c-0.1,0.1-0.2,0.2-0.4,0.2h-2.6v2.6c0,1,0.2,1.3,1,1.3h1.1
			c1.3,0,1.5-1.1,1.7-1.1l0.3,0.1c0.1,0,0.1,0.1,0.1,0.1v1.3c0,0.2-0.3,0.3-0.6,0.3h-4.2c-1,0-1.3,0-1.3-0.9v-7
			c0-0.6-0.3-0.8-0.9-0.9c-0.2-0.1-0.3-0.1-0.3-0.3l0.1-0.3c0.1-0.1,0.2-0.2,0.2-0.2h5.9c0.3,0,0.4,0.1,0.4,0.3v1.1
			c0,0,0,0.1-0.1,0.1l-0.2,0.2c-0.2,0.2-0.4-0.9-1.3-0.9h-2V62.3z"/>
		<path fill="#FFFFFF" d="M205,66.9c0,0.4,0.1,0.6,0.4,0.7c0.7,0.2,1.6,0.3,3.3,0.3c3,0,5.1-2.3,5.1-5.1c0-2.7-1.2-4.5-5.1-4.5h-4.5
			c-0.1,0-0.2,0-0.2,0.2l-0.1,0.3c-0.1,0.2,0.1,0.2,0.3,0.3c0.6,0.1,0.9,0.3,0.9,0.9V66.9z M206.9,59.1h1.5c2.1,0,3.3,1.1,3.3,3.7
			c0,2.4-1,4.3-3.1,4.3c-1,0-1.7-0.2-1.7-1.3V59.1"/>
		<path fill="#FFFFFF" d="M220.3,58.1c-2.8,0-5.2,2-5.2,5c0,3,2.3,4.8,4.7,4.8c3.2,0,5.2-2.4,5.2-5.1
			C225,60.3,223.1,58.1,220.3,58.1z M220,59c1.5,0,2.9,1.2,2.9,4c0,1.8-0.8,4-2.8,4c-1.6,0-2.9-1.4-2.9-4.4
			C217.2,61.4,217.8,59,220,59"/>
		<path fill="#FFFFFF" d="M238,66.4c0,0.6,0.2,0.7,0.9,0.8c0.2,0,0.2,0.1,0.1,0.2l-0.1,0.3c0,0.1-0.1,0.1-0.2,0.1h-3.4
			c-0.1,0-0.2,0-0.2-0.2l0.1-0.2c0.1-0.2,0.2-0.2,0.3-0.2c0.3-0.1,0.7-0.3,0.7-0.8l-0.5-5.4h0l-3.2,6.6c-0.1,0.2-0.1,0.3-0.3,0.3
			h-0.4c-0.1,0-0.2-0.2-0.3-0.4l-3-6.5h0l-0.6,5.4c0,0.6,0.2,0.7,0.9,0.8c0.2,0,0.2,0.1,0.1,0.2l-0.1,0.3c0,0.1-0.1,0.1-0.2,0.1H226
			c-0.1,0-0.2,0-0.2-0.2l0.1-0.2c0.1-0.2,0.2-0.2,0.3-0.2c0.3-0.1,0.7-0.3,0.7-0.8l0.6-6.3c0-0.3-0.2-0.5-0.3-0.6
			c-0.3-0.3-0.6-0.5-0.8-0.5c-0.3-0.1-0.3-0.2-0.2-0.3l0.1-0.3c0-0.1,0.1-0.1,0.2-0.1h2.2c0.4,0,0.5,0.1,0.8,0.6l3.1,6.5l3.3-6.6
			c0.2-0.4,0.4-0.4,0.6-0.4h2.2c0.1,0,0.3,0,0.2,0.2l-0.1,0.3c-0.1,0.1-0.2,0.2-0.3,0.2c-0.4,0.1-0.7,0.3-0.7,0.8L238,66.4z"/>
		<path fill="#FFFFFF" d="M254.3,66.4c0,0.6,0.2,0.7,0.9,0.8c0.2,0,0.2,0.1,0.1,0.2l-0.1,0.3c0,0.1-0.1,0.1-0.2,0.1h-3.4
			c-0.1,0-0.2,0-0.2-0.2l0.1-0.2c0.1-0.2,0.2-0.2,0.3-0.2c0.3-0.1,0.7-0.3,0.7-0.8v-7.1h-3.2c-0.2,0-0.4-0.1-0.2-0.3l0.3-0.5
			c0.1-0.1,0.3-0.2,0.5-0.2h7.7c0.2,0,0.4,0.1,0.2,0.3l-0.3,0.5c-0.1,0.1-0.3,0.2-0.5,0.2h-2.6V66.4z"/>
		<path fill="#FFFFFF" d="M259.9,59.8c0-0.6-0.2-0.7-0.9-0.8c-0.2,0-0.2-0.1-0.1-0.2l0.1-0.3c0-0.1,0.1-0.1,0.2-0.1h3.4
			c0.1,0,0.2,0,0.2,0.2l-0.1,0.2c-0.1,0.2-0.2,0.2-0.3,0.2c-0.3,0.1-0.7,0.3-0.7,0.8v6.6c0,0.6,0.2,0.7,0.9,0.8
			c0.2,0,0.2,0.1,0.2,0.2l-0.1,0.3c0,0.1-0.1,0.1-0.2,0.1H259c-0.1,0-0.2,0-0.2-0.2l0.1-0.2c0.1-0.2,0.2-0.2,0.3-0.2
			c0.3-0.1,0.7-0.3,0.7-0.8V59.8z"/>
		<path fill="#FFFFFF" d="M272.1,67.3c-0.1,0.1-0.1,0.3-0.3,0.4c-0.3,0.2-1.4,0.4-2.6,0.4c-3.1,0-5.2-2-5.2-5c0-2.7,2.2-4.8,5.2-4.8
			c1.6,0,2.8,0.6,3.2,0.8c0.1,0,0.1,0.1,0.1,0.2v0.9c0,0.1,0,0.1-0.1,0.1l-0.4,0.3c-0.2,0.1-0.7-1.5-2.8-1.5c-2.1,0-3.1,1.6-3.1,3.8
			c0,2.7,1.6,4.2,3.4,4.2c0.9,0,1.9-0.2,2.7-0.9c0.2-0.2,0.5,0,0.4,0.2L272.1,67.3z"/>
		<path fill="#FFFFFF" d="M243.2,64.2l1.4-3.7l1.4,3.7H243.2z M249.8,67.1c-0.7-0.2-0.8-0.2-1-0.9c-0.9-2.1-2-4.8-3-7.6
			c0-0.2-0.2-0.4-0.3-0.4h-2.4c-0.1,0-0.3,0-0.3,0.2l-0.1,0.2c-0.2,0.3,0.4,0.2,0.8,0.5c0.1,0.2,0.5,0.4,0.2,1l-2.3,6
			c-0.3,0.7-0.4,0.8-1,0.9c-0.2,0.1-0.3,0.1-0.3,0.2l-0.1,0.2c-0.1,0.3,0.2,0.3,0.4,0.3h2.1c0.2,0,0.2-0.2,0.3-0.2l0.1-0.1
			c0.2-0.3-0.9-0.2-0.6-0.9l0.6-1.5l3.4,0l1,2.6c0,0.1,0.2,0.2,0.3,0.2h1.9c0.2,0,0.3,0,0.3-0.1l0.1-0.3
			C250.1,67.3,250,67.2,249.8,67.1"/>
		<path fill="#FFFFFF" d="M140.4,59h0.8c1.1,0,1.8,0.3,1.8,1.6c0,0.9-0.6,1.7-1.7,1.7h-0.8V59z M137.7,58.3c-0.1,0-0.2,0-0.2,0.2
			l-0.1,0.3c-0.1,0.2,0.1,0.2,0.3,0.2c0.6,0.1,0.9,0.3,0.9,0.9v7.1c0,0.4,0.1,0.6,0.4,0.7c0.7,0.2,1.6,0.3,2.9,0.3
			c1.9,0,3.8-0.8,3.8-2.9c0-0.9-0.7-2.3-2.6-2.5v0c1.2-0.4,2-1.2,1.9-2.2c-0.1-1.6-1.3-2-2.8-2H137.7 M140.4,63.1h0.8
			c1.4,0,2.2,0.8,2.2,2c0,1.3-0.6,2.1-1.7,2.1c-0.8,0-1.3-0.3-1.3-1.2V63.1"/>
		<path fill="#FFFFFF" d="M242.6,77.4v-4H242v1.2c0,0.2,0,0.3,0,0.5c0,0.2,0,0.4,0,0.6c0,0.2,0,0.4,0,0.6c0,0.2,0,0.3,0,0.4
			c-0.1-0.1-0.2-0.3-0.2-0.4c-0.1-0.2-0.2-0.3-0.3-0.4l-1.5-2.4h-0.7v4h0.5v-1.3c0-0.2,0-0.3,0-0.5c0-0.2,0-0.4,0-0.6
			c0-0.2,0-0.4,0-0.5c0-0.2,0-0.3,0-0.4c0.1,0.1,0.1,0.3,0.2,0.4c0.1,0.1,0.2,0.3,0.3,0.4l1.5,2.5H242.6z"/>
		<polygon fill="#FFFFFF" points="246.8,77.4 246.8,76.9 245.3,76.9 245.3,75.5 246.8,75.5 246.8,75.1 245.3,75.1 245.3,73.8 
			246.8,73.8 246.8,73.4 244.8,73.4 244.8,77.4 		"/>
		<polygon fill="#FFFFFF" points="251.3,73.8 251.3,73.4 248.4,73.4 248.4,73.8 249.6,73.8 249.6,77.4 250.1,77.4 250.1,73.8 		"/>
		<path fill="#FFFFFF" d="M256.9,77.4h-0.7l-0.8-2.7c0-0.1-0.1-0.2-0.1-0.4c0-0.1,0-0.2-0.1-0.3h0c0,0.2-0.1,0.5-0.1,0.7l-0.7,2.7
			h-0.7l-1.1-4h0.6l0.7,2.6c0,0.1,0.1,0.3,0.1,0.4c0,0.1,0,0.3,0.1,0.4h0c0-0.3,0.1-0.5,0.2-0.7l0.7-2.7h0.6l0.8,2.7
			c0,0.1,0.1,0.2,0.1,0.3c0,0.1,0.1,0.2,0.1,0.4h0c0-0.1,0-0.2,0.1-0.3c0-0.1,0-0.2,0.1-0.3l0.7-2.7h0.5L256.9,77.4z"/>
		<path fill="#FFFFFF" d="M263,74.5c-0.1-0.3-0.2-0.5-0.4-0.6c-0.2-0.2-0.3-0.3-0.6-0.4c-0.2-0.1-0.5-0.1-0.7-0.1
			c-0.3,0-0.5,0-0.7,0.1c-0.2,0.1-0.4,0.2-0.6,0.4c-0.2,0.2-0.3,0.4-0.4,0.7c-0.1,0.3-0.1,0.6-0.1,0.9c0,0.3,0,0.6,0.1,0.8
			c0.1,0.3,0.2,0.5,0.3,0.6c0.1,0.2,0.3,0.3,0.6,0.4c0.2,0.1,0.5,0.1,0.8,0.1c0.3,0,0.5,0,0.7-0.1c0.2-0.1,0.4-0.2,0.6-0.4
			c0.2-0.2,0.3-0.4,0.4-0.7c0.1-0.3,0.2-0.6,0.2-0.9C263.1,75,263,74.7,263,74.5z M262.4,76.1c-0.1,0.2-0.2,0.4-0.3,0.5
			c-0.1,0.1-0.3,0.2-0.4,0.3c-0.2,0.1-0.3,0.1-0.5,0.1c-0.2,0-0.4,0-0.6-0.1c-0.2-0.1-0.3-0.2-0.4-0.3c-0.1-0.1-0.2-0.3-0.2-0.5
			c-0.1-0.2-0.1-0.4-0.1-0.7c0-0.3,0-0.5,0.1-0.7c0.1-0.2,0.2-0.4,0.3-0.5c0.1-0.1,0.2-0.2,0.4-0.3c0.2-0.1,0.3-0.1,0.5-0.1
			c0.4,0,0.7,0.1,0.9,0.4c0.2,0.3,0.3,0.7,0.3,1.2C262.5,75.7,262.5,75.9,262.4,76.1"/>
		<path fill="#FFFFFF" d="M266.5,75c-0.2,0.1-0.4,0.2-0.7,0.2c-0.1,0-0.2,0-0.2,0c-0.1,0-0.1,0-0.1,0v-1.4c0.1,0,0.1,0,0.2,0
			c0.1,0,0.1,0,0.2,0c0.3,0,0.5,0.1,0.7,0.2c0.2,0.1,0.2,0.3,0.2,0.5C266.7,74.7,266.6,74.9,266.5,75z M267.6,77.4l-1.1-1.4
			c-0.1-0.1-0.1-0.1-0.2-0.2c-0.1-0.1-0.1-0.1-0.2-0.2c0.2,0,0.3,0,0.5-0.1c0.1-0.1,0.3-0.1,0.4-0.2c0.1-0.1,0.2-0.2,0.3-0.3
			c0.1-0.1,0.1-0.3,0.1-0.5c0-0.2,0-0.4-0.1-0.5c-0.1-0.1-0.2-0.2-0.3-0.3c-0.1-0.1-0.3-0.1-0.4-0.2c-0.2,0-0.3-0.1-0.5-0.1
			c-0.2,0-0.4,0-0.6,0c-0.2,0-0.3,0-0.4,0v4h0.6v-1.8h0.1l1.3,1.8H267.6"/>
		<polygon fill="#FFFFFF" points="271.5,77.4 269.9,75.4 269.9,77.4 269.4,77.4 269.4,73.4 269.9,73.4 269.9,75.3 271.5,73.4 
			272.2,73.4 270.5,75.3 272.3,77.4 		"/>
	</g>
</g>
<g>
</g>
<g>
</g>
<g>
</g>
<g>
</g>
<g>
</g>
<g>
</g>
<g>
</g>
<g>
</g>
<g>
</g>
<g>
</g>
<g>
</g>
<g>
</g>
<g>
</g>
<g>
</g>
<g>
</g>
</svg>
