<?xml version="1.0" encoding="utf-8"?>
<!-- Generator: Adobe Illustrator 18.0.0, SVG Export Plug-In . SVG Version: 6.00 Build 0)  -->
<!DOCTYPE svg PUBLIC "-//W3C//DTD SVG 1.1//EN" "http://www.w3.org/Graphics/SVG/1.1/DTD/svg11.dtd">
<svg version="1.1" id="Layer_1" xmlns="http://www.w3.org/2000/svg" xmlns:xlink="http://www.w3.org/1999/xlink" x="0px" y="0px"
	 viewBox="0 0 31.8 31.8" enable-background="new 0 0 31.8 31.8" xml:space="preserve">
<g>
	<rect x="0" y="0" opacity="0.7" fill="#404041" width="31.8" height="31.8"/>
	<g>
		<g>
			<path fill="#FFFFFF" d="M23.9,10.2H8.3c-0.4,0-0.7-0.3-0.7-0.8c0-0.4,0.3-0.8,0.7-0.8h15.6c0.4,0,0.8,0.3,0.8,0.8
				C24.7,9.9,24.3,10.2,23.9,10.2L23.9,10.2z"/>
		</g>
		<g>
			<path fill="#FFFFFF" d="M18.1,9.8c-0.2-0.9-1-1.6-1.9-1.6c-0.9,0-1.8,0.7-1.9,1.6l-1.5-0.3c0.3-1.6,1.8-2.8,3.4-2.8
				c1.6,0,3.1,1.2,3.4,2.8L18.1,9.8L18.1,9.8z"/>
		</g>
		<g>
			<path fill="#FFFFFF" d="M11.1,24.7c-0.8,0-1.4-0.6-1.5-1.5l-0.8-13c0-0.4,0.3-0.8,0.7-0.8c0.4,0,0.8,0.3,0.8,0.7l0.8,13l10.1,0
				l0.8-13.1c0-0.4,0.4-0.7,0.8-0.7c0.4,0,0.7,0.4,0.7,0.8l-0.8,13c-0.1,0.8-0.7,1.5-1.5,1.5h0H11.1L11.1,24.7z"/>
		</g>
		<g>
			<g>
				<path fill="#FFFFFF" d="M13.3,21.9c-0.4,0-0.7-0.3-0.7-0.7L12,12.3c0-0.4,0.3-0.8,0.7-0.8c0.4,0,0.8,0.3,0.8,0.7l0.5,8.9
					C14,21.6,13.7,21.9,13.3,21.9C13.3,21.9,13.3,21.9,13.3,21.9L13.3,21.9z"/>
			</g>
			<g>
				<path fill="#FFFFFF" d="M19,21.9C18.9,21.9,18.9,21.9,19,21.9c-0.5,0-0.8-0.4-0.8-0.8l0.5-8.9c0-0.4,0.4-0.7,0.8-0.7
					c0.4,0,0.7,0.4,0.7,0.8l-0.5,8.9C19.7,21.6,19.4,21.9,19,21.9L19,21.9z"/>
			</g>
		</g>
		<g>
			<path fill="#FFFFFF" d="M16.1,21.9c-0.4,0-0.8-0.3-0.8-0.8v-8.9c0-0.4,0.3-0.8,0.8-0.8c0.4,0,0.8,0.3,0.8,0.8v8.9
				C16.9,21.6,16.5,21.9,16.1,21.9L16.1,21.9z"/>
		</g>
	</g>
</g>
<g>
</g>
<g>
</g>
<g>
</g>
<g>
</g>
<g>
</g>
<g>
</g>
<g>
</g>
<g>
</g>
<g>
</g>
<g>
</g>
<g>
</g>
<g>
</g>
<g>
</g>
<g>
</g>
<g>
</g>
</svg>
